<svg id="Слой_1" data-name="Слой 1" xmlns="http://www.w3.org/2000/svg" viewBox="0 0 36 36"><defs><style>.cls-1{fill:none;stroke:#fff;stroke-miterlimit:10;stroke-width:2px;}.cls-2{fill:#fff;}</style></defs><title>en</title><circle class="cls-1" cx="18" cy="18" r="17"/><path class="cls-2" d="M16,22.25a.43.43,0,0,1,.32.14.48.48,0,0,1,.14.34V24a.48.48,0,0,1-.14.34.43.43,0,0,1-.32.14H8.54a.43.43,0,0,1-.32-.14A.48.48,0,0,1,8.08,24V12.39A.48.48,0,0,1,8.22,12a.43.43,0,0,1,.32-.14h7.35a.43.43,0,0,1,.32.14.48.48,0,0,1,.14.34v1.28a.48.48,0,0,1-.14.34.43.43,0,0,1-.32.14H10.38V17h5.13a.43.43,0,0,1,.32.14.48.48,0,0,1,.14.34v1.28a.48.48,0,0,1-.14.34.43.43,0,0,1-.32.14H10.38v3Z"/><path class="cls-2" d="M26.35,24.5a.58.58,0,0,1-.44-.16l-.22-.25L20.91,16.6V24a.49.49,0,0,1-.14.34.43.43,0,0,1-.32.14H19.06a.43.43,0,0,1-.32-.14A.48.48,0,0,1,18.6,24V12.39a.48.48,0,0,1,.14-.34.43.43,0,0,1,.32-.14h1.19a.58.58,0,0,1,.44.16l.22.25L25.7,19.8V12.39a.48.48,0,0,1,.14-.34.43.43,0,0,1,.32-.14h1.38a.43.43,0,0,1,.32.14.49.49,0,0,1,.14.34V24a.49.49,0,0,1-.14.34.43.43,0,0,1-.32.14Z"/></svg>