<?xml version="1.0" encoding="utf-8"?>
<!-- Generator: Adobe Illustrator 24.1.2, SVG Export Plug-In . SVG Version: 6.00 Build 0)  -->
<svg version="1.1" id="Слой_1" xmlns="http://www.w3.org/2000/svg" xmlns:xlink="http://www.w3.org/1999/xlink" x="0px" y="0px"
	 viewBox="0 0 200 171.9" style="enable-background:new 0 0 200 171.9;" xml:space="preserve">
<style type="text/css">
	.st0{opacity:0.5;fill:#66CCFF;enable-background:new    ;}
	.st1{opacity:0.3;fill:#66CCFF;enable-background:new    ;}
	.st2{display:none;}
	.st3{display:inline;}
	.st4{fill:#999999;}
	.st5{display:inline;fill:#999999;}
	.st6{fill:none;stroke:#CCCCCC;stroke-width:0.5296;stroke-miterlimit:10;}
	.st7{fill:none;}
	.st8{fill:#666666;}
	.st9{font-family:'Roboto-Regular';}
	.st10{font-size:12px;}
</style>
<g id="Слой_2_1_">
	<circle class="st0" cx="136.2" cy="59.1" r="39.4"/>
	<circle class="st1" cx="94.4" cy="72.8" r="33"/>
</g>
<g id="Слой_1_1_">
	<g>
		<g class="st2">
			<g class="st3">
				<path class="st4" d="M8.1,49l-4.8,0.1L3.5,49c0.2,6,0.3,12,0.4,18l0.3,18l0.3,18l0.2,18l-1.3-1.3l19.2-0.1
					c6.4-0.1,12.8-0.1,19.2-0.1h-0.1c0.3,0,0.4,0,0.7,0c0.2,0,0.4,0,0.6,0.1c0.4,0.1,0.8,0.1,1.1,0.2c0.8,0.2,1.5,0.5,2.2,1
					s1.3,1,1.8,1.7c0.5,0.6,0.8,1.4,1.1,2.1l-0.1-0.1c0,0,0.1,0.1,0.2,0.1c0.1,0.1,0.3,0.2,0.6,0.3c0.4,0.2,1,0.4,1.6,0.5
					c1.1,0.3,2.4,0.4,3.7,0.4c1.3,0.1,2.5,0,3.7-0.2c0.6-0.1,1.2-0.2,1.8-0.3c0.6-0.1,1.1-0.3,1.3-0.5c-0.1,0.1,0.3-0.2,0.4-0.4
					c0.2-0.2,0.4-0.4,0.5-0.7c0.4-0.5,0.7-1,1.1-1.7c0.4-0.6,0.8-1.2,1.5-1.8c0.4-0.3,0.8-0.6,1.4-0.8c0.3-0.1,0.6-0.1,1-0.2h0.5
					l8-0.2c10.7-0.3,21.3-0.5,31.9-0.8l-1.3,1.3l-0.1-17.6V84l0.1-17.6c0.1-5.8,0.1-11.7,0.2-17.6l0.1,0.1l-4-0.1l4-0.1
					c0.1,0,0.1,0.1,0.1,0.1l0,0c0.3,5.8,0.4,11.7,0.7,17.6l0.6,17.6l0.5,17.6l0.4,17.6c0,0.7-0.6,1.3-1.3,1.3l0,0
					c-10.7,0.4-21.3,0.8-31.9,1.1l-8,0.3h-0.5c0,0,0,0-0.1,0c0,0-0.1,0.1-0.3,0.2c-0.3,0.3-0.6,0.8-1,1.3c-0.4,0.5-0.7,1.1-1.1,1.7
					c-0.2,0.3-0.4,0.6-0.6,0.9c-0.1,0.1-0.3,0.3-0.4,0.4c-0.1,0.1-0.4,0.4-0.6,0.6c-0.9,0.6-1.7,0.8-2.3,1c-0.8,0.2-1.5,0.3-2.2,0.4
					c-1.4,0.2-2.8,0.3-4.2,0.2c-1.4-0.1-2.8-0.2-4.3-0.4c-0.7-0.1-1.5-0.4-2.2-0.7c-0.4-0.2-0.8-0.4-1.1-0.7
					c-0.4-0.3-0.8-0.7-1.1-1.3l-0.1-0.1c-0.2-0.4-0.4-0.9-0.7-1.3c-0.3-0.4-0.6-0.7-1-1c-0.4-0.3-0.8-0.4-1.3-0.6
					c-0.3-0.1-0.5-0.1-0.7-0.1c-0.1,0-0.3,0-0.4,0s-0.3,0-0.3,0h-0.1c-6.4,0-12.8,0-19.2-0.1l-19.2-0.1l0,0c-0.8,0-1.3-0.6-1.3-1.3
					l0,0l0.2-18l0.3-18l0.3-18C2.9,61,3,55,3.2,49l0,0c0-0.1,0.1-0.1,0.1-0.1L8.1,49z"/>
			</g>
			<g class="st3">
				<path class="st4" d="M55.8,114.4c-0.1-5.3-0.1-10.6-0.3-15.9c-0.1-5.2-0.3-10.4-0.4-15.5c-0.1-5.1-0.3-10.2-0.4-15.2l-0.3-15.1
					v0.2c0-0.1-0.1-0.3-0.1-0.5c-0.1-0.2-0.1-0.4-0.2-0.6c-0.1-0.4-0.3-0.8-0.5-1.1c-0.4-0.7-0.9-1.3-1.5-1.8c-0.6-0.6-1.3-1-2-1.4
					c-0.4-0.1-0.8-0.3-1.1-0.4s-0.8-0.3-1.2-0.3l-1.3-0.2l-1.3-0.1c-0.9-0.1-1.8-0.1-2.8-0.1h-5.6c-7.5,0-15,0.1-22.5,0.2l1.6-1.6
					l-0.1,15.6c0,5.2,0,10.4-0.1,15.6l-0.1,15.6l-0.2,15.6l-1.1-1.1l11.1,0.3c3.7,0.1,7.4,0.2,11.1,0.3l11.1,0.4h0.7
					c0.1,0,0.2,0,0.4,0c0.1,0,0.3,0.1,0.4,0.1c0.5,0.1,1,0.3,1.3,0.5c0.9,0.4,1.7,1,2.3,1.7C54.2,111,55.1,112.7,55.8,114.4z
					 M55.8,114.4c-0.8-1.7-1.8-3.2-3.2-4.4c-0.7-0.6-1.5-1.1-2.3-1.4c-0.4-0.2-0.8-0.3-1.3-0.4c-0.1,0-0.2-0.1-0.3-0.1
					c-0.1,0-0.2,0-0.3,0h-0.7l-11.1,0.2c-3.7,0.1-7.4,0.1-11.1,0.1l-11.1,0.1c-0.6,0-1.1-0.5-1.1-1.1l0,0l-0.2-15.6L13,76.3
					c-0.1-5.2-0.1-10.4-0.1-15.6L12.8,45c0-0.9,0.7-1.6,1.6-1.6c7.5-0.1,15-0.2,22.5-0.1c1.9,0,3.7,0.1,5.7,0.1c1,0,1.8,0.1,2.9,0.1
					l1.5,0.1c0.5,0.1,1,0.2,1.5,0.3c0.5,0.1,1,0.3,1.5,0.4c0.5,0.2,1,0.4,1.5,0.6c1,0.5,1.8,1.1,2.6,1.8c0.8,0.8,1.5,1.6,2,2.5
					c0.3,0.4,0.5,1,0.7,1.5c0.1,0.3,0.2,0.5,0.3,0.8c0.1,0.3,0.1,0.5,0.2,0.9c0,0.1,0,0.1,0,0.2l-0.3,15.7
					c-0.1,5.3-0.3,10.5-0.4,15.6c-0.1,5.1-0.3,10.2-0.4,15.3C55.9,104.5,55.9,109.4,55.8,114.4z"/>
			</g>
			<g class="st3">
				<path class="st4" d="M55.8,114.4c-0.1-5-0.1-10-0.3-15c-0.1-5.1-0.3-10.2-0.4-15.3C55,79,54.8,73.8,54.7,68.5l-0.3-15.7
					c0-0.1,0-0.1,0-0.2c0.1-0.4,0.1-0.6,0.2-0.9c0.1-0.3,0.2-0.5,0.3-0.8c0.2-0.5,0.4-1,0.7-1.5c0.5-1,1.2-1.8,2-2.5
					c0.8-0.8,1.7-1.3,2.6-1.8c0.5-0.2,1-0.4,1.5-0.6c0.5-0.1,1-0.3,1.5-0.4c0.5-0.1,1-0.2,1.5-0.3l1.5-0.1c1-0.1,1.9-0.1,2.9-0.1
					c1.9-0.1,3.7-0.1,5.7-0.1c7.5-0.1,15,0,22.5,0.1c0.9,0,1.6,0.7,1.6,1.6l-0.1,15.6c0,5.2,0,10.4-0.1,15.6l-0.1,15.6l-0.2,15.6
					v0.1c0,0.6-0.5,1.1-1.1,1.1l-11.1-0.1c-3.7-0.1-7.4-0.1-11.1-0.1L64,108.1h-0.7c-0.1,0-0.3,0-0.3,0c-0.1,0-0.2,0-0.3,0.1
					c-0.4,0.1-0.8,0.2-1.3,0.4c-0.8,0.3-1.6,0.8-2.3,1.4C57.7,111.2,56.6,112.7,55.8,114.4z M55.8,114.4c0.7-1.7,1.7-3.4,3-4.7
					c0.7-0.6,1.5-1.2,2.3-1.7c0.4-0.2,0.9-0.4,1.3-0.5c0.1,0,0.3-0.1,0.4-0.1c0.2,0,0.3,0,0.4,0H64l11.1-0.4
					c3.7-0.1,7.4-0.3,11.1-0.3l11.1-0.3l-1.1,1.1L96,92l-0.1-15.6c-0.1-5.2-0.1-10.4-0.1-15.6l-0.1-15.6l1.6,1.6
					c-7.5-0.1-15-0.2-22.5-0.2h-5.6c-1,0-1.9,0-2.8,0.1l-1.3,0.1L64,46.8c-0.4,0.1-0.8,0.3-1.2,0.3c-0.4,0.1-0.8,0.3-1.1,0.4
					c-0.7,0.4-1.4,0.8-2,1.4c-0.6,0.5-1.1,1.1-1.5,1.8c-0.2,0.3-0.4,0.7-0.5,1.1c-0.1,0.2-0.1,0.4-0.2,0.6c-0.1,0.2-0.1,0.4-0.1,0.5
					v-0.2L57,67.9c-0.1,5-0.3,10.1-0.4,15.2c-0.1,5.1-0.3,10.3-0.4,15.5C55.9,103.8,55.9,109.1,55.8,114.4z"/>
			</g>
			<g class="st3">
				<path class="st4" d="M24.8,62.3c1.5-0.6,3-1,4.6-1.3c1.5-0.3,3-0.3,4.6-0.3c1.5,0,3,0.1,4.6,0.3c1.5,0.3,3,0.6,4.6,1.3
					c-1.5,0.6-3,1-4.6,1.3c-1.5,0.3-3,0.3-4.6,0.3c-1.5,0-3-0.1-4.6-0.3C27.9,63.3,26.4,63,24.8,62.3z"/>
			</g>
			<g class="st3">
				<path class="st4" d="M24.8,75.7c1.5-0.6,3-1,4.6-1.3c1.5-0.3,3-0.3,4.6-0.3c1.5,0,3,0.1,4.6,0.3c1.5,0.3,3,0.6,4.6,1.3
					c-1.5,0.6-3,1-4.6,1.3c-1.5,0.3-3,0.3-4.6,0.3c-1.5,0-3-0.1-4.6-0.3C27.9,76.7,26.4,76.4,24.8,75.7z"/>
			</g>
			<g class="st3">
				<path class="st4" d="M24.8,87.3c0.8-0.6,1.7-1,2.5-1.3c0.8-0.3,1.7-0.3,2.5-0.3c0.8,0,1.7,0.1,2.5,0.3c0.8,0.3,1.7,0.6,2.5,1.3
					c-0.8,0.6-1.7,1-2.5,1.3c-0.8,0.3-1.7,0.3-2.5,0.3c-0.8,0-1.7-0.1-2.5-0.3C26.5,88.3,25.7,88,24.8,87.3z"/>
			</g>
			<g class="st3">
				<path class="st4" d="M69.5,62.3c1.5-0.6,3-1,4.6-1.3c1.5-0.3,3-0.3,4.6-0.3c1.5,0,3,0.1,4.6,0.3c1.5,0.3,3,0.6,4.6,1.3
					c-1.5,0.6-3,1-4.6,1.3c-1.5,0.3-3,0.3-4.6,0.3c-1.5,0-3-0.1-4.6-0.3C72.6,63.3,71.1,63,69.5,62.3z"/>
			</g>
			<g class="st3">
				<path class="st4" d="M68.3,75.7c0.9-0.6,1.7-1,2.6-1.3c0.9-0.3,1.7-0.3,2.6-0.3c0.9,0,1.7,0.1,2.6,0.3c0.9,0.3,1.7,0.6,2.6,1.3
					c-0.9,0.6-1.7,1-2.6,1.3c-0.9,0.3-1.7,0.3-2.6,0.3s-1.7-0.1-2.6-0.3C70.1,76.7,69.2,76.4,68.3,75.7z"/>
			</g>
		</g>
		<g class="st2">
			<g class="st3">
				<g>
					<path class="st4" d="M47.1,101.6c-4.8,0.6-9.7,0.3-14.4-0.9c-2.3-0.6-4.7-1.3-6.9-2.4c-2.2-1-4.3-2.3-6.3-3.9
						c-2-1.5-3.7-3.3-5.2-5.3c-1.5-2-2.8-4.1-3.9-6.4c-2.1-4.5-3.2-9.4-3.8-14.2l0,0c0-0.1,0-0.1,0-0.1l0.1-3.5
						c0.1-1.1,0.3-2.3,0.5-3.5c0.3-1.1,0.6-2.3,0.9-3.4l1.2-3.3c1.8-4.3,4.5-8.3,7.9-11.6c3.4-3.2,7.4-5.8,11.8-7.5
						c4.4-1.7,9.1-2.3,13.8-2.2c4.7,0.2,9.3,1.4,13.5,3.4c4.2,2,8,4.9,10.9,8.5c1.5,1.8,2.7,3.7,3.7,5.8c1,2.1,1.8,4.3,2.3,6.4
						c0.6,2.2,0.9,4.4,1.1,6.7c0.1,2.3,0.1,4.5-0.1,6.7c0-2.2-0.2-4.5-0.4-6.7c-0.3-2.2-0.8-4.4-1.5-6.5c-1.3-4.2-3.6-8.1-6.5-11.3
						c-2.9-3.2-6.5-5.7-10.5-7.5c-2-0.9-4.1-1.5-6.2-2c-2.1-0.5-4.3-0.8-6.4-0.8c-1.1-0.1-2.2,0.1-3.2,0.1c-1.1,0-2.2,0.3-3.2,0.4
						c-1.1,0.1-2.1,0.4-3.1,0.7c-1.1,0.3-2,0.6-3,1c-4,1.5-7.7,3.9-10.7,6.9c-3,3-5.6,6.5-7.3,10.5l-1.1,3L10.2,62l-0.5,3.2
						l-0.2,3.2v-0.1c0.4,4.6,1.5,9.2,3.2,13.5c1.8,4.3,4.6,8.1,8,11.2c3.5,3,7.7,5.3,12.3,6.7C37.6,100.9,42.4,101.6,47.1,101.6z"/>
				</g>
				<g>
					<path class="st4" d="M9.6,66.1c1.8-2.3,4.1-4.2,6.4-6c2.3-1.8,4.9-3.3,7.6-4.6c5.3-2.6,11.2-4.1,17.2-4.4
						c0.8,0,1.5-0.1,2.2-0.1l2.2,0.1c1.5,0.1,3,0.3,4.4,0.5c1.5,0.2,2.9,0.6,4.4,1c0.7,0.2,1.4,0.4,2.2,0.6c0.7,0.3,1.4,0.4,2.1,0.8
						c5.5,2.2,10.6,5.3,14.9,9.1c-5.1-2.8-10.4-5.2-15.7-6.8c-0.7-0.3-1.3-0.4-2-0.6c-0.7-0.2-1.3-0.4-2-0.5
						c-1.4-0.3-2.7-0.6-4.1-0.7c-2.8-0.4-5.6-0.5-8.4-0.4s-5.6,0.5-8.3,1.1s-5.4,1.5-8.1,2.4c-2.6,1-5.2,2.2-7.7,3.6
						C14.3,62.8,11.9,64.4,9.6,66.1z"/>
				</g>
				<g>
					<path class="st4" d="M29.1,43c-1.7,4.9-2.8,9.9-3.2,14.9c-0.4,5-0.1,10,1.4,14.6c0.8,2.3,1.8,4.5,3.1,6.6
						c1.3,2.1,2.9,3.9,4.6,5.8c3.6,3.5,7.7,6.4,12.3,9c-5-1.3-9.8-3.7-13.9-7.1c-2-1.7-3.9-3.7-5.5-5.9c-1.5-2.2-2.7-4.7-3.6-7.3
						c-1.7-5.2-1.8-10.7-0.8-15.9S26.3,47.3,29.1,43z"/>
				</g>
				<g>
					<path class="st4" d="M43.3,39.8"/>
				</g>
				<g>
					<path class="st4" d="M42.9,41.1c1.3,0.4,2.5,1,3.7,1.7c1.1,0.8,2.2,1.6,3.2,2.6c2,2,3.5,4.3,4.5,7c1,2.6,1.4,5.5,1.1,8.3
						c-0.3,2.7-1,5.4-2.3,7.7c0.1-2.7,0.1-5.3-0.1-7.7c-0.3-2.5-0.8-4.9-1.7-7.1c-0.8-2.3-2-4.4-3.4-6.5C46.5,45,44.8,43,42.9,41.1z
						"/>
				</g>
				<g>
					<path class="st4" d="M31.8,93.8c0.2-1,0.6-1.6,1-2.2c0.4-0.6,1-1.1,1.5-1.5c0.6-0.4,1.2-0.7,1.8-0.9c0.7-0.2,1.5-0.3,2.4-0.1
						c-0.2,1-0.6,1.6-1,2.2c-0.4,0.6-1,1.1-1.5,1.5c-0.6,0.4-1.2,0.7-1.8,0.9C33.5,93.8,32.7,93.9,31.8,93.8z"/>
				</g>
				<g>
					<path class="st4" d="M17.5,69.8c0,2.1-0.8,4.2-2.2,5.8c-1.4,1.7-3.5,2.7-5.8,3c-1.1,0.1-2.3,0-3.5-0.4c-1.1-0.4-2.2-1-3.1-1.8
						c-1.8-1.6-3-4.1-3-6.6c0-2.5,1.1-5,3-6.6c0.9-0.8,2-1.4,3.1-1.8c1.1-0.4,2.3-0.5,3.5-0.4c2.3,0.2,4.4,1.3,5.8,3
						C16.8,65.6,17.6,67.7,17.5,69.8z M17.5,69.8c0-2.1-1-4.2-2.5-5.5c-0.8-0.7-1.7-1.1-2.6-1.5c-1-0.3-1.9-0.4-2.9-0.3
						c-1.9,0.2-3.6,1.2-4.7,2.5c-1.1,1.3-1.7,3-1.7,4.7c0,1.7,0.6,3.4,1.7,4.7c1.1,1.3,2.8,2.3,4.7,2.5c1,0.1,1.9,0,2.9-0.3
						c1-0.3,1.8-0.8,2.6-1.5C16.6,73.9,17.6,71.9,17.5,69.8z"/>
				</g>
				<g>
					<path class="st4" d="M43.5,38.2c0,2.1-0.8,4.2-2.2,5.8c-1.4,1.7-3.5,2.7-5.8,3c-1.1,0.1-2.3,0-3.5-0.4c-1.1-0.4-2.2-1-3.1-1.8
						c-1.8-1.6-3-4.1-3-6.6c0-2.5,1.1-5,3-6.6c0.9-0.8,2-1.4,3.1-1.8c1.1-0.4,2.3-0.5,3.5-0.4c2.3,0.2,4.4,1.3,5.8,3
						C42.7,34,43.5,36.1,43.5,38.2z M43.5,38.2c0-2.1-1-4.2-2.5-5.5c-0.8-0.6-1.7-1.1-2.6-1.4c-1-0.3-1.9-0.4-2.9-0.3
						c-1.9,0.2-3.6,1.2-4.7,2.5s-1.7,3-1.7,4.7c0,1.7,0.6,3.4,1.7,4.7s2.8,2.3,4.7,2.5c1,0.1,1.9,0,2.9-0.3c1-0.3,1.8-0.8,2.6-1.5
						C42.5,42.4,43.5,40.3,43.5,38.2z"/>
				</g>
				<g>
					<path class="st4" d="M61.1,54.2c0,2.1-0.8,4.2-2.2,5.8c-1.4,1.7-3.5,2.7-5.8,3c-1.1,0.1-2.3,0-3.5-0.4c-1.1-0.4-2.2-1-3.1-1.8
						c-1.8-1.6-3-4.1-3-6.6c0-2.5,1.1-5,3-6.6c0.9-0.8,2-1.4,3.1-1.8c1.1-0.4,2.3-0.5,3.5-0.4c2.3,0.2,4.4,1.3,5.8,3
						C60.3,50,61.1,52.1,61.1,54.2z M61.1,54.2c0-2.1-1-4.2-2.5-5.5C57.9,48,57,47.5,56,47.2c-1-0.3-1.9-0.4-2.9-0.3
						c-1.9,0.2-3.6,1.2-4.7,2.5c-1.1,1.3-1.7,3-1.7,4.7c0,1.7,0.6,3.4,1.7,4.7c1.1,1.3,2.8,2.3,4.7,2.5c1,0.1,1.9,0,2.9-0.3
						c1-0.3,1.8-0.8,2.6-1.5C60.1,58.3,61.1,56.3,61.1,54.2z"/>
				</g>
				<g>
					<path class="st4" d="M32.3,96c0.2,2.1-0.4,4.3-1.7,6c-1.3,1.7-3.2,3-5.5,3.5c-1.1,0.2-2.3,0.2-3.5-0.1
						c-1.1-0.3-2.3-0.8-3.3-1.5c-2-1.5-3.3-3.8-3.6-6.4c-0.3-2.5,0.7-5.1,2.3-6.9c0.8-0.9,1.9-1.6,3-2c1.1-0.4,2.3-0.7,3.4-0.7
						c2.3,0,4.5,1,6,2.5C31.2,91.9,32.1,93.9,32.3,96z M32.3,96c-0.2-2.1-1.3-4.1-3-5.3c-0.8-0.6-1.8-1-2.7-1.2s-2-0.2-2.9,0
						c-1.8,0.4-3.4,1.5-4.4,2.9c-1,1.4-1.5,3.1-1.3,4.8c0.1,1.7,0.9,3.3,2.1,4.5c1.2,1.2,3,2,4.9,2.1c1,0,1.9-0.1,2.9-0.5
						c0.9-0.4,1.8-1,2.5-1.7C31.8,100.2,32.5,98.1,32.3,96z"/>
				</g>
			</g>
			<g class="st3">
				<path class="st4" d="M60.7,86.4c-0.5,1.3-1.1,2.5-1.7,3.7c-0.6,1.3-1.1,2.5-1.7,3.7c-0.6,1.2-1.2,2.5-1.8,3.7
					c-0.6,1.2-1.2,2.4-1.8,3.6l0.1-1c1.2,3.2,2.9,6.1,5,8.6c2.1,2.5,4.7,4.6,7.6,6.2c2.9,1.5,6.1,2.5,9.4,2.7c3.3,0.3,6.7-0.1,9.9-1
					l-0.6,0.4l2.3-3c0.8-1,1.6-2,2.3-3c1.6-2,3.2-3.9,4.9-5.8c-1.2,2.2-2.5,4.4-3.7,6.6c-0.6,1.1-1.3,2.2-2,3.2l-2,3.2
					c-0.1,0.2-0.3,0.3-0.5,0.4h-0.1l-2.6,0.9c-0.9,0.3-1.8,0.4-2.7,0.6c-0.9,0.1-1.8,0.2-2.7,0.3c-1,0.1-1.8,0.1-2.8,0.1
					c-3.7-0.1-7.4-1.1-10.7-2.9c-3.3-1.7-6.2-4.2-8.4-7.1c-2.3-2.9-3.9-6.3-4.9-9.8v-0.1c-0.1-0.3,0-0.6,0.1-0.8
					c0.7-1.1,1.5-2.3,2.2-3.4c0.8-1.1,1.5-2.3,2.2-3.4c0.8-1.1,1.5-2.3,2.3-3.4C59.1,88.6,59.9,87.5,60.7,86.4z"/>
			</g>
			<g class="st3">
				<path class="st4" d="M51.8,75.2c2,2.3,4,4.7,6,6.9l5.8,6.7l5.7,6.5c1.9,2.2,3.7,4.3,5.5,6.5l-0.8-0.4c3,0.2,6,0.3,9.1,0.5
					l9.1,0.6c3,0.2,6,0.4,9.1,0.6l9.1,0.6l-1.4,2.5L98.8,92c-3.3-4.8-6.7-9.5-10-14.4l1,0.5l-9.2-0.6l-9.3-0.8l-9.6-0.8l-4.9-0.4
					L51.8,75.2z M51.8,75.2l4.5,0.1l4.6,0.1l9.5,0.1l9.7,0.1l9.8,0.3c0.4,0,0.7,0.2,1,0.5l0.1,0.1c3.5,4.6,6.9,9.4,10.4,14.1
					l10.2,14.2c0.5,0.7,0.4,1.7-0.4,2.2c-0.3,0.3-0.7,0.3-1.1,0.3l-9.1-0.7c-3-0.3-6-0.4-9.1-0.8l-9.1-0.8c-3-0.3-6-0.6-9.1-0.8
					h-0.1c-0.3,0-0.6-0.2-0.8-0.4c-1.8-2.4-3.7-4.8-5.5-7.2l-5.3-7.2l-5.2-7C55.1,79.7,53.5,77.4,51.8,75.2z"/>
			</g>
			<g class="st3">
				<path class="st4" d="M89,90.3c1.2,1,2.3,2.1,3.4,3.2s2.2,2.2,3.2,3.3c1,1.1,2,2.3,3,3.4c1,1.1,2,2.3,2.9,3.5
					c0.3,0.3,0.3,0.6,0.3,1v0.1c0,2,0,3.9,0,5.8c0,2-0.1,3.9-0.3,5.8c-0.1,2-0.3,3.9-0.5,5.8c-0.3,2-0.4,3.9-0.8,5.8
					c-0.4-2-0.6-3.9-0.8-5.8s-0.4-3.9-0.5-5.8c-0.1-2-0.2-3.9-0.3-5.8c-0.1-2-0.1-3.9,0-5.8l0.3,1c-1-1.2-1.8-2.4-2.7-3.7
					c-0.9-1.3-1.8-2.5-2.6-3.7c-0.8-1.3-1.7-2.5-2.5-3.9C90.6,93,89.7,91.7,89,90.3z"/>
			</g>
		</g>
		<g>
			<g>
				<path class="st4" d="M76.1,90.1c0.8,2.9,1.3,5.9,1.1,9c-0.1,3-0.8,6.1-1.9,9c-1.1,2.9-2.8,5.5-4.8,7.9c-2,2.4-4.3,4.4-6.9,6.2
					c-5.1,3.6-11.2,5.7-17.5,6c-0.4,0-0.8,0.1-1.2,0.1l-1.2-0.1c-0.8-0.1-1.6-0.1-2.3-0.1l-2.3-0.3l-0.6-0.1l-0.6-0.1l-1.1-0.3
					l-1.1-0.3c-0.4-0.1-0.8-0.3-1.1-0.4c-0.8-0.3-1.5-0.5-2.2-0.8c-1.4-0.7-2.9-1.3-4.2-2.2l-1-0.6c-0.3-0.2-0.6-0.4-1-0.7
					c-0.6-0.5-1.3-1-1.9-1.5l-1.7-1.6l-0.4-0.4l-0.4-0.4l-0.8-0.9l-0.8-0.9c-0.3-0.3-0.4-0.6-0.7-1c-0.4-0.6-1-1.3-1.4-1.9l-1.2-2
					c-0.2-0.3-0.4-0.7-0.6-1l-0.5-1.1l-0.5-1.1c-0.1-0.4-0.3-0.8-0.4-1.1c-0.3-0.8-0.6-1.5-0.8-2.2l-0.6-2.3l-0.1-0.6l-0.1-0.6
					l-0.2-1.1c-0.3-1.5-0.3-3.1-0.3-4.7c0.1-0.8,0.1-1.6,0.1-2.3c0.1-0.4,0.1-0.8,0.1-1.1l0.2-1.1l0.2-1.1c0.1-0.4,0.1-0.8,0.3-1.1
					l0.6-2.2c0.3-0.8,0.5-1.5,0.8-2.2c0.3-0.8,0.6-1.4,1-2.1c1.3-2.8,3-5.4,5.1-7.7c2-2.3,4.3-4.4,6.8-6c2.5-1.7,5.3-3.1,8.2-3.7
					c-1.4,0.5-2.8,1.1-4.1,1.9l-1,0.4l-0.9,0.6c-0.3,0.2-0.6,0.4-0.9,0.6l-0.9,0.7c-2.3,1.8-4.4,4-6.2,6.4c-1.8,2.3-3.2,4.9-4.4,7.6
					c-0.3,0.7-0.6,1.3-0.8,2c-0.2,0.7-0.4,1.4-0.6,2.1l-0.5,2.1c-0.1,0.3-0.1,0.7-0.2,1.1l-0.1,1.1l-0.1,1.1c-0.1,0.4,0,0.7-0.1,1.1
					c0,0.7-0.1,1.5-0.1,2.2c0.1,1.5,0.1,2.9,0.4,4.3l0.2,1.1l0.1,0.5l0.1,0.5l0.6,2.1c0.2,0.7,0.5,1.3,0.8,2c0.1,0.3,0.3,0.7,0.4,1
					l0.5,1l0.4,1c0.1,0.3,0.3,0.6,0.5,1l1.1,1.8c0.4,0.6,0.8,1.1,1.3,1.7c0.2,0.3,0.4,0.6,0.6,0.8l0.7,0.8l0.7,0.8l0.4,0.4l0.4,0.4
					l1.6,1.5c0.6,0.4,1.1,0.8,1.7,1.3c0.3,0.2,0.6,0.4,0.9,0.6L30,121c1.2,0.8,2.5,1.4,3.7,2c0.6,0.3,1.3,0.5,2,0.8
					c0.3,0.1,0.6,0.3,1,0.4l1,0.3l1,0.3l0.5,0.1c0.2,0.1,0.4,0.1,0.5,0.1l2.1,0.3c0.7,0.1,1.4,0.1,2.2,0.1l1.1,0.1
					c0.4,0,0.7,0,1.1,0c5.7-0.1,11.4-2,16.3-5.1c4.9-3,9-7.4,11.6-12.7c1.3-2.6,2.1-5.5,2.5-8.4C76.8,96.1,76.7,93.1,76.1,90.1z"/>
			</g>
			<g>
				<path class="st4" d="M17.4,84.9c2.7-0.6,5.3-1,8-1.3c2.7-0.3,5.3-0.3,8-0.3s5.3,0.1,8,0.3c2.7,0.3,5.3,0.6,8,1.3
					c-2.7,0.6-5.3,1-8,1.3c-2.7,0.3-5.3,0.3-8,0.3c-2.7,0-5.3-0.1-8-0.3C22.7,85.9,20,85.6,17.4,84.9z"/>
			</g>
			<g>
				<path class="st4" d="M15.7,105c5-0.6,10-1,15-1.3c5-0.3,10-0.3,15-0.3c5,0,10,0.1,15,0.3c5,0.3,10,0.6,15,1.3
					c-5,0.6-10,1-15,1.3c-5,0.3-10,0.3-15,0.3c-5,0-10-0.1-15-0.3C25.7,106,20.7,105.6,15.7,105z"/>
			</g>
			<g>
				<path class="st4" d="M45.7,79.4c0.6,3.9,1,7.9,1.1,11.9c0.2,3.9,0.3,7.9,0.3,11.8c-0.1,3.9-0.2,7.9-0.4,11.8
					c-0.3,3.9-0.6,7.9-1.3,11.8c-0.6-3.9-1-7.9-1.1-11.9c-0.2-3.9-0.3-7.9-0.3-11.8c0.1-3.9,0.2-7.9,0.4-11.8
					C44.6,87.3,45,83.3,45.7,79.4z"/>
			</g>
			<g>
				<path class="st4" d="M36,71.7c-1.3,2.1-2.5,4.3-3.4,6.5c-1,2.2-1.8,4.5-2.4,6.9c-1.2,4.6-1.7,9.4-1.1,14.1
					c0.3,2.3,0.8,4.7,1.5,6.9l0.3,0.8l0.3,0.8c0.2,0.6,0.4,1.1,0.6,1.7c0.5,1.1,1,2.2,1.5,3.2c2.2,4.3,5,8.3,8.1,12.3
					c-4-3-7.5-6.7-10.2-11c-0.7-1.1-1.3-2.2-1.9-3.3c-0.3-0.6-0.5-1.1-0.8-1.8L28,108l-0.3-0.9c-0.9-2.4-1.5-5-1.8-7.6
					c-0.3-2.6-0.3-5.2,0.1-7.7c0.3-2.5,1-5.1,1.8-7.5c0.9-2.4,2-4.7,3.4-6.8C32.6,75.4,34.2,73.4,36,71.7z"/>
			</g>
			<g>
				<path class="st4" d="M63.2,87.2c0.9,3.5,1.1,7.1,1,10.7c-0.2,3.6-0.8,7.2-2,10.7c-1.1,3.5-2.8,6.8-5.1,9.7
					c-1.1,1.5-2.5,2.7-3.9,3.9c-1.5,1.1-3,2.1-4.6,2.8c1.3-1.3,2.5-2.5,3.6-3.9c1.1-1.4,2.1-2.7,2.9-4.2c1.7-2.9,3-6,4.1-9.3
					s1.8-6.6,2.5-10C62.3,94.1,62.8,90.7,63.2,87.2z"/>
			</g>
			<g>
				<path class="st4" d="M51.9,46.6c-0.6,1.3-1.1,2.6-1.8,3.9c-0.6,1.3-1.2,2.6-1.8,3.9c-0.6,1.3-1.3,2.5-1.9,3.9
					c-0.6,1.3-1.3,2.5-1.9,3.8l0.1-1c1.3,3.3,3,6.4,5.2,9.1c2.2,2.7,5,4.9,8,6.5c3,1.6,6.4,2.6,9.9,2.9c3.5,0.3,7-0.1,10.4-1.1
					l-0.6,0.4l2.4-3.2c0.8-1.1,1.7-2.1,2.5-3.1c1.7-2.1,3.3-4.1,5.1-6.2c-1.3,2.3-2.6,4.6-4,6.9c-0.7,1.1-1.3,2.3-2.1,3.4l-2.1,3.4
					c-0.1,0.2-0.3,0.3-0.5,0.4h-0.1L76,81.4c-1,0.3-1.8,0.4-2.8,0.6c-1,0.1-1.9,0.3-2.9,0.3c-1,0.1-1.9,0.1-2.9,0.1
					c-3.9-0.1-7.7-1.2-11.2-3c-3.4-1.8-6.5-4.4-8.8-7.4c-2.4-3-4.1-6.6-5.1-10.2v-0.1c-0.1-0.3-0.1-0.6,0.1-0.8
					c0.8-1.2,1.5-2.4,2.3-3.6c0.8-1.2,1.5-2.4,2.3-3.6c0.8-1.2,1.6-2.4,2.3-3.6C50.2,48.9,51.1,47.8,51.9,46.6z"/>
			</g>
			<g>
				<path class="st4" d="M42.5,34.9c2.1,2.5,4.1,4.9,6.2,7.3l6.1,7l6,6.9c2,2.3,3.9,4.6,5.8,6.9l-0.8-0.4c3.2,0.2,6.4,0.3,9.5,0.6
					l9.5,0.6c3.2,0.2,6.4,0.4,9.5,0.6l9.5,0.7l-1.4,2.5l-10.7-15c-3.5-5-7-10-10.5-15.1l1,0.5l-9.7-0.7l-9.8-0.8l-10-0.8l-5.1-0.4
					L42.5,34.9z M42.5,34.9l4.8,0.1l4.8,0.1l9.9,0.1l10.2,0.1l10.2,0.3c0.4,0,0.7,0.2,1,0.5l0.1,0.1c3.7,4.9,7.2,9.8,10.9,14.7
					l10.7,14.8c0.5,0.7,0.4,1.7-0.4,2.2c-0.3,0.3-0.7,0.3-1.1,0.3l-9.5-0.8c-3.2-0.3-6.4-0.5-9.5-0.8l-9.5-0.8
					c-3.2-0.3-6.4-0.6-9.5-0.9h-0.1c-0.3,0-0.6-0.2-0.8-0.4c-1.9-2.5-3.9-5-5.8-7.6l-5.6-7.5L47.8,42C46,39.6,44.3,37.2,42.5,34.9z"
					/>
			</g>
			<g>
				<path class="st4" d="M81.5,50.7c1.2,1.1,2.4,2.2,3.6,3.3c1.1,1.1,2.2,2.3,3.4,3.5c1.1,1.2,2.2,2.3,3.2,3.6
					c1,1.2,2.1,2.4,3.1,3.7c0.3,0.3,0.3,0.6,0.3,1v0.1c0,2,0,4.1,0,6.2c0,2-0.1,4.1-0.3,6.2c-0.1,2-0.3,4.1-0.5,6.2
					c-0.3,2-0.4,4.1-0.8,6.2c-0.4-2-0.6-4.1-0.8-6.2c-0.2-2-0.4-4.1-0.5-6.2C92,76,92,74,91.9,71.9c-0.1-2-0.1-4.1,0-6.2l0.3,1
					c-1-1.3-1.9-2.5-2.9-3.9c-1-1.3-1.8-2.6-2.7-3.9c-0.9-1.3-1.8-2.7-2.6-4.1C83.1,53.5,82.3,52.2,81.5,50.7z"/>
			</g>
		</g>
		<g class="st2">
			<g class="st3">
				<path class="st4" d="M47.2,104.7c0,0-35.6,3.8-39.3-33.4c0-18.7,15.1-33.8,33.8-33.8c15.9,0,34,11.4,32.8,36.5"/>
				<path class="st4" d="M9.3,69.1c0,0,27.9-28.5,64.1-2.9"/>
				<path class="st4" d="M29,45.7c0,0-19.1,35.7,18.2,51.1"/>
				<path class="st4" d="M43.3,42.5"/>
				<path class="st4" d="M42.9,43.8c0,0,15.6,8.6,10.2,27.5"/>
				<line class="st4" x1="31.7" y1="96.9" x2="38.5" y2="92.2"/>
				<circle class="st4" cx="9.3" cy="72.7" r="8.1"/>
				<circle class="st4" cx="35.4" cy="40.9" r="8.1"/>
				<circle class="st4" cx="53.2" cy="57" r="8.1"/>
				<circle class="st4" cx="24.2" cy="99.8" r="8.1"/>
			</g>
			<path class="st5" d="M60.8,89.4l-8.1,14.3c4.9,15.1,19.5,22.2,33.7,17.4l8.7-12.5"/>
			<polygon class="st5" points="51.8,78.2 74,105.8 110.6,108.6 90.1,80 			"/>
			<polyline class="st5" points="89.4,93.4 100.8,107.9 100.8,131.4 			"/>
		</g>
		<g class="st2">
			<path class="st5" d="M101.6,122.9H10.5c-4,0-7.2-3.2-7.2-7.2V47.5c0-4,3.2-7.2,7.2-7.2h91.2c4,0,7.2,3.2,7.2,7.2v68.3
				C108.8,119.7,105.6,122.9,101.6,122.9z"/>
			<line class="st5" x1="43.4" y1="90.9" x2="89.8" y2="90.9"/>
			<line class="st5" x1="43.4" y1="74.3" x2="89.8" y2="74.3"/>
			<line class="st5" x1="43.4" y1="57.1" x2="89.8" y2="57.1"/>
			<g class="st3">
				<line class="st4" x1="19.1" y1="55.3" x2="25.1" y2="60.7"/>
				<line class="st4" x1="32.7" y1="52" x2="25.1" y2="60.7"/>
			</g>
			<g class="st3">
				<line class="st4" x1="19.1" y1="71.6" x2="25.1" y2="77.1"/>
				<line class="st4" x1="32.7" y1="68.3" x2="25.1" y2="77.1"/>
			</g>
			<circle class="st5" cx="25.9" cy="91.2" r="5.1"/>
			<line class="st5" x1="43.4" y1="108.7" x2="89.9" y2="108.7"/>
			<g class="st3">
				<line class="st4" x1="19.2" y1="106" x2="25.3" y2="111.5"/>
				<line class="st4" x1="32.8" y1="102.7" x2="25.3" y2="111.5"/>
			</g>
		</g>
		<g class="st2">
			<path class="st5" d="M14.8,107c0,0-5.1,0.4-5.1-3.7V43c0-3.2,2.6-5.8,5.8-5.8h80.2c3.2,0,5.8,2.6,5.8,5.8v60.3
				c0,4.4-5.2,4.8-5.2,4.8"/>
			<ellipse class="st5" cx="28.8" cy="102.9" rx="8.6" ry="11"/>
			<ellipse class="st5" cx="55.6" cy="98.1" rx="8.6" ry="11"/>
			<ellipse class="st5" cx="82.4" cy="102.9" rx="8.6" ry="11"/>
			<polygon class="st5" points="46.4,80.3 46.4,54.1 69.6,66.7 			"/>
			<path class="st5" d="M8.5,131.9c0,0-0.6-15.4,15.1-13.1"/>
			<path class="st5" d="M35.2,131.9c0,0-2.1-19.2,15.4-17.3"/>
			<path class="st5" d="M77.4,131.9c0,0,2.1-19.2-15.4-17.3"/>
			<path class="st5" d="M103.3,131.9c0,0,0.6-15.4-15.1-13.1"/>
		</g>
		<g class="st2">
			<path class="st5" d="M89.7,126.2H25.4c-5,0-9.1-4.1-9.1-9.1V52.7c0-5,4.1-9.1,9.1-9.1h10.3v14.5h41.2l-0.3-14.5h13.1
				c5,0,9.1,4.1,9.1,9.1V117C98.9,122.1,94.8,126.2,89.7,126.2z"/>
			<path class="st5" d="M46.9,58.1c0,0,1-9.3,9.3-9.3"/>
			<path class="st5" d="M56.2,48.9c8.4,0,9.3,9.3,9.3,9.3"/>
			<path class="st5" d="M35.2,77.8H31c-1,0-1.8-0.8-1.8-1.8v-4.3c0-1,0.8-1.8,1.8-1.8h4.3c1,0,1.8,0.8,1.8,1.8V76
				C37.1,77.1,36.3,77.8,35.2,77.8z"/>
			<path class="st5" d="M51.7,77.8h-4.3c-1,0-1.8-0.8-1.8-1.8v-4.3c0-1,0.8-1.8,1.8-1.8h4.3c1,0,1.8,0.8,1.8,1.8V76
				C53.5,77.1,52.7,77.8,51.7,77.8z"/>
			<path class="st5" d="M68.1,77.8h-4.3c-1,0-1.8-0.8-1.8-1.8v-4.3c0-1,0.8-1.8,1.8-1.8h4.3c1,0,1.8,0.8,1.8,1.8V76
				C69.9,77.1,69.1,77.8,68.1,77.8z"/>
			<path class="st5" d="M84.5,77.8h-4.3c-1,0-1.8-0.8-1.8-1.8v-4.3c0-1,0.8-1.8,1.8-1.8h4.3c1,0,1.8,0.8,1.8,1.8V76
				C86.3,77.1,85.5,77.8,84.5,77.8z"/>
			<path class="st5" d="M35.2,90.5H31c-1,0-1.8-0.8-1.8-1.8v-4.3c0-1,0.8-1.8,1.8-1.8h4.3c1,0,1.8,0.8,1.8,1.8v4.3
				C37.1,89.7,36.3,90.5,35.2,90.5z"/>
			<path class="st5" d="M51.7,90.5h-4.3c-1,0-1.8-0.8-1.8-1.8v-4.3c0-1,0.8-1.8,1.8-1.8h4.3c1,0,1.8,0.8,1.8,1.8v4.3
				C53.5,89.7,52.6,90.5,51.7,90.5z"/>
			<path class="st5" d="M68.1,90.5h-4.3c-1,0-1.8-0.8-1.8-1.8v-4.3c0-1,0.8-1.8,1.8-1.8h4.3c1,0,1.8,0.8,1.8,1.8v4.3
				C69.9,89.7,69.1,90.5,68.1,90.5z"/>
			<path class="st5" d="M84.5,90.5h-4.3c-1,0-1.8-0.8-1.8-1.8v-4.3c0-1,0.8-1.8,1.8-1.8h4.3c1,0,1.8,0.8,1.8,1.8v4.3
				C86.3,89.7,85.5,90.5,84.5,90.5z"/>
			<path class="st5" d="M35.2,103H31c-1,0-1.8-0.8-1.8-1.8V97c0-1,0.8-1.8,1.8-1.8h4.3c1,0,1.8,0.8,1.8,1.8v4.3
				C37.1,102.3,36.3,103,35.2,103z"/>
			<path class="st5" d="M51.7,103h-4.3c-1,0-1.8-0.8-1.8-1.8V97c0-1,0.8-1.8,1.8-1.8h4.3c1,0,1.8,0.8,1.8,1.8v4.3
				C53.5,102.3,52.7,103,51.7,103z"/>
			<path class="st5" d="M68.1,103h-4.3c-1,0-1.8-0.8-1.8-1.8V97c0-1,0.8-1.8,1.8-1.8h4.3c1,0,1.8,0.8,1.8,1.8v4.3
				C69.9,102.3,69.1,103,68.1,103z"/>
			<path class="st5" d="M84.5,103h-4.3c-1,0-1.8-0.8-1.8-1.8V97c0-1,0.8-1.8,1.8-1.8h4.3c1,0,1.8,0.8,1.8,1.8v4.3
				C86.4,102.3,85.5,103,84.5,103z"/>
			<path class="st5" d="M35.2,115.7H31c-1,0-1.8-0.8-1.8-1.8v-4.3c0-1,0.8-1.8,1.8-1.8h4.3c1,0,1.8,0.8,1.8,1.8v4.3
				C37.1,114.8,36.3,115.7,35.2,115.7z"/>
			<path class="st5" d="M51.7,115.7h-4.3c-1,0-1.8-0.8-1.8-1.8v-4.3c0-1,0.8-1.8,1.8-1.8h4.3c1,0,1.8,0.8,1.8,1.8v4.3
				C53.5,114.8,52.7,115.7,51.7,115.7z"/>
			<path class="st5" d="M68.1,115.7h-4.3c-1,0-1.8-0.8-1.8-1.8v-4.3c0-1,0.8-1.8,1.8-1.8h4.3c1,0,1.8,0.8,1.8,1.8v4.3
				C69.9,114.8,69.1,115.7,68.1,115.7z"/>
		</g>
	</g>
</g>
<path class="st6" d="M176.5,155.5H25.7c-12,0-21.8-9.8-21.8-21.8V38.4c0-12,9.8-21.8,21.8-21.8h150.8c12,0,21.8,9.8,21.8,21.8v95.3
	C198.3,145.7,188.5,155.5,176.5,155.5z"/>
<rect x="84" y="124.9" class="st7" width="123.6" height="48.5"/>
<text transform="matrix(1 0 0 1 83.9595 134.0868)"><tspan x="0" y="0" class="st8 st9 st10">международная </tspan><tspan x="0" y="14.4" class="st8 st9 st10">деятельность</tspan></text>
</svg>
