<?xml version="1.0" encoding="utf-8"?>
<!-- Generator: Adobe Illustrator 24.1.2, SVG Export Plug-In . SVG Version: 6.00 Build 0)  -->
<svg version="1.1" id="Слой_1" xmlns="http://www.w3.org/2000/svg" xmlns:xlink="http://www.w3.org/1999/xlink" x="0px" y="0px"
	 viewBox="0 0 200 171.9" style="enable-background:new 0 0 200 171.9;" xml:space="preserve">
<style type="text/css">
	.st0{opacity:0.5;fill:#66CCFF;enable-background:new    ;}
	.st1{opacity:0.3;fill:#66CCFF;enable-background:new    ;}
	.st2{display:none;}
	.st3{display:inline;}
	.st4{fill:#3399FF;}
	.st5{fill:#3399FF;stroke:#1C3661;stroke-width:5;stroke-linecap:round;stroke-linejoin:round;stroke-miterlimit:10;}
	.st6{fill:none;stroke:#1C3661;stroke-width:5;stroke-linecap:round;stroke-linejoin:round;stroke-miterlimit:10;}
	
		.st7{display:inline;fill:#3399FF;stroke:#1C3661;stroke-width:5;stroke-linecap:round;stroke-linejoin:round;stroke-miterlimit:10;}
	.st8{display:inline;fill:none;stroke:#1C3661;stroke-width:5;stroke-linecap:round;stroke-linejoin:round;stroke-miterlimit:10;}
	.st9{fill:#999999;}
	.st10{display:inline;fill:#3399FF;}
	.st11{display:none;fill:none;stroke:#3399FF;stroke-miterlimit:10;}
	.st12{fill:none;stroke:#CCCCCC;stroke-width:0.5296;stroke-miterlimit:10;}
	.st13{fill:none;}
	.st14{fill:#666666;}
	.st15{font-family:'Roboto-Regular';}
	.st16{font-size:12px;}
</style>
<g id="Слой_2_1_">
	<circle class="st0" cx="132.7" cy="61.3" r="36"/>
	<circle class="st1" cx="94.5" cy="73.8" r="30.1"/>
</g>
<g id="Слой_1_1_">
	<g class="st2">
		<g class="st3">
			<path class="st4" d="M25.4,35.9l-7.5,0.2l0.2-0.2c0.3,9.4,0.5,18.9,0.7,28.3l0.5,28.3l0.4,28.3l0.3,28.3l-2.1-2.1l30.3-0.2
				c10.1-0.1,20.2-0.1,30.3-0.1h-0.2c0.5,0,0.7,0,1.1,0c0.3,0,0.6,0,0.9,0.1c0.6,0.1,1.2,0.2,1.8,0.3c1.2,0.3,2.4,0.8,3.5,1.5
				s2.1,1.6,2.8,2.6c0.8,1,1.3,2.2,1.8,3.3l-0.1-0.2c0,0,0.1,0.1,0.3,0.2c0.2,0.2,0.5,0.3,0.9,0.5c0.7,0.3,1.6,0.6,2.5,0.8
				c1.8,0.4,3.8,0.6,5.8,0.6c2,0.1,4,0,5.9-0.3c1-0.1,1.9-0.3,2.8-0.5s1.8-0.5,2.1-0.8c-0.1,0.1,0.4-0.3,0.6-0.7
				c0.3-0.3,0.6-0.7,0.8-1.1c0.6-0.8,1.1-1.6,1.7-2.6c0.6-0.9,1.3-1.9,2.4-2.9c0.6-0.5,1.2-1,2.2-1.3c0.4-0.2,1-0.2,1.5-0.3h0.8
				l12.6-0.3c16.8-0.5,33.5-0.8,50.3-1.2l-2,2.1l-0.1-27.7V91.1l0.1-27.7c0.1-9.2,0.1-18.5,0.3-27.7l0.2,0.2l-6.3-0.2l6.3-0.2
				c0.1,0,0.2,0.1,0.2,0.2l0,0c0.4,9.2,0.7,18.4,1.1,27.7l0.9,27.7l0.8,27.7l0.7,27.7c0,1.1-0.9,2.1-2,2.1l0,0
				c-16.8,0.6-33.5,1.3-50.3,1.8l-12.6,0.4h-0.8c0,0,0,0-0.1,0c0,0-0.2,0.1-0.4,0.3c-0.5,0.4-1,1.2-1.6,2s-1.1,1.7-1.8,2.7
				c-0.3,0.5-0.7,0.9-1,1.4c-0.2,0.2-0.4,0.5-0.6,0.7c-0.1,0.2-0.6,0.6-1,0.9c-1.4,1-2.6,1.2-3.7,1.6c-1.2,0.3-2.3,0.5-3.4,0.6
				c-2.2,0.3-4.4,0.4-6.6,0.3c-2.2-0.1-4.4-0.3-6.7-0.7c-1.1-0.2-2.3-0.6-3.5-1.1c-0.6-0.3-1.2-0.6-1.8-1.1
				c-0.6-0.5-1.3-1.1-1.8-2.1l-0.1-0.2c-0.3-0.7-0.6-1.4-1.1-2c-0.4-0.6-1-1.1-1.6-1.5s-1.3-0.7-2-0.9c-0.4-0.1-0.8-0.2-1.1-0.2
				c-0.2,0-0.4,0-0.6,0s-0.4,0-0.5,0h-0.2c-10.1,0-20.2,0-30.3-0.1L18,151.2l0,0c-1.2,0-2.1-1-2.1-2.1l0,0l0.3-28.3l0.4-28.3
				L17,64.2c0.2-9.4,0.4-18.9,0.7-28.3l0,0c0-0.1,0.1-0.2,0.2-0.2L25.4,35.9z"/>
		</g>
		<g class="st3">
			<path class="st4" d="M100.5,138.9c-0.1-8.4-0.2-16.7-0.4-25c-0.2-8.2-0.4-16.4-0.7-24.4c-0.2-8-0.5-16-0.7-23.9l-0.4-23.8v0.3
				c0-0.2-0.1-0.5-0.2-0.8s-0.2-0.6-0.3-0.9c-0.2-0.6-0.5-1.2-0.8-1.7c-0.6-1.1-1.4-2.1-2.4-2.9c-0.9-0.9-2-1.5-3.1-2.2
				c-0.6-0.2-1.2-0.5-1.8-0.7c-0.6-0.2-1.2-0.4-1.9-0.5l-2-0.3l-2-0.1c-1.4-0.1-2.9-0.1-4.4-0.1h-8.8c-11.8,0-23.6,0.1-35.4,0.3
				l2.5-2.5l-0.1,24.6c0,8.2,0,16.4-0.1,24.6l-0.2,24.6L37,128.1l-1.7-1.8l17.5,0.5c5.8,0.2,11.7,0.3,17.5,0.5l17.5,0.6h1.1
				c0.2,0,0.3,0,0.6,0c0.2,0,0.4,0.1,0.6,0.1c0.8,0.2,1.5,0.5,2.1,0.8c1.4,0.7,2.6,1.5,3.7,2.6C98,133.6,99.4,136.2,100.5,138.9z
				 M100.5,138.9c-1.3-2.6-2.9-5.1-5.1-6.9c-1.1-0.9-2.3-1.7-3.6-2.2c-0.6-0.3-1.3-0.5-2-0.6c-0.2,0-0.3-0.1-0.5-0.1
				c-0.1,0-0.3,0-0.5,0h-1.1l-17.5,0.3c-5.8,0.1-11.6,0.2-17.5,0.2l-17.5,0.2c-1,0-1.7-0.8-1.7-1.7l0,0l-0.3-24.6L33,78.9
				c-0.1-8.2-0.1-16.4-0.1-24.6l-0.1-24.6c0-1.4,1.1-2.5,2.5-2.5C47.1,27,58.9,26.9,70.7,27c3,0,5.9,0.1,8.9,0.2
				c1.5,0,2.9,0.1,4.5,0.2l2.4,0.2c0.8,0.1,1.6,0.3,2.4,0.5s1.6,0.5,2.4,0.7c0.8,0.3,1.5,0.7,2.3,1c1.5,0.8,2.9,1.7,4.1,2.9
				s2.3,2.5,3.1,4c0.4,0.7,0.8,1.5,1.1,2.3c0.2,0.4,0.3,0.8,0.4,1.2s0.2,0.8,0.3,1.4c0,0.1,0,0.2,0,0.3l-0.4,24.8
				c-0.2,8.3-0.4,16.5-0.7,24.6c-0.2,8.1-0.5,16.1-0.7,24.1C100.7,123.3,100.6,131.1,100.5,138.9z"/>
		</g>
		<g class="st3">
			<path class="st4" d="M100.5,138.9c-0.1-7.8-0.2-15.7-0.4-23.6c-0.2-8-0.4-16-0.7-24.1c-0.2-8.1-0.5-16.3-0.7-24.6l-0.4-24.8
				c0-0.1,0-0.2,0-0.3c0.1-0.6,0.2-0.9,0.3-1.4c0.1-0.4,0.3-0.8,0.4-1.2c0.3-0.8,0.7-1.6,1.1-2.3c0.8-1.5,1.9-2.8,3.1-4
				s2.6-2.1,4.1-2.9c0.8-0.3,1.5-0.7,2.3-1c0.8-0.2,1.6-0.5,2.4-0.7s1.6-0.3,2.4-0.5l2.4-0.2c1.5-0.1,3-0.1,4.5-0.2
				c3-0.1,5.9-0.1,8.9-0.2c11.8-0.1,23.6,0,35.5,0.1c1.4,0,2.5,1.1,2.5,2.5l-0.1,24.6c0,8.2,0,16.4-0.1,24.6l-0.2,24.6l-0.3,24.6
				v0.1c0,1-0.8,1.7-1.7,1.7l-17.5-0.2c-5.8-0.1-11.6-0.1-17.5-0.2l-17.5-0.3h-1.1c-0.2,0-0.4,0-0.5,0c-0.2,0-0.3,0-0.5,0.1
				c-0.7,0.1-1.3,0.3-2,0.6c-1.3,0.5-2.5,1.3-3.6,2.2C103.4,133.9,101.8,136.3,100.5,138.9z M100.5,138.9c1.1-2.7,2.6-5.3,4.7-7.4
				c1.1-1,2.3-1.9,3.7-2.6c0.7-0.3,1.4-0.6,2.1-0.8c0.2,0,0.4-0.1,0.6-0.1c0.3,0,0.4,0,0.6,0h1.1l17.5-0.6
				c5.8-0.2,11.6-0.4,17.5-0.5l17.5-0.5l-1.7,1.8l-0.3-24.6L163.6,79c-0.1-8.2-0.1-16.4-0.1-24.6l-0.1-24.6l2.5,2.5
				c-11.8-0.2-23.6-0.3-35.4-0.3h-8.8c-1.5,0-3,0-4.4,0.1l-2,0.1l-2,0.3c-0.6,0.1-1.3,0.4-1.9,0.5c-0.6,0.2-1.2,0.5-1.8,0.7
				c-1.1,0.6-2.2,1.3-3.1,2.2c-0.9,0.8-1.7,1.8-2.4,2.9c-0.3,0.5-0.6,1.1-0.8,1.7c-0.1,0.3-0.2,0.6-0.3,0.9
				c-0.1,0.3-0.2,0.6-0.2,0.8v-0.3l-0.4,23.8c-0.2,7.9-0.4,15.9-0.7,23.9c-0.2,8-0.5,16.2-0.7,24.4
				C100.7,122.2,100.6,130.5,100.5,138.9z"/>
		</g>
		<g class="st3">
			<path class="st4" d="M51.7,56.8c2.4-1,4.8-1.6,7.3-2c2.4-0.4,4.8-0.5,7.3-0.5c2.4,0,4.8,0.2,7.3,0.5c2.4,0.4,4.8,0.9,7.3,2
				c-2.4,1-4.8,1.6-7.3,2c-2.4,0.4-4.8,0.5-7.3,0.5c-2.4,0-4.8-0.2-7.3-0.5C56.6,58.4,54.1,57.9,51.7,56.8z"/>
		</g>
		<g class="st3">
			<path class="st4" d="M51.7,77.9c2.4-1,4.8-1.6,7.3-2c2.4-0.4,4.8-0.5,7.3-0.5c2.4,0,4.8,0.2,7.3,0.5c2.4,0.4,4.8,0.9,7.3,2
				c-2.4,1-4.8,1.6-7.3,2c-2.4,0.4-4.8,0.5-7.3,0.5c-2.4,0-4.8-0.2-7.3-0.5C56.6,79.5,54.1,79,51.7,77.9z"/>
		</g>
		<g class="st3">
			<path class="st4" d="M51.7,96.2c1.3-1,2.7-1.6,4-2s2.7-0.5,4-0.5s2.7,0.2,4,0.5c1.3,0.4,2.7,0.9,4,2c-1.3,1-2.7,1.6-4,2
				c-1.3,0.4-2.7,0.5-4,0.5s-2.7-0.2-4-0.5C54.4,97.8,53.1,97.3,51.7,96.2z"/>
		</g>
		<g class="st3">
			<path class="st4" d="M122.1,56.8c2.4-1,4.8-1.6,7.3-2c2.4-0.4,4.8-0.5,7.3-0.5c2.4,0,4.8,0.2,7.3,0.5c2.4,0.4,4.8,0.9,7.3,2
				c-2.4,1-4.8,1.6-7.3,2c-2.4,0.4-4.8,0.5-7.3,0.5c-2.4,0-4.8-0.2-7.3-0.5C126.9,58.4,124.5,57.9,122.1,56.8z"/>
		</g>
		<g class="st3">
			<path class="st4" d="M120.2,77.9c1.4-1,2.7-1.6,4.1-2s2.7-0.5,4.1-0.5c1.4,0,2.7,0.2,4.1,0.5c1.4,0.4,2.7,0.9,4.1,2
				c-1.4,1-2.7,1.6-4.1,2c-1.4,0.4-2.7,0.5-4.1,0.5c-1.4,0-2.7-0.2-4.1-0.5C123,79.5,121.6,79,120.2,77.9z"/>
		</g>
	</g>
	<g class="st2">
		<g class="st3">
			<g>
				<path class="st4" d="M86.8,118.7c-7.5,0.9-15.2,0.4-22.7-1.4c-3.7-0.9-7.4-2.1-10.9-3.8c-3.5-1.6-6.8-3.7-9.9-6.1
					c-3.1-2.4-5.8-5.2-8.2-8.3c-2.4-3.1-4.4-6.5-6.1-10c-3.3-7.1-5.1-14.8-6-22.4l0,0c0-0.1,0-0.1,0-0.2l0.2-5.5
					c0.2-1.8,0.5-3.7,0.8-5.5c0.4-1.8,0.9-3.6,1.4-5.4l1.9-5.2c2.9-6.8,7.1-13.1,12.5-18.2c5.3-5.1,11.7-9.2,18.6-11.8
					c6.9-2.7,14.4-3.7,21.7-3.5c7.4,0.3,14.6,2.2,21.2,5.3c6.6,3.2,12.6,7.7,17.2,13.4c2.3,2.8,4.3,5.9,5.9,9.1
					c1.6,3.3,2.8,6.7,3.7,10.1c0.9,3.5,1.4,7,1.7,10.6c0.2,3.6,0.1,7.1-0.2,10.6c0-3.5-0.3-7.1-0.7-10.5c-0.5-3.5-1.3-6.9-2.4-10.2
					c-2.1-6.6-5.6-12.8-10.2-17.8S106,23,99.7,20.2c-3.1-1.4-6.4-2.4-9.7-3.1c-3.3-0.8-6.7-1.2-10.1-1.2c-1.7-0.1-3.4,0.1-5.1,0.2
					c-1.7,0-3.4,0.4-5,0.6c-1.7,0.2-3.3,0.7-4.9,1.1c-1.7,0.4-3.2,1-4.8,1.6c-6.3,2.4-12.1,6.2-16.9,10.9s-8.8,10.3-11.5,16.5
					L30,51.5l-1.3,4.9l-0.8,5l-0.3,5.1v-0.2c0.6,7.3,2.3,14.5,5.1,21.3c2.8,6.7,7.2,12.7,12.6,17.6c5.5,4.8,12.2,8.3,19.3,10.5
					C71.8,117.7,79.3,118.8,86.8,118.7z"/>
			</g>
			<g>
				<path class="st4" d="M27.7,62.9c2.9-3.6,6.4-6.6,10.1-9.4c3.7-2.8,7.7-5.2,11.9-7.2c8.4-4.1,17.7-6.5,27.1-7
					c1.2,0,2.4-0.1,3.5-0.1l3.5,0.1c2.3,0.2,4.7,0.4,7,0.8c2.3,0.3,4.6,0.9,6.9,1.5c1.1,0.3,2.2,0.7,3.4,1c1.1,0.4,2.2,0.7,3.3,1.2
					c8.7,3.4,16.7,8.3,23.5,14.4c-8-4.4-16.3-8.2-24.8-10.7c-1.1-0.4-2.1-0.6-3.2-0.9c-1.1-0.3-2.1-0.6-3.2-0.8
					c-2.2-0.4-4.3-0.9-6.5-1.1c-4.4-0.6-8.8-0.8-13.2-0.6c-4.4,0.2-8.8,0.8-13.1,1.7s-8.5,2.3-12.7,3.8c-4.1,1.6-8.2,3.5-12.1,5.7
					C35.1,57.7,31.3,60.1,27.7,62.9z"/>
			</g>
			<g>
				<path class="st4" d="M58.5,26.5c-2.7,7.7-4.4,15.6-5.1,23.4c-0.6,7.8-0.1,15.7,2.2,23c1.2,3.6,2.8,7.1,4.9,10.4
					c2,3.3,4.5,6.2,7.2,9.1c5.6,5.5,12.2,10,19.3,14.1c-7.9-2.1-15.4-5.9-21.9-11.2c-3.2-2.7-6.2-5.8-8.6-9.3
					c-2.4-3.5-4.3-7.4-5.7-11.5c-2.6-8.2-2.8-16.9-1.3-25.1S54,33.3,58.5,26.5z"/>
			</g>
			<g>
				<path class="st4" d="M80.8,21.5"/>
			</g>
			<g>
				<path class="st4" d="M80.2,23.5c2.1,0.6,4,1.6,5.8,2.7c1.8,1.2,3.5,2.5,5,4.1c3.1,3.1,5.5,6.8,7.1,11c1.6,4.1,2.2,8.6,1.8,13
					c-0.4,4.3-1.6,8.5-3.7,12.2c0.1-4.2,0.2-8.3-0.2-12.2c-0.4-3.9-1.2-7.7-2.6-11.2c-1.3-3.6-3.2-7-5.4-10.2
					C85.8,29.6,83.2,26.5,80.2,23.5z"/>
			</g>
			<g>
				<path class="st4" d="M62.7,106.4c0.3-1.5,0.9-2.5,1.5-3.4c0.7-0.9,1.5-1.7,2.3-2.3c0.9-0.6,1.9-1.1,2.9-1.4
					c1.1-0.3,2.3-0.4,3.8-0.2c-0.3,1.5-0.9,2.5-1.5,3.4c-0.7,0.9-1.5,1.7-2.3,2.3c-0.9,0.6-1.9,1.1-2.9,1.4
					C65.3,106.5,64.1,106.7,62.7,106.4z"/>
			</g>
			<g>
				<path class="st4" d="M40.2,68.7c0,3.3-1.2,6.6-3.4,9.1c-2.2,2.6-5.5,4.3-9.1,4.7c-1.8,0.2-3.7,0-5.5-0.6s-3.5-1.5-4.9-2.8
					c-2.9-2.5-4.7-6.5-4.7-10.4c0-4,1.7-7.9,4.7-10.4c1.4-1.3,3.2-2.2,4.9-2.8c1.8-0.6,3.7-0.8,5.5-0.6c3.6,0.3,6.9,2.1,9.1,4.7
					C39,62.1,40.3,65.4,40.2,68.7z M40.2,68.7c0-3.3-1.5-6.6-3.9-8.7c-1.2-1.1-2.6-1.8-4.1-2.3s-3-0.6-4.5-0.4c-3,0.3-5.6,1.9-7.4,4
					s-2.7,4.7-2.7,7.4c0,2.6,0.9,5.3,2.7,7.4c1.8,2.1,4.4,3.6,7.4,4c1.5,0.2,3,0,4.5-0.4c1.5-0.5,2.9-1.2,4.1-2.3
					C38.8,75.2,40.3,72,40.2,68.7z"/>
			</g>
			<g>
				<path class="st4" d="M81.1,18.9c0,3.3-1.2,6.6-3.4,9.1c-2.2,2.6-5.5,4.3-9.1,4.7c-1.8,0.2-3.7,0-5.5-0.6
					c-1.8-0.6-3.5-1.5-4.9-2.8c-2.9-2.5-4.7-6.5-4.7-10.4c0-4,1.7-7.9,4.7-10.4c1.4-1.3,3.2-2.2,4.9-2.8c1.8-0.6,3.7-0.8,5.5-0.6
					c3.6,0.3,6.9,2.1,9.1,4.7C79.9,12.3,81.1,15.6,81.1,18.9z M81.1,18.9c0-3.3-1.5-6.6-3.9-8.7c-1.2-1-2.7-1.8-4.1-2.2
					c-1.5-0.5-3-0.6-4.5-0.4c-3,0.3-5.6,1.9-7.4,4c-1.8,2.1-2.7,4.7-2.7,7.4c0,2.6,0.9,5.3,2.7,7.4s4.4,3.6,7.4,4
					c1.5,0.2,3,0,4.5-0.4c1.5-0.5,2.9-1.2,4.1-2.3C79.6,25.5,81.1,22.2,81.1,18.9z"/>
			</g>
			<g>
				<path class="st4" d="M108.8,44.1c0,3.3-1.2,6.6-3.4,9.1c-2.2,2.6-5.5,4.3-9.1,4.7c-1.8,0.2-3.7,0-5.5-0.6s-3.5-1.5-4.9-2.8
					C83,52,81.2,48,81.2,44.1c0-4,1.7-7.9,4.7-10.4c1.4-1.3,3.2-2.2,4.9-2.8c1.8-0.6,3.7-0.8,5.5-0.6c3.6,0.3,6.9,2.1,9.1,4.7
					C107.6,37.5,108.8,40.8,108.8,44.1z M108.8,44.1c0-3.3-1.5-6.6-3.9-8.7c-1.2-1.1-2.6-1.8-4.1-2.3s-3-0.6-4.5-0.4
					c-3,0.3-5.6,1.9-7.4,4s-2.7,4.7-2.7,7.4c0,2.6,0.9,5.3,2.7,7.4c1.8,2.1,4.4,3.6,7.4,4c1.5,0.2,3,0,4.5-0.4
					c1.5-0.5,2.9-1.2,4.1-2.3C107.3,50.6,108.8,47.4,108.8,44.1z"/>
			</g>
			<g>
				<path class="st4" d="M63.5,109.9c0.3,3.3-0.6,6.7-2.6,9.4c-2,2.7-5.1,4.8-8.7,5.5c-1.8,0.3-3.7,0.3-5.5-0.1s-3.6-1.2-5.2-2.4
					c-3.1-2.3-5.2-6-5.6-10c-0.4-3.9,1.1-8,3.7-10.8c1.3-1.4,3-2.5,4.7-3.2s3.6-1.1,5.4-1.1c3.6,0,7.1,1.5,9.5,3.9
					C61.7,103.4,63.2,106.6,63.5,109.9z M63.5,109.9c-0.3-3.3-2.1-6.4-4.7-8.3c-1.3-0.9-2.8-1.6-4.3-1.9s-3.1-0.3-4.5,0
					c-2.9,0.6-5.4,2.3-7,4.6c-1.6,2.2-2.3,4.9-2.1,7.6c0.2,2.6,1.4,5.2,3.3,7.1c1.9,1.9,4.7,3.2,7.7,3.3c1.5,0,3-0.2,4.5-0.8
					c1.4-0.6,2.8-1.5,3.9-2.6C62.6,116.6,63.8,113.2,63.5,109.9z"/>
			</g>
		</g>
		<g class="st3">
			<path class="st4" d="M108.2,94.8c-0.8,2-1.7,3.9-2.6,5.9s-1.8,3.9-2.7,5.8c-0.9,1.9-1.9,3.9-2.8,5.8c-1,1.9-1.9,3.8-2.9,5.7
				l0.1-1.5c1.9,5,4.5,9.6,7.9,13.6c3.3,4,7.4,7.3,12,9.7s9.6,3.9,14.8,4.3c5.2,0.4,10.5-0.1,15.6-1.6l-0.9,0.7l3.7-4.7
				c1.2-1.6,2.5-3.1,3.7-4.7c2.5-3.1,5-6.2,7.7-9.2c-1.9,3.5-3.9,7-5.9,10.4c-1,1.7-2,3.4-3.1,5.1l-3.1,5.1
				c-0.2,0.3-0.5,0.5-0.8,0.6h-0.1l-4.1,1.4c-1.4,0.4-2.8,0.6-4.2,1c-1.4,0.2-2.9,0.3-4.3,0.5c-1.5,0.1-2.9,0.1-4.4,0.1
				c-5.8-0.2-11.7-1.8-16.9-4.5c-5.2-2.7-9.8-6.6-13.3-11.2c-3.6-4.6-6.1-9.9-7.7-15.4v-0.1c-0.1-0.5,0-0.9,0.2-1.3
				c1.1-1.8,2.3-3.6,3.4-5.4c1.2-1.8,2.3-3.6,3.5-5.4s2.4-3.6,3.6-5.4C105.7,98.3,107,96.5,108.2,94.8z"/>
		</g>
		<g class="st3">
			<path class="st4" d="M94.1,77.2c3.1,3.7,6.3,7.4,9.4,10.9l9.2,10.5l9,10.3c3,3.4,5.8,6.8,8.7,10.2l-1.3-0.7
				c4.8,0.3,9.5,0.5,14.3,0.8l14.3,0.9c4.8,0.3,9.5,0.7,14.3,1l14.3,1l-2.2,3.9l-16-22.4c-5.2-7.5-10.5-15-15.7-22.6l1.5,0.8
				l-14.5-1l-14.7-1.3l-15.1-1.3l-7.7-0.6L94.1,77.2z M94.1,77.2l7.1,0.1l7.3,0.1l14.9,0.1l15.2,0.1L154,78c0.6,0,1.1,0.3,1.5,0.8
				l0.1,0.1c5.5,7.3,10.9,14.8,16.4,22.2l16.1,22.3c0.8,1.1,0.6,2.7-0.6,3.5c-0.5,0.4-1.1,0.5-1.7,0.5l-14.3-1.1
				c-4.8-0.4-9.5-0.7-14.3-1.2l-14.3-1.3c-4.8-0.4-9.5-0.9-14.3-1.3h-0.1c-0.5,0-1-0.3-1.3-0.7c-2.9-3.8-5.8-7.5-8.7-11.3l-8.4-11.3
				l-8.2-11.1C99.4,84.3,96.8,80.7,94.1,77.2z"/>
		</g>
		<g class="st3">
			<path class="st4" d="M152.8,101c1.9,1.6,3.6,3.3,5.3,5s3.4,3.4,5,5.2c1.6,1.8,3.2,3.6,4.8,5.4s3.1,3.7,4.6,5.5
				c0.4,0.4,0.5,0.9,0.5,1.5v0.1c0,3.1,0,6.1,0,9.2c0,3.1-0.2,6.1-0.4,9.2c-0.2,3.1-0.4,6.1-0.8,9.2c-0.4,3.1-0.7,6.1-1.3,9.2
				c-0.6-3.1-1-6.1-1.3-9.2c-0.3-3.1-0.6-6.1-0.8-9.2c-0.2-3.1-0.3-6.1-0.4-9.2c-0.1-3.1-0.1-6.1,0-9.2l0.5,1.5
				c-1.5-1.9-2.9-3.8-4.3-5.8c-1.4-2-2.8-3.9-4.1-5.9s-2.7-4-3.9-6.1C155.2,105.2,153.9,103.2,152.8,101z"/>
		</g>
	</g>
	<g class="st2">
		<g class="st3">
			<path class="st5" d="M86.9,123.6c0,0-56.1,6-61.9-52.6c0-29.4,23.8-53.3,53.3-53.3c25.1,0,53.6,18,51.7,57.5"/>
			<path class="st5" d="M27.3,67.5c0,0,44-44.8,101-4.6"/>
			<path class="st5" d="M58.3,30.8c0,0-30.1,56.2,28.7,80.5"/>
			<path class="st5" d="M80.8,25.7"/>
			<path class="st5" d="M80.2,27.8c0,0,24.5,13.6,16.1,43.3"/>
			<line class="st6" x1="62.5" y1="111.3" x2="73.2" y2="104"/>
			<circle class="st5" cx="27.3" cy="73.3" r="12.7"/>
			<circle class="st5" cx="68.4" cy="23.2" r="12.7"/>
			<circle class="st5" cx="96.3" cy="48.5" r="12.7"/>
			<circle class="st5" cx="50.7" cy="115.9" r="12.7"/>
		</g>
		<path class="st7" d="M108.4,99.6l-12.8,22.5c7.7,23.7,30.7,35,53,27.4l13.7-19.7"/>
		<polygon class="st7" points="94.2,81.9 129.2,125.4 186.7,129.8 154.4,84.7 		"/>
		<polyline class="st7" points="153.3,105.8 171.4,128.6 171.4,165.7 		"/>
	</g>
	<g class="st2">
		<path class="st7" d="M172.6,152.3H29.1c-6.3,0-11.3-5.1-11.3-11.3V33.5c0-6.3,5.1-11.3,11.3-11.3h143.6c6.3,0,11.3,5.1,11.3,11.3
			V141C184,147.2,178.9,152.3,172.6,152.3z"/>
		<line class="st8" x1="80.9" y1="101.9" x2="154" y2="101.9"/>
		<line class="st8" x1="80.9" y1="75.8" x2="154" y2="75.8"/>
		<line class="st8" x1="80.9" y1="48.7" x2="154" y2="48.7"/>
		<g class="st3">
			<line class="st6" x1="42.7" y1="45.9" x2="52.2" y2="54.4"/>
			<line class="st6" x1="64.1" y1="40.7" x2="52.2" y2="54.4"/>
		</g>
		<g class="st3">
			<line class="st6" x1="42.7" y1="71.5" x2="52.2" y2="80.1"/>
			<line class="st6" x1="64.1" y1="66.3" x2="52.2" y2="80.1"/>
		</g>
		<circle class="st7" cx="53.4" cy="102.4" r="8.1"/>
		<line class="st8" x1="81" y1="130" x2="154.2" y2="130"/>
		<g class="st3">
			<line class="st6" x1="42.9" y1="125.7" x2="52.4" y2="134.3"/>
			<line class="st6" x1="64.2" y1="120.5" x2="52.4" y2="134.3"/>
		</g>
	</g>
	<g class="st2">
		<path class="st7" d="M35.9,127.2c0,0-8,0.7-8-5.9V26.4c0-5,4.1-9.1,9.1-9.1h126.3c5,0,9.1,4.1,9.1,9.1v94.9c0,6.9-8.2,7.6-8.2,7.6
			"/>
		<ellipse class="st7" cx="57.9" cy="120.8" rx="13.5" ry="17.3"/>
		<ellipse class="st7" cx="100.2" cy="113.3" rx="13.5" ry="17.3"/>
		<ellipse class="st7" cx="142.4" cy="120.8" rx="13.5" ry="17.3"/>
		<polygon class="st7" points="85.7,85.2 85.7,43.9 122.2,63.8 		"/>
		<path class="st7" d="M26,166.5c0,0-1-24.3,23.7-20.6"/>
		<path class="st7" d="M68.1,166.5c0,0-3.3-30.3,24.3-27.2"/>
		<path class="st7" d="M134.4,166.5c0,0,3.3-30.3-24.3-27.2"/>
		<path class="st7" d="M175.3,166.5c0,0,1-24.3-23.7-20.6"/>
	</g>
	<g class="st2">
		<path class="st7" d="M153.9,157.5H52.6c-7.9,0-14.4-6.5-14.4-14.4V41.7c0-7.9,6.5-14.4,14.4-14.4h16.2v22.9h64.8l-0.5-22.9h20.7
			c7.9,0,14.4,6.5,14.4,14.4V143C168.3,151,161.8,157.5,153.9,157.5z"/>
		<path class="st7" d="M86.4,50.3c0,0,1.5-14.6,14.7-14.6"/>
		<path class="st7" d="M101.1,35.7c13.2,0,14.7,14.6,14.7,14.6"/>
		<path class="st7" d="M68.1,81.3h-6.7c-1.6,0-2.8-1.3-2.8-2.8v-6.7c0-1.6,1.3-2.8,2.8-2.8h6.7c1.6,0,2.8,1.3,2.8,2.8v6.7
			C71,80.1,69.7,81.3,68.1,81.3z"/>
		<path class="st7" d="M94,81.3h-6.7c-1.6,0-2.8-1.3-2.8-2.8v-6.7c0-1.6,1.3-2.8,2.8-2.8H94c1.6,0,2.8,1.3,2.8,2.8v6.7
			C96.8,80.1,95.6,81.3,94,81.3z"/>
		<path class="st7" d="M119.9,81.3h-6.7c-1.6,0-2.8-1.3-2.8-2.8v-6.7c0-1.6,1.3-2.8,2.8-2.8h6.7c1.6,0,2.8,1.3,2.8,2.8v6.7
			C122.7,80.1,121.4,81.3,119.9,81.3z"/>
		<path class="st7" d="M145.7,81.3H139c-1.6,0-2.8-1.3-2.8-2.8v-6.7c0-1.6,1.3-2.8,2.8-2.8h6.7c1.6,0,2.8,1.3,2.8,2.8v6.7
			C148.5,80.1,147.3,81.3,145.7,81.3z"/>
		<path class="st7" d="M68.1,101.2h-6.7c-1.6,0-2.8-1.3-2.8-2.8v-6.7c0-1.6,1.3-2.8,2.8-2.8h6.7c1.6,0,2.8,1.3,2.8,2.8v6.7
			C71,100,69.7,101.2,68.1,101.2z"/>
		<path class="st7" d="M94,101.2h-6.7c-1.6,0-2.8-1.3-2.8-2.8v-6.7c0-1.6,1.3-2.8,2.8-2.8H94c1.6,0,2.8,1.3,2.8,2.8v6.7
			C96.8,100,95.5,101.2,94,101.2z"/>
		<path class="st7" d="M119.8,101.2h-6.7c-1.6,0-2.8-1.3-2.8-2.8v-6.7c0-1.6,1.3-2.8,2.8-2.8h6.7c1.6,0,2.8,1.3,2.8,2.8v6.7
			C122.7,100,121.4,101.2,119.8,101.2z"/>
		<path class="st7" d="M145.7,101.2H139c-1.6,0-2.8-1.3-2.8-2.8v-6.7c0-1.6,1.3-2.8,2.8-2.8h6.7c1.6,0,2.8,1.3,2.8,2.8v6.7
			C148.5,100,147.3,101.2,145.7,101.2z"/>
		<path class="st7" d="M68.1,121h-6.7c-1.6,0-2.8-1.3-2.8-2.8v-6.7c0-1.6,1.3-2.8,2.8-2.8h6.7c1.6,0,2.8,1.3,2.8,2.8v6.7
			C71,119.8,69.7,121,68.1,121z"/>
		<path class="st7" d="M94,121h-6.7c-1.6,0-2.8-1.3-2.8-2.8v-6.7c0-1.6,1.3-2.8,2.8-2.8H94c1.6,0,2.8,1.3,2.8,2.8v6.7
			C96.8,119.8,95.6,121,94,121z"/>
		<path class="st7" d="M119.9,121h-6.7c-1.6,0-2.8-1.3-2.8-2.8v-6.7c0-1.6,1.3-2.8,2.8-2.8h6.7c1.6,0,2.8,1.3,2.8,2.8v6.7
			C122.7,119.8,121.4,121,119.9,121z"/>
		<path class="st7" d="M145.7,121H139c-1.6,0-2.8-1.3-2.8-2.8v-6.7c0-1.6,1.3-2.8,2.8-2.8h6.7c1.6,0,2.8,1.3,2.8,2.8v6.7
			C148.6,119.8,147.3,121,145.7,121z"/>
		<path class="st7" d="M68.1,140.9h-6.7c-1.6,0-2.8-1.3-2.8-2.8v-6.7c0-1.6,1.3-2.8,2.8-2.8h6.7c1.6,0,2.8,1.3,2.8,2.8v6.7
			C71,139.6,69.7,140.9,68.1,140.9z"/>
		<path class="st7" d="M94,140.9h-6.7c-1.6,0-2.8-1.3-2.8-2.8v-6.7c0-1.6,1.3-2.8,2.8-2.8H94c1.6,0,2.8,1.3,2.8,2.8v6.7
			C96.8,139.6,95.6,140.9,94,140.9z"/>
		<path class="st7" d="M119.8,140.9h-6.7c-1.6,0-2.8-1.3-2.8-2.8v-6.7c0-1.6,1.3-2.8,2.8-2.8h6.7c1.6,0,2.8,1.3,2.8,2.8v6.7
			C122.7,139.6,121.4,140.9,119.8,140.9z"/>
	</g>
</g>
<path class="st9" d="M13.7,106.9H11V46.2c0-3.7,3-6.8,6.6-6.8h34.3c3.6,0,6.6,3,6.6,6.8V53h-2.6v-6.8c0-2.2-1.8-4.1-4-4.1H17.7
	c-2.2,0-4,1.8-4,4.1V106.9z M51.9,123.2H17.7c-3.6,0-6.6-3-6.6-6.8v-6.8h47.4v6.8C58.5,120.1,55.6,123.2,51.9,123.2z M13.7,112.3
	v4.1c0,2.2,1.8,4,4,4h34.2c2.2,0,4-1.8,4-4v-4.1H13.7z M28.2,115h13.2v2.7H28.2V115z M12.4,47.5h44.8v2.7H12.4V47.5z M71.7,106.9
	H29.5c-4.4,0-7.9-3.6-7.9-8.1V55.6h44.8v10.8h-2.6v-8H24.2v40.5c0,3,2.4,5.4,5.3,5.4h42.2L71.7,106.9L71.7,106.9z M71.7,106.9
	c-4.4,0-7.9-3.6-7.9-8.1V65.1h15.8v33.8C79.6,103.3,76.1,106.9,71.7,106.9z M66.4,67.8v31c0,3,2.4,5.4,5.3,5.4
	c2.9,0,5.3-2.4,5.3-5.4v-31H66.4z M58.5,57h2.6v4.1h-2.6V57z M53.2,57h2.6v4.1h-2.6V57z M47.9,57h2.6v4.1h-2.6V57z M42.7,57h2.6v4.1
	h-2.6V57z M37.4,57h2.6v4.1h-2.6V57z M32.2,57h2.6v4.1h-2.6V57z M26.9,57h2.6v4.1h-2.6V57z M61.2,79.9H26.9V63.8h34.3V79.9z
	 M29.5,77.2h29V66.5h-29V77.2z M26.9,82.6h15.8v2.7H26.9V82.6z M45.3,82.6h15.8v2.7H45.3V82.6z M26.9,88h15.8v2.7H26.9V88z M45.3,88
	h15.8v2.7H45.3V88z M26.9,93.5h15.8v2.7H26.9V93.5z M45.3,93.5h15.8v2.7H45.3V93.5z M26.9,98.9h15.8v2.7H26.9V98.9z M45.3,98.9h15.8
	v2.7H45.3V98.9z"/>
<g class="st2">
	<path class="st10" d="M492.3,52.2c-0.5-8.9-0.7-17.7-1-26.6c-0.2-8.9-0.4-17.7-0.6-26.6c-0.2-8.9-0.2-17.7-0.3-26.6l-0.1-26.6
		l0,0.2c-0.1-0.8,0-1.4,0-2.1c0.1-0.7,0.2-1.3,0.3-2c0.3-1.3,1-2.7,1.9-3.8c0.9-1.1,2.2-2,3.6-2.5c0.7-0.2,1.3-0.4,2-0.5
		c0.7-0.1,1.3-0.2,1.9-0.2c4.7-0.2,9.2-0.2,13.8-0.2l13.7,0.2l13.7,0.3c4.6,0.1,9.1,0.3,13.7,0.4l6.8,0.2c0.6,0,1.1,0,1.8,0.1
		c0.7,0.1,1.2,0.2,1.9,0.4c1.2,0.4,2.3,1,3.3,1.9c1.9,1.7,2.9,3.9,3.6,6.2c0.7,2.3,1,4.6,1.1,6.9c0.2,4.6-0.2,9.2-1,13.7
		c0.5-4.5,0.6-9.1,0.1-13.6c-0.3-2.2-0.7-4.5-1.4-6.5c-0.7-2.1-1.8-4-3.4-5.3c-0.8-0.7-1.7-1.1-2.7-1.4c-0.5-0.1-1-0.2-1.5-0.2
		c-0.5,0-1.1,0-1.6,0l-6.8,0.1L541.2-62l-27.3,0.3l-6.8,0.1c-2.3,0-4.6,0.1-6.7,0.2c-2.1,0.1-3.7,0.7-4.7,1.9
		c-0.5,0.6-0.9,1.4-1.1,2.3c-0.1,0.4-0.2,0.9-0.2,1.4c0,0.4,0,1,0,1.3l0,0.1l0,0.1l-0.1,26.6c-0.1,8.9-0.1,17.7-0.3,26.6
		c-0.1,8.9-0.3,17.7-0.6,26.6C493,34.4,492.8,43.3,492.3,52.2z"/>
</g>
<g class="st2">
	<path class="st10" d="M493.9-47.9l19.8-0.4l19.8-0.3c6.6-0.1,13.2-0.4,19.8-0.1c6.6,0.3,13.2,0.6,19.8,1.5l0,0.3
		c-6.6,0.8-13.2,1-19.8,1.2c-6.6,0.2-13.2-0.3-19.8-0.5l-19.8-0.6l-19.8-0.8L493.9-47.9z"/>
</g>
<g class="st2">
	<path class="st10" d="M573.9,55l-20.6,0.5L533,56c-6.7,0.1-13.4,0.3-20.1,0.3c-6.7,0.1-13.4,0.2-20,0.2l1.5-1.4l-0.1,11l0,0.1
		l0,0.1c0,0.3,0,0.7,0,1.1c0,0.4,0.1,0.8,0.2,1.1c0.2,0.7,0.5,1.4,0.9,2c0.9,1.2,2.3,2,3.9,2.4c0.8,0.2,1.7,0.3,2.5,0.4l2.8,0.1
		l5.6,0.1l22.6,0.2l22.6,0.3l5.7,0.1l2.8,0c0.9,0,1.8,0.1,2.7-0.1c1.7-0.2,3.4-1,4.7-2.2c1.3-1.2,2.1-2.9,2.5-4.7l0,0.1L573.9,55z
		 M573.9,55l0.7,12l0,0l0,0c-0.3,2-1.2,3.8-2.5,5.3c-1.3,1.5-3.3,2.5-5.2,2.8c-1,0.2-2,0.2-2.9,0.2l-2.8,0.1l-5.7,0.1
		c-7.5,0.2-15.1,0.3-22.6,0.4c-7.5,0.1-15.1,0.2-22.6,0.1l-5.7,0l-2.9-0.1c-1-0.1-2.1-0.2-3.1-0.4c-2-0.5-4.2-1.6-5.6-3.5
		c-0.7-0.9-1.2-2-1.4-3.1c-0.1-0.5-0.2-1.1-0.3-1.6c0-0.6,0-1.1,0-1.7l0,0.2l0.1-11l0-1.4l1.4,0c6.8,0,13.7,0.1,20.5,0.2
		c6.8,0.1,13.6,0.2,20.4,0.3c6.8,0.1,13.5,0.3,20.2,0.5L573.9,55z"/>
</g>
<path class="st11" d="M682.9-65.1h20.4c0,0,1.5,51.8,1.5,58.8c0,4.9-8.5,8.6-11.7,8.9c-8.7-0.4-13.6-3.1-13.6-11.3s0-73,0-73h-78.2
	v73c0,0,2.1,13,11.8,12.7"/>
<path class="st12" d="M174.4,157.7H23.6c-12,0-21.8-9.8-21.8-21.8V40.6c0-12,9.8-21.8,21.8-21.8h150.8c12,0,21.8,9.8,21.8,21.8v95.3
	C196.2,147.9,186.4,157.7,174.4,157.7z"/>
<rect x="98.8" y="127.1" class="st13" width="123.6" height="48.5"/>
<text transform="matrix(1 0 0 1 98.7581 136.2868)"><tspan x="0" y="0" class="st14 st15 st16">электронные </tspan><tspan x="0" y="14.4" class="st14 st15 st16">заявки</tspan></text>
</svg>
