<?xml version="1.0" encoding="utf-8"?>
<!-- Generator: Adobe Illustrator 24.1.2, SVG Export Plug-In . SVG Version: 6.00 Build 0)  -->
<svg version="1.1" id="Слой_1" xmlns="http://www.w3.org/2000/svg" xmlns:xlink="http://www.w3.org/1999/xlink" x="0px" y="0px"
	 viewBox="0 0 200 171.9" style="enable-background:new 0 0 200 171.9;" xml:space="preserve">
<style type="text/css">
	.st0{opacity:0.5;fill:#66CCFF;enable-background:new    ;}
	.st1{opacity:0.3;fill:#66CCFF;enable-background:new    ;}
	.st2{fill:#999999;}
	.st3{display:none;}
	.st4{display:inline;}
	.st5{fill:none;stroke:#CCCCCC;stroke-width:0.5296;stroke-miterlimit:10;}
	.st6{fill:none;}
	.st7{fill:#666666;}
	.st8{font-family:'Roboto-Regular';}
	.st9{font-size:12px;}
</style>
<g id="Слой_2_1_">
	<circle class="st0" cx="144" cy="55.6" r="39.2"/>
	<circle class="st1" cx="102.3" cy="69.3" r="32.9"/>
</g>
<g id="Слой_1_1_">
	<g>
		<g>
			<path class="st2" d="M17.4,53.6l-3.9,0.1l0.1-0.1c0.2,4.9,0.3,9.8,0.4,14.7l0.3,14.7l0.2,14.7l0.2,14.7l-1.1-1.1l15.7-0.1
				c5.2-0.1,10.5-0.1,15.7-0.1h-0.1c0.3,0,0.4,0,0.6,0c0.2,0,0.3,0,0.5,0.1c0.3,0.1,0.6,0.1,0.9,0.2c0.6,0.2,1.2,0.4,1.8,0.8
				c0.6,0.4,1.1,0.8,1.4,1.3c0.4,0.5,0.7,1.1,0.9,1.7l-0.1-0.1c0,0,0.1,0.1,0.2,0.1c0.1,0.1,0.3,0.2,0.5,0.3
				c0.4,0.2,0.8,0.3,1.3,0.4c0.9,0.2,2,0.3,3,0.3c1,0.1,2.1,0,3.1-0.2c0.5-0.1,1-0.2,1.4-0.3c0.5-0.1,0.9-0.3,1.1-0.4
				c-0.1,0.1,0.2-0.2,0.3-0.4c0.2-0.2,0.3-0.4,0.4-0.6c0.3-0.4,0.6-0.8,0.9-1.3c0.3-0.5,0.7-1,1.2-1.5c0.3-0.3,0.6-0.5,1.1-0.7
				c0.2-0.1,0.5-0.1,0.8-0.2h0.4l6.5-0.2c8.7-0.3,17.3-0.4,26-0.6l-1,1.1l-0.1-14.3V82.1l0.1-14.3c0.1-4.8,0.1-9.6,0.2-14.3l0.1,0.1
				l-3.3-0.1l3.3-0.1c0.1,0,0.1,0.1,0.1,0.1l0,0c0.2,4.8,0.4,9.5,0.6,14.3l0.5,14.3l0.4,14.3l0.4,14.3c0,0.6-0.5,1.1-1,1.1l0,0
				c-8.7,0.3-17.3,0.7-26,0.9l-6.5,0.2h-0.4c0,0,0,0-0.1,0c0,0-0.1,0.1-0.2,0.2c-0.3,0.2-0.5,0.6-0.8,1c-0.3,0.4-0.6,0.9-0.9,1.4
				c-0.2,0.3-0.4,0.5-0.5,0.7c-0.1,0.1-0.2,0.3-0.3,0.4c-0.1,0.1-0.3,0.3-0.5,0.5c-0.7,0.5-1.3,0.6-1.9,0.8
				c-0.6,0.2-1.2,0.3-1.8,0.3c-1.1,0.2-2.3,0.2-3.4,0.2c-1.1-0.1-2.3-0.2-3.5-0.4c-0.6-0.1-1.2-0.3-1.8-0.6
				c-0.3-0.2-0.6-0.3-0.9-0.6c-0.3-0.3-0.7-0.6-0.9-1.1l-0.1-0.1c-0.2-0.4-0.3-0.7-0.6-1c-0.2-0.3-0.5-0.6-0.8-0.8
				c-0.3-0.2-0.7-0.4-1-0.5c-0.2-0.1-0.4-0.1-0.6-0.1c-0.1,0-0.2,0-0.3,0c-0.1,0-0.2,0-0.3,0H45c-5.2,0-10.5,0-15.7-0.1l-15.7-0.1
				l0,0c-0.6,0-1.1-0.5-1.1-1.1l0,0l0.2-14.7l0.2-14.7l0.2-14.7c0.1-4.9,0.2-9.8,0.4-14.7l0,0c0-0.1,0.1-0.1,0.1-0.1L17.4,53.6z"/>
		</g>
		<g>
			<path class="st2" d="M56.3,106.9c-0.1-4.3-0.1-8.6-0.2-12.9c-0.1-4.2-0.2-8.5-0.4-12.6c-0.1-4.1-0.3-8.3-0.4-12.4l-0.2-12.3v0.2
				c0-0.1-0.1-0.3-0.1-0.4C55,56.2,55,56,54.9,55.9c-0.1-0.3-0.3-0.6-0.4-0.9c-0.3-0.6-0.7-1.1-1.2-1.5c-0.5-0.5-1-0.8-1.6-1.1
				c-0.3-0.1-0.6-0.3-0.9-0.4c-0.3-0.1-0.6-0.2-1-0.3l-1-0.2l-1-0.1c-0.7-0.1-1.5-0.1-2.3-0.1h-4.6c-6.1,0-12.2,0.1-18.3,0.2
				l1.3-1.3l-0.1,12.7c0,4.2,0,8.5-0.1,12.7l-0.1,12.7l-0.2,12.7l-0.9-0.9l9.1,0.3c3,0.1,6.1,0.2,9.1,0.3l9.1,0.3h0.6
				c0.1,0,0.2,0,0.3,0c0.1,0,0.2,0.1,0.3,0.1c0.4,0.1,0.8,0.3,1.1,0.4c0.7,0.4,1.3,0.8,1.9,1.3C55,104.1,55.8,105.5,56.3,106.9z
				 M56.3,106.9c-0.7-1.3-1.5-2.6-2.6-3.6c-0.6-0.5-1.2-0.9-1.9-1.1c-0.3-0.2-0.7-0.3-1-0.3c-0.1,0-0.2-0.1-0.3-0.1
				c-0.1,0-0.2,0-0.3,0h-0.6l-9.1,0.2c-3,0.1-6,0.1-9.1,0.1l-9.1,0.1c-0.5,0-0.9-0.4-0.9-0.9l0,0l-0.2-12.7l-0.1-12.7
				c-0.1-4.2-0.1-8.5-0.1-12.7l-0.1-12.7c0-0.7,0.6-1.3,1.3-1.3c6.1-0.1,12.2-0.2,18.3-0.1c1.6,0,3.1,0.1,4.6,0.1
				c0.8,0,1.5,0.1,2.3,0.1l1.2,0.1c0.4,0.1,0.8,0.2,1.2,0.3c0.4,0.1,0.8,0.3,1.2,0.4c0.4,0.2,0.8,0.4,1.2,0.5
				c0.8,0.4,1.5,0.9,2.1,1.5c0.6,0.6,1.2,1.3,1.6,2.1c0.2,0.4,0.4,0.8,0.6,1.2c0.1,0.2,0.2,0.4,0.2,0.6c0.1,0.2,0.1,0.4,0.2,0.7
				c0,0.1,0,0.1,0,0.2l-0.2,12.8c-0.1,4.3-0.2,8.5-0.4,12.7c-0.1,4.2-0.3,8.3-0.4,12.5C56.4,98.8,56.4,102.9,56.3,106.9z"/>
		</g>
		<g>
			<path class="st2" d="M56.3,106.9c-0.1-4-0.1-8.1-0.2-12.2c-0.1-4.1-0.2-8.3-0.4-12.5c-0.1-4.2-0.3-8.4-0.4-12.7l-0.2-12.8
				c0-0.1,0-0.1,0-0.2c0.1-0.3,0.1-0.5,0.2-0.7c0.1-0.2,0.2-0.4,0.2-0.6c0.2-0.4,0.4-0.8,0.6-1.2c0.4-0.8,1-1.4,1.6-2.1
				c0.6-0.6,1.3-1.1,2.1-1.5c0.4-0.2,0.8-0.4,1.2-0.5c0.4-0.1,0.8-0.3,1.2-0.4c0.4-0.1,0.8-0.2,1.2-0.3l1.2-0.1
				c0.8-0.1,1.6-0.1,2.3-0.1c1.6-0.1,3.1-0.1,4.6-0.1c6.1-0.1,12.2,0,18.4,0.1c0.7,0,1.3,0.6,1.3,1.3L91.3,63c0,4.2,0,8.5-0.1,12.7
				l-0.1,12.7L91,101.2v0.1c0,0.5-0.4,0.9-0.9,0.9l-9.1-0.1c-3-0.1-6-0.1-9.1-0.1l-9.1-0.2h-0.6c-0.1,0-0.2,0-0.3,0
				c-0.1,0-0.2,0-0.3,0.1c-0.4,0.1-0.7,0.2-1,0.3c-0.7,0.3-1.3,0.7-1.9,1.1C57.8,104.3,57,105.5,56.3,106.9z M56.3,106.9
				c0.6-1.4,1.3-2.7,2.4-3.8c0.6-0.5,1.2-1,1.9-1.3c0.4-0.2,0.7-0.3,1.1-0.4c0.1,0,0.2-0.1,0.3-0.1c0.2,0,0.2,0,0.3,0H63l9.1-0.3
				c3-0.1,6-0.2,9.1-0.3l9.1-0.3l-0.9,0.9l-0.2-12.7L89,75.9c-0.1-4.2-0.1-8.5-0.1-12.7l-0.1-12.7l1.3,1.3
				c-6.1-0.1-12.2-0.2-18.3-0.2h-4.6c-0.8,0-1.6,0-2.3,0.1l-1,0.1l-1,0.2c-0.3,0.1-0.7,0.2-1,0.3c-0.3,0.1-0.6,0.3-0.9,0.4
				c-0.6,0.3-1.1,0.7-1.6,1.1c-0.5,0.4-0.9,0.9-1.2,1.5c-0.2,0.3-0.3,0.6-0.4,0.9c-0.1,0.2-0.1,0.3-0.2,0.5
				c-0.1,0.2-0.1,0.3-0.1,0.4v-0.2L57.3,69c-0.1,4.1-0.2,8.2-0.4,12.4c-0.1,4.1-0.3,8.4-0.4,12.6C56.4,98.2,56.4,102.5,56.3,106.9z"
				/>
		</g>
		<g>
			<path class="st2" d="M31.1,64.4c1.2-0.5,2.5-0.8,3.8-1c1.2-0.2,2.5-0.3,3.8-0.3c1.2,0,2.5,0.1,3.8,0.3c1.2,0.2,2.5,0.5,3.8,1
				c-1.2,0.5-2.5,0.8-3.8,1c-1.2,0.2-2.5,0.3-3.8,0.3c-1.2,0-2.5-0.1-3.8-0.3C33.6,65.2,32.3,65,31.1,64.4z"/>
		</g>
		<g>
			<path class="st2" d="M31.1,75.3c1.2-0.5,2.5-0.8,3.8-1c1.2-0.2,2.5-0.3,3.8-0.3c1.2,0,2.5,0.1,3.8,0.3c1.2,0.2,2.5,0.5,3.8,1
				c-1.2,0.5-2.5,0.8-3.8,1c-1.2,0.2-2.5,0.3-3.8,0.3c-1.2,0-2.5-0.1-3.8-0.3C33.6,76.1,32.3,75.9,31.1,75.3z"/>
		</g>
		<g>
			<path class="st2" d="M31.1,84.8c0.7-0.5,1.4-0.8,2.1-1c0.7-0.2,1.4-0.3,2.1-0.3c0.7,0,1.4,0.1,2.1,0.3c0.7,0.2,1.4,0.5,2.1,1
				c-0.7,0.5-1.4,0.8-2.1,1c-0.7,0.2-1.4,0.3-2.1,0.3c-0.7,0-1.4-0.1-2.1-0.3C32.5,85.6,31.8,85.4,31.1,84.8z"/>
		</g>
		<g>
			<path class="st2" d="M67.5,64.4c1.2-0.5,2.5-0.8,3.8-1c1.2-0.2,2.5-0.3,3.8-0.3c1.2,0,2.5,0.1,3.8,0.3c1.2,0.2,2.5,0.5,3.8,1
				c-1.2,0.5-2.5,0.8-3.8,1c-1.2,0.2-2.5,0.3-3.8,0.3c-1.2,0-2.5-0.1-3.8-0.3C70,65.2,68.7,65,67.5,64.4z"/>
		</g>
		<g>
			<path class="st2" d="M66.5,75.3c0.7-0.5,1.4-0.8,2.1-1S70,74,70.8,74s1.4,0.1,2.1,0.3c0.7,0.2,1.4,0.5,2.1,1
				c-0.7,0.5-1.4,0.8-2.1,1c-0.7,0.2-1.4,0.3-2.1,0.3c-0.7,0-1.4-0.1-2.1-0.3C68,76.1,67.2,75.9,66.5,75.3z"/>
		</g>
	</g>
	<g class="st3">
		<g class="st4">
			<g>
				<path class="st2" d="M49.2,96.4c-3.9,0.5-7.9,0.2-11.8-0.7c-1.9-0.5-3.8-1.1-5.6-2c-1.8-0.8-3.5-1.9-5.1-3.2
					c-1.6-1.2-3-2.7-4.2-4.3c-1.2-1.6-2.3-3.4-3.2-5.2c-1.7-3.7-2.6-7.7-3.1-11.6l0,0c0-0.1,0-0.1,0-0.1l0.1-2.8
					c0.1-0.9,0.3-1.9,0.4-2.8c0.2-0.9,0.5-1.9,0.7-2.8l1-2.7c1.5-3.5,3.7-6.8,6.5-9.4c2.7-2.6,6.1-4.8,9.6-6.1
					c3.6-1.4,7.5-1.9,11.2-1.8c3.8,0.2,7.6,1.1,11,2.7c3.4,1.7,6.5,4,8.9,6.9c1.2,1.4,2.2,3.1,3.1,4.7c0.8,1.7,1.4,3.5,1.9,5.2
					c0.5,1.8,0.7,3.6,0.9,5.5c0.1,1.9,0.1,3.7-0.1,5.5c0-1.8-0.2-3.7-0.4-5.4c-0.3-1.8-0.7-3.6-1.2-5.3c-1.1-3.4-2.9-6.6-5.3-9.2
					c-2.4-2.6-5.3-4.7-8.6-6.1c-1.6-0.7-3.3-1.2-5-1.6c-1.7-0.4-3.5-0.6-5.2-0.6c-0.9-0.1-1.8,0.1-2.6,0.1c-0.9,0-1.8,0.2-2.6,0.3
					c-0.9,0.1-1.7,0.4-2.5,0.6c-0.9,0.2-1.7,0.5-2.5,0.8c-3.3,1.2-6.3,3.2-8.7,5.6c-2.5,2.4-4.6,5.3-6,8.5l-0.9,2.4l-0.7,2.5
					l-0.4,2.6l-0.2,2.6v-0.1c0.3,3.8,1.2,7.5,2.6,11c1.4,3.5,3.7,6.6,6.5,9.1c2.8,2.5,6.3,4.3,10,5.4C41.5,95.9,45.3,96.5,49.2,96.4
					z"/>
			</g>
			<g>
				<path class="st2" d="M18.6,67.5c1.5-1.9,3.3-3.4,5.2-4.9c1.9-1.4,4-2.7,6.2-3.7c4.3-2.1,9.2-3.4,14-3.6c0.6,0,1.2-0.1,1.8-0.1
					l1.8,0.1c1.2,0.1,2.4,0.2,3.6,0.4c1.2,0.2,2.4,0.5,3.6,0.8c0.6,0.2,1.1,0.4,1.8,0.5c0.6,0.2,1.1,0.4,1.7,0.6
					c4.5,1.8,8.6,4.3,12.2,7.5c-4.1-2.3-8.4-4.2-12.8-5.5c-0.6-0.2-1.1-0.3-1.7-0.5c-0.6-0.2-1.1-0.3-1.7-0.4
					c-1.1-0.2-2.2-0.5-3.4-0.6c-2.3-0.3-4.6-0.4-6.8-0.3c-2.3,0.1-4.6,0.4-6.8,0.9c-2.2,0.5-4.4,1.2-6.6,2c-2.1,0.8-4.2,1.8-6.3,3
					C22.5,64.8,20.5,66.1,18.6,67.5z"/>
			</g>
			<g>
				<path class="st2" d="M34.6,48.7c-1.4,4-2.3,8.1-2.6,12.1c-0.3,4-0.1,8.1,1.1,11.9c0.6,1.9,1.4,3.7,2.5,5.4
					c1,1.7,2.3,3.2,3.7,4.7c2.9,2.8,6.3,5.2,10,7.3c-4.1-1.1-8-3.1-11.3-5.8c-1.7-1.4-3.2-3-4.5-4.8c-1.2-1.8-2.2-3.8-3-6
					c-1.3-4.2-1.4-8.7-0.7-13S32.2,52.2,34.6,48.7z"/>
			</g>
			<g>
				<path class="st2" d="M46.1,46.1"/>
			</g>
			<g>
				<path class="st2" d="M45.8,47.1c1.1,0.3,2.1,0.8,3,1.4c0.9,0.6,1.8,1.3,2.6,2.1c1.6,1.6,2.8,3.5,3.7,5.7
					c0.8,2.1,1.1,4.5,0.9,6.7c-0.2,2.2-0.8,4.4-1.9,6.3c0.1-2.2,0.1-4.3-0.1-6.3s-0.6-4-1.3-5.8C52,55.4,51,53.7,49.9,52
					C48.7,50.3,47.4,48.7,45.8,47.1z"/>
			</g>
			<g>
				<path class="st2" d="M36.8,90.1c0.2-0.8,0.5-1.3,0.8-1.8c0.4-0.5,0.8-0.9,1.2-1.2c0.5-0.3,1-0.6,1.5-0.7c0.6-0.2,1.2-0.2,2-0.1
					c-0.2,0.8-0.5,1.3-0.8,1.8c-0.4,0.5-0.8,0.9-1.2,1.2c-0.5,0.3-1,0.6-1.5,0.7C38.1,90.1,37.5,90.2,36.8,90.1z"/>
			</g>
			<g>
				<path class="st2" d="M25.1,70.5c0,1.7-0.6,3.4-1.8,4.7c-1.1,1.3-2.8,2.2-4.7,2.4c-0.9,0.1-1.9,0-2.8-0.3
					c-0.9-0.3-1.8-0.8-2.5-1.4c-1.5-1.3-2.4-3.4-2.4-5.4c0-2.1,0.9-4.1,2.4-5.4c0.7-0.7,1.7-1.1,2.5-1.4c0.9-0.3,1.9-0.4,2.8-0.3
					c1.9,0.2,3.6,1.1,4.7,2.4C24.5,67.1,25.2,68.8,25.1,70.5z M25.1,70.5c0-1.7-0.8-3.4-2-4.5c-0.6-0.6-1.3-0.9-2.1-1.2
					c-0.8-0.3-1.6-0.3-2.3-0.2c-1.6,0.2-2.9,1-3.8,2.1c-0.9,1.1-1.4,2.4-1.4,3.8c0,1.3,0.5,2.7,1.4,3.8s2.3,1.9,3.8,2.1
					c0.8,0.1,1.6,0,2.3-0.2c0.8-0.3,1.5-0.6,2.1-1.2C24.4,73.9,25.2,72.3,25.1,70.5z"/>
			</g>
			<g>
				<path class="st2" d="M46.3,44.8c0,1.7-0.6,3.4-1.8,4.7c-1.1,1.3-2.8,2.2-4.7,2.4c-0.9,0.1-1.9,0-2.8-0.3
					c-0.9-0.3-1.8-0.8-2.5-1.4c-1.5-1.3-2.4-3.4-2.4-5.4c0-2.1,0.9-4.1,2.4-5.4c0.7-0.7,1.7-1.1,2.5-1.4c0.9-0.3,1.9-0.4,2.8-0.3
					c1.9,0.2,3.6,1.1,4.7,2.4C45.7,41.3,46.3,43.1,46.3,44.8z M46.3,44.8c0-1.7-0.8-3.4-2-4.5c-0.6-0.5-1.4-0.9-2.1-1.1
					c-0.8-0.3-1.6-0.3-2.3-0.2c-1.6,0.2-2.9,1-3.8,2.1c-0.9,1.1-1.4,2.4-1.4,3.8c0,1.3,0.5,2.7,1.4,3.8c0.9,1.1,2.3,1.9,3.8,2.1
					c0.8,0.1,1.6,0,2.3-0.2c0.8-0.3,1.5-0.6,2.1-1.2C45.5,48.2,46.3,46.5,46.3,44.8z"/>
			</g>
			<g>
				<path class="st2" d="M60.6,57.8c0,1.7-0.6,3.4-1.8,4.7c-1.1,1.3-2.8,2.2-4.7,2.4c-0.9,0.1-1.9,0-2.8-0.3s-1.8-0.8-2.5-1.4
					c-1.5-1.3-2.4-3.4-2.4-5.4c0-2.1,0.9-4.1,2.4-5.4c0.7-0.7,1.7-1.1,2.5-1.4c0.9-0.3,1.9-0.4,2.8-0.3c1.9,0.2,3.6,1.1,4.7,2.4
					C60,54.4,60.6,56.1,60.6,57.8z M60.6,57.8c0-1.7-0.8-3.4-2-4.5c-0.6-0.6-1.3-0.9-2.1-1.2s-1.6-0.3-2.3-0.2
					c-1.6,0.2-2.9,1-3.8,2.1c-0.9,1.1-1.4,2.4-1.4,3.8c0,1.3,0.5,2.7,1.4,3.8c0.9,1.1,2.3,1.9,3.8,2.1c0.8,0.1,1.6,0,2.3-0.2
					c0.8-0.3,1.5-0.6,2.1-1.2C59.8,61.2,60.6,59.5,60.6,57.8z"/>
			</g>
			<g>
				<path class="st2" d="M37.2,91.9c0.2,1.7-0.3,3.5-1.3,4.9c-1,1.4-2.6,2.5-4.5,2.8c-0.9,0.2-1.9,0.2-2.8-0.1
					c-0.9-0.2-1.9-0.6-2.7-1.2c-1.6-1.2-2.7-3.1-2.9-5.2c-0.2-2,0.6-4.1,1.9-5.6c0.7-0.7,1.6-1.3,2.4-1.7c0.9-0.4,1.9-0.6,2.8-0.6
					c1.9,0,3.7,0.8,4.9,2C36.2,88.5,37,90.2,37.2,91.9z M37.2,91.9c-0.2-1.7-1.1-3.3-2.4-4.3c-0.7-0.5-1.4-0.8-2.2-1
					c-0.8-0.2-1.6-0.2-2.3,0c-1.5,0.3-2.8,1.2-3.6,2.4c-0.8,1.1-1.2,2.5-1.1,3.9c0.1,1.3,0.7,2.7,1.7,3.7c1,1,2.4,1.7,4,1.7
					c0.8,0,1.6-0.1,2.3-0.4c0.7-0.3,1.4-0.8,2-1.3C36.7,95.3,37.3,93.6,37.2,91.9z"/>
			</g>
		</g>
		<g class="st4">
			<path class="st2" d="M60.3,84.1c-0.4,1-0.9,2-1.3,3.1c-0.5,1-0.9,2-1.4,3c-0.5,1-1,2-1.4,3c-0.5,1-1,2-1.5,3l0.1-0.8
				c1,2.6,2.3,5,4.1,7c1.7,2.1,3.8,3.8,6.2,5c2.4,1.2,5,2,7.7,2.2c2.7,0.2,5.4-0.1,8.1-0.8l-0.5,0.4l1.9-2.4
				c0.6-0.8,1.3-1.6,1.9-2.4c1.3-1.6,2.6-3.2,4-4.8c-1,1.8-2,3.6-3.1,5.4c-0.5,0.9-1,1.8-1.6,2.6l-1.6,2.6c-0.1,0.2-0.3,0.3-0.4,0.3
				h-0.1l-2.1,0.7c-0.7,0.2-1.4,0.3-2.2,0.5c-0.7,0.1-1.5,0.2-2.2,0.3c-0.8,0.1-1.5,0.1-2.3,0.1c-3-0.1-6.1-0.9-8.7-2.3
				c-2.7-1.4-5.1-3.4-6.9-5.8c-1.9-2.4-3.2-5.1-4-8v-0.1c-0.1-0.3,0-0.5,0.1-0.7c0.6-0.9,1.2-1.9,1.8-2.8c0.6-0.9,1.2-1.9,1.8-2.8
				c0.6-0.9,1.2-1.9,1.9-2.8C59,85.9,59.7,84.9,60.3,84.1z"/>
		</g>
		<g class="st4">
			<path class="st2" d="M53,74.9c1.6,1.9,3.3,3.8,4.9,5.6l4.8,5.4l4.7,5.3c1.6,1.8,3,3.5,4.5,5.3l-0.7-0.4c2.5,0.2,4.9,0.3,7.4,0.4
				l7.4,0.5c2.5,0.2,4.9,0.4,7.4,0.5l7.4,0.5l-1.1,2l-8.3-11.6c-2.7-3.9-5.4-7.8-8.1-11.7l0.8,0.4l-7.5-0.5l-7.6-0.7L61,75.5l-4-0.3
				L53,74.9z M53,74.9l3.7,0.1l3.8,0.1l7.7,0.1l7.9,0.1l8,0.2c0.3,0,0.6,0.2,0.8,0.4l0.1,0.1c2.8,3.8,5.6,7.7,8.5,11.5l8.3,11.5
				c0.4,0.6,0.3,1.4-0.3,1.8c-0.3,0.2-0.6,0.3-0.9,0.3l-7.4-0.6c-2.5-0.2-4.9-0.4-7.4-0.6l-7.4-0.7c-2.5-0.2-4.9-0.5-7.4-0.7h-0.1
				c-0.3,0-0.5-0.2-0.7-0.4c-1.5-2-3-3.9-4.5-5.9l-4.3-5.9L57,80.6C55.8,78.6,54.4,76.8,53,74.9z"/>
		</g>
		<g class="st4">
			<path class="st2" d="M83.4,87.3c1,0.8,1.9,1.7,2.7,2.6s1.8,1.8,2.6,2.7c0.8,0.9,1.7,1.9,2.5,2.8c0.8,0.9,1.6,1.9,2.4,2.8
				c0.2,0.2,0.3,0.5,0.3,0.8V99c0,1.6,0,3.2,0,4.8c0,1.6-0.1,3.2-0.2,4.8c-0.1,1.6-0.2,3.2-0.4,4.8c-0.2,1.6-0.4,3.2-0.7,4.8
				c-0.3-1.6-0.5-3.2-0.7-4.8c-0.2-1.6-0.3-3.2-0.4-4.8c-0.1-1.6-0.2-3.2-0.2-4.8s-0.1-3.2,0-4.8l0.3,0.8c-0.8-1-1.5-2-2.2-3
				c-0.7-1-1.4-2-2.1-3.1c-0.7-1-1.4-2.1-2-3.2C84.6,89.4,84,88.4,83.4,87.3z"/>
		</g>
	</g>
	<g class="st3">
		<g class="st4">
			<path class="st2" d="M72.9,87.1c0.7,2.3,1,4.8,0.9,7.3c-0.1,2.5-0.7,5-1.6,7.3c-0.9,2.3-2.3,4.5-3.9,6.5c-1.6,2-3.5,3.6-5.6,5.1
				c-4.1,2.9-9.1,4.7-14.2,4.9c-0.3,0-0.6,0.1-1,0.1l-1-0.1c-0.6-0.1-1.3-0.1-1.9-0.1l-1.9-0.3l-0.5-0.1l-0.5-0.1l-0.9-0.3l-0.9-0.3
				c-0.3-0.1-0.6-0.2-0.9-0.3c-0.6-0.2-1.2-0.4-1.8-0.7c-1.1-0.6-2.3-1.1-3.4-1.8l-0.8-0.5c-0.3-0.2-0.5-0.4-0.8-0.6
				c-0.5-0.4-1-0.8-1.6-1.2l-1.4-1.3l-0.4-0.3l-0.3-0.4l-0.6-0.7l-0.6-0.7c-0.2-0.3-0.4-0.5-0.6-0.8c-0.4-0.5-0.8-1-1.1-1.6l-1-1.7
				c-0.2-0.3-0.3-0.6-0.5-0.8l-0.4-0.9l-0.4-0.9c-0.1-0.3-0.2-0.6-0.3-0.9c-0.2-0.6-0.5-1.2-0.6-1.8l-0.5-1.9l-0.1-0.5l-0.1-0.5
				l-0.2-0.9c-0.2-1.2-0.2-2.5-0.3-3.8c0.1-0.6,0.1-1.3,0.1-1.9c0.1-0.3,0.1-0.6,0.1-0.9l0.2-0.9l0.2-0.9c0.1-0.3,0.1-0.6,0.2-0.9
				l0.5-1.8c0.2-0.6,0.4-1.2,0.7-1.8c0.2-0.6,0.5-1.1,0.8-1.7c1.1-2.3,2.5-4.4,4.1-6.3c1.7-1.9,3.5-3.6,5.5-4.9
				c2.1-1.4,4.3-2.5,6.7-3.1c-1.1,0.4-2.3,0.9-3.3,1.6l-0.8,0.4l-0.7,0.5c-0.3,0.2-0.5,0.4-0.7,0.5l-0.7,0.6c-1.9,1.5-3.6,3.3-5,5.2
				c-1.4,1.9-2.6,4-3.6,6.2c-0.2,0.6-0.5,1.1-0.6,1.7c-0.2,0.6-0.4,1.1-0.5,1.7l-0.4,1.7c-0.1,0.3-0.1,0.6-0.2,0.9l-0.1,0.9
				l-0.1,0.9c-0.1,0.3,0,0.6-0.1,0.9c0,0.6-0.1,1.2-0.1,1.8c0.1,1.2,0.1,2.3,0.4,3.5l0.2,0.9l0.1,0.4l0.1,0.4l0.5,1.7
				c0.2,0.6,0.4,1.1,0.6,1.7c0.1,0.3,0.2,0.6,0.3,0.8l0.4,0.8l0.4,0.8c0.1,0.3,0.3,0.5,0.4,0.8l0.9,1.5c0.3,0.5,0.7,0.9,1,1.4
				c0.2,0.2,0.4,0.5,0.5,0.7l0.6,0.6l0.6,0.6l0.3,0.3l0.3,0.3l1.3,1.2c0.5,0.4,0.9,0.7,1.4,1c0.3,0.2,0.5,0.4,0.7,0.5l0.7,0.5
				c1,0.7,2,1.1,3.1,1.6c0.5,0.2,1.1,0.4,1.6,0.6c0.3,0.1,0.5,0.2,0.8,0.3l0.8,0.2l0.8,0.2l0.4,0.1c0.2,0.1,0.3,0.1,0.4,0.1l1.7,0.3
				c0.6,0.1,1.1,0.1,1.8,0.1l0.9,0.1c0.3,0,0.6,0,0.9,0c4.7-0.1,9.3-1.7,13.3-4.1c4-2.5,7.4-6.1,9.4-10.4c1-2.1,1.7-4.5,2-6.8
				C73.4,92,73.3,89.5,72.9,87.1z"/>
		</g>
		<g class="st4">
			<path class="st2" d="M25,82.9c2.2-0.5,4.3-0.8,6.5-1c2.2-0.2,4.3-0.3,6.5-0.3s4.3,0.1,6.5,0.3c2.2,0.2,4.3,0.5,6.5,1
				c-2.2,0.5-4.3,0.8-6.5,1c-2.2,0.2-4.3,0.3-6.5,0.3s-4.3-0.1-6.5-0.3C29.3,83.7,27.1,83.4,25,82.9z"/>
		</g>
		<g class="st4">
			<path class="st2" d="M23.6,99.2c4.1-0.5,8.2-0.8,12.2-1C39.9,98,44,97.9,48,97.9c4.1,0,8.2,0.1,12.2,0.3c4.1,0.2,8.2,0.5,12.2,1
				c-4.1,0.5-8.2,0.8-12.2,1c-4.1,0.2-8.2,0.3-12.2,0.3c-4.1,0-8.2-0.1-12.2-0.3C31.8,100.1,27.7,99.7,23.6,99.2z"/>
		</g>
		<g class="st4">
			<path class="st2" d="M48,78.4c0.5,3.2,0.8,6.4,0.9,9.7c0.2,3.2,0.2,6.4,0.2,9.6c-0.1,3.2-0.2,6.4-0.4,9.6
				c-0.2,3.2-0.5,6.4-1.1,9.6c-0.5-3.2-0.8-6.4-0.9-9.7c-0.2-3.2-0.2-6.4-0.2-9.6c0.1-3.2,0.2-6.4,0.4-9.6
				C47.2,84.8,47.5,81.6,48,78.4z"/>
		</g>
		<g class="st4">
			<path class="st2" d="M40.2,72.1c-1.1,1.7-2,3.5-2.8,5.3c-0.8,1.8-1.4,3.7-2,5.6c-1,3.8-1.3,7.7-0.9,11.5c0.2,1.9,0.6,3.8,1.2,5.6
				l0.2,0.7l0.3,0.7c0.2,0.5,0.3,0.9,0.5,1.3c0.4,0.9,0.8,1.8,1.2,2.6c1.8,3.5,4.1,6.8,6.6,10c-3.3-2.4-6.1-5.5-8.3-9
				c-0.6-0.9-1-1.8-1.6-2.7c-0.3-0.5-0.4-0.9-0.7-1.4l-0.3-0.7l-0.3-0.7c-0.7-2-1.2-4-1.4-6.2c-0.3-2.1-0.3-4.2,0.1-6.3
				c0.3-2.1,0.8-4.1,1.5-6.1c0.7-2,1.7-3.8,2.8-5.5C37.4,75.1,38.7,73.4,40.2,72.1z"/>
		</g>
		<g class="st4">
			<path class="st2" d="M62.3,84.7c0.7,2.8,0.9,5.8,0.8,8.7s-0.7,5.9-1.6,8.7c-0.9,2.8-2.3,5.5-4.2,7.9c-0.9,1.2-2,2.2-3.2,3.2
				c-1.2,0.9-2.4,1.7-3.8,2.3c1-1,2-2.1,2.9-3.2c0.9-1.1,1.7-2.2,2.4-3.4c1.4-2.4,2.5-4.9,3.4-7.6s1.5-5.4,2-8.1
				C61.6,90.4,62,87.6,62.3,84.7z"/>
		</g>
		<g class="st4">
			<path class="st2" d="M53.1,51.6c-0.5,1.1-0.9,2.1-1.4,3.2c-0.5,1.1-1,2.1-1.5,3.2c-0.5,1-1,2.1-1.6,3.2c-0.5,1-1,2.1-1.6,3.1
				l0.1-0.8c1,2.7,2.4,5.2,4.2,7.4c1.8,2.2,4,4,6.5,5.3c2.5,1.3,5.2,2.1,8.1,2.3c2.8,0.2,5.7-0.1,8.5-0.9L74,77.9l2-2.6
				c0.7-0.9,1.3-1.7,2-2.5c1.3-1.7,2.7-3.4,4.1-5c-1,1.9-2.1,3.8-3.3,5.6c-0.6,0.9-1.1,1.9-1.7,2.8L75.4,79
				c-0.1,0.2-0.3,0.3-0.4,0.3H75L72.7,80c-0.8,0.2-1.5,0.4-2.3,0.5c-0.8,0.1-1.6,0.2-2.3,0.3s-1.6,0.1-2.4,0.1
				c-3.2-0.1-6.3-1-9.1-2.4c-2.8-1.5-5.3-3.6-7.2-6.1c-2-2.5-3.3-5.4-4.1-8.3V64c-0.1-0.3-0.1-0.5,0.1-0.7c0.6-1,1.2-2,1.9-3
				c0.6-1,1.2-2,1.9-3c0.6-1,1.3-2,1.9-2.9C51.8,53.5,52.4,52.6,53.1,51.6z"/>
		</g>
		<g class="st4">
			<path class="st2" d="M45.5,42.1c1.7,2,3.4,4,5.1,6l5,5.7l4.9,5.6c1.6,1.9,3.2,3.7,4.7,5.6l-0.7-0.4c2.6,0.2,5.2,0.3,7.8,0.5
				l7.8,0.5c2.6,0.2,5.2,0.4,7.8,0.5l7.8,0.6l-1.1,2l-8.7-12.2c-2.8-4.1-5.7-8.1-8.5-12.3l0.8,0.4L69.9,44l-8-0.7l-8.2-0.7l-4.1-0.3
				L45.5,42.1z M45.5,42.1l3.9,0.1l3.9,0.1l8.1,0.1l8.3,0.1l8.3,0.2c0.3,0,0.6,0.2,0.8,0.4l0.1,0.1c3,4,5.9,8,8.9,12l8.7,12.1
				c0.4,0.6,0.3,1.4-0.3,1.8c-0.3,0.2-0.6,0.3-0.9,0.3l-7.8-0.6c-2.6-0.2-5.2-0.4-7.8-0.6l-7.7-0.7c-2.6-0.2-5.2-0.5-7.7-0.7h-0.1
				c-0.3,0-0.5-0.2-0.7-0.4c-1.6-2-3.2-4.1-4.7-6.2l-4.6-6.1l-4.5-6C48.4,45.9,46.9,44,45.5,42.1z"/>
		</g>
		<g class="st4">
			<path class="st2" d="M77.3,55c1,0.9,2,1.8,2.9,2.7c0.9,0.9,1.8,1.9,2.7,2.8c0.9,1,1.8,1.9,2.6,2.9c0.8,1,1.7,2,2.5,3
				c0.2,0.2,0.3,0.5,0.3,0.8v0.1c0,1.7,0,3.3,0,5c0,1.7-0.1,3.3-0.2,5c-0.1,1.7-0.2,3.3-0.4,5c-0.2,1.7-0.4,3.3-0.7,5
				c-0.3-1.7-0.5-3.3-0.7-5c-0.2-1.7-0.3-3.3-0.4-5c-0.1-1.7-0.2-3.3-0.2-5c-0.1-1.7-0.1-3.3,0-5L86,68c-0.8-1-1.6-2.1-2.3-3.2
				c-0.8-1-1.5-2.1-2.2-3.2c-0.7-1.1-1.4-2.2-2.1-3.3C78.6,57.2,77.9,56.2,77.3,55z"/>
		</g>
	</g>
	<g class="st3">
		<g class="st4">
			<g>
				<path class="st2" d="M49.3,99c-3.9,0.5-7.9,0.2-11.8-0.7c-1.9-0.5-3.8-1.1-5.7-2c-1.8-0.9-3.6-1.9-5.2-3.2s-3.1-2.7-4.3-4.3
					c-1.3-1.6-2.3-3.4-3.2-5.2c-1.7-3.7-2.7-7.7-3.1-11.7l0,0c0-0.1,0-0.1,0-0.1l0.1-2.9c0.1-0.9,0.3-1.9,0.4-2.8
					c0.2-0.9,0.5-1.9,0.7-2.8l1-2.7c1.5-3.6,3.7-6.8,6.5-9.5c2.8-2.7,6.1-4.8,9.7-6.2c3.6-1.4,7.5-1.9,11.3-1.8
					c3.8,0.2,7.6,1.1,11.1,2.8c3.5,1.7,6.6,4,9,7c1.2,1.4,2.2,3.1,3.1,4.8c0.8,1.7,1.5,3.5,1.9,5.3c0.5,1.8,0.7,3.7,0.9,5.5
					c0.1,1.9,0.1,3.7-0.1,5.5c0-1.9-0.2-3.7-0.4-5.5c-0.3-1.8-0.7-3.6-1.2-5.3c-1.1-3.5-2.9-6.7-5.3-9.3c-2.4-2.6-5.4-4.8-8.6-6.2
					c-1.6-0.7-3.3-1.2-5.1-1.7c-1.7-0.4-3.5-0.6-5.3-0.7c-0.9-0.1-1.8,0.1-2.6,0.1c-0.9,0-1.8,0.2-2.6,0.3c-0.9,0.1-1.7,0.4-2.6,0.6
					c-0.9,0.2-1.7,0.5-2.5,0.8c-3.3,1.3-6.3,3.2-8.8,5.6c-2.5,2.4-4.6,5.4-6,8.6l-1,2.6l-0.7,2.5l-0.4,2.6l-0.2,2.6v-0.1
					c0.3,3.8,1.2,7.6,2.6,11.1c1.4,3.5,3.7,6.6,6.6,9.2c2.9,2.5,6.4,4.3,10.1,5.4C41.4,98.5,45.3,99.1,49.3,99z"/>
			</g>
			<g>
				<path class="st2" d="M18.4,69.9c1.5-1.9,3.4-3.5,5.3-4.9c1.9-1.4,4-2.7,6.2-3.8c4.3-2.1,9.2-3.4,14.1-3.6c0.6,0,1.2-0.1,1.9-0.1
					l1.9,0.1c1.2,0.1,2.4,0.2,3.7,0.5c1.2,0.2,2.4,0.5,3.6,0.8c0.6,0.2,1.2,0.4,1.8,0.6s1.1,0.4,1.7,0.6c4.6,1.8,8.7,4.3,12.3,7.5
					c-4.2-2.3-8.5-4.2-12.9-5.6c-0.6-0.2-1.1-0.3-1.7-0.5c-0.6-0.2-1.1-0.3-1.7-0.4c-1.1-0.2-2.3-0.5-3.4-0.6
					c-2.3-0.3-4.6-0.4-6.9-0.3c-2.3,0.1-4.6,0.4-6.8,0.9c-2.2,0.5-4.5,1.2-6.6,2s-4.3,1.9-6.3,3C22.3,67.2,20.3,68.5,18.4,69.9z"/>
			</g>
			<g>
				<path class="st2" d="M34.5,50.9c-1.4,4-2.3,8.1-2.7,12.2s-0.1,8.2,1.1,12c0.6,1.9,1.5,3.7,2.5,5.4s2.4,3.3,3.8,4.7
					c2.9,2.8,6.4,5.2,10,7.4c-4.1-1.1-8.1-3.1-11.4-5.9c-1.7-1.4-3.2-3-4.5-4.9c-1.2-1.8-2.2-3.8-3-6c-1.3-4.2-1.5-8.8-0.7-13
					C30.6,58.6,32.1,54.5,34.5,50.9z"/>
			</g>
			<g>
				<path class="st2" d="M46.1,48.3"/>
			</g>
			<g>
				<path class="st2" d="M45.8,49.4c1.1,0.3,2.1,0.8,3,1.4c0.9,0.6,1.8,1.3,2.6,2.1c1.6,1.6,2.9,3.6,3.7,5.7
					c0.8,2.2,1.1,4.5,0.9,6.7c-0.2,2.3-0.8,4.5-1.9,6.4c0.1-2.2,0.1-4.3-0.1-6.4c-0.2-2-0.6-4-1.3-5.9c-0.7-1.9-1.7-3.6-2.8-5.3
					C48.7,52.6,47.4,51,45.8,49.4z"/>
			</g>
			<g>
				<path class="st2" d="M36.6,92.6c0.2-0.8,0.5-1.3,0.8-1.8c0.4-0.5,0.8-0.9,1.2-1.2c0.5-0.3,1-0.6,1.6-0.7c0.6-0.2,1.2-0.3,2-0.1
					c-0.2,0.8-0.5,1.3-0.8,1.8c-0.4,0.5-0.8,0.9-1.2,1.2c-0.5,0.3-1,0.6-1.6,0.7C38,92.7,37.4,92.8,36.6,92.6z"/>
			</g>
			<g>
				<path class="st2" d="M24.9,72.9c0,1.7-0.6,3.4-1.8,4.8C22,79,20.2,80,18.4,80.1c-0.9,0.1-1.9,0-2.8-0.3s-1.8-0.8-2.6-1.4
					c-1.5-1.3-2.4-3.4-2.4-5.4s0.9-4.1,2.4-5.4c0.8-0.7,1.7-1.1,2.6-1.4c0.9-0.3,1.9-0.4,2.8-0.3c1.9,0.2,3.6,1.1,4.8,2.4
					C24.3,69.5,25,71.2,24.9,72.9z M24.9,72.9c0-1.7-0.8-3.4-2.1-4.5c-0.6-0.6-1.4-0.9-2.2-1.2c-0.8-0.3-1.6-0.3-2.4-0.2
					c-1.6,0.2-3,1-3.8,2.1c-0.9,1.1-1.4,2.5-1.4,3.8c0,1.4,0.5,2.7,1.4,3.8c0.9,1.1,2.3,1.9,3.8,2.1c0.8,0.1,1.6,0,2.4-0.2
					c0.8-0.3,1.5-0.6,2.2-1.2C24.2,76.3,25,74.6,24.9,72.9z"/>
			</g>
			<g>
				<path class="st2" d="M46.3,47c0,1.7-0.6,3.4-1.8,4.8c-1.1,1.3-2.9,2.3-4.8,2.4c-0.9,0.1-1.9,0-2.8-0.3c-0.9-0.3-1.8-0.8-2.6-1.4
					c-1.5-1.3-2.4-3.4-2.4-5.4c0-2.1,0.9-4.1,2.4-5.4c0.8-0.7,1.7-1.1,2.6-1.4c0.9-0.3,1.9-0.4,2.8-0.3c1.9,0.2,3.6,1.1,4.8,2.4
					C45.7,43.5,46.3,45.2,46.3,47z M46.3,47c0-1.7-0.8-3.4-2.1-4.5c-0.6-0.6-1.4-0.9-2.2-1.2c-0.8-0.3-1.6-0.3-2.4-0.2
					c-1.6,0.2-3,1-3.8,2.1c-0.9,1.1-1.4,2.5-1.4,3.8c0,1.4,0.5,2.7,1.4,3.8c0.9,1.1,2.3,1.9,3.8,2.1c0.8,0.1,1.6,0,2.4-0.2
					c0.8-0.3,1.5-0.6,2.2-1.2C45.5,50.4,46.3,48.7,46.3,47z"/>
			</g>
			<g>
				<path class="st2" d="M60.7,60.1c0,1.7-0.6,3.4-1.8,4.8c-1.1,1.3-2.9,2.3-4.8,2.4c-0.9,0.1-1.9,0-2.8-0.3
					c-0.9-0.3-1.8-0.8-2.6-1.4c-1.5-1.3-2.4-3.4-2.4-5.4c0-2.1,0.9-4.1,2.4-5.4c0.8-0.7,1.7-1.1,2.6-1.4c0.9-0.3,1.9-0.4,2.8-0.3
					c1.9,0.2,3.6,1.1,4.8,2.4C60.1,56.7,60.7,58.4,60.7,60.1z M60.7,60.1c0-1.7-0.8-3.4-2.1-4.5c-0.6-0.6-1.4-0.9-2.2-1.2
					c-0.8-0.3-1.6-0.3-2.4-0.2c-1.6,0.2-3,1-3.8,2.1c-0.9,1.1-1.4,2.5-1.4,3.8c0,1.4,0.5,2.7,1.4,3.8c0.9,1.1,2.3,1.9,3.8,2.1
					c0.8,0.1,1.6,0,2.4-0.2c0.8-0.3,1.5-0.6,2.2-1.2C59.9,63.5,60.7,61.8,60.7,60.1z"/>
			</g>
			<g>
				<path class="st2" d="M37.1,94.4c0.2,1.7-0.3,3.5-1.4,4.9c-1,1.4-2.7,2.5-4.6,2.8c-0.9,0.2-1.9,0.2-2.8-0.1
					c-0.9-0.2-1.9-0.6-2.7-1.2c-1.6-1.2-2.7-3.2-2.9-5.2c-0.2-2.1,0.6-4.1,1.9-5.6c0.7-0.7,1.6-1.3,2.4-1.7c0.9-0.4,1.9-0.6,2.8-0.6
					c1.9,0,3.7,0.8,5,2C36.2,91,37,92.7,37.1,94.4z M37.1,94.4c-0.2-1.7-1.1-3.4-2.4-4.3c-0.7-0.5-1.4-0.8-2.2-1
					c-0.8-0.2-1.6-0.2-2.4,0c-1.6,0.3-2.8,1.2-3.7,2.4c-0.8,1.2-1.2,2.6-1.1,3.9c0.1,1.4,0.7,2.7,1.8,3.7c1,1,2.4,1.7,4,1.7
					c0.8,0,1.6-0.1,2.3-0.4s1.4-0.8,2-1.4C36.6,97.9,37.2,96.1,37.1,94.4z"/>
			</g>
		</g>
		<g class="st4">
			<path class="st2" d="M60.4,86.5c-0.5,1-0.9,2.1-1.4,3.1c-0.5,1-0.9,2-1.4,3.1c-0.5,1-1,2-1.5,3c-0.5,1-1,2-1.5,3l0.1-0.8
				c1,2.6,2.4,5,4.1,7.1c1.8,2.1,3.9,3.8,6.3,5.1c2.4,1.2,5,2,7.7,2.2c2.7,0.2,5.5-0.1,8.1-0.8l-0.5,0.4l1.9-2.5
				c0.6-0.8,1.3-1.7,1.9-2.4c1.3-1.6,2.6-3.2,4-4.8c-1,1.8-2,3.6-3.1,5.4c-0.5,0.9-1.1,1.8-1.6,2.7l-1.7,2.6
				c-0.1,0.2-0.3,0.3-0.4,0.3h-0.1l-2.1,0.7c-0.7,0.2-1.4,0.4-2.2,0.5c-0.7,0.1-1.5,0.2-2.3,0.3c-0.8,0.1-1.5,0.1-2.3,0.1
				c-3.1-0.1-6.1-0.9-8.8-2.3c-2.7-1.4-5.1-3.5-6.9-5.9c-1.9-2.4-3.2-5.2-4-8v-0.1c-0.1-0.3-0.1-0.5,0.1-0.7
				c0.6-0.9,1.2-1.9,1.8-2.8c0.6-0.9,1.2-1.9,1.8-2.8c0.6-0.9,1.2-1.9,1.9-2.8C59.1,88.4,59.8,87.5,60.4,86.5z"/>
		</g>
		<g class="st4">
			<path class="st2" d="M53.1,77.4c1.6,1.9,3.3,3.8,4.9,5.7l4.8,5.5l4.7,5.3c1.6,1.8,3.1,3.6,4.6,5.3l-0.7-0.4
				c2.5,0.2,5,0.3,7.5,0.4l7.5,0.5c2.5,0.2,5,0.4,7.5,0.5l7.5,0.5l-1.1,2l-8.3-11.7c-2.7-3.9-5.5-7.8-8.2-11.8l0.8,0.4l-7.6-0.5
				L69,78.5l-7.9-0.7l-4-0.3L53.1,77.4z M53.1,77.4l3.7,0.1l3.8,0.1l7.8,0.1l7.9,0.1l8,0.2c0.3,0,0.6,0.2,0.8,0.4l0.1,0.1
				c2.8,3.8,5.7,7.7,8.5,11.5l8.4,11.6c0.4,0.6,0.3,1.4-0.3,1.8c-0.3,0.2-0.6,0.3-0.9,0.3l-7.5-0.6c-2.5-0.2-5-0.4-7.5-0.6l-7.5-0.7
				c-2.5-0.2-5-0.5-7.5-0.7H71c-0.3,0-0.5-0.2-0.7-0.4c-1.5-2-3.1-3.9-4.5-5.9l-4.4-5.9L57.2,83C55.8,81.1,54.5,79.2,53.1,77.4z"/>
		</g>
		<g class="st4">
			<path class="st2" d="M83.7,89.8c1,0.8,1.9,1.7,2.8,2.6c0.9,0.9,1.8,1.8,2.6,2.7c0.9,0.9,1.7,1.9,2.5,2.8c0.8,0.9,1.6,1.9,2.4,2.9
				c0.2,0.2,0.3,0.5,0.3,0.8v0.1c0,1.6,0,3.2,0,4.8s-0.1,3.2-0.2,4.8c-0.1,1.6-0.2,3.2-0.4,4.8c-0.2,1.6-0.4,3.2-0.7,4.8
				c-0.3-1.6-0.5-3.2-0.7-4.8c-0.2-1.6-0.3-3.2-0.4-4.8c-0.1-1.6-0.2-3.2-0.2-4.8s-0.1-3.2,0-4.8l0.3,0.8c-0.8-1-1.5-2-2.2-3
				c-0.7-1-1.4-2-2.2-3.1c-0.7-1-1.4-2.1-2.1-3.2C84.9,92,84.3,90.9,83.7,89.8z"/>
		</g>
	</g>
	<g class="st3">
		<g class="st4">
			<path class="st2" d="M93.7,113.8l-18.5,0.1L56.6,114l-37.1,0.5c-1.7,0.1-3.5-0.6-4.7-1.8c-1.2-1.2-2-2.9-2.1-4.7l-0.1-9.3
				l-0.2-18.5l-0.2-18.5v-9.3c0-1.9,0.7-3.8,2.1-5.1c1.3-1.3,3.2-2.1,5.1-2.1l18.5,0.1l18.5,0.2l37.1,0.5c1.7,0,3.4,0.7,4.6,1.9
				c1.2,1.2,1.9,2.9,1.9,4.6l-0.1,9.3l-0.2,18.5l-0.2,18.5v9.3c0,1.6-0.6,3.1-1.7,4.2C96.8,113.2,95.2,113.8,93.7,113.8z
				 M93.7,113.8c1.6,0,3.1-0.6,4.1-1.8c1.1-1.1,1.7-2.6,1.7-4.2v-9.3l-0.2-18.5l-0.2-18.5L99,52.3c0-1.4-0.7-2.8-1.7-3.7
				c-1-1-2.4-1.4-3.8-1.4l-37.1,0.5l-18.5,0.2l-18.5,0.1c-1.2,0-2.4,0.5-3.3,1.3c-0.9,0.9-1.3,2-1.3,3.3v9.3l-0.2,18.5l-0.2,18.5
				l-0.1,9.3c0,1.3,0.5,2.7,1.5,3.7c1,1,2.3,1.5,3.7,1.5l37.1,0.5l18.5,0.2L93.7,113.8z"/>
		</g>
		<g class="st4">
			<path class="st2" d="M46.2,87.7c3.2-0.5,6.3-0.8,9.5-1s6.3-0.3,9.5-0.3c3.2,0,6.3,0.1,9.5,0.3c3.2,0.2,6.3,0.5,9.5,1
				c-3.2,0.5-6.3,0.8-9.5,1C71.4,89,68.3,89,65.1,89c-3.2,0-6.3-0.1-9.5-0.3C52.5,88.6,49.3,88.3,46.2,87.7z"/>
		</g>
		<g class="st4">
			<path class="st2" d="M46.2,74.2c3.2-0.5,6.3-0.8,9.5-1c3.2-0.2,6.3-0.3,9.5-0.3c3.2,0,6.3,0.1,9.5,0.3c3.2,0.2,6.3,0.5,9.5,1
				c-3.2,0.5-6.3,0.8-9.5,1c-3.2,0.2-6.3,0.3-9.5,0.3c-3.2,0-6.3-0.1-9.5-0.3C52.5,75,49.3,74.7,46.2,74.2z"/>
		</g>
		<g class="st4">
			<path class="st2" d="M46.2,60.2c3.2-0.5,6.3-0.8,9.5-1c3.2-0.2,6.3-0.3,9.5-0.3c3.2,0,6.3,0.1,9.5,0.3c3.2,0.2,6.3,0.5,9.5,1
				c-3.2,0.5-6.3,0.8-9.5,1c-3.2,0.2-6.3,0.3-9.5,0.3c-3.2,0-6.3-0.1-9.5-0.3C52.5,61,49.3,60.8,46.2,60.2z"/>
		</g>
		<g class="st4">
			<g>
				<path class="st2" d="M26.4,58.7c0.8-0.1,1.3,0.2,1.9,0.4c0.5,0.2,1,0.5,1.4,0.9s0.8,0.8,1,1.3c0.3,0.5,0.5,1.1,0.6,1.9
					c-0.8,0.1-1.3-0.2-1.9-0.4c-0.5-0.2-1-0.5-1.4-0.9s-0.8-0.8-1-1.3C26.7,60.1,26.5,59.5,26.4,58.7z"/>
			</g>
			<g>
				<path class="st2" d="M37.5,56c-0.1,0.9-0.4,1.7-0.8,2.4c-0.4,0.7-0.8,1.3-1.3,2c-0.5,0.6-1.1,1.1-1.8,1.6
					c-0.7,0.5-1.4,0.9-2.3,1.1c0.1-0.9,0.4-1.7,0.8-2.4c0.4-0.7,0.8-1.3,1.3-2c0.5-0.6,1.1-1.1,1.8-1.6C35.8,56.7,36.5,56.3,37.5,56
					z"/>
			</g>
		</g>
		<g class="st4">
			<g>
				<path class="st2" d="M26.4,72c0.8-0.1,1.3,0.2,1.9,0.4c0.5,0.2,1,0.5,1.4,0.9s0.8,0.8,1,1.3c0.3,0.5,0.5,1.1,0.6,1.9
					c-0.8,0.1-1.3-0.2-1.9-0.4c-0.5-0.2-1-0.5-1.4-0.9s-0.8-0.8-1-1.3C26.7,73.3,26.5,72.8,26.4,72z"/>
			</g>
			<g>
				<path class="st2" d="M37.5,69.3c-0.1,0.9-0.4,1.7-0.8,2.4c-0.4,0.7-0.8,1.3-1.3,2c-0.5,0.6-1.1,1.1-1.8,1.6
					c-0.7,0.5-1.4,0.9-2.3,1.1c0.1-0.9,0.4-1.7,0.8-2.4c0.4-0.7,0.8-1.3,1.3-2c0.5-0.6,1.1-1.1,1.8-1.6S36.5,69.6,37.5,69.3z"/>
			</g>
		</g>
		<g class="st4">
			<path class="st2" d="M36.1,88c0,1.1-0.4,2.2-1.1,3.1c-0.7,0.9-1.8,1.6-3.1,1.8c-1.2,0.2-2.7-0.2-3.7-1.1
				c-1.1-0.9-1.8-2.3-1.7-3.7c0-1.4,0.7-2.8,1.7-3.7c1-0.9,2.5-1.3,3.7-1.1c1.3,0.2,2.4,0.9,3.1,1.8C35.7,85.8,36.1,86.9,36.1,88z
				 M36.1,88c0-1.1-0.5-2.2-1.3-2.8s-1.9-0.9-2.8-0.7c-0.9,0.2-1.7,0.7-2.2,1.3c-0.5,0.7-0.7,1.4-0.7,2.2s0.2,1.5,0.7,2.2
				c0.5,0.6,1.2,1.2,2.2,1.3c0.9,0.2,2-0.1,2.8-0.7C35.6,90.2,36.1,89.1,36.1,88z"/>
		</g>
		<g class="st4">
			<path class="st2" d="M46.2,102.3c3.2-0.5,6.3-0.8,9.5-1c3.2-0.2,6.3-0.3,9.5-0.3c3.2,0,6.3,0.1,9.5,0.3c3.2,0.2,6.3,0.5,9.5,1
				c-3.2,0.5-6.3,0.8-9.5,1c-3.2,0.2-6.3,0.3-9.5,0.3s-6.3-0.1-9.5-0.3C52.5,103.1,49.4,102.8,46.2,102.3z"/>
		</g>
		<g class="st4">
			<g>
				<path class="st2" d="M26.5,100.1c0.8-0.1,1.3,0.2,1.9,0.4c0.5,0.2,1,0.5,1.4,0.9c0.4,0.4,0.8,0.8,1,1.3c0.3,0.5,0.5,1.1,0.6,1.9
					c-0.8,0.1-1.3-0.2-1.9-0.4c-0.5-0.2-1-0.5-1.4-0.9c-0.4-0.4-0.8-0.8-1-1.3C26.8,101.4,26.6,100.8,26.5,100.1z"/>
			</g>
			<g>
				<path class="st2" d="M37.5,97.4c-0.1,0.9-0.4,1.7-0.8,2.4c-0.4,0.7-0.8,1.3-1.3,2c-0.5,0.6-1.1,1.1-1.8,1.6
					c-0.7,0.5-1.4,0.9-2.3,1.1c0.1-0.9,0.4-1.7,0.8-2.4c0.4-0.7,0.8-1.3,1.3-2c0.5-0.6,1.1-1.1,1.8-1.6C35.9,98,36.6,97.6,37.5,97.4
					z"/>
			</g>
		</g>
	</g>
	<g class="st3">
		<g class="st4">
			<path class="st2" d="M22.9,100.8c-1,0.1-2-0.1-2.9-0.5c-0.9-0.5-1.4-1.6-1.4-2.6l-0.2-6l-0.3-11.9C18,71.9,17.9,63.9,17.8,56
				l-0.2-6c0-0.5,0-1,0-1.5c0-0.6,0.1-1.2,0.3-1.8c0.4-1.2,1.2-2.2,2.2-2.9c0.5-0.4,1.1-0.6,1.7-0.8c0.3-0.1,0.6-0.2,0.9-0.2
				c0.2-0.1,0.3,0,0.5-0.1h0.2h0.2h3h6l23.8-0.1l23.8,0.1l6,0.1h1.5h0.7h0.4h0.5c1.2,0.1,2.4,0.6,3.4,1.4c0.9,0.8,1.6,1.9,1.9,3.1
				c0.1,0.3,0.1,0.6,0.2,0.9v0.5v0.4v1.5l-0.1,6c-0.1,7.9-0.2,15.9-0.4,23.8l-0.3,11.9l-0.1,3l-0.1,1.5c0,0.5,0,1-0.1,1.5
				c-0.1,1-0.7,2-1.6,2.5c-0.8,0.6-1.8,0.9-2.8,1c1-0.2,1.9-0.5,2.7-1.1c0.8-0.6,1.3-1.5,1.3-2.4c0.1-0.5,0-1,0-1.4l-0.1-1.5l-0.1-3
				l-0.3-11.9c-0.2-7.9-0.3-15.9-0.4-23.8l-0.1-6v-1.5v-0.4v-0.3c0-0.2-0.1-0.4-0.1-0.6c-0.2-0.7-0.6-1.4-1.2-1.9
				c-0.6-0.5-1.3-0.8-2.1-0.8h-0.3h-0.4h-0.7h-1.5l-6,0.1l-23.8,0.1l-23.8-0.1l-6-0.1h-3h-0.2h-0.2c-0.1,0-0.2,0-0.3,0
				c-0.2,0-0.4,0.1-0.6,0.1c-0.4,0.1-0.7,0.3-1,0.5c-0.6,0.4-1.1,1-1.4,1.8c-0.1,0.4-0.2,0.7-0.2,1.1v1.4l-0.1,6
				c-0.1,7.9-0.2,15.9-0.4,23.8l-0.3,11.9l-0.2,6c-0.1,0.9,0.3,1.9,1.1,2.4C20.9,100.6,21.9,100.8,22.9,100.8z"/>
		</g>
		<g class="st4">
			<path class="st2" d="M41.3,97.5c0,2.1-0.5,4.2-1.6,6.1c-0.6,0.9-1.3,1.8-2.2,2.4c-0.9,0.6-2,1.1-3.2,1.2
				c-1.2,0.1-2.4-0.2-3.5-0.7c-1-0.6-2-1.3-2.7-2.3c-1.4-1.9-2.1-4.2-2.1-6.6s0.7-4.7,2.1-6.6c0.7-0.9,1.7-1.8,2.7-2.3
				c1-0.6,2.3-0.8,3.5-0.7s2.3,0.5,3.2,1.2c0.9,0.6,1.6,1.5,2.2,2.4C40.7,93.3,41.2,95.4,41.3,97.5z M41.3,97.5
				c0-2.1-0.6-4.2-1.9-5.9c-0.6-0.8-1.4-1.5-2.3-1.9c-0.9-0.5-1.9-0.6-2.8-0.6c-1.9,0.2-3.4,1.4-4.3,3c-0.9,1.6-1.4,3.5-1.4,5.3
				c0,1.9,0.4,3.7,1.4,5.3c0.9,1.6,2.4,2.8,4.3,3c0.9,0.1,1.9-0.1,2.8-0.6c0.9-0.5,1.7-1.1,2.3-1.9C40.6,101.7,41.2,99.6,41.3,97.5z
				"/>
		</g>
		<g class="st4">
			<path class="st2" d="M63.1,93.6c0,2.1-0.5,4.2-1.6,6.1c-0.6,0.9-1.3,1.8-2.2,2.4c-0.9,0.6-2,1.1-3.2,1.2
				c-1.2,0.1-2.4-0.2-3.5-0.7c-1-0.6-2-1.3-2.7-2.3c-1.4-1.9-2.1-4.2-2.1-6.6s0.7-4.7,2.1-6.6c0.7-0.9,1.7-1.8,2.7-2.3
				c1-0.6,2.3-0.8,3.5-0.7c1.2,0.1,2.3,0.5,3.2,1.2c0.9,0.6,1.6,1.5,2.2,2.4C62.6,89.4,63.1,91.5,63.1,93.6z M63.1,93.6
				c0-2.1-0.6-4.2-1.9-5.9c-0.6-0.8-1.4-1.5-2.3-1.9c-0.9-0.5-1.9-0.6-2.8-0.6c-1.9,0.2-3.4,1.4-4.3,3c-0.9,1.6-1.4,3.5-1.4,5.3
				c0,1.9,0.4,3.7,1.4,5.3c0.9,1.6,2.4,2.8,4.3,3c0.9,0.1,1.9-0.1,2.8-0.6c0.9-0.5,1.7-1.1,2.3-1.9C62.5,97.8,63.1,95.7,63.1,93.6z"
				/>
		</g>
		<g class="st4">
			<path class="st2" d="M85,97.5c0,2.1-0.5,4.2-1.6,6.1c-0.6,0.9-1.3,1.8-2.2,2.4c-0.9,0.6-2,1.1-3.2,1.2c-1.2,0.1-2.4-0.2-3.5-0.7
				c-1-0.6-2-1.3-2.7-2.3c-1.4-1.9-2.1-4.2-2.1-6.6s0.7-4.7,2.1-6.6c0.7-0.9,1.7-1.8,2.7-2.3c1-0.6,2.3-0.8,3.5-0.7
				c1.2,0.1,2.3,0.5,3.2,1.2c0.9,0.6,1.6,1.5,2.2,2.4C84.5,93.3,85,95.4,85,97.5z M85,97.5c0-2.1-0.6-4.2-1.9-5.9
				c-0.6-0.8-1.4-1.5-2.3-1.9c-0.9-0.5-1.9-0.6-2.8-0.6c-1.9,0.2-3.4,1.4-4.3,3c-0.9,1.6-1.4,3.5-1.4,5.3c0,1.9,0.4,3.7,1.4,5.3
				c0.9,1.6,2.4,2.8,4.3,3c0.9,0.1,1.9-0.1,2.8-0.6c0.9-0.5,1.7-1.1,2.3-1.9C84.4,101.7,85,99.6,85,97.5z"/>
		</g>
		<g class="st4">
			<path class="st2" d="M48.7,79.1l-0.3-5L48,68.8c-0.1-1.8-0.2-3.6-0.3-5.5c-0.1-1.9-0.2-3.7-0.2-5.6c0-0.6,0.5-1.1,1.1-1.2
				c0.2,0,0.4,0.1,0.6,0.1l0.1,0.1c6.4,3.3,12.7,6.7,18.9,10.3h0.1c0.6,0.3,0.8,1,0.4,1.6c-0.1,0.2-0.3,0.4-0.5,0.5
				c-1.7,0.9-3.4,1.9-5,2.7c-1.7,0.9-3.4,1.8-5,2.6l-4.9,2.4L48.7,79.1z M48.7,79.1c1.7-1.1,3.3-2.2,4.8-3.2l4.6-3.1
				c1.5-1,3-2,4.5-3c1.4-1,3-1.9,4.4-2.8l0.1,2.1c-6.4-3.3-12.7-6.7-18.9-10.3l1.7-1c-0.1,1.7-0.1,3.4-0.2,5.1
				c-0.1,1.7-0.2,3.4-0.3,5.2l-0.4,5.4C48.8,75.3,48.7,77.1,48.7,79.1z"/>
		</g>
		<g class="st4">
			<path class="st2" d="M17.8,121.2c-0.6-1.6-0.6-3.3-0.2-5c0.4-1.7,1.2-3.4,2.6-4.6c1.4-1.2,3.2-2,4.9-2.1c1.8-0.1,3.4,0.2,4.9,1
				c-1.7,0.3-3.2,0.6-4.6,1c-0.4,0.1-0.7,0.3-1,0.4c-0.3,0.2-0.6,0.3-0.9,0.5c-0.6,0.3-1.1,0.7-1.7,1.1c-1,0.9-1.8,2-2.4,3.4
				C18.8,118.1,18.3,119.6,17.8,121.2z"/>
		</g>
		<g class="st4">
			<path class="st2" d="M39.5,121.2c-0.7-1.8-0.8-3.8-0.7-5.7c0.2-2,0.9-4,2.2-5.6c0.7-0.8,1.4-1.6,2.3-2.1c0.9-0.6,1.9-0.9,2.9-1.1
				c2-0.4,4-0.2,5.9,0.6c-1.9,0.3-3.7,0.7-5.2,1.3c-0.8,0.4-1.5,0.7-2.1,1.2c-0.6,0.5-1.2,1-1.7,1.7c-1,1.3-1.7,2.8-2.2,4.5
				C40.3,117.5,40,119.3,39.5,121.2z"/>
		</g>
		<g class="st4">
			<path class="st2" d="M73.9,121.2c-0.4-1.9-0.8-3.7-1.3-5.3c-0.6-1.7-1.2-3.2-2.2-4.5c-0.5-0.6-1-1.2-1.7-1.7
				c-0.6-0.5-1.3-0.9-2.1-1.2c-1.6-0.7-3.3-1-5.2-1.3c1.8-0.7,3.8-1,5.9-0.6c1,0.2,2,0.6,2.9,1.1c0.9,0.6,1.7,1.3,2.3,2.1
				c1.3,1.7,2,3.7,2.2,5.6C74.7,117.4,74.5,119.4,73.9,121.2z"/>
		</g>
		<g class="st4">
			<path class="st2" d="M95.1,121.2c-0.5-1.6-1-3.1-1.7-4.3c-0.7-1.3-1.4-2.5-2.4-3.4c-0.5-0.5-1-0.8-1.7-1.1
				c-0.3-0.2-0.6-0.3-0.9-0.5c-0.3-0.1-0.7-0.3-1-0.4c-1.4-0.5-2.9-0.7-4.6-1c1.5-0.8,3.2-1.1,4.9-1c1.8,0.1,3.6,0.8,4.9,2.1
				c1.4,1.2,2.2,3,2.6,4.6C95.6,117.9,95.6,119.6,95.1,121.2z"/>
		</g>
	</g>
	<g class="st3">
		<g class="st4">
			<path class="st2" d="M86.5,117.5l-19.3,0.1l-19.3,0.1c-6.4,0.1-12.8,0.2-19.3,0.2h-1.2c-0.4,0-0.8,0-1.2-0.1
				c-0.8-0.1-1.7-0.4-2.4-0.7s-1.5-0.8-2.2-1.3c-0.7-0.5-1.2-1.2-1.7-1.9c-0.5-0.7-0.8-1.5-1.1-2.3c-0.3-0.8-0.4-1.7-0.4-2.5
				l-0.1-4.8l-0.4-38.6l-0.1-9.6l-0.1-4.8v-1.2c0-0.2,0-0.4,0-0.7c0-0.2,0-0.5,0.1-0.7c0.1-0.9,0.4-1.8,0.7-2.6s0.9-1.7,1.4-2.3
				c0.6-0.7,1.3-1.3,2-1.9c0.8-0.5,1.6-0.9,2.5-1.2c0.9-0.3,1.8-0.4,2.7-0.5l9.6-0.1c0.7,0,1.3,0.6,1.3,1.3l0,0c0,4.5,0,8.9,0,13.4
				l-1.3-1.3c6.3,0,12.6,0,18.9,0.1s12.6,0.1,18.9,0.2l-1,1l-0.1-13.4l0,0c0-0.5,0.4-0.9,0.9-0.9l0,0l12.2,0.2
				c2.2,0.1,4.4,0.9,6,2.4c1.6,1.5,2.6,3.6,2.8,5.7c0.1,0.6,0.1,1.1,0.1,1.6V52l-0.1,3.1l-0.1,6.1l-0.2,12.2
				c-0.1,8.1-0.2,16.3-0.2,24.4v6.1v3.1c0,1,0.1,2-0.1,3.1c-0.2,2-1.3,3.9-2.8,5.3C90.5,116.7,88.5,117.5,86.5,117.5z M86.5,117.5
				c2,0,4-0.8,5.6-2.1c1.5-1.3,2.5-3.3,2.7-5.3c0.1-1,0.1-2,0.1-3.1V104v-6.1c-0.1-8.1-0.1-16.3-0.2-24.4l-0.2-12.2l-0.1-6.1
				l-0.1-3.1c0-1,0-2.1-0.1-3c-0.2-1.9-1.2-3.7-2.6-4.9c-1.4-1.2-3.3-2-5.1-2l-12.2,0.2l0.9-0.9l0.4,13.4c0,0.6-0.4,1-1,1l0,0h-0.1
				c-6.3,0.1-12.6,0.1-18.9,0.2S43,56,36.6,56c-0.7,0-1.3-0.6-1.3-1.2l0,0l0,0c0-4.5-0.1-8.9,0-13.4l1.3,1.3H27
				c-0.7,0-1.3,0.2-2,0.3c-0.7,0.2-1.2,0.5-1.9,0.9c-0.6,0.4-1.1,0.8-1.5,1.4c-0.4,0.5-0.8,1.1-1.1,1.8c-0.3,0.6-0.5,1.3-0.6,2
				c-0.1,0.2-0.1,0.4-0.1,0.5c0,0.2-0.1,0.3,0,0.5v1.2l-0.1,4.8l-0.1,9.6l-0.4,38.6l-0.1,4.8c0,0.8,0.1,1.5,0.3,2.2
				c0.2,0.7,0.5,1.4,0.9,2.1c0.4,0.6,0.9,1.2,1.5,1.7c0.6,0.5,1.2,0.9,1.9,1.2c0.7,0.3,1.4,0.6,2.2,0.6c0.4,0.1,0.8,0.1,1.1,0.1h1.2
				c6.4,0.1,12.8,0.2,19.3,0.2l19.3,0.1L86.5,117.5z"/>
		</g>
		<g class="st4">
			<path class="st2" d="M47.1,54.9c-0.4-1.2-0.3-2.4-0.1-3.6c0.3-1.2,0.9-2.3,1.8-3.3c0.8-1,2-1.7,3.3-2c1.2-0.4,2.5-0.2,3.6,0.3
				c-1.1,0.6-2.1,1-2.8,1.6c-0.8,0.5-1.5,1.1-2.1,1.8s-1.2,1.4-1.8,2.3L47.1,54.9z"/>
		</g>
		<g class="st4">
			<path class="st2" d="M55.7,46.4c1.1-0.5,2.4-0.7,3.6-0.3c1.2,0.3,2.4,1,3.3,2c0.9,0.9,1.4,2.1,1.8,3.3c0.3,1.2,0.4,2.4-0.1,3.6
				l-1.8-2.8c-0.6-0.9-1.1-1.7-1.8-2.3c-0.6-0.7-1.3-1.3-2.1-1.8C57.7,47.3,56.7,47,55.7,46.4z"/>
		</g>
		<g class="st4">
			<path class="st2" d="M36.5,73c-1.1,0-2.2,0.1-3.3,0.2c-0.3,0-0.6,0.1-0.8,0.1c-0.3,0.1-0.7,0.1-1-0.1c-0.7-0.2-1.2-0.9-1.3-1.7
				c-0.2-1.1-0.4-2.2-0.5-3.3c0-0.3-0.1-0.6-0.1-0.8c0-0.1,0-0.1,0-0.2s0-0.3,0-0.4c0.1-0.3,0.1-0.5,0.2-0.7c0.2-0.5,0.6-0.9,1-1.1
				c0.4-0.4,0.9-0.5,1.4-0.5c1.1,0,2.2,0.1,3.3,0.2c0.3,0,0.6,0.1,0.8,0.1l0.2,0.1c0.1,0,0.2,0.1,0.4,0.1c0.2,0.1,0.4,0.2,0.6,0.3
				c0.8,0.5,1.2,1.3,1.1,2.1c-0.2,1.1-0.4,2.2-0.5,3.3c-0.1,0.3-0.1,0.6-0.1,0.8c0,0.3-0.1,0.6-0.2,0.8C37.6,72.7,37.1,73,36.5,73z
				 M36.5,73c0.6,0,1.1-0.4,1.3-0.9c0.1-0.3,0.1-0.5,0.1-0.8c0-0.3-0.1-0.6-0.1-0.8c-0.1-1.1-0.3-2.2-0.5-3.3
				c-0.1-0.3-0.4-0.5-0.6-0.5c-0.1,0-0.1,0-0.2,0h-0.1h-0.2c-0.3,0.1-0.6,0.1-0.8,0.1c-1.1,0.2-2.3,0.3-3.4,0.3
				c-0.1,0-0.2,0-0.2,0.1L32,67.2c0,0,0,0,0,0.1c0,0,0,0.1,0,0.2c0,0.3-0.1,0.6-0.1,0.8c-0.1,1.1-0.3,2.2-0.5,3.3
				c-0.1,0.3,0,0.7,0.4,1c0.1,0.1,0.2,0.1,0.3,0.2c0.1,0.1,0.2,0.1,0.4,0.1c0.3,0.1,0.6,0.1,0.8,0.1C34.4,73,35.5,73,36.5,73z"/>
		</g>
		<g class="st4">
			<path class="st2" d="M51.7,73c-1.1,0-2.2,0.1-3.3,0.2c-0.3,0-0.6,0.1-0.8,0.1s-0.7,0.1-1-0.1c-0.7-0.2-1.2-0.9-1.3-1.7
				c-0.2-1.1-0.4-2.2-0.5-3.3c0-0.3-0.1-0.6-0.1-0.8c0-0.1,0-0.1,0-0.2s0-0.3,0-0.4c0.1-0.3,0.1-0.5,0.2-0.7c0.2-0.5,0.6-0.9,1-1.1
				s0.9-0.4,1.4-0.4c1.1,0,2.2,0.1,3.3,0.2c0.3,0,0.6,0.1,0.8,0.1l0.2,0.1c0.1,0,0.2,0.1,0.4,0.1c0.2,0.1,0.4,0.2,0.6,0.3
				c0.8,0.5,1.2,1.3,1.1,2.1c-0.2,1.1-0.4,2.2-0.5,3.3c-0.1,0.3-0.1,0.6-0.1,0.8c0,0.3-0.1,0.6-0.2,0.8C52.8,72.7,52.2,73,51.7,73z
				 M51.7,73c0.6,0,1.1-0.4,1.3-0.9c0.1-0.3,0.1-0.5,0.1-0.8c0-0.3-0.1-0.6-0.1-0.8c-0.1-1.1-0.3-2.2-0.5-3.3
				c-0.1-0.3-0.4-0.5-0.6-0.5c-0.1,0-0.1,0-0.2,0h-0.1h-0.2c-0.3,0.1-0.6,0.1-0.8,0.1c-1.1,0.1-2.2,0.2-3.3,0.2
				c-0.1,0-0.2,0-0.2,0.1l-0.1,0.1c0,0,0,0,0,0.1c0,0,0,0.1,0,0.2c0,0.3-0.1,0.6-0.1,0.8c-0.1,1.1-0.3,2.2-0.5,3.3
				c-0.1,0.3,0,0.7,0.4,1c0.1,0.1,0.2,0.1,0.3,0.2c0.1,0.1,0.2,0.1,0.4,0.1c0.3,0.1,0.6,0.1,0.8,0.1C49.4,73,50.6,73,51.7,73z"/>
		</g>
		<g class="st4">
			<path class="st2" d="M66.8,73c-1.1,0-2.2,0.1-3.3,0.2c-0.3,0-0.6,0.1-0.8,0.1c-0.3,0.1-0.7,0.1-1-0.1c-0.7-0.2-1.2-0.9-1.3-1.7
				c-0.2-1.1-0.4-2.2-0.5-3.3c0-0.3-0.1-0.6-0.1-0.8c0-0.1,0-0.1,0-0.2s0-0.3,0-0.4c0.1-0.3,0.1-0.5,0.2-0.7c0.2-0.5,0.6-0.9,1-1.1
				c0.4-0.3,0.9-0.4,1.4-0.4c1.1,0,2.2,0.1,3.3,0.2c0.3,0,0.6,0.1,0.8,0.1l0.2,0.1c0.1,0,0.2,0.1,0.4,0.1c0.2,0.1,0.4,0.2,0.6,0.3
				c0.8,0.5,1.2,1.3,1.1,2.1c-0.2,1.1-0.4,2.2-0.5,3.3c-0.1,0.3-0.1,0.6-0.1,0.8c0,0.3-0.1,0.6-0.2,0.8C67.9,72.7,67.3,73,66.8,73z
				 M66.8,73c0.6,0,1.1-0.4,1.3-0.9c0.1-0.3,0.1-0.5,0.1-0.8c0-0.3-0.1-0.6-0.1-0.8c-0.1-1.1-0.3-2.2-0.5-3.3
				c-0.1-0.3-0.4-0.5-0.6-0.5c-0.1,0-0.1,0-0.2,0h-0.1h-0.2c-0.3,0.1-0.6,0.1-0.8,0.1c-1.1,0.1-2.2,0.2-3.3,0.2
				c-0.1,0-0.2,0-0.2,0.1l-0.1,0.1c0,0,0,0,0,0.1c0,0,0,0.1,0,0.2c0,0.3-0.1,0.6-0.1,0.8c-0.1,1.1-0.3,2.2-0.5,3.3
				c-0.1,0.3,0,0.7,0.4,1c0.1,0.1,0.2,0.1,0.3,0.2c0.1,0.1,0.2,0.1,0.4,0.1c0.3,0.1,0.6,0.1,0.8,0.1C64.6,73,65.6,73,66.8,73z"/>
		</g>
		<g class="st4">
			<path class="st2" d="M81.8,73c-1.1,0-2.2,0.1-3.3,0.2c-0.3,0-0.6,0.1-0.8,0.1c-0.3,0.1-0.7,0.1-1-0.1c-0.7-0.2-1.2-0.9-1.3-1.7
				c-0.2-1.1-0.4-2.2-0.5-3.3c0-0.3-0.1-0.6-0.1-0.8c0-0.1,0-0.1,0-0.2s0-0.3,0-0.4c0.1-0.3,0.1-0.5,0.2-0.7c0.2-0.5,0.6-0.9,1-1.1
				c0.4-0.3,0.9-0.4,1.4-0.4c1.1,0,2.2,0.1,3.3,0.2c0.3,0,0.6,0.1,0.8,0.1l0.2,0.1c0.1,0,0.2,0.1,0.4,0.1c0.2,0.1,0.4,0.2,0.6,0.3
				c0.8,0.5,1.2,1.3,1.1,2.1c-0.2,1.1-0.4,2.2-0.5,3.3c-0.1,0.3-0.1,0.6-0.1,0.8c0,0.3-0.1,0.6-0.2,0.8C83,72.7,82.4,73,81.8,73z
				 M81.8,73c0.6,0,1.1-0.4,1.3-0.9c0.1-0.3,0.1-0.5,0.1-0.8c0-0.3-0.1-0.6-0.1-0.8c-0.1-1.1-0.3-2.2-0.5-3.3
				c-0.1-0.3-0.4-0.5-0.6-0.5c-0.1,0-0.1,0-0.2,0H82h-0.2c-0.3,0.1-0.6,0.1-0.8,0.1c-1.1,0.1-2.2,0.2-3.3,0.2c-0.1,0-0.2,0-0.2,0.1
				l-0.1,0.1c0,0,0,0,0,0.1c0,0,0,0.1,0,0.2c0,0.3-0.1,0.6-0.1,0.8c-0.1,1.1-0.3,2.2-0.5,3.3c-0.1,0.3,0,0.7,0.4,1
				c0.1,0.1,0.2,0.1,0.3,0.2c0.1,0.1,0.2,0.1,0.4,0.1c0.3,0.1,0.6,0.1,0.8,0.1C79.7,73,80.8,73,81.8,73z"/>
		</g>
		<g class="st4">
			<path class="st2" d="M36.5,84.7c-1.1,0-2.2,0.1-3.3,0.2c-0.3,0-0.6,0.1-0.8,0.1c-0.3,0.1-0.7,0.1-1-0.1c-0.7-0.2-1.2-0.9-1.3-1.7
				c-0.2-1.1-0.4-2.2-0.5-3.3c0-0.3-0.1-0.6-0.1-0.8c0-0.1,0-0.1,0-0.2c0-0.1,0-0.3,0-0.4c0.1-0.3,0.1-0.5,0.2-0.7
				c0.2-0.5,0.6-0.9,1-1.1c0.4-0.3,0.9-0.4,1.4-0.4c1.1,0,2.2,0.1,3.3,0.2c0.3,0,0.6,0.1,0.8,0.1l0.2,0.1c0.1,0,0.2,0.1,0.4,0.1
				c0.2,0.1,0.4,0.2,0.6,0.3c0.8,0.5,1.2,1.3,1.1,2.1c-0.2,1.1-0.4,2.2-0.5,3.3c-0.1,0.3-0.1,0.6-0.1,0.8s-0.1,0.6-0.2,0.8
				C37.6,84.3,37.1,84.7,36.5,84.7z M36.5,84.7c0.6,0,1.1-0.4,1.3-0.9c0.1-0.3,0.1-0.5,0.1-0.8c0-0.3-0.1-0.6-0.1-0.8
				c-0.1-1.1-0.3-2.2-0.5-3.3c-0.1-0.3-0.4-0.5-0.6-0.5c-0.1,0-0.1,0-0.2,0h-0.1h-0.2c-0.3,0.1-0.6,0.1-0.8,0.1
				c-1.1,0.1-2.2,0.2-3.3,0.2c-0.1,0-0.2,0-0.2,0.1L32,78.8c0,0,0,0,0,0.1c0,0,0,0.1,0,0.2c0,0.3-0.1,0.6-0.1,0.8
				c-0.1,1.1-0.3,2.2-0.5,3.3c-0.1,0.3,0,0.7,0.4,1c0.1,0.1,0.2,0.1,0.3,0.2c0.1,0.1,0.2,0.1,0.4,0.1c0.3,0.1,0.6,0.1,0.8,0.1
				C34.3,84.6,35.5,84.7,36.5,84.7z"/>
		</g>
		<g class="st4">
			<path class="st2" d="M51.7,84.7c-1.1,0-2.2,0.1-3.3,0.2c-0.3,0-0.6,0.1-0.8,0.1s-0.7,0.1-1-0.1c-0.7-0.2-1.2-0.9-1.3-1.7
				c-0.2-1.1-0.4-2.2-0.5-3.3c0-0.3-0.1-0.6-0.1-0.8c0-0.1,0-0.1,0-0.2c0-0.1,0-0.3,0-0.4c0.1-0.3,0.1-0.5,0.2-0.7
				c0.2-0.5,0.6-0.9,1-1.1c0.4-0.3,0.9-0.4,1.4-0.4c1.1,0,2.2,0.1,3.3,0.2c0.3,0,0.6,0.1,0.8,0.1l0.2,0.1c0.1,0,0.2,0.1,0.4,0.1
				c0.2,0.1,0.4,0.2,0.6,0.3c0.8,0.5,1.2,1.3,1.1,2.1c-0.2,1.1-0.4,2.2-0.5,3.3c-0.1,0.3-0.1,0.6-0.1,0.8c0,0.3-0.1,0.6-0.2,0.8
				C52.8,84.3,52.2,84.7,51.7,84.7z M51.7,84.7c0.6,0,1.1-0.4,1.3-0.9c0.1-0.3,0.1-0.5,0.1-0.8c0-0.3-0.1-0.6-0.1-0.8
				c-0.1-1.1-0.3-2.2-0.5-3.3c-0.1-0.3-0.4-0.5-0.6-0.5c-0.1,0-0.1,0-0.2,0h-0.1h-0.2c-0.3,0.1-0.6,0.1-0.8,0.1
				c-1.1,0.1-2.2,0.2-3.3,0.2c-0.1,0-0.2,0-0.2,0.1l-0.1,0.1c0,0,0,0,0,0.1c0,0,0,0.1,0,0.2c0,0.3-0.1,0.6-0.1,0.8
				c-0.1,1.1-0.3,2.2-0.5,3.3c-0.1,0.3,0,0.7,0.4,1c0.1,0.1,0.2,0.1,0.3,0.2c0.1,0.1,0.2,0.1,0.4,0.1c0.3,0.1,0.6,0.1,0.8,0.1
				C49.4,84.6,50.5,84.7,51.7,84.7z"/>
		</g>
		<g class="st4">
			<path class="st2" d="M66.8,84.7c-1.1,0-2.2,0.1-3.3,0.2c-0.3,0-0.6,0.1-0.8,0.1c-0.3,0.1-0.7,0.1-1-0.1c-0.7-0.2-1.2-0.9-1.3-1.7
				c-0.2-1.1-0.4-2.2-0.5-3.3c0-0.3-0.1-0.6-0.1-0.8c0-0.1,0-0.1,0-0.2c0-0.1,0-0.3,0-0.4c0.1-0.3,0.1-0.5,0.2-0.7
				c0.2-0.5,0.6-0.9,1-1.1c0.4-0.3,0.9-0.4,1.4-0.4c1.1,0,2.2,0.1,3.3,0.2c0.3,0,0.6,0.1,0.8,0.1l0.2,0.1c0.1,0,0.2,0.1,0.4,0.1
				c0.2,0.1,0.4,0.2,0.6,0.3c0.8,0.5,1.2,1.3,1.1,2.1c-0.2,1.1-0.4,2.2-0.5,3.3c-0.1,0.3-0.1,0.6-0.1,0.8c0,0.3-0.1,0.6-0.2,0.8
				C67.9,84.3,67.3,84.7,66.8,84.7z M66.8,84.7c0.6,0,1.1-0.4,1.3-0.9c0.1-0.3,0.1-0.5,0.1-0.8c0-0.3-0.1-0.6-0.1-0.8
				c-0.1-1.1-0.3-2.2-0.5-3.3c-0.1-0.3-0.4-0.5-0.6-0.5c-0.1,0-0.1,0-0.2,0h-0.1h-0.2c-0.3,0.1-0.6,0.1-0.8,0.1
				c-1.1,0.1-2.2,0.2-3.3,0.2c-0.1,0-0.2,0-0.2,0.1l-0.1,0.1c0,0,0,0,0,0.1c0,0,0,0.1,0,0.2c0,0.3-0.1,0.6-0.1,0.8
				c-0.1,1.1-0.3,2.2-0.5,3.3c-0.1,0.3,0,0.7,0.4,1c0.1,0.1,0.2,0.1,0.3,0.2c0.1,0.1,0.2,0.1,0.4,0.1c0.3,0.1,0.6,0.1,0.8,0.1
				C64.6,84.6,65.6,84.7,66.8,84.7z"/>
		</g>
		<g class="st4">
			<path class="st2" d="M81.8,84.7c-1.1,0-2.2,0.1-3.3,0.2c-0.3,0-0.6,0.1-0.8,0.1c-0.3,0.1-0.7,0.1-1-0.1c-0.7-0.2-1.2-0.9-1.3-1.7
				c-0.2-1.1-0.4-2.2-0.5-3.3c0-0.3-0.1-0.6-0.1-0.8c0-0.1,0-0.1,0-0.2c0-0.1,0-0.3,0-0.4c0.1-0.3,0.1-0.5,0.2-0.7
				c0.2-0.5,0.6-0.9,1-1.1c0.4-0.3,0.9-0.4,1.4-0.4c1.1,0,2.2,0.1,3.3,0.2c0.3,0,0.6,0.1,0.8,0.1l0.2,0.1c0.1,0,0.2,0.1,0.4,0.1
				c0.2,0.1,0.4,0.2,0.6,0.3c0.8,0.5,1.2,1.3,1.1,2.1c-0.2,1.1-0.4,2.2-0.5,3.3c-0.1,0.3-0.1,0.6-0.1,0.8c0,0.3-0.1,0.6-0.2,0.8
				C82.9,84.3,82.4,84.7,81.8,84.7z M81.8,84.7c0.6,0,1.1-0.4,1.3-0.9c0.1-0.3,0.1-0.5,0.1-0.8c0-0.3-0.1-0.6-0.1-0.8
				c-0.1-1.1-0.3-2.2-0.5-3.3c-0.1-0.3-0.4-0.5-0.6-0.5c-0.1,0-0.1,0-0.2,0H82h-0.2c-0.3,0.1-0.6,0.1-0.8,0.1
				c-1.1,0.1-2.2,0.2-3.3,0.2c-0.1,0-0.2,0-0.2,0.1l-0.1,0.1c0,0,0,0,0,0.1c0,0,0,0.1,0,0.2c0,0.3-0.1,0.6-0.1,0.8
				c-0.1,1.1-0.3,2.2-0.5,3.3c-0.1,0.3,0,0.7,0.4,1c0.1,0.1,0.2,0.1,0.3,0.2c0.1,0.1,0.2,0.1,0.4,0.1c0.3,0.1,0.6,0.1,0.8,0.1
				C79.7,84.6,80.8,84.7,81.8,84.7z"/>
		</g>
		<g class="st4">
			<path class="st2" d="M36.5,96.2c-1.1,0-2.2,0.1-3.3,0.2c-0.3,0-0.6,0.1-0.8,0.1c-0.3,0.1-0.7,0.1-1-0.1c-0.7-0.2-1.2-0.9-1.3-1.7
				c-0.2-1.1-0.4-2.2-0.5-3.3c0-0.3-0.1-0.6-0.1-0.8c0-0.1,0-0.1,0-0.2s0-0.3,0-0.4c0.1-0.3,0.1-0.5,0.2-0.7c0.2-0.5,0.6-0.9,1-1.1
				s0.9-0.4,1.4-0.4c1.1,0,2.2,0.1,3.3,0.2c0.3,0,0.6,0.1,0.8,0.1l0.2,0.1c0.1,0,0.2,0.1,0.4,0.1c0.2,0.1,0.4,0.2,0.6,0.3
				c0.8,0.5,1.2,1.3,1.1,2.1c-0.2,1.1-0.4,2.2-0.5,3.3c-0.1,0.3-0.1,0.6-0.1,0.8s-0.1,0.6-0.2,0.8C37.7,95.9,37.1,96.2,36.5,96.2z
				 M36.5,96.2c0.6,0,1.1-0.4,1.3-0.9c0.1-0.3,0.1-0.5,0.1-0.8c0-0.3-0.1-0.6-0.1-0.8c-0.1-1.1-0.3-2.2-0.5-3.3
				c-0.1-0.3-0.4-0.5-0.6-0.5c-0.1,0-0.1,0-0.2,0h-0.1h-0.2C36.2,90,35.9,90,35.6,90c-1.1,0.1-2.2,0.2-3.3,0.2c-0.1,0-0.2,0-0.2,0.1
				L32,90.3c0,0,0,0,0,0.1c0,0,0,0.1,0,0.2c0,0.3-0.1,0.6-0.1,0.8c-0.1,1.1-0.3,2.2-0.5,3.3c-0.1,0.3,0,0.7,0.4,1
				c0.1,0.1,0.2,0.1,0.3,0.2c0.1,0.1,0.2,0.1,0.4,0.1c0.3,0.1,0.6,0.1,0.8,0.1C34.4,96.2,35.5,96.2,36.5,96.2z"/>
		</g>
		<g class="st4">
			<path class="st2" d="M51.7,96.2c-1.1,0-2.2,0.1-3.3,0.2c-0.3,0-0.6,0.1-0.8,0.1s-0.7,0.1-1-0.1c-0.7-0.2-1.2-0.9-1.3-1.7
				c-0.2-1.1-0.4-2.2-0.5-3.3c0-0.3-0.1-0.6-0.1-0.8c0-0.1,0-0.1,0-0.2s0-0.3,0-0.4c0.1-0.3,0.1-0.5,0.2-0.7c0.2-0.5,0.6-0.9,1-1.1
				c0.4-0.3,0.9-0.4,1.4-0.4c1.1,0,2.2,0.1,3.3,0.2c0.3,0,0.6,0.1,0.8,0.1l0.2,0.1c0.1,0,0.2,0.1,0.4,0.1c0.2,0.1,0.4,0.2,0.6,0.3
				c0.8,0.5,1.2,1.3,1.1,2.1c-0.2,1.1-0.4,2.2-0.5,3.3c-0.1,0.3-0.1,0.6-0.1,0.8c0,0.3-0.1,0.6-0.2,0.8
				C52.8,95.9,52.2,96.2,51.7,96.2z M51.7,96.2c0.6,0,1.1-0.4,1.3-0.9c0.1-0.3,0.1-0.5,0.1-0.8c0-0.3-0.1-0.6-0.1-0.8
				c-0.1-1.1-0.3-2.2-0.5-3.3c-0.1-0.3-0.4-0.5-0.6-0.5c-0.1,0-0.1,0-0.2,0h-0.1h-0.2C51.3,90,51,90,50.7,90
				c-1.1,0.1-2.2,0.2-3.3,0.2c-0.1,0-0.2,0-0.2,0.1l-0.1,0.1c0,0,0,0,0,0.1c0,0,0,0.1,0,0.2c0,0.3-0.1,0.6-0.1,0.8
				c-0.1,1.1-0.3,2.2-0.5,3.3c-0.1,0.3,0,0.7,0.4,1c0.1,0.1,0.2,0.1,0.3,0.2c0.1,0.1,0.2,0.1,0.4,0.1c0.3,0.1,0.6,0.1,0.8,0.1
				C49.4,96.2,50.6,96.2,51.7,96.2z"/>
		</g>
		<g class="st4">
			<path class="st2" d="M66.8,96.2c-1.1,0-2.2,0.1-3.3,0.2c-0.3,0-0.6,0.1-0.8,0.1c-0.3,0.1-0.7,0.1-1-0.1c-0.7-0.2-1.2-0.9-1.3-1.7
				c-0.2-1.1-0.4-2.2-0.5-3.3c0-0.3-0.1-0.6-0.1-0.8c0-0.1,0-0.1,0-0.2s0-0.3,0-0.4c0.1-0.3,0.1-0.5,0.2-0.7c0.2-0.5,0.6-0.9,1-1.1
				c0.4-0.3,0.9-0.4,1.4-0.4c1.1,0,2.2,0.1,3.3,0.2c0.3,0,0.6,0.1,0.8,0.1l0.2,0.1c0.1,0,0.2,0.1,0.4,0.1c0.2,0.1,0.4,0.2,0.6,0.3
				c0.8,0.5,1.2,1.3,1.1,2.1c-0.2,1.1-0.4,2.2-0.5,3.3c-0.1,0.3-0.1,0.6-0.1,0.8c0,0.3-0.1,0.6-0.2,0.8
				C67.9,95.9,67.3,96.2,66.8,96.2z M66.8,96.2c0.6,0,1.1-0.4,1.3-0.9c0.1-0.3,0.1-0.5,0.1-0.8c0-0.3-0.1-0.6-0.1-0.8
				c-0.1-1.1-0.3-2.2-0.5-3.3c-0.1-0.3-0.4-0.5-0.6-0.5c-0.1,0-0.1,0-0.2,0h-0.1h-0.2C66.4,90,66.1,90,65.9,90
				c-1.1,0.1-2.2,0.2-3.3,0.2c-0.1,0-0.2,0-0.2,0.1l-0.1,0.1c0,0,0,0,0,0.1c0,0,0,0.1,0,0.2c0,0.3-0.1,0.6-0.1,0.8
				c-0.1,1.1-0.3,2.2-0.5,3.3c-0.1,0.3,0,0.7,0.4,1c0.1,0.1,0.2,0.1,0.3,0.2c0.1,0.1,0.2,0.1,0.4,0.1C63,96,63.3,96,63.6,96
				C64.6,96.2,65.6,96.2,66.8,96.2z"/>
		</g>
		<g class="st4">
			<path class="st2" d="M81.9,96.2c-1.1,0-2.2,0.1-3.3,0.2c-0.3,0-0.6,0.1-0.8,0.1c-0.3,0.1-0.7,0.1-1-0.1c-0.7-0.2-1.2-0.9-1.3-1.7
				c-0.2-1.1-0.4-2.2-0.5-3.3c0-0.3-0.1-0.6-0.1-0.8c0-0.1,0-0.1,0-0.2s0-0.3,0-0.4c0.1-0.3,0.1-0.5,0.2-0.7c0.2-0.5,0.6-0.9,1-1.1
				c0.4-0.3,0.9-0.4,1.4-0.4c1.1,0,2.2,0.1,3.3,0.2c0.3,0,0.6,0.1,0.8,0.1l0.2,0.1c0.1,0,0.2,0.1,0.4,0.1c0.2,0.1,0.4,0.2,0.6,0.3
				c0.8,0.5,1.2,1.3,1.1,2.1c-0.2,1.1-0.4,2.2-0.5,3.3c-0.1,0.3-0.1,0.6-0.1,0.8c0,0.3-0.1,0.6-0.2,0.8C83,95.9,82.4,96.2,81.9,96.2
				z M81.9,96.2c0.6,0,1.1-0.4,1.3-0.9c0.1-0.3,0.1-0.5,0.1-0.8c0-0.3-0.1-0.6-0.1-0.8c-0.1-1.1-0.3-2.2-0.5-3.3
				c-0.1-0.3-0.4-0.5-0.6-0.5c-0.1,0-0.1,0-0.2,0H82h-0.2C81.5,90,81.2,90,81,90c-1.1,0.1-2.2,0.2-3.3,0.2c-0.1,0-0.2,0-0.2,0.1
				l-0.1,0.1c0,0,0,0,0,0.1c0,0,0,0.1,0,0.2c0,0.3-0.1,0.6-0.1,0.8c-0.1,1.1-0.3,2.2-0.5,3.3c-0.1,0.3,0,0.7,0.4,1
				c0.1,0.1,0.2,0.1,0.3,0.2c0.1,0.1,0.2,0.1,0.4,0.1c0.3,0.1,0.6,0.1,0.8,0.1C79.7,96.2,80.8,96.2,81.9,96.2z"/>
		</g>
		<g class="st4">
			<path class="st2" d="M36.5,107.8c-1.1,0-2.2,0.1-3.3,0.2c-0.3,0-0.6,0.1-0.8,0.1c-0.3,0.1-0.7,0.1-1-0.1
				c-0.7-0.2-1.2-0.9-1.3-1.7c-0.2-1.1-0.4-2.2-0.5-3.3c0-0.3-0.1-0.6-0.1-0.8c0-0.1,0-0.1,0-0.2s0-0.3,0-0.4
				c0.1-0.3,0.1-0.5,0.2-0.7c0.2-0.5,0.6-0.9,1-1.1c0.4-0.3,0.9-0.4,1.4-0.4c1.1,0,2.2,0.1,3.3,0.2c0.3,0,0.6,0.1,0.8,0.1l0.2,0.1
				c0.1,0,0.2,0.1,0.4,0.1c0.2,0.1,0.4,0.2,0.6,0.3c0.8,0.5,1.2,1.3,1.1,2.1c-0.2,1.1-0.4,2.2-0.5,3.3c-0.1,0.3-0.1,0.6-0.1,0.8
				s-0.1,0.6-0.2,0.8C37.6,107.5,37.1,107.8,36.5,107.8z M36.5,107.8c0.6,0,1.1-0.4,1.3-0.9c0.1-0.3,0.1-0.5,0.1-0.8
				s-0.1-0.6-0.1-0.8c-0.1-1.1-0.3-2.2-0.5-3.3c-0.1-0.3-0.4-0.5-0.6-0.5c-0.1,0-0.1,0-0.2,0h-0.1h-0.2c-0.3,0.1-0.6,0.1-0.8,0.1
				c-1.1,0.1-2.2,0.2-3.3,0.2c-0.1,0-0.2,0-0.2,0.1l-0.1,0.1c0,0,0,0,0,0.1c0,0,0,0.1,0,0.2c0,0.3-0.1,0.6-0.1,0.8
				c-0.1,1.1-0.3,2.2-0.5,3.3c-0.1,0.3,0,0.7,0.4,1c0.1,0.1,0.2,0.1,0.3,0.2c0.1,0.1,0.2,0.1,0.4,0.1c0.3,0.1,0.6,0.1,0.8,0.1
				C34.4,107.7,35.5,107.8,36.5,107.8z"/>
		</g>
		<g class="st4">
			<path class="st2" d="M51.7,107.8c-1.1,0-2.2,0.1-3.3,0.2c-0.3,0-0.6,0.1-0.8,0.1s-0.7,0.1-1-0.1c-0.7-0.2-1.2-0.9-1.3-1.7
				c-0.2-1.1-0.4-2.2-0.5-3.3c0-0.3-0.1-0.6-0.1-0.8c0-0.1,0-0.1,0-0.2s0-0.3,0-0.4c0.1-0.3,0.1-0.5,0.2-0.7c0.2-0.5,0.6-0.9,1-1.1
				c0.4-0.3,0.9-0.4,1.4-0.4c1.1,0,2.2,0.1,3.3,0.2c0.3,0,0.6,0.1,0.8,0.1l0.2,0.1c0.1,0,0.2,0.1,0.4,0.1c0.2,0.1,0.4,0.2,0.6,0.3
				c0.8,0.5,1.2,1.3,1.1,2.1c-0.2,1.1-0.4,2.2-0.5,3.3c-0.1,0.3-0.1,0.6-0.1,0.8s-0.1,0.6-0.2,0.8C52.8,107.5,52.2,107.8,51.7,107.8
				z M51.7,107.8c0.6,0,1.1-0.4,1.3-0.9c0.1-0.3,0.1-0.5,0.1-0.8s-0.1-0.6-0.1-0.8c-0.1-1.1-0.3-2.2-0.5-3.3
				c-0.1-0.3-0.4-0.5-0.6-0.5c-0.1,0-0.1,0-0.2,0h-0.1h-0.2c-0.3,0.1-0.6,0.1-0.8,0.1c-1.1,0.1-2.2,0.2-3.3,0.2
				c-0.1,0-0.2,0-0.2,0.1l-0.1,0.1c0,0,0,0,0,0.1c0,0,0,0.1,0,0.2c0,0.3-0.1,0.6-0.1,0.8c-0.1,1.1-0.3,2.2-0.5,3.3
				c-0.1,0.3,0,0.7,0.4,1c0.1,0.1,0.2,0.1,0.3,0.2c0.1,0.1,0.2,0.1,0.4,0.1c0.3,0.1,0.6,0.1,0.8,0.1
				C49.4,107.7,50.6,107.8,51.7,107.8z"/>
		</g>
		<g class="st4">
			<path class="st2" d="M66.8,107.8c-1.1,0-2.2,0.1-3.3,0.2c-0.3,0-0.6,0.1-0.8,0.1c-0.3,0.1-0.7,0.1-1-0.1
				c-0.7-0.2-1.2-0.9-1.3-1.7c-0.2-1.1-0.4-2.2-0.5-3.3c0-0.3-0.1-0.6-0.1-0.8c0-0.1,0-0.1,0-0.2s0-0.3,0-0.4
				c0.1-0.3,0.1-0.5,0.2-0.7c0.2-0.5,0.6-0.9,1-1.1c0.4-0.3,0.9-0.4,1.4-0.4c1.1,0,2.2,0.1,3.3,0.2c0.3,0,0.6,0.1,0.8,0.1l0.2,0.1
				c0.1,0,0.2,0.1,0.4,0.1c0.2,0.1,0.4,0.2,0.6,0.3c0.8,0.5,1.2,1.3,1.1,2.1c-0.2,1.1-0.4,2.2-0.5,3.3c-0.1,0.3-0.1,0.6-0.1,0.8
				s-0.1,0.6-0.2,0.8C67.9,107.5,67.3,107.8,66.8,107.8z M66.8,107.8c0.6,0,1.1-0.4,1.3-0.9c0.1-0.3,0.1-0.5,0.1-0.8
				s-0.1-0.6-0.1-0.8c-0.1-1.1-0.3-2.2-0.5-3.3c-0.1-0.3-0.4-0.5-0.6-0.5c-0.1,0-0.1,0-0.2,0h-0.1h-0.2c-0.3,0.1-0.6,0.1-0.8,0.1
				c-1.1,0.1-2.2,0.2-3.3,0.2c-0.1,0-0.2,0-0.2,0.1l-0.1,0.1c0,0,0,0,0,0.1c0,0,0,0.1,0,0.2c0,0.3-0.1,0.6-0.1,0.8
				c-0.1,1.1-0.3,2.2-0.5,3.3c-0.1,0.3,0,0.7,0.4,1c0.1,0.1,0.2,0.1,0.3,0.2c0.1,0.1,0.2,0.1,0.4,0.1c0.3,0.1,0.6,0.1,0.8,0.1
				C64.6,107.7,65.6,107.8,66.8,107.8z"/>
		</g>
	</g>
</g>
<path class="st5" d="M175.7,146.4H25c-12,0-21.8-9.8-21.8-21.8V29.4c0-12,9.8-21.8,21.8-21.8h150.8c12,0,21.8,9.8,21.8,21.8v95.3
	C197.5,136.7,187.8,146.4,175.7,146.4z"/>
<rect x="123.6" y="115.9" class="st6" width="123.6" height="48.5"/>
<text transform="matrix(1 0 0 1 123.6011 125.0368)"><tspan x="0" y="0" class="st7 st8 st9">учебный</tspan><tspan x="0" y="14.4" class="st7 st8 st9">процесс</tspan></text>
</svg>
