<?xml version="1.0" encoding="utf-8"?>
<!-- Generator: Adobe Illustrator 24.1.2, SVG Export Plug-In . SVG Version: 6.00 Build 0)  -->
<svg version="1.1" id="Слой_1" xmlns="http://www.w3.org/2000/svg" xmlns:xlink="http://www.w3.org/1999/xlink" x="0px" y="0px"
	 viewBox="0 0 200 171.9" style="enable-background:new 0 0 200 171.9;" xml:space="preserve">
<style type="text/css">
	.st0{opacity:0.5;fill:#66CCFF;enable-background:new    ;}
	.st1{opacity:0.3;fill:#66CCFF;enable-background:new    ;}
	.st2{display:none;}
	.st3{display:inline;}
	.st4{fill:#999999;}
	.st5{fill:none;stroke:#CCCCCC;stroke-width:0.5296;stroke-miterlimit:10;}
	.st6{fill:none;}
	.st7{fill:#666666;}
	.st8{font-family:'Roboto-Regular';}
	.st9{font-size:12px;}
</style>
<g id="Слой_2_1_">
	<circle class="st0" cx="124.8" cy="59.8" r="36.1"/>
	<circle class="st1" cx="86.5" cy="72.4" r="30.2"/>
</g>
<g id="Слой_1_1_">
	<g class="st2">
		<g class="st3">
			<path class="st4" d="M23.8,31l-6.3,0.2l0.2-0.2c0.3,8,0.4,16,0.6,23.9l0.4,23.9l0.3,23.9l0.3,23.9l-1.8-1.8l25.6-0.2
				c8.5-0.1,17.1-0.1,25.6-0.1h-0.2c0.4,0,0.6,0,0.9,0c0.3,0,0.5,0,0.8,0.1c0.5,0.1,1,0.2,1.5,0.3c1,0.3,2,0.7,3,1.3
				c0.9,0.6,1.8,1.4,2.4,2.2c0.7,0.8,1.1,1.9,1.5,2.8l-0.1-0.2c0,0,0.1,0.1,0.3,0.2c0.2,0.2,0.4,0.3,0.8,0.4
				c0.6,0.3,1.4,0.5,2.1,0.7c1.5,0.3,3.2,0.5,4.9,0.5c1.7,0.1,3.4,0,5-0.3c0.8-0.1,1.6-0.3,2.4-0.4c0.8-0.2,1.5-0.4,1.8-0.7
				c-0.1,0.1,0.3-0.3,0.5-0.6c0.3-0.3,0.5-0.6,0.7-0.9c0.5-0.7,0.9-1.4,1.4-2.2c0.5-0.8,1.1-1.6,2-2.5c0.5-0.4,1-0.8,1.9-1.1
				c0.3-0.2,0.8-0.2,1.3-0.3h0.7l10.7-0.3c14.2-0.4,28.3-0.7,42.5-1l-1.7,1.8l-0.1-23.4V77.7l0.1-23.4c0.1-7.8,0.1-15.6,0.3-23.4
				l0.2,0.2l-5.3-0.2l5.3-0.2c0.1,0,0.2,0.1,0.2,0.2l0,0c0.3,7.8,0.6,15.6,0.9,23.4l0.8,23.4l0.7,23.4l0.6,23.4
				c0,0.9-0.8,1.8-1.7,1.8l0,0c-14.2,0.5-28.3,1.1-42.5,1.5l-10.7,0.3h-0.7c0,0,0,0-0.1,0c0,0-0.2,0.1-0.3,0.3
				c-0.4,0.3-0.8,1-1.4,1.7s-0.9,1.4-1.5,2.3c-0.3,0.4-0.6,0.8-0.8,1.2c-0.2,0.2-0.3,0.4-0.5,0.6c-0.1,0.2-0.5,0.5-0.8,0.8
				c-1.2,0.8-2.2,1-3.1,1.4c-1,0.3-1.9,0.4-2.9,0.5c-1.9,0.3-3.7,0.3-5.6,0.3c-1.9-0.1-3.7-0.3-5.7-0.6c-0.9-0.2-1.9-0.5-3-0.9
				c-0.5-0.3-1-0.5-1.5-0.9c-0.5-0.4-1.1-0.9-1.5-1.8l-0.1-0.2c-0.3-0.6-0.5-1.2-0.9-1.7c-0.3-0.5-0.8-0.9-1.4-1.3s-1.1-0.6-1.7-0.8
				c-0.3-0.1-0.7-0.2-0.9-0.2c-0.2,0-0.3,0-0.5,0c-0.2,0-0.3,0-0.4,0h-0.2c-8.5,0-17.1,0-25.6-0.1l-25.6-0.2l0,0
				c-1,0-1.8-0.8-1.8-1.8l0,0l0.3-23.9l0.3-23.9l0.3-23.9c0.2-8,0.3-16,0.6-23.9l0,0c0-0.1,0.1-0.2,0.2-0.2L23.8,31z"/>
		</g>
		<g class="st3">
			<path class="st4" d="M87.3,118.1C87.3,111,87.2,104,87,97c-0.2-6.9-0.3-13.9-0.6-20.6c-0.2-6.8-0.4-13.5-0.6-20.2L85.5,36v0.3
				c0-0.2-0.1-0.4-0.2-0.7c-0.1-0.3-0.2-0.5-0.3-0.8c-0.2-0.5-0.4-1-0.7-1.4c-0.5-0.9-1.2-1.8-2-2.5c-0.8-0.8-1.7-1.3-2.6-1.9
				c-0.5-0.2-1-0.4-1.5-0.6c-0.5-0.2-1-0.3-1.6-0.4l-1.7-0.3l-1.7-0.1c-1.2-0.1-2.5-0.1-3.7-0.1h-7.4c-10,0-20,0.1-29.9,0.3l2.1-2.1
				l-0.1,20.8c0,6.9,0,13.9-0.1,20.8l-0.2,20.8L33.6,109l-1.4-1.5l14.8,0.4c4.9,0.2,9.9,0.3,14.8,0.4l14.8,0.5h0.9
				c0.2,0,0.3,0,0.5,0c0.2,0,0.3,0.1,0.5,0.1c0.7,0.2,1.3,0.4,1.8,0.7c1.2,0.6,2.2,1.3,3.1,2.2C85.2,113.6,86.4,115.8,87.3,118.1z
				 M87.3,118.1c-1.1-2.2-2.5-4.3-4.3-5.8c-0.9-0.8-1.9-1.4-3-1.9c-0.5-0.3-1.1-0.4-1.7-0.5c-0.2,0-0.3-0.1-0.4-0.1
				c-0.1,0-0.3,0-0.4,0h-0.9l-14.8,0.3c-4.9,0.1-9.8,0.2-14.8,0.2l-14.8,0.2c-0.8,0-1.4-0.7-1.4-1.4l0,0l-0.3-20.8l-0.2-20.8
				c-0.1-6.9-0.1-13.9-0.1-20.8l-0.1-20.8c0-1.2,0.9-2.1,2.1-2.1c10-0.2,20-0.3,29.9-0.2c2.5,0,5,0.1,7.5,0.2c1.3,0,2.5,0.1,3.8,0.2
				l2,0.2c0.7,0.1,1.4,0.3,2,0.4c0.7,0.2,1.4,0.4,2,0.6c0.7,0.3,1.3,0.6,1.9,0.8c1.3,0.7,2.5,1.4,3.5,2.5c1,1,1.9,2.1,2.6,3.4
				c0.3,0.6,0.7,1.3,0.9,1.9c0.2,0.3,0.3,0.7,0.3,1c0.1,0.3,0.2,0.7,0.3,1.2c0,0.1,0,0.2,0,0.3l-0.3,21c-0.2,7-0.3,14-0.6,20.8
				c-0.2,6.9-0.4,13.6-0.6,20.4C87.5,104.9,87.4,111.5,87.3,118.1z"/>
		</g>
		<g class="st3">
			<path class="st4" d="M87.3,118.1c-0.1-6.6-0.2-13.3-0.3-20c-0.2-6.8-0.3-13.5-0.6-20.4C86.2,70.9,86,64,85.8,57l-0.3-21
				c0-0.1,0-0.2,0-0.3c0.1-0.5,0.2-0.8,0.3-1.2c0.1-0.3,0.3-0.7,0.3-1c0.3-0.7,0.6-1.4,0.9-1.9c0.7-1.3,1.6-2.4,2.6-3.4
				s2.2-1.8,3.5-2.5c0.7-0.3,1.3-0.6,1.9-0.8c0.7-0.2,1.4-0.4,2-0.6c0.7-0.2,1.4-0.3,2-0.4l2-0.2c1.3-0.1,2.5-0.1,3.8-0.2
				c2.5-0.1,5-0.1,7.5-0.2c10-0.1,20,0,30,0.1c1.2,0,2.1,0.9,2.1,2.1l-0.1,20.8c0,6.9,0,13.9-0.1,20.8L144.3,88l-0.3,20.8v0.1
				c0,0.8-0.7,1.4-1.4,1.4l-14.8-0.2c-4.9-0.1-9.8-0.1-14.8-0.2l-14.8-0.3h-0.9c-0.2,0-0.3,0-0.4,0c-0.2,0-0.3,0-0.4,0.1
				c-0.6,0.1-1.1,0.3-1.7,0.5c-1.1,0.4-2.1,1.1-3,1.9C89.8,113.9,88.4,115.9,87.3,118.1z M87.3,118.1c0.9-2.3,2.2-4.5,4-6.3
				c0.9-0.8,1.9-1.6,3.1-2.2c0.6-0.3,1.2-0.5,1.8-0.7c0.2,0,0.3-0.1,0.5-0.1c0.3,0,0.3,0,0.5,0h0.9l14.8-0.5
				c4.9-0.2,9.8-0.3,14.8-0.4l14.8-0.4l-1.4,1.5l-0.3-20.8l-0.2-20.8c-0.1-6.9-0.1-13.9-0.1-20.8l-0.1-20.8l2.1,2.1
				c-10-0.2-20-0.3-29.9-0.3h-7.4c-1.3,0-2.5,0-3.7,0.1l-1.7,0.1l-1.7,0.3c-0.5,0.1-1.1,0.3-1.6,0.4c-0.5,0.2-1,0.4-1.5,0.6
				c-0.9,0.5-1.9,1.1-2.6,1.9c-0.8,0.7-1.4,1.5-2,2.5c-0.3,0.4-0.5,0.9-0.7,1.4c-0.1,0.3-0.2,0.5-0.3,0.8c-0.1,0.3-0.2,0.5-0.2,0.7
				v-0.3L89,56.2c-0.2,6.7-0.3,13.4-0.6,20.2c-0.2,6.8-0.4,13.7-0.6,20.6C87.5,104,87.4,111,87.3,118.1z"/>
		</g>
		<g class="st3">
			<path class="st4" d="M46.1,48.7c2-0.8,4.1-1.4,6.2-1.7c2-0.3,4.1-0.4,6.2-0.4c2,0,4.1,0.2,6.2,0.4c2,0.3,4.1,0.8,6.2,1.7
				c-2,0.8-4.1,1.4-6.2,1.7c-2,0.3-4.1,0.4-6.2,0.4c-2,0-4.1-0.2-6.2-0.4C50.2,50,48.1,49.6,46.1,48.7z"/>
		</g>
		<g class="st3">
			<path class="st4" d="M46.1,66.5c2-0.8,4.1-1.4,6.2-1.7c2-0.3,4.1-0.4,6.2-0.4c2,0,4.1,0.2,6.2,0.4c2,0.3,4.1,0.8,6.2,1.7
				c-2,0.8-4.1,1.4-6.2,1.7c-2,0.3-4.1,0.4-6.2,0.4c-2,0-4.1-0.2-6.2-0.4C50.2,67.9,48.1,67.5,46.1,66.5z"/>
		</g>
		<g class="st3">
			<path class="st4" d="M46.1,82c1.1-0.8,2.3-1.4,3.4-1.7c1.1-0.3,2.3-0.4,3.4-0.4s2.3,0.2,3.4,0.4c1.1,0.3,2.3,0.8,3.4,1.7
				c-1.1,0.8-2.3,1.4-3.4,1.7s-2.3,0.4-3.4,0.4s-2.3-0.2-3.4-0.4C48.4,83.4,47.3,82.9,46.1,82z"/>
		</g>
		<g class="st3">
			<path class="st4" d="M105.6,48.7c2-0.8,4.1-1.4,6.2-1.7c2-0.3,4.1-0.4,6.2-0.4c2,0,4.1,0.2,6.2,0.4c2,0.3,4.1,0.8,6.2,1.7
				c-2,0.8-4.1,1.4-6.2,1.7c-2,0.3-4.1,0.4-6.2,0.4c-2,0-4.1-0.2-6.2-0.4C109.7,50,107.6,49.6,105.6,48.7z"/>
		</g>
		<g class="st3">
			<path class="st4" d="M104,66.5c1.2-0.8,2.3-1.4,3.5-1.7c1.2-0.3,2.3-0.4,3.5-0.4c1.2,0,2.3,0.2,3.5,0.4c1.2,0.3,2.3,0.8,3.5,1.7
				c-1.2,0.8-2.3,1.4-3.5,1.7c-1.2,0.3-2.3,0.4-3.5,0.4s-2.3-0.2-3.5-0.4C106.4,67.9,105.2,67.5,104,66.5z"/>
		</g>
	</g>
	<g class="st2">
		<g class="st3">
			<g>
				<path class="st4" d="M75.8,101c-6.3,0.8-12.9,0.3-19.2-1.2c-3.1-0.8-6.3-1.8-9.2-3.2c-3-1.4-5.8-3.1-8.4-5.2s-4.9-4.4-6.9-7
					c-2-2.6-3.7-5.5-5.2-8.5c-2.8-6-4.3-12.5-5.1-18.9l0,0c0-0.1,0-0.1,0-0.2l0.2-4.7c0.2-1.5,0.4-3.1,0.7-4.7
					c0.3-1.5,0.8-3,1.2-4.6l1.6-4.4c2.5-5.8,6-11.1,10.6-15.4c4.5-4.3,9.9-7.8,15.7-10c5.8-2.3,12.2-3.1,18.4-3
					c6.3,0.3,12.3,1.9,17.9,4.5c5.6,2.7,10.7,6.5,14.5,11.3c1.9,2.4,3.6,5,5,7.7c1.4,2.8,2.4,5.7,3.1,8.5c0.8,3,1.2,5.9,1.4,9
					c0.2,3,0.1,6-0.2,9c0-3-0.3-6-0.6-8.9c-0.4-3-1.1-5.8-2-8.6c-1.8-5.6-4.7-10.8-8.6-15.1c-3.9-4.2-8.7-7.6-14-10
					c-2.6-1.2-5.4-2-8.2-2.6c-2.8-0.7-5.7-1-8.5-1c-1.4-0.1-2.9,0.1-4.3,0.2c-1.4,0-2.9,0.3-4.2,0.5c-1.4,0.2-2.8,0.6-4.1,0.9
					c-1.4,0.3-2.7,0.8-4.1,1.4c-5.3,2-10.2,5.2-14.3,9.2s-7.4,8.7-9.7,14l-1.4,4l-1.1,4.1l-0.7,4.2l-0.3,4.3v-0.2
					c0.5,6.2,1.9,12.3,4.3,18c2.4,5.7,6.1,10.7,10.7,14.9c4.7,4.1,10.3,7,16.3,8.9C63.1,100.2,69.4,101.1,75.8,101z"/>
			</g>
			<g>
				<path class="st4" d="M25.8,53.8c2.5-3,5.4-5.6,8.5-8c3.1-2.4,6.5-4.4,10.1-6.1c7.1-3.5,15-5.5,22.9-5.9c1,0,2-0.1,3-0.1l3,0.1
					c1.9,0.2,4,0.3,5.9,0.7c1.9,0.3,3.9,0.8,5.8,1.3c0.9,0.3,1.9,0.6,2.9,0.8c0.9,0.3,1.9,0.6,2.8,1c7.4,2.9,14.1,7,19.9,12.2
					c-6.8-3.7-13.8-6.9-21-9c-0.9-0.3-1.8-0.5-2.7-0.8c-0.9-0.3-1.8-0.5-2.7-0.7c-1.9-0.3-3.6-0.8-5.5-0.9
					c-3.7-0.5-7.4-0.7-11.2-0.5c-3.7,0.2-7.4,0.7-11.1,1.4s-7.2,1.9-10.7,3.2c-3.5,1.4-6.9,3-10.2,4.8C32,49.4,28.8,51.5,25.8,53.8z
					"/>
			</g>
			<g>
				<path class="st4" d="M51.8,23.1c-2.3,6.5-3.7,13.2-4.3,19.8c-0.5,6.6-0.1,13.3,1.9,19.5c1,3,2.4,6,4.1,8.8
					c1.7,2.8,3.8,5.2,6.1,7.7c4.7,4.7,10.3,8.5,16.3,11.9c-6.7-1.8-13-5-18.5-9.5c-2.7-2.3-5.2-4.9-7.3-7.9c-2-3-3.6-6.3-4.8-9.7
					c-2.2-6.9-2.4-14.3-1.1-21.2S48,28.8,51.8,23.1z"/>
			</g>
			<g>
				<path class="st4" d="M70.7,18.8"/>
			</g>
			<g>
				<path class="st4" d="M70.2,20.5c1.8,0.5,3.4,1.4,4.9,2.3c1.5,1,3,2.1,4.2,3.5c2.6,2.6,4.7,5.8,6,9.3c1.4,3.5,1.9,7.3,1.5,11
					c-0.3,3.6-1.4,7.2-3.1,10.3c0.1-3.6,0.2-7-0.2-10.3c-0.3-3.3-1-6.5-2.2-9.5c-1.1-3-2.7-5.9-4.6-8.6
					C74.9,25.7,72.7,23.1,70.2,20.5z"/>
			</g>
			<g>
				<path class="st4" d="M55.4,90.6c0.3-1.3,0.8-2.1,1.3-2.9c0.6-0.8,1.3-1.4,1.9-1.9c0.8-0.5,1.6-0.9,2.5-1.2
					c0.9-0.3,1.9-0.3,3.2-0.2c-0.3,1.3-0.8,2.1-1.3,2.9c-0.6,0.8-1.3,1.4-1.9,1.9c-0.8,0.5-1.6,0.9-2.5,1.2
					C57.6,90.7,56.6,90.9,55.4,90.6z"/>
			</g>
			<g>
				<path class="st4" d="M36.3,58.7c0,2.8-1,5.6-2.9,7.7c-1.9,2.2-4.7,3.6-7.7,4c-1.5,0.2-3.1,0-4.7-0.5s-3-1.3-4.1-2.4
					c-2.5-2.1-4-5.5-4-8.8c0-3.4,1.4-6.7,4-8.8c1.2-1.1,2.7-1.9,4.1-2.4c1.5-0.5,3.1-0.7,4.7-0.5c3,0.3,5.8,1.8,7.7,4
					C35.3,53.2,36.4,56,36.3,58.7z M36.3,58.7c0-2.8-1.3-5.6-3.3-7.4c-1-0.9-2.2-1.5-3.5-1.9s-2.5-0.5-3.8-0.3
					c-2.5,0.3-4.7,1.6-6.3,3.4s-2.3,4-2.3,6.3c0,2.2,0.8,4.5,2.3,6.3c1.5,1.8,3.7,3,6.3,3.4c1.3,0.2,2.5,0,3.8-0.3
					c1.3-0.4,2.5-1,3.5-1.9C35.2,64.2,36.4,61.5,36.3,58.7z"/>
			</g>
			<g>
				<path class="st4" d="M70.9,16.6c0,2.8-1,5.6-2.9,7.7c-1.9,2.2-4.7,3.6-7.7,4c-1.5,0.2-3.1,0-4.7-0.5c-1.5-0.5-3-1.3-4.1-2.4
					c-2.5-2.1-4-5.5-4-8.8c0-3.4,1.4-6.7,4-8.8c1.2-1.1,2.7-1.9,4.1-2.4C57.2,5,58.8,4.8,60.4,5c3,0.3,5.8,1.8,7.7,4
					C69.9,11,70.9,13.8,70.9,16.6z M70.9,16.6c0-2.8-1.3-5.6-3.3-7.4c-1-0.8-2.3-1.5-3.5-1.9c-1.3-0.4-2.5-0.5-3.8-0.3
					c-2.5,0.3-4.7,1.6-6.3,3.4c-1.5,1.8-2.3,4-2.3,6.3c0,2.2,0.8,4.5,2.3,6.3s3.7,3,6.3,3.4c1.3,0.2,2.5,0,3.8-0.3
					c1.3-0.4,2.5-1,3.5-1.9C69.7,22.2,70.9,19.4,70.9,16.6z"/>
			</g>
			<g>
				<path class="st4" d="M94.4,37.9c0,2.8-1,5.6-2.9,7.7c-1.9,2.2-4.7,3.6-7.7,4c-1.5,0.2-3.1,0-4.7-0.5c-1.5-0.5-3-1.3-4.1-2.4
					c-2.5-2.1-4-5.5-4-8.8c0-3.4,1.4-6.7,4-8.8c1.2-1.1,2.7-1.9,4.1-2.4c1.5-0.5,3.1-0.7,4.7-0.5c3,0.3,5.8,1.8,7.7,4
					C93.4,32.4,94.4,35.2,94.4,37.9z M94.4,37.9c0-2.8-1.3-5.6-3.3-7.4c-1-0.9-2.2-1.5-3.5-1.9c-1.3-0.4-2.5-0.5-3.8-0.3
					c-2.5,0.3-4.7,1.6-6.3,3.4s-2.3,4-2.3,6.3c0,2.2,0.8,4.5,2.3,6.3c1.5,1.8,3.7,3,6.3,3.4c1.3,0.2,2.5,0,3.8-0.3
					c1.3-0.4,2.5-1,3.5-1.9C93.1,43.4,94.4,40.7,94.4,37.9z"/>
			</g>
			<g>
				<path class="st4" d="M56.1,93.6c0.3,2.8-0.5,5.7-2.2,8c-1.7,2.3-4.3,4.1-7.4,4.7c-1.5,0.3-3.1,0.3-4.7-0.1s-3-1-4.4-2
					c-2.6-1.9-4.4-5.1-4.7-8.5c-0.3-3.3,0.9-6.8,3.1-9.1c1.1-1.2,2.5-2.1,4-2.7c1.4-0.6,3-0.9,4.6-0.9c3,0,6,1.3,8,3.3
					C54.5,88.1,55.8,90.8,56.1,93.6z M56.1,93.6c-0.3-2.8-1.8-5.4-4-7c-1.1-0.8-2.4-1.4-3.6-1.6s-2.6-0.3-3.8,0
					c-2.5,0.5-4.6,1.9-5.9,3.9c-1.4,1.9-1.9,4.1-1.8,6.4c0.2,2.2,1.2,4.4,2.8,6c1.6,1.6,4,2.7,6.5,2.8c1.3,0,2.5-0.2,3.8-0.7
					c1.2-0.5,2.4-1.3,3.3-2.2C55.3,99.3,56.3,96.4,56.1,93.6z"/>
			</g>
		</g>
		<g class="st3">
			<path class="st4" d="M93.9,80.8c-0.7,1.7-1.4,3.3-2.2,5s-1.5,3.3-2.3,4.9c-0.8,1.6-1.6,3.3-2.4,4.9c-0.8,1.6-1.6,3.2-2.5,4.8
				l0.1-1.3c1.6,4.2,3.8,8.1,6.7,11.5c2.8,3.4,6.3,6.2,10.1,8.2c3.9,2,8.1,3.3,12.5,3.6c4.4,0.3,8.9-0.1,13.2-1.4l-0.8,0.6l3.1-4
				c1-1.4,2.1-2.6,3.1-4c2.1-2.6,4.2-5.2,6.5-7.8c-1.6,3-3.3,5.9-5,8.8c-0.8,1.4-1.7,2.9-2.6,4.3l-2.6,4.3c-0.2,0.3-0.4,0.4-0.7,0.5
				h-0.1l-3.5,1.2c-1.2,0.3-2.4,0.5-3.6,0.8c-1.2,0.2-2.5,0.3-3.6,0.4c-1.3,0.1-2.5,0.1-3.7,0.1c-4.9-0.2-9.9-1.5-14.3-3.8
				c-4.4-2.3-8.3-5.6-11.2-9.5c-3-3.9-5.2-8.4-6.5-13v-0.1c-0.1-0.4,0-0.8,0.2-1.1c0.9-1.5,1.9-3,2.9-4.6c1-1.5,1.9-3,3-4.6
				s2-3,3-4.6C91.7,83.8,92.8,82.3,93.9,80.8z"/>
		</g>
		<g class="st3">
			<path class="st4" d="M81.9,65.9c2.6,3.1,5.3,6.3,8,9.2l7.8,8.9l7.6,8.7c2.5,2.9,4.9,5.8,7.4,8.6l-1.1-0.6c4.1,0.3,8,0.4,12.1,0.7
				l12.1,0.8c4.1,0.3,8,0.6,12.1,0.8l12.1,0.8l-1.9,3.3l-13.5-18.9c-4.4-6.3-8.9-12.7-13.3-19.1l1.3,0.7L120.2,69l-12.4-1.1L95,66.8
				l-6.5-0.5L81.9,65.9z M81.9,65.9l6,0.1l6.2,0.1l12.6,0.1l12.9,0.1l13,0.3c0.5,0,0.9,0.3,1.3,0.7l0.1,0.1
				c4.7,6.2,9.2,12.5,13.9,18.8l13.6,18.9c0.7,0.9,0.5,2.3-0.5,3c-0.4,0.3-0.9,0.4-1.4,0.4l-12.1-0.9c-4.1-0.3-8-0.6-12.1-1
				l-12.1-1.1c-4.1-0.3-8-0.8-12.1-1.1H111c-0.4,0-0.8-0.3-1.1-0.6c-2.5-3.2-4.9-6.3-7.4-9.6l-7.1-9.6l-6.9-9.4
				C86.4,71.9,84.2,68.9,81.9,65.9z"/>
		</g>
		<g class="st3">
			<path class="st4" d="M131.6,86.1c1.6,1.4,3,2.8,4.5,4.2s2.9,2.9,4.2,4.4c1.4,1.5,2.7,3,4.1,4.6c1.4,1.5,2.6,3.1,3.9,4.7
				c0.3,0.3,0.4,0.8,0.4,1.3v0.1c0,2.6,0,5.2,0,7.8c0,2.6-0.2,5.2-0.3,7.8c-0.2,2.6-0.3,5.2-0.7,7.8c-0.3,2.6-0.6,5.2-1.1,7.8
				c-0.5-2.6-0.8-5.2-1.1-7.8c-0.3-2.6-0.5-5.2-0.7-7.8c-0.2-2.6-0.3-5.2-0.3-7.8c-0.1-2.6-0.1-5.2,0-7.8l0.4,1.3
				c-1.3-1.6-2.5-3.2-3.6-4.9c-1.2-1.7-2.4-3.3-3.5-5s-2.3-3.4-3.3-5.2C133.6,89.6,132.5,87.9,131.6,86.1z"/>
		</g>
	</g>
	<g class="st2">
		<g class="st3">
			<path class="st4" d="M114.4,85.8c1.1,3.8,1.7,7.9,1.5,11.9c-0.1,4.1-1.1,8.1-2.5,11.9c-1.5,3.8-3.7,7.4-6.3,10.6
				c-2.6,3.2-5.8,5.9-9.1,8.3c-6.8,4.7-14.9,7.6-23.3,8c-0.5,0-1,0.1-1.6,0.1l-1.6-0.1c-1-0.1-2.1-0.1-3.1-0.2l-3.1-0.4l-0.8-0.1
				l-0.8-0.2l-1.5-0.4l-1.5-0.4c-0.5-0.1-1-0.3-1.5-0.5c-1-0.3-1.9-0.7-3-1.1c-1.9-0.9-3.8-1.8-5.6-2.9l-1.4-0.8
				c-0.4-0.3-0.8-0.6-1.3-0.9c-0.8-0.7-1.7-1.3-2.5-1.9l-2.3-2.1l-0.6-0.5l-0.5-0.6l-1-1.2l-1-1.2c-0.3-0.4-0.6-0.8-0.9-1.3
				c-0.6-0.8-1.3-1.7-1.9-2.5l-1.6-2.7c-0.3-0.4-0.5-0.9-0.8-1.4l-0.7-1.4l-0.7-1.4c-0.2-0.5-0.3-1-0.5-1.4c-0.3-1-0.8-1.9-1-3
				l-0.8-3l-0.1-0.8l-0.1-0.8l-0.3-1.5c-0.3-2-0.3-4.1-0.4-6.3c0.1-1,0.2-2.1,0.2-3.1c0.1-0.5,0.1-1,0.2-1.5l0.3-1.5l0.3-1.5
				c0.1-0.5,0.2-1,0.3-1.5l0.8-3c0.3-1,0.7-1.9,1.1-2.9c0.3-1,0.8-1.9,1.3-2.8c1.8-3.7,4.1-7.2,6.8-10.2c2.7-3,5.8-5.8,9-8
				c3.4-2.3,7-4.1,10.9-5c-1.9,0.7-3.7,1.5-5.4,2.5l-1.3,0.6l-1.2,0.8c-0.4,0.3-0.8,0.6-1.2,0.8l-1.2,0.9c-3,2.5-5.8,5.3-8.2,8.5
				c-2.4,3-4.3,6.5-5.8,10.1c-0.3,0.9-0.8,1.8-1,2.7c-0.3,0.9-0.6,1.9-0.8,2.8l-0.7,2.8c-0.1,0.4-0.2,0.9-0.3,1.4l-0.2,1.4l-0.2,1.4
				c-0.1,0.5,0,0.9-0.1,1.4c0,0.9-0.1,1.9-0.1,2.9c0.2,1.9,0.2,3.8,0.6,5.7l0.3,1.4l0.1,0.7l0.2,0.7l0.8,2.8c0.3,0.9,0.7,1.8,1,2.7
				c0.2,0.4,0.3,0.9,0.5,1.4l0.7,1.3l0.6,1.3c0.2,0.4,0.4,0.8,0.7,1.3l1.5,2.5c0.5,0.8,1.1,1.5,1.7,2.3c0.3,0.3,0.6,0.8,0.8,1.1
				l0.9,1l0.9,1l0.5,0.5l0.5,0.5l2.1,1.9c0.8,0.6,1.5,1.1,2.3,1.7c0.4,0.3,0.8,0.6,1.2,0.8l1.2,0.8c1.6,1.1,3.3,1.9,5,2.6
				c0.8,0.3,1.8,0.7,2.6,1c0.4,0.2,0.8,0.3,1.4,0.5l1.4,0.3l1.4,0.3l0.7,0.2c0.3,0.1,0.5,0.1,0.7,0.1l2.8,0.4
				c0.9,0.2,1.9,0.1,2.9,0.2l1.4,0.1c0.5,0,0.9,0,1.4,0c7.6-0.2,15.1-2.7,21.7-6.8c6.5-4.1,12-9.9,15.4-16.9
				c1.7-3.5,2.8-7.3,3.3-11.2C115.3,93.8,115.1,89.8,114.4,85.8z"/>
		</g>
		<g class="st3">
			<path class="st4" d="M36.2,78.9c3.6-0.8,7.1-1.4,10.7-1.7c3.6-0.3,7.1-0.4,10.7-0.4s7.1,0.2,10.7,0.4c3.6,0.3,7.1,0.8,10.7,1.7
				c-3.6,0.8-7.1,1.4-10.7,1.7C64.6,80.9,61,81,57.5,81s-7.1-0.2-10.7-0.4C43.2,80.2,39.6,79.8,36.2,78.9z"/>
		</g>
		<g class="st3">
			<path class="st4" d="M33.9,105.6c6.7-0.8,13.4-1.4,20-1.7c6.7-0.3,13.4-0.4,20-0.4c6.7,0,13.4,0.2,20,0.4
				c6.7,0.3,13.4,0.8,20,1.7c-6.7,0.8-13.4,1.4-20,1.7c-6.7,0.3-13.4,0.4-20,0.4c-6.7,0-13.4-0.2-20-0.4
				C47.3,107,40.6,106.4,33.9,105.6z"/>
		</g>
		<g class="st3">
			<path class="st4" d="M73.8,71.5c0.8,5.2,1.3,10.5,1.5,15.8c0.3,5.2,0.3,10.5,0.3,15.7c-0.1,5.2-0.3,10.5-0.6,15.7
				s-0.8,10.5-1.8,15.7c-0.8-5.2-1.3-10.5-1.5-15.8c-0.3-5.2-0.3-10.5-0.3-15.7c0.1-5.2,0.3-10.5,0.6-15.7
				C72.4,82,72.9,76.8,73.8,71.5z"/>
		</g>
		<g class="st3">
			<path class="st4" d="M61,61.3c-1.8,2.8-3.3,5.8-4.6,8.7c-1.4,3-2.4,6-3.2,9.1c-1.6,6.2-2.2,12.5-1.4,18.8c0.3,3.1,1,6.3,1.9,9.2
				l0.3,1.1l0.4,1.1c0.3,0.8,0.5,1.5,0.8,2.2c0.7,1.4,1.3,3,2,4.3c2.9,5.8,6.7,11.1,10.7,16.3c-5.3-4-10-9-13.6-14.6
				c-0.9-1.4-1.7-3-2.5-4.4c-0.4-0.8-0.7-1.5-1.1-2.4l-0.5-1.2l-0.4-1.2c-1.2-3.2-1.9-6.6-2.4-10.1c-0.4-3.5-0.4-6.9,0.1-10.3
				c0.4-3.4,1.3-6.8,2.5-10c1.2-3.2,2.7-6.3,4.6-9C56.4,66.2,58.5,63.5,61,61.3z"/>
		</g>
		<g class="st3">
			<path class="st4" d="M97.2,81.8c1.2,4.7,1.5,9.5,1.3,14.3c-0.3,4.8-1.1,9.6-2.6,14.3c-1.5,4.7-3.7,9-6.9,12.9
				c-1.5,1.9-3.3,3.6-5.2,5.2c-1.9,1.5-4,2.8-6.2,3.7c1.7-1.7,3.3-3.4,4.7-5.2c1.4-1.9,2.8-3.6,3.9-5.6c2.3-3.9,4.1-8,5.5-12.3
				c1.4-4.3,2.5-8.8,3.3-13.3C96,91.1,96.7,86.6,97.2,81.8z"/>
		</g>
		<g class="st3">
			<path class="st4" d="M82.1,27.8c-0.8,1.8-1.5,3.5-2.4,5.2c-0.8,1.8-1.6,3.5-2.5,5.2c-0.8,1.7-1.7,3.4-2.5,5.2
				c-0.8,1.7-1.7,3.4-2.5,5.1l0.1-1.3c1.7,4.4,4,8.5,6.9,12.1c3,3.6,6.6,6.5,10.7,8.6c4.1,2.1,8.5,3.5,13.2,3.8
				c4.7,0.3,9.3-0.1,13.9-1.4l-0.8,0.6l3.2-4.2c1.1-1.4,2.2-2.8,3.3-4.1c2.2-2.8,4.4-5.5,6.8-8.2c-1.7,3.1-3.5,6.2-5.3,9.2
				c-0.9,1.5-1.8,3-2.8,4.6l-2.8,4.5c-0.2,0.3-0.4,0.4-0.7,0.5h-0.1l-3.6,1.2c-1.3,0.3-2.5,0.6-3.7,0.8c-1.3,0.2-2.5,0.3-3.8,0.4
				c-1.3,0.1-2.5,0.1-3.9,0.1c-5.2-0.2-10.3-1.6-14.9-4c-4.6-2.5-8.6-5.8-11.8-9.9c-3.2-4.1-5.4-8.8-6.8-13.6V48
				c-0.1-0.4-0.1-0.8,0.2-1.1c1-1.6,2-3.2,3-4.8s2-3.2,3.1-4.8c1-1.6,2.1-3.2,3.1-4.7C79.9,30.9,81,29.4,82.1,27.8z"/>
		</g>
		<g class="st3">
			<path class="st4" d="M69.6,12.2c2.8,3.3,5.5,6.5,8.3,9.7l8.1,9.3l8,9.1c2.6,3,5.2,6.1,7.7,9.1l-1.1-0.6c4.2,0.3,8.5,0.4,12.7,0.8
				l12.7,0.8c4.2,0.3,8.5,0.6,12.7,0.8l12.7,0.9l-1.9,3.3l-14.3-20c-4.7-6.7-9.4-13.3-14-20l1.3,0.7l-12.9-0.9l-13-1.1l-13.4-1.1
				l-6.8-0.5L69.6,12.2z M69.6,12.2l6.3,0.1l6.4,0.1l13.2,0.1l13.5,0.2l13.6,0.3c0.5,0,0.9,0.3,1.3,0.7l0.1,0.1
				c4.9,6.5,9.6,13.1,14.5,19.6l14.2,19.7c0.7,0.9,0.5,2.3-0.5,3c-0.4,0.3-0.9,0.4-1.4,0.4l-12.7-1c-4.2-0.3-8.5-0.7-12.7-1
				l-12.6-1.1c-4.2-0.3-8.5-0.8-12.6-1.2h-0.1c-0.4,0-0.8-0.3-1.1-0.6c-2.5-3.3-5.2-6.7-7.7-10.1l-7.4-10l-7.3-9.8
				C74.3,18.5,72,15.4,69.6,12.2z"/>
		</g>
		<g class="st3">
			<path class="st4" d="M121.6,33.3c1.6,1.4,3.2,2.9,4.7,4.4s3,3,4.5,4.7c1.4,1.6,2.9,3.1,4.2,4.7c1.4,1.6,2.8,3.2,4.1,4.9
				c0.3,0.3,0.4,0.8,0.4,1.3v0.1c0,2.7,0,5.4,0,8.2c0,2.7-0.2,5.4-0.3,8.2c-0.2,2.7-0.3,5.4-0.7,8.2c-0.3,2.7-0.6,5.4-1.1,8.2
				c-0.5-2.7-0.8-5.4-1.1-8.2c-0.3-2.7-0.5-5.4-0.7-8.2c-0.2-2.7-0.3-5.4-0.3-8.2c-0.1-2.7-0.1-5.4,0-8.2l0.4,1.3
				c-1.3-1.7-2.5-3.4-3.8-5.2c-1.3-1.7-2.5-3.5-3.6-5.2c-1.2-1.8-2.4-3.6-3.5-5.4C123.7,37,122.6,35.2,121.6,33.3z"/>
		</g>
	</g>
	<g class="st2">
		<g class="st3">
			<g>
				<path class="st4" d="M75.8,105.2c-6.4,0.8-12.9,0.3-19.3-1.2c-3.1-0.8-6.3-1.9-9.3-3.2c-3-1.4-5.8-3.1-8.5-5.2s-5-4.5-7-7.1
					c-2.1-2.6-3.7-5.5-5.2-8.5c-2.8-6-4.4-12.6-5.1-19.1l0,0c0-0.1,0-0.1,0-0.2l0.2-4.7c0.2-1.5,0.4-3.1,0.7-4.7
					c0.3-1.5,0.8-3,1.2-4.6l1.6-4.5c2.5-5.8,6.1-11.1,10.7-15.5s10-7.8,15.9-10.1s12.3-3.1,18.5-3c6.3,0.3,12.4,1.9,18.1,4.6
					C94,21,99.1,24.9,103,29.7c1.9,2.4,3.6,5,5,7.8s2.5,5.7,3.1,8.6c0.8,3,1.2,6,1.4,9c0.2,3,0.1,6.1-0.2,9c0-3-0.3-6-0.6-9
					c-0.4-3-1.1-5.8-2-8.7c-1.9-5.7-4.7-10.9-8.7-15.2c-3.9-4.3-8.8-7.8-14.1-10.1c-2.6-1.2-5.4-2-8.3-2.7c-2.8-0.7-5.8-1-8.6-1.1
					c-1.4-0.1-2.9,0.1-4.3,0.2c-1.4,0-2.9,0.3-4.3,0.5c-1.4,0.2-2.8,0.6-4.2,0.9c-1.4,0.3-2.7,0.8-4.1,1.4
					c-5.3,2.1-10.3,5.2-14.4,9.2c-4.1,4-7.5,8.8-9.7,14L27.4,48l-1.1,4.1l-0.7,4.2l-0.3,4.3v-0.2c0.5,6.3,1.9,12.3,4.3,18.1
					c2.4,5.8,6.1,10.8,10.7,15c4.7,4.1,10.4,7,16.5,8.9C63,104.4,69.4,105.4,75.8,105.2z"/>
			</g>
			<g>
				<path class="st4" d="M25.4,57.7c2.5-3,5.5-5.7,8.6-8s6.5-4.5,10.1-6.2c7.1-3.5,15.1-5.6,23.1-5.9c1,0,2-0.1,3-0.1l3,0.1
					c2,0.2,4,0.3,6,0.8c1.9,0.3,3.9,0.8,5.8,1.3c0.9,0.3,1.9,0.6,2.9,0.9c0.9,0.3,1.9,0.6,2.8,1c7.4,2.9,14.2,7.1,20,12.3
					c-6.9-3.7-13.9-6.9-21.1-9.1c-0.9-0.3-1.9-0.5-2.7-0.8c-0.9-0.3-1.9-0.5-2.8-0.7c-1.9-0.3-3.7-0.8-5.6-0.9
					c-3.7-0.5-7.4-0.7-11.2-0.5c-3.7,0.2-7.4,0.7-11.2,1.4c-3.6,0.8-7.3,1.9-10.8,3.3c-3.6,1.4-7,3-10.3,4.9
					C31.8,53.3,28.6,55.4,25.4,57.7z"/>
			</g>
			<g>
				<path class="st4" d="M51.7,26.7c-2.3,6.6-3.8,13.3-4.4,20S47.2,60,49.1,66.3c1,3.1,2.5,6.1,4.1,8.9c1.7,2.8,3.9,5.3,6.2,7.7
					c4.7,4.7,10.4,8.5,16.4,12c-6.7-1.9-13.2-5-18.7-9.6c-2.7-2.3-5.2-4.9-7.3-8c-2-3-3.6-6.3-4.8-9.7c-2.2-6.9-2.5-14.4-1.1-21.3
					C45.3,39.2,47.8,32.5,51.7,26.7z"/>
			</g>
			<g>
				<path class="st4" d="M70.7,22.4"/>
			</g>
			<g>
				<path class="st4" d="M70.2,24.2c1.8,0.5,3.4,1.4,4.9,2.4c1.5,1,3,2.2,4.2,3.5c2.6,2.6,4.7,5.8,6,9.4c1.4,3.6,1.9,7.4,1.5,11
					c-0.3,3.7-1.4,7.3-3.1,10.4c0.1-3.6,0.2-7-0.2-10.4c-0.3-3.3-1-6.5-2.2-9.6s-2.7-5.9-4.6-8.7C74.9,29.4,72.7,26.8,70.2,24.2z"/>
			</g>
			<g>
				<path class="st4" d="M55.2,94.8c0.3-1.3,0.8-2.1,1.3-2.9c0.6-0.8,1.3-1.4,2-1.9c0.8-0.5,1.6-0.9,2.5-1.2
					c0.9-0.3,1.9-0.4,3.2-0.2c-0.3,1.3-0.8,2.1-1.3,2.9c-0.6,0.8-1.3,1.4-2,1.9c-0.8,0.5-1.6,0.9-2.5,1.2
					C57.5,94.9,56.5,95,55.2,94.8z"/>
			</g>
			<g>
				<path class="st4" d="M36.1,62.6c0,2.8-1,5.6-3,7.8c-1.9,2.2-4.7,3.7-7.8,4c-1.5,0.2-3.1,0-4.7-0.5s-3-1.3-4.2-2.4
					c-2.5-2.2-4-5.5-4-8.9c0-3.4,1.5-6.7,4-8.9c1.3-1.1,2.7-1.9,4.2-2.4c1.5-0.5,3.1-0.7,4.7-0.5c3.1,0.3,5.9,1.8,7.8,4
					C35.1,57.1,36.2,59.8,36.1,62.6z M36.1,62.6c0-2.8-1.3-5.6-3.4-7.4c-1-0.9-2.3-1.5-3.6-1.9c-1.3-0.4-2.6-0.5-3.9-0.3
					c-2.5,0.3-4.8,1.6-6.3,3.4c-1.5,1.8-2.3,4.1-2.3,6.3c0,2.3,0.8,4.5,2.3,6.3c1.5,1.8,3.7,3,6.3,3.4c1.3,0.2,2.6,0,3.9-0.3
					c1.3-0.4,2.5-1,3.6-1.9C34.9,68.2,36.2,65.4,36.1,62.6z"/>
			</g>
			<g>
				<path class="st4" d="M70.9,20.3c0,2.8-1,5.6-3,7.8c-1.9,2.2-4.7,3.7-7.8,4c-1.5,0.2-3.1,0-4.7-0.5c-1.5-0.5-3-1.3-4.2-2.4
					c-2.5-2.2-4-5.5-4-8.9s1.5-6.7,4-8.9c1.3-1.1,2.7-1.9,4.2-2.4c1.5-0.5,3.1-0.7,4.7-0.5c3.1,0.3,5.9,1.8,7.8,4
					C69.9,14.6,70.9,17.4,70.9,20.3z M70.9,20.3c0-2.8-1.3-5.6-3.4-7.4c-1-0.9-2.3-1.5-3.6-1.9c-1.3-0.4-2.6-0.5-3.9-0.3
					c-2.5,0.3-4.8,1.6-6.3,3.4c-1.5,1.8-2.3,4.1-2.3,6.3c0,2.3,0.8,4.5,2.3,6.3s3.7,3,6.3,3.4c1.3,0.2,2.6,0,3.9-0.3
					c1.3-0.4,2.5-1,3.6-1.9C69.7,25.8,70.9,23.1,70.9,20.3z"/>
			</g>
			<g>
				<path class="st4" d="M94.5,41.7c0,2.8-1,5.6-3,7.8c-1.9,2.2-4.7,3.7-7.8,4c-1.5,0.2-3.1,0-4.7-0.5c-1.5-0.5-3-1.3-4.2-2.4
					c-2.5-2.2-4-5.5-4-8.9c0-3.4,1.5-6.7,4-8.9c1.3-1.1,2.7-1.9,4.2-2.4c1.5-0.5,3.1-0.7,4.7-0.5c3.1,0.3,5.9,1.8,7.8,4
					C93.5,36.1,94.5,38.9,94.5,41.7z M94.5,41.7c0-2.8-1.3-5.6-3.4-7.4c-1-0.9-2.3-1.5-3.6-1.9c-1.3-0.4-2.6-0.5-3.9-0.3
					c-2.5,0.3-4.8,1.6-6.3,3.4c-1.5,1.8-2.3,4.1-2.3,6.3c0,2.3,0.8,4.5,2.3,6.3c1.5,1.8,3.7,3,6.3,3.4c1.3,0.2,2.6,0,3.9-0.3
					c1.3-0.4,2.5-1,3.6-1.9C93.3,47.2,94.5,44.5,94.5,41.7z"/>
			</g>
			<g>
				<path class="st4" d="M55.9,97.7c0.3,2.8-0.5,5.7-2.3,8c-1.7,2.4-4.4,4.1-7.4,4.7c-1.5,0.3-3.1,0.3-4.7-0.1c-1.5-0.3-3-1-4.4-2
					c-2.6-1.9-4.5-5.2-4.7-8.5c-0.3-3.4,0.9-6.8,3.1-9.2c1.1-1.2,2.5-2.1,4-2.8c1.4-0.6,3-0.9,4.7-0.9c3.1,0,6,1.3,8.1,3.3
					C54.4,92.2,55.7,94.9,55.9,97.7z M55.9,97.7c-0.3-2.8-1.8-5.5-4-7c-1.1-0.8-2.4-1.4-3.6-1.6s-2.6-0.3-3.9,0
					c-2.5,0.5-4.7,2-6,3.9c-1.4,1.9-1.9,4.2-1.8,6.4c0.2,2.3,1.2,4.4,2.9,6.1c1.7,1.7,4,2.7,6.6,2.8c1.3,0,2.6-0.2,3.8-0.7
					c1.2-0.5,2.4-1.3,3.3-2.3C55.1,103.4,56.1,100.5,55.9,97.7z"/>
			</g>
		</g>
		<g class="st3">
			<path class="st4" d="M94,84.9c-0.8,1.7-1.4,3.4-2.3,5c-0.8,1.7-1.5,3.3-2.4,5c-0.8,1.7-1.6,3.3-2.5,4.9c-0.8,1.6-1.6,3.3-2.5,4.9
				l0.1-1.3c1.6,4.2,3.9,8.2,6.7,11.6c2.9,3.4,6.3,6.3,10.2,8.3c3.9,2,8.2,3.3,12.6,3.6c4.4,0.3,9-0.1,13.3-1.4l-0.8,0.6l3.1-4.1
				c1-1.4,2.1-2.7,3.1-4c2.1-2.6,4.3-5.2,6.5-7.9c-1.6,3-3.3,5.9-5.1,8.9c-0.8,1.4-1.8,2.9-2.6,4.4l-2.7,4.3
				c-0.2,0.3-0.4,0.4-0.7,0.5h-0.1l-3.5,1.2c-1.2,0.3-2.4,0.6-3.6,0.8c-1.2,0.2-2.5,0.3-3.7,0.4c-1.3,0.1-2.5,0.1-3.7,0.1
				c-5-0.2-9.9-1.5-14.4-3.8c-4.4-2.3-8.4-5.7-11.3-9.6c-3-3.9-5.2-8.5-6.5-13.1v-0.1c-0.1-0.4-0.1-0.8,0.2-1.1
				c0.9-1.5,1.9-3.1,3-4.7s1.9-3,3-4.6s2-3,3-4.6C91.9,87.9,93,86.4,94,84.9z"/>
		</g>
		<g class="st3">
			<path class="st4" d="M82,69.9c2.6,3.1,5.3,6.3,8,9.3l7.9,9l7.6,8.7c2.5,2.9,5,5.8,7.4,8.7l-1.1-0.6c4.1,0.3,8.1,0.4,12.2,0.7
				l12.2,0.8c4.1,0.3,8.1,0.6,12.2,0.8l12.2,0.8l-1.9,3.3L145,92.3c-4.5-6.4-9-12.8-13.4-19.3l1.3,0.7l-12.3-0.8L108,71.8l-12.9-1.1
				l-6.5-0.5L82,69.9z M82,69.9l6.1,0.1l6.2,0.1l12.7,0.1l12.9,0.1l13.1,0.3c0.5,0,0.9,0.3,1.3,0.7l0.1,0.1
				c4.7,6.3,9.3,12.6,14,18.9l13.7,19c0.7,0.9,0.5,2.3-0.5,3c-0.4,0.3-0.9,0.4-1.4,0.4l-12.2-1c-4.1-0.3-8.1-0.6-12.2-1l-12.2-1.1
				c-4.1-0.3-8.1-0.8-12.2-1.1h-0.1c-0.4,0-0.8-0.3-1.1-0.6c-2.5-3.2-5-6.4-7.4-9.6l-7.2-9.6L88.7,79C86.5,75.9,84.3,72.9,82,69.9z"
				/>
		</g>
		<g class="st3">
			<path class="st4" d="M132,90.1c1.6,1.4,3,2.8,4.6,4.2c1.4,1.4,2.9,3,4.3,4.4c1.4,1.5,2.8,3,4.1,4.6c1.4,1.5,2.6,3.1,4,4.7
				c0.3,0.3,0.4,0.8,0.4,1.3v0.1c0,2.6,0,5.2,0,7.9s-0.2,5.2-0.3,7.9s-0.3,5.2-0.7,7.9s-0.6,5.2-1.1,7.9c-0.5-2.6-0.8-5.2-1.1-7.9
				c-0.3-2.6-0.5-5.2-0.7-7.9c-0.2-2.6-0.3-5.2-0.3-7.9s-0.1-5.2,0-7.9l0.4,1.3c-1.3-1.6-2.5-3.3-3.6-4.9c-1.2-1.7-2.4-3.3-3.6-5.1
				c-1.2-1.7-2.3-3.4-3.4-5.2C134,93.8,133,92,132,90.1z"/>
		</g>
	</g>
	<g>
		<g>
			<path class="st4" d="M94.6,120.7L76,120.8l-18.6,0.2l-37.2,0.5c-1.7,0.1-3.5-0.6-4.7-1.8c-1.2-1.2-2-2.9-2.1-4.7l-0.1-9.3
				l-0.2-18.6L13,68.5v-9.3c0-1.9,0.7-3.8,2.1-5.1c1.3-1.3,3.2-2.1,5.1-2.1L38.7,52l18.6,0.2l37.2,0.5c1.7,0,3.4,0.7,4.6,1.9
				c1.2,1.2,1.9,2.9,1.9,4.6l-0.1,9.3L100.7,87l-0.2,18.6v9.3c0,1.6-0.6,3.1-1.7,4.2C97.7,120.1,96.1,120.7,94.6,120.7z M94.6,120.7
				c1.6,0,3.1-0.6,4.1-1.8c1.1-1.1,1.7-2.6,1.7-4.2v-9.3l-0.2-18.6l-0.2-18.6l-0.1-9.3c0-1.4-0.7-2.8-1.7-3.7c-1-1-2.4-1.5-3.8-1.5
				l-37.2,0.5l-18.6,0.2l-18.6,0.1c-1.2,0-2.4,0.5-3.3,1.3c-0.9,0.9-1.3,2-1.3,3.3v9.3L15.4,87l-0.2,18.6l-0.1,9.3
				c0,1.3,0.5,2.7,1.5,3.7c1,1,2.3,1.5,3.7,1.5l37.2,0.5l18.6,0.2L94.6,120.7z"/>
		</g>
		<g>
			<path class="st4" d="M47,94.6c3.2-0.5,6.3-0.8,9.5-1c3.2-0.2,6.3-0.3,9.5-0.3s6.3,0.1,9.5,0.3c3.2,0.2,6.3,0.5,9.5,1
				c-3.2,0.5-6.3,0.8-9.5,1c-3.2,0.2-6.3,0.3-9.5,0.3c-3.2,0-6.3-0.1-9.5-0.3C53.3,95.4,50.2,95.1,47,94.6z"/>
		</g>
		<g>
			<path class="st4" d="M47,81c3.2-0.5,6.3-0.8,9.5-1c3.2-0.2,6.3-0.3,9.5-0.3s6.3,0.1,9.5,0.3c3.2,0.2,6.3,0.5,9.5,1
				c-3.2,0.5-6.3,0.8-9.5,1c-3.2,0.2-6.3,0.3-9.5,0.3c-3.2,0-6.3-0.1-9.5-0.3C53.3,81.9,50.2,81.6,47,81z"/>
		</g>
		<g>
			<path class="st4" d="M47,67c3.2-0.5,6.3-0.8,9.5-1c3.2-0.2,6.3-0.3,9.5-0.3s6.3,0.1,9.5,0.3c3.2,0.2,6.3,0.5,9.5,1
				c-3.2,0.5-6.3,0.8-9.5,1c-3.2,0.2-6.3,0.3-9.5,0.3c-3.2,0-6.3-0.1-9.5-0.3C53.3,67.8,50.2,67.6,47,67z"/>
		</g>
		<g>
			<g>
				<path class="st4" d="M27.2,65.5c0.8-0.1,1.3,0.2,1.9,0.4c0.5,0.2,1,0.5,1.4,0.9c0.4,0.4,0.8,0.8,1,1.3s0.5,1.1,0.6,1.9
					c-0.8,0.1-1.3-0.2-1.9-0.4c-0.5-0.2-1-0.5-1.4-0.9c-0.4-0.4-0.8-0.8-1-1.3C27.5,66.9,27.3,66.3,27.2,65.5z"/>
			</g>
			<g>
				<path class="st4" d="M38.3,62.8c-0.1,0.9-0.4,1.7-0.8,2.4c-0.4,0.7-0.8,1.3-1.3,2c-0.5,0.6-1.1,1.1-1.8,1.6
					c-0.7,0.5-1.4,0.9-2.3,1.1c0.1-0.9,0.4-1.7,0.8-2.4c0.4-0.7,0.8-1.3,1.3-2c0.5-0.6,1.1-1.1,1.8-1.6C36.6,63.5,37.4,63,38.3,62.8
					z"/>
			</g>
		</g>
		<g>
			<g>
				<path class="st4" d="M27.2,78.8c0.8-0.1,1.3,0.2,1.9,0.4c0.5,0.2,1,0.5,1.4,0.9s0.8,0.8,1,1.3s0.5,1.1,0.6,1.9
					c-0.8,0.1-1.3-0.2-1.9-0.4c-0.5-0.2-1-0.5-1.4-0.9s-0.8-0.8-1-1.3C27.5,80.2,27.3,79.6,27.2,78.8z"/>
			</g>
			<g>
				<path class="st4" d="M38.3,76.1c-0.1,0.9-0.4,1.7-0.8,2.4c-0.4,0.7-0.8,1.3-1.3,2s-1.1,1.1-1.8,1.6c-0.7,0.5-1.4,0.9-2.3,1.1
					c0.1-0.9,0.4-1.7,0.8-2.4c0.4-0.7,0.8-1.3,1.3-2c0.5-0.6,1.1-1.1,1.8-1.6C36.6,76.8,37.4,76.4,38.3,76.1z"/>
			</g>
		</g>
		<g>
			<path class="st4" d="M37,94.8c0,1.1-0.4,2.2-1.1,3.1c-0.7,0.9-1.8,1.6-3.1,1.8c-1.2,0.2-2.7-0.2-3.7-1.1
				c-1.1-0.9-1.8-2.3-1.7-3.7c0-1.5,0.7-2.9,1.7-3.7c1-0.9,2.5-1.3,3.7-1.1c1.3,0.2,2.4,0.9,3.1,1.8C36.5,92.7,37,93.7,37,94.8z
				 M37,94.8c0-1.1-0.5-2.2-1.3-2.9s-1.9-0.9-2.9-0.7c-0.9,0.2-1.7,0.7-2.2,1.3c-0.5,0.7-0.7,1.4-0.7,2.2s0.2,1.5,0.7,2.2
				c0.5,0.6,1.2,1.2,2.2,1.3c0.9,0.2,2-0.1,2.9-0.7C36.4,97,37,95.9,37,94.8z"/>
		</g>
		<g>
			<path class="st4" d="M47.1,109.1c3.2-0.5,6.3-0.8,9.5-1c3.2-0.2,6.3-0.3,9.5-0.3s6.3,0.1,9.5,0.3c3.2,0.2,6.3,0.5,9.5,1
				c-3.2,0.5-6.3,0.8-9.5,1s-6.3,0.3-9.5,0.3c-3.2,0-6.3-0.1-9.5-0.3C53.4,110,50.2,109.7,47.1,109.1z"/>
		</g>
		<g>
			<g>
				<path class="st4" d="M27.3,106.9c0.8-0.1,1.3,0.2,1.9,0.4c0.5,0.2,1,0.5,1.4,0.9s0.8,0.8,1,1.3s0.5,1.1,0.6,1.9
					c-0.8,0.1-1.3-0.2-1.9-0.4c-0.5-0.2-1-0.5-1.4-0.9s-0.8-0.8-1-1.3C27.6,108.3,27.4,107.7,27.3,106.9z"/>
			</g>
			<g>
				<path class="st4" d="M38.4,104.2c-0.1,0.9-0.4,1.7-0.8,2.4c-0.4,0.7-0.8,1.3-1.3,2s-1.1,1.1-1.8,1.6c-0.7,0.5-1.4,0.9-2.3,1.1
					c0.1-0.9,0.4-1.7,0.8-2.4c0.4-0.7,0.8-1.3,1.3-2c0.5-0.6,1.1-1.1,1.8-1.6C36.7,104.9,37.5,104.5,38.4,104.2z"/>
			</g>
		</g>
	</g>
	<g class="st2">
		<g class="st3">
			<path class="st4" d="M32.7,108.2c-1.6,0.1-3.3-0.1-4.7-0.8c-1.5-0.8-2.4-2.6-2.3-4.3l-0.3-9.7L25,73.9c-0.3-12.9-0.5-26-0.6-38.9
				l-0.3-9.8c0-0.8,0-1.6,0-2.5c0-1,0.2-2,0.5-3c0.7-1.9,1.9-3.6,3.6-4.7c0.8-0.6,1.8-1,2.7-1.3c0.5-0.2,1-0.3,1.5-0.3
				c0.3-0.1,0.5,0,0.8-0.1h0.3h0.3h4.9h9.7l38.9-0.1l38.9,0.1l9.7,0.1h2.5h1.2h0.6h0.8c2,0.2,4,1,5.5,2.3c1.5,1.4,2.6,3.1,3,5.1
				c0.1,0.5,0.2,1,0.3,1.5v0.8v0.6v2.5l-0.1,9.7c-0.2,12.9-0.3,26-0.6,38.9l-0.4,19.5l-0.2,4.9l-0.1,2.5c0,0.8,0,1.6-0.1,2.5
				c-0.2,1.7-1.2,3.3-2.5,4.1c-1.4,0.9-3,1.4-4.6,1.6c1.6-0.3,3.1-0.8,4.4-1.9c1.3-0.9,2.1-2.5,2.1-4c0.1-0.8,0-1.6,0-2.4l-0.1-2.5
				l-0.2-4.9l-0.4-19.5c-0.3-12.9-0.5-26-0.6-38.9l-0.1-9.7v-2.5v-0.6v-0.5c0-0.3-0.1-0.6-0.2-0.9c-0.3-1.2-1-2.3-1.9-3.1
				c-0.9-0.8-2.1-1.3-3.4-1.4h-0.5h-0.6h-1.2h-2.5l-9.7,0.1l-38.9,0.1l-38.9-0.1L39,17.1h-4.9h-0.3h-0.3c-0.2,0-0.3,0-0.4,0
				c-0.3,0-0.6,0.1-0.9,0.2c-0.6,0.2-1.2,0.4-1.7,0.8c-1,0.7-1.9,1.7-2.3,2.9c-0.2,0.6-0.3,1.2-0.3,1.8v2.4l-0.1,9.7
				c-0.2,12.9-0.3,26-0.6,38.9l-0.4,19.5l-0.3,9.7c-0.1,1.5,0.5,3.1,1.9,4C29.5,107.9,31.1,108.2,32.7,108.2z"/>
		</g>
		<g class="st3">
			<path class="st4" d="M62.7,102.8c0,3.4-0.8,6.9-2.6,9.9c-0.9,1.5-2.1,2.9-3.6,3.9c-1.4,1-3.3,1.8-5.2,1.9
				c-1.9,0.2-3.9-0.3-5.7-1.2c-1.7-0.9-3.2-2.2-4.4-3.8c-2.4-3-3.5-6.9-3.5-10.7s1.1-7.6,3.5-10.7c1.2-1.5,2.7-2.9,4.4-3.8
				c1.7-0.9,3.7-1.4,5.7-1.2c1.9,0.2,3.7,0.8,5.2,1.9c1.5,1,2.6,2.5,3.6,3.9C61.9,95.9,62.7,99.3,62.7,102.8z M62.7,102.8
				c0-3.4-1-6.9-3.1-9.6c-1-1.4-2.3-2.5-3.7-3.1c-1.4-0.8-3-1-4.6-0.9c-3,0.3-5.5,2.4-7,4.9s-2.3,5.7-2.3,8.6c0,3,0.7,6.1,2.3,8.7
				c1.5,2.5,4,4.7,7,4.9c1.5,0.2,3.1-0.2,4.6-0.9c1.4-0.8,2.7-1.9,3.7-3.1C61.6,109.7,62.7,106.2,62.7,102.8z"/>
		</g>
		<g class="st3">
			<path class="st4" d="M98.4,96.5c0,3.4-0.8,6.9-2.6,9.9c-0.9,1.5-2.1,2.9-3.6,3.9c-1.4,1-3.3,1.8-5.2,1.9
				c-1.9,0.2-3.9-0.3-5.7-1.2c-1.7-0.9-3.2-2.2-4.4-3.8c-2.4-3-3.5-6.9-3.5-10.7s1.1-7.6,3.5-10.7c1.2-1.5,2.7-2.9,4.4-3.8
				c1.7-0.9,3.7-1.4,5.7-1.2s3.7,0.8,5.2,1.9c1.5,1,2.6,2.5,3.6,3.9C97.7,89.6,98.4,93,98.4,96.5z M98.4,96.5c0-3.4-1-6.9-3.1-9.6
				c-1-1.4-2.3-2.5-3.7-3.1c-1.4-0.8-3-1-4.6-0.9c-3,0.3-5.5,2.4-7,4.9s-2.3,5.7-2.3,8.6c0,3,0.7,6.1,2.3,8.7c1.5,2.5,4,4.7,7,4.9
				c1.5,0.2,3.1-0.2,4.6-0.9c1.4-0.8,2.7-1.9,3.7-3.1C97.4,103.3,98.4,99.9,98.4,96.5z"/>
		</g>
		<g class="st3">
			<path class="st4" d="M134.2,102.8c0,3.4-0.8,6.9-2.6,9.9c-0.9,1.5-2.1,2.9-3.6,3.9c-1.4,1-3.3,1.8-5.2,1.9
				c-1.9,0.2-3.9-0.3-5.7-1.2c-1.7-0.9-3.2-2.2-4.4-3.8c-2.4-3-3.5-6.9-3.5-10.7s1.1-7.6,3.5-10.7c1.2-1.5,2.7-2.9,4.4-3.8
				c1.7-0.9,3.7-1.4,5.7-1.2s3.7,0.8,5.2,1.9c1.5,1,2.6,2.5,3.6,3.9C133.4,95.9,134.2,99.3,134.2,102.8z M134.2,102.8
				c0-3.4-1-6.9-3.1-9.6c-1-1.4-2.3-2.5-3.7-3.1c-1.4-0.8-3-1-4.6-0.9c-3,0.3-5.5,2.4-7,4.9s-2.3,5.7-2.3,8.6c0,3,0.7,6.1,2.3,8.7
				c1.5,2.5,4,4.7,7,4.9c1.5,0.2,3.1-0.2,4.6-0.9c1.4-0.8,2.7-1.9,3.7-3.1C133.2,109.7,134.2,106.2,134.2,102.8z"/>
		</g>
		<g class="st3">
			<path class="st4" d="M74.8,72.7l-0.5-8.2l-0.6-8.6c-0.2-3-0.3-5.9-0.5-9s-0.3-6.1-0.3-9.1c0-1,0.8-1.9,1.9-1.9
				c0.3,0,0.6,0.1,0.9,0.2l0.1,0.1c10.4,5.4,20.7,11,31,16.7h0.1c0.9,0.5,1.3,1.7,0.7,2.6c-0.2,0.3-0.4,0.6-0.8,0.8
				c-2.7,1.5-5.5,3-8.2,4.5c-2.8,1.4-5.5,2.9-8.2,4.2l-8,4L74.8,72.7z M74.8,72.7c2.7-1.8,5.3-3.6,7.9-5.2l7.5-5.1
				c2.5-1.7,4.9-3.3,7.3-4.8c2.4-1.6,4.8-3.1,7.2-4.6l0.1,3.4c-10.4-5.4-20.7-11-31-16.8l2.8-1.7c-0.1,2.8-0.2,5.5-0.3,8.4
				c-0.2,2.8-0.3,5.6-0.5,8.5l-0.6,8.8C75.1,66.4,74.9,69.5,74.8,72.7z"/>
		</g>
		<g class="st3">
			<path class="st4" d="M24.3,141.5c-0.9-2.6-0.9-5.4-0.3-8.2c0.6-2.7,2-5.5,4.3-7.5s5.2-3.2,8-3.4c2.9-0.2,5.6,0.3,8,1.6
				c-2.7,0.5-5.2,0.9-7.4,1.6c-0.6,0.2-1.1,0.4-1.6,0.6c-0.5,0.3-1,0.4-1.5,0.8c-0.9,0.5-1.9,1.2-2.7,1.9c-1.6,1.4-2.9,3.3-4,5.5
				C26.1,136.5,25.2,138.8,24.3,141.5z"/>
		</g>
		<g class="st3">
			<path class="st4" d="M59.9,141.5c-1.1-3-1.4-6.2-1.1-9.4c0.3-3.2,1.4-6.5,3.6-9.2c1.1-1.4,2.4-2.6,3.8-3.5
				c1.5-0.9,3.1-1.5,4.7-1.9c3.3-0.6,6.6-0.3,9.6,1c-3.1,0.5-6,1.1-8.5,2.2c-1.3,0.6-2.5,1.2-3.5,2c-1,0.8-1.9,1.7-2.7,2.8
				c-1.6,2.1-2.8,4.6-3.6,7.4C61.2,135.5,60.6,138.3,59.9,141.5z"/>
		</g>
		<g class="st3">
			<path class="st4" d="M116,141.5c-0.6-3-1.3-6-2.2-8.7c-0.9-2.7-2-5.2-3.6-7.4c-0.8-1-1.7-1.9-2.7-2.8c-1-0.8-2.2-1.4-3.5-2
				c-2.5-1.1-5.4-1.7-8.5-2.2c2.9-1.2,6.2-1.6,9.6-1c1.6,0.3,3.3,0.9,4.7,1.9c1.5,0.9,2.8,2.1,3.8,3.5c2.1,2.8,3.2,6,3.6,9.2
				C117.4,135.3,117.1,138.5,116,141.5z"/>
		</g>
		<g class="st3">
			<path class="st4" d="M150.6,141.5c-0.8-2.6-1.7-5-2.8-7.1c-1.1-2.1-2.4-4.1-4-5.5c-0.8-0.8-1.7-1.4-2.7-1.9
				c-0.5-0.3-1-0.5-1.5-0.8c-0.5-0.2-1.1-0.4-1.6-0.6c-2.3-0.8-4.7-1.2-7.4-1.6c2.5-1.3,5.2-1.9,8-1.6c2.9,0.2,5.8,1.4,8,3.4
				c2.3,2,3.6,4.8,4.3,7.5C151.5,136.1,151.5,138.8,150.6,141.5z"/>
		</g>
	</g>
	<g class="st2">
		<g class="st3">
			<path class="st4" d="M136.6,135.5l-31.5,0.1l-31.5,0.2c-10.5,0.1-21,0.3-31.5,0.3H40c-0.7,0-1.4,0-2-0.1c-1.4-0.2-2.7-0.6-4-1.1
				s-2.5-1.3-3.6-2.2c-1.1-0.8-2-1.9-2.8-3c-0.8-1.2-1.4-2.5-1.9-3.7c-0.4-1.4-0.7-2.7-0.7-4.1l-0.1-7.9l-0.7-63l-0.1-15.7l-0.1-7.9
				v-1.9c0-0.3,0-0.7,0-1.1c0-0.3,0-0.8,0.1-1.1c0.2-1.5,0.6-3,1.2-4.3c0.6-1.4,1.4-2.7,2.4-3.8c0.9-1.2,2.1-2.2,3.3-3
				c1.3-0.8,2.6-1.5,4.1-1.9c1.4-0.4,3-0.7,4.5-0.8l15.7-0.2c1.2,0,2.1,0.9,2.1,2.1l0,0c0,7.3,0,14.5,0,21.8l-2.1-2.1
				c10.3,0,20.6,0,31,0.1c10.3,0.1,20.6,0.1,31,0.3l-1.7,1.7l-0.2-21.8l0,0c0-0.8,0.6-1.4,1.4-1.4l0,0l20,0.3c3.6,0.1,7.2,1.5,9.8,4
				s4.3,5.8,4.7,9.4c0.1,0.9,0.1,1.8,0.1,2.6v2.5l-0.1,5l-0.1,10l-0.3,20c-0.2,13.3-0.3,26.6-0.3,39.9v10v5c0,1.7,0.1,3.3-0.1,5
				c-0.3,3.3-2.1,6.4-4.6,8.6C143.3,134.2,139.9,135.5,136.6,135.5z M136.6,135.5c3.3,0,6.6-1.3,9.1-3.5c2.5-2.2,4.1-5.3,4.5-8.6
				c0.2-1.6,0.1-3.3,0.1-5v-5v-10c-0.1-13.3-0.2-26.6-0.3-39.9l-0.3-20l-0.2-10l-0.1-5c0-1.6,0-3.4-0.2-4.9c-0.3-3-1.9-6-4.2-8
				c-2.3-2-5.3-3.2-8.4-3.2l-20,0.3l1.4-1.4l0.7,21.8c0,0.9-0.7,1.7-1.6,1.7l0,0h-0.1c-10.3,0.2-20.6,0.2-31,0.3s-20.6,0.1-31,0.1
				c-1.2,0-2.1-0.9-2.1-2l0,0l0,0c0-7.3-0.1-14.5,0-21.8l2.1,2.1H39.5c-1.1,0-2.2,0.3-3.3,0.5c-1.1,0.3-2,0.8-3,1.4
				c-0.9,0.7-1.8,1.4-2.5,2.3c-0.7,0.8-1.4,1.9-1.8,2.9c-0.4,1-0.8,2.1-0.9,3.2c-0.1,0.3-0.1,0.6-0.1,0.8s-0.1,0.5,0,0.8v1.9
				l-0.1,7.9l-0.1,15.7L27.1,114l-0.1,7.9c0,1.3,0.2,2.5,0.5,3.6c0.3,1.2,0.8,2.3,1.5,3.4c0.7,1,1.5,1.9,2.5,2.8
				c0.9,0.8,1.9,1.5,3.1,2c1.1,0.5,2.4,0.9,3.6,1c0.6,0.1,1.3,0.1,1.9,0.2H42c10.5,0.1,21,0.3,31.5,0.3l31.5,0.2L136.6,135.5z"/>
		</g>
		<g class="st3">
			<path class="st4" d="M72.2,33.2c-0.6-1.9-0.5-4-0.1-5.8c0.5-1.9,1.4-3.8,2.9-5.3c1.4-1.6,3.3-2.7,5.3-3.2c2-0.6,4.1-0.3,5.9,0.5
				c-1.8,1-3.4,1.6-4.7,2.5c-1.4,0.8-2.5,1.9-3.5,3c-1,1.1-1.9,2.4-3,3.8L72.2,33.2z"/>
		</g>
		<g class="st3">
			<path class="st4" d="M86.2,19.3c1.8-0.8,3.9-1.1,5.9-0.5c2,0.5,4,1.6,5.3,3.2c1.4,1.5,2.4,3.4,2.9,5.3c0.4,1.9,0.6,4-0.1,5.8
				l-3-4.6c-0.9-1.4-1.9-2.7-2.9-3.8c-1-1.2-2.1-2.1-3.5-3C89.6,20.9,88,20.3,86.2,19.3z"/>
		</g>
		<g class="st3">
			<path class="st4" d="M55,62.8c-1.8,0-3.6,0.1-5.4,0.3c-0.4,0-0.9,0.1-1.4,0.2c-0.4,0.1-1.1,0.1-1.6-0.1c-1.1-0.3-2-1.4-2.1-2.7
				c-0.3-1.8-0.6-3.6-0.8-5.4c0-0.4-0.1-0.9-0.1-1.4c0-0.2,0-0.2,0-0.3c0-0.2,0-0.4,0-0.6c0.1-0.4,0.2-0.8,0.3-1.2
				c0.3-0.8,0.9-1.4,1.6-1.9c0.7-0.6,1.5-0.8,2.4-0.8c1.8,0,3.6,0.1,5.4,0.3c0.4,0,0.9,0.1,1.4,0.2l0.3,0.1c0.2,0,0.3,0.1,0.6,0.1
				c0.3,0.1,0.7,0.3,1,0.4c1.3,0.8,1.9,2.2,1.8,3.5c-0.3,1.8-0.6,3.6-0.8,5.4c-0.1,0.4-0.1,0.9-0.1,1.4s-0.1,0.9-0.3,1.4
				C56.8,62.3,56,62.8,55,62.8z M55,62.8c0.9,0,1.8-0.6,2.1-1.4c0.2-0.4,0.2-0.8,0.2-1.3s-0.1-0.9-0.1-1.4c-0.2-1.8-0.5-3.6-0.8-5.4
				c-0.2-0.5-0.6-0.8-0.9-0.8c-0.1,0-0.2,0-0.3,0h-0.1h-0.3c-0.4,0.1-0.9,0.1-1.4,0.2c-1.9,0.3-3.7,0.4-5.5,0.4
				c-0.1,0-0.3,0-0.3,0.2l-0.1,0.1c0,0,0,0,0,0.1c0,0,0,0.2,0,0.3c0,0.4-0.1,0.9-0.1,1.4c-0.2,1.8-0.5,3.6-0.8,5.4
				c-0.2,0.5,0,1.2,0.6,1.6c0.2,0.1,0.3,0.2,0.4,0.3c0.2,0.1,0.3,0.1,0.6,0.1c0.4,0.1,0.9,0.1,1.4,0.2C51.5,62.7,53.3,62.8,55,62.8z
				"/>
		</g>
		<g class="st3">
			<path class="st4" d="M79.7,62.8c-1.8,0-3.6,0.1-5.4,0.3c-0.4,0-0.9,0.1-1.4,0.2c-0.4,0.1-1.1,0.1-1.6-0.1c-1.1-0.3-2-1.4-2.1-2.7
				c-0.3-1.8-0.6-3.6-0.8-5.4c0-0.4-0.1-0.9-0.1-1.4c0-0.2,0-0.2,0-0.3c0-0.2,0-0.4,0-0.6c0.1-0.4,0.2-0.8,0.3-1.2
				c0.3-0.8,0.9-1.4,1.6-1.9s1.5-0.7,2.4-0.7c1.8,0,3.6,0.1,5.4,0.3c0.4,0,0.9,0.1,1.4,0.2l0.3,0.1c0.2,0,0.3,0.1,0.6,0.1
				c0.3,0.1,0.7,0.3,1,0.4c1.3,0.8,1.9,2.2,1.8,3.5c-0.3,1.8-0.6,3.6-0.8,5.4c-0.1,0.4-0.1,0.9-0.1,1.4c0,0.4-0.1,0.9-0.3,1.4
				C81.5,62.3,80.7,62.8,79.7,62.8z M79.7,62.8c0.9,0,1.8-0.6,2.1-1.4c0.2-0.4,0.2-0.8,0.2-1.3s-0.1-0.9-0.1-1.4
				c-0.2-1.8-0.5-3.6-0.8-5.4c-0.2-0.5-0.6-0.8-0.9-0.8c-0.1,0-0.2,0-0.3,0h-0.1h-0.3c-0.4,0.1-0.9,0.1-1.4,0.2
				c-1.8,0.2-3.6,0.3-5.4,0.3c-0.1,0-0.3,0-0.3,0.2l-0.1,0.1c0,0,0,0,0,0.1c0,0,0,0.2,0,0.3c0,0.4-0.1,0.9-0.1,1.4
				c-0.2,1.8-0.5,3.6-0.8,5.4c-0.2,0.5,0,1.2,0.6,1.6c0.2,0.1,0.3,0.2,0.4,0.3c0.2,0.1,0.3,0.1,0.6,0.1c0.4,0.1,0.9,0.1,1.4,0.2
				C76.1,62.7,78,62.8,79.7,62.8z"/>
		</g>
		<g class="st3">
			<path class="st4" d="M104.4,62.8c-1.8,0-3.6,0.1-5.4,0.3c-0.4,0-0.9,0.1-1.4,0.2c-0.4,0.1-1.1,0.1-1.6-0.1
				c-1.1-0.3-2-1.4-2.1-2.7c-0.3-1.8-0.6-3.6-0.8-5.4c0-0.4-0.1-0.9-0.1-1.4c0-0.2,0-0.2,0-0.3c0-0.2,0-0.4,0-0.6
				c0.1-0.4,0.2-0.8,0.3-1.2c0.3-0.8,0.9-1.4,1.6-1.9c0.7-0.4,1.5-0.7,2.4-0.7c1.8,0,3.6,0.1,5.4,0.3c0.4,0,0.9,0.1,1.4,0.2l0.3,0.1
				c0.2,0,0.3,0.1,0.6,0.1c0.3,0.1,0.7,0.3,1,0.4c1.3,0.8,1.9,2.2,1.8,3.5c-0.3,1.8-0.6,3.6-0.8,5.4c-0.1,0.4-0.1,0.9-0.1,1.4
				c0,0.4-0.1,0.9-0.3,1.4C106.2,62.3,105.3,62.8,104.4,62.8z M104.4,62.8c0.9,0,1.8-0.6,2.1-1.4c0.2-0.4,0.2-0.8,0.2-1.3
				s-0.1-0.9-0.1-1.4c-0.2-1.8-0.5-3.6-0.8-5.4c-0.2-0.5-0.6-0.8-0.9-0.8c-0.1,0-0.2,0-0.3,0h-0.1h-0.3c-0.4,0.1-0.9,0.1-1.4,0.2
				c-1.8,0.2-3.6,0.3-5.4,0.3c-0.1,0-0.3,0-0.3,0.2l-0.1,0.1c0,0,0,0,0,0.1c0,0,0,0.2,0,0.3c0,0.4-0.1,0.9-0.1,1.4
				c-0.2,1.8-0.5,3.6-0.8,5.4c-0.2,0.5,0,1.2,0.6,1.6c0.2,0.1,0.3,0.2,0.4,0.3c0.2,0.1,0.3,0.1,0.6,0.1c0.4,0.1,0.9,0.1,1.4,0.2
				C100.8,62.7,102.6,62.8,104.4,62.8z"/>
		</g>
		<g class="st3">
			<path class="st4" d="M129,62.8c-1.8,0-3.6,0.1-5.4,0.3c-0.4,0-0.9,0.1-1.4,0.2c-0.4,0.1-1.1,0.1-1.6-0.1c-1.1-0.3-2-1.4-2.1-2.7
				c-0.3-1.8-0.6-3.6-0.8-5.4c0-0.4-0.1-0.9-0.1-1.4c0-0.2,0-0.2,0-0.3c0-0.2,0-0.4,0-0.6c0.1-0.4,0.2-0.8,0.3-1.2
				c0.3-0.8,0.9-1.4,1.6-1.9c0.7-0.4,1.5-0.7,2.4-0.7c1.8,0,3.6,0.1,5.4,0.3c0.4,0,0.9,0.1,1.4,0.2l0.3,0.1c0.2,0,0.3,0.1,0.6,0.1
				c0.3,0.1,0.7,0.3,1,0.4c1.3,0.8,1.9,2.2,1.8,3.5c-0.3,1.8-0.6,3.6-0.8,5.4c-0.1,0.4-0.1,0.9-0.1,1.4c0,0.4-0.1,0.9-0.3,1.4
				C130.9,62.3,130,62.8,129,62.8z M129,62.8c0.9,0,1.8-0.6,2.1-1.4c0.2-0.4,0.2-0.8,0.2-1.3s-0.1-0.9-0.1-1.4
				c-0.2-1.8-0.5-3.6-0.8-5.4c-0.2-0.5-0.6-0.8-0.9-0.8c-0.1,0-0.2,0-0.3,0h-0.1h-0.3c-0.4,0.1-0.9,0.1-1.4,0.2
				c-1.8,0.2-3.6,0.3-5.4,0.3c-0.1,0-0.3,0-0.3,0.2l-0.1,0.1c0,0,0,0,0,0.1c0,0,0,0.2,0,0.3c0,0.4-0.1,0.9-0.1,1.4
				c-0.2,1.8-0.5,3.6-0.8,5.4c-0.2,0.5,0,1.2,0.6,1.6c0.2,0.1,0.3,0.2,0.4,0.3c0.2,0.1,0.3,0.1,0.6,0.1c0.4,0.1,0.9,0.1,1.4,0.2
				C125.5,62.7,127.3,62.8,129,62.8z"/>
		</g>
		<g class="st3">
			<path class="st4" d="M55,81.8c-1.8,0-3.6,0.1-5.4,0.3c-0.4,0-0.9,0.1-1.4,0.2c-0.4,0.1-1.1,0.1-1.6-0.1c-1.1-0.3-2-1.4-2.1-2.7
				c-0.3-1.8-0.6-3.6-0.8-5.4c0-0.4-0.1-0.9-0.1-1.4c0-0.2,0-0.2,0-0.3c0-0.2,0-0.4,0-0.6c0.1-0.4,0.2-0.8,0.3-1.2
				c0.3-0.8,0.9-1.4,1.6-1.9c0.7-0.4,1.5-0.7,2.4-0.7c1.8,0,3.6,0.1,5.4,0.3c0.4,0,0.9,0.1,1.4,0.2l0.3,0.1c0.2,0,0.3,0.1,0.6,0.1
				c0.3,0.1,0.7,0.3,1,0.4c1.3,0.8,1.9,2.2,1.8,3.5c-0.3,1.8-0.6,3.6-0.8,5.4c-0.1,0.4-0.1,0.9-0.1,1.4c0,0.4-0.1,0.9-0.3,1.4
				C56.8,81.2,56,81.8,55,81.8z M55,81.8c0.9,0,1.8-0.6,2.1-1.4c0.2-0.4,0.2-0.8,0.2-1.3s-0.1-0.9-0.1-1.4c-0.2-1.8-0.5-3.6-0.8-5.4
				c-0.2-0.5-0.6-0.8-0.9-0.8c-0.1,0-0.2,0-0.3,0h-0.1h-0.3c-0.4,0.1-0.9,0.1-1.4,0.2c-1.8,0.2-3.6,0.3-5.4,0.3
				c-0.1,0-0.3,0-0.3,0.2l-0.1,0.1c0,0,0,0,0,0.1c0,0,0,0.2,0,0.3c0,0.4-0.1,0.9-0.1,1.4c-0.2,1.8-0.5,3.6-0.8,5.4
				c-0.2,0.5,0,1.2,0.6,1.6c0.2,0.1,0.3,0.2,0.4,0.3c0.2,0.1,0.3,0.1,0.6,0.1c0.4,0.1,0.9,0.1,1.4,0.2C51.4,81.7,53.3,81.8,55,81.8z
				"/>
		</g>
		<g class="st3">
			<path class="st4" d="M79.7,81.8c-1.8,0-3.6,0.1-5.4,0.3c-0.4,0-0.9,0.1-1.4,0.2c-0.4,0.1-1.1,0.1-1.6-0.1c-1.1-0.3-2-1.4-2.1-2.7
				c-0.3-1.8-0.6-3.6-0.8-5.4c0-0.4-0.1-0.9-0.1-1.4c0-0.2,0-0.2,0-0.3c0-0.2,0-0.4,0-0.6c0.1-0.4,0.2-0.8,0.3-1.2
				c0.3-0.8,0.9-1.4,1.6-1.9c0.7-0.4,1.5-0.7,2.4-0.7c1.8,0,3.6,0.1,5.4,0.3c0.4,0,0.9,0.1,1.4,0.2l0.3,0.1c0.2,0,0.3,0.1,0.6,0.1
				c0.3,0.1,0.7,0.3,1,0.4c1.3,0.8,1.9,2.2,1.8,3.5c-0.3,1.8-0.6,3.6-0.8,5.4c-0.1,0.4-0.1,0.9-0.1,1.4c0,0.4-0.1,0.9-0.3,1.4
				C81.5,81.2,80.6,81.8,79.7,81.8z M79.7,81.8c0.9,0,1.8-0.6,2.1-1.4C82,80,82,79.6,82,79.1s-0.1-0.9-0.1-1.4
				c-0.2-1.8-0.5-3.6-0.8-5.4c-0.2-0.5-0.6-0.8-0.9-0.8c-0.1,0-0.2,0-0.3,0h-0.1h-0.3c-0.4,0.1-0.9,0.1-1.4,0.2
				c-1.8,0.2-3.6,0.3-5.4,0.3c-0.1,0-0.3,0-0.3,0.2l-0.1,0.1c0,0,0,0,0,0.1c0,0,0,0.2,0,0.3c0,0.4-0.1,0.9-0.1,1.4
				c-0.2,1.8-0.5,3.6-0.8,5.4c-0.2,0.5,0,1.2,0.6,1.6c0.2,0.1,0.3,0.2,0.4,0.3c0.2,0.1,0.3,0.1,0.6,0.1c0.4,0.1,0.9,0.1,1.4,0.2
				C76.1,81.7,77.9,81.8,79.7,81.8z"/>
		</g>
		<g class="st3">
			<path class="st4" d="M104.4,81.8c-1.8,0-3.6,0.1-5.4,0.3c-0.4,0-0.9,0.1-1.4,0.2c-0.4,0.1-1.1,0.1-1.6-0.1
				c-1.1-0.3-2-1.4-2.1-2.7c-0.3-1.8-0.6-3.6-0.8-5.4c0-0.4-0.1-0.9-0.1-1.4c0-0.2,0-0.2,0-0.3c0-0.2,0-0.4,0-0.6
				c0.1-0.4,0.2-0.8,0.3-1.2c0.3-0.8,0.9-1.4,1.6-1.9c0.7-0.4,1.5-0.7,2.4-0.7c1.8,0,3.6,0.1,5.4,0.3c0.4,0,0.9,0.1,1.4,0.2l0.3,0.1
				c0.2,0,0.3,0.1,0.6,0.1c0.3,0.1,0.7,0.3,1,0.4c1.3,0.8,1.9,2.2,1.8,3.5c-0.3,1.8-0.6,3.6-0.8,5.4c-0.1,0.4-0.1,0.9-0.1,1.4
				c0,0.4-0.1,0.9-0.3,1.4C106.2,81.2,105.3,81.8,104.4,81.8z M104.4,81.8c0.9,0,1.8-0.6,2.1-1.4c0.2-0.4,0.2-0.8,0.2-1.3
				s-0.1-0.9-0.1-1.4c-0.2-1.8-0.5-3.6-0.8-5.4c-0.2-0.5-0.6-0.8-0.9-0.8c-0.1,0-0.2,0-0.3,0h-0.1h-0.3c-0.4,0.1-0.9,0.1-1.4,0.2
				c-1.8,0.2-3.6,0.3-5.4,0.3c-0.1,0-0.3,0-0.3,0.2l-0.1,0.1c0,0,0,0,0,0.1c0,0,0,0.2,0,0.3c0,0.4-0.1,0.9-0.1,1.4
				c-0.2,1.8-0.5,3.6-0.8,5.4c-0.2,0.5,0,1.2,0.6,1.6c0.2,0.1,0.3,0.2,0.4,0.3s0.3,0.1,0.6,0.1c0.4,0.1,0.9,0.1,1.4,0.2
				C100.8,81.7,102.6,81.8,104.4,81.8z"/>
		</g>
		<g class="st3">
			<path class="st4" d="M129,81.8c-1.8,0-3.6,0.1-5.4,0.3c-0.4,0-0.9,0.1-1.4,0.2c-0.4,0.1-1.1,0.1-1.6-0.1c-1.1-0.3-2-1.4-2.1-2.7
				c-0.3-1.8-0.6-3.6-0.8-5.4c0-0.4-0.1-0.9-0.1-1.4c0-0.2,0-0.2,0-0.3c0-0.2,0-0.4,0-0.6c0.1-0.4,0.2-0.8,0.3-1.2
				c0.3-0.8,0.9-1.4,1.6-1.9c0.7-0.4,1.5-0.7,2.4-0.7c1.8,0,3.6,0.1,5.4,0.3c0.4,0,0.9,0.1,1.4,0.2l0.3,0.1c0.2,0,0.3,0.1,0.6,0.1
				c0.3,0.1,0.7,0.3,1,0.4c1.3,0.8,1.9,2.2,1.8,3.5c-0.3,1.8-0.6,3.6-0.8,5.4c-0.1,0.4-0.1,0.9-0.1,1.4c0,0.4-0.1,0.9-0.3,1.4
				C130.8,81.2,130,81.8,129,81.8z M129,81.8c0.9,0,1.8-0.6,2.1-1.4c0.2-0.4,0.2-0.8,0.2-1.3s-0.1-0.9-0.1-1.4
				c-0.2-1.8-0.5-3.6-0.8-5.4c-0.2-0.5-0.6-0.8-0.9-0.8c-0.1,0-0.2,0-0.3,0h-0.1h-0.3c-0.4,0.1-0.9,0.1-1.4,0.2
				c-1.8,0.2-3.6,0.3-5.4,0.3c-0.1,0-0.3,0-0.3,0.2l-0.1,0.1c0,0,0,0,0,0.1c0,0,0,0.2,0,0.3c0,0.4-0.1,0.9-0.1,1.4
				c-0.2,1.8-0.5,3.6-0.8,5.4c-0.2,0.5,0,1.2,0.6,1.6c0.2,0.1,0.3,0.2,0.4,0.3c0.2,0.1,0.3,0.1,0.6,0.1c0.4,0.1,0.9,0.1,1.4,0.2
				C125.5,81.7,127.3,81.8,129,81.8z"/>
		</g>
		<g class="st3">
			<path class="st4" d="M55,100.7c-1.8,0-3.6,0.1-5.4,0.3c-0.4,0-0.9,0.1-1.4,0.2c-0.4,0.1-1.1,0.1-1.6-0.1c-1.1-0.3-2-1.4-2.1-2.7
				c-0.3-1.8-0.6-3.6-0.8-5.4c0-0.4-0.1-0.9-0.1-1.4c0-0.2,0-0.2,0-0.3c0-0.2,0-0.4,0-0.6c0.1-0.4,0.2-0.8,0.3-1.2
				c0.3-0.8,0.9-1.4,1.6-1.9s1.5-0.7,2.4-0.7c1.8,0,3.6,0.1,5.4,0.3c0.4,0,0.9,0.1,1.4,0.2l0.3,0.1c0.2,0,0.3,0.1,0.6,0.1
				c0.3,0.1,0.7,0.3,1,0.4c1.3,0.8,1.9,2.2,1.8,3.5c-0.3,1.8-0.6,3.6-0.8,5.4c-0.1,0.4-0.1,0.9-0.1,1.4s-0.1,0.9-0.3,1.4
				C56.9,100.2,56,100.7,55,100.7z M55,100.7c0.9,0,1.8-0.6,2.1-1.4c0.2-0.4,0.2-0.8,0.2-1.3s-0.1-0.9-0.1-1.4
				c-0.2-1.8-0.5-3.6-0.8-5.4c-0.2-0.5-0.6-0.8-0.9-0.8c-0.1,0-0.2,0-0.3,0h-0.1h-0.3c-0.4,0.1-0.9,0.1-1.4,0.2
				c-1.8,0.2-3.6,0.3-5.4,0.3c-0.1,0-0.3,0-0.3,0.2l-0.1,0.1c0,0,0,0,0,0.1c0,0,0,0.2,0,0.3c0,0.4-0.1,0.9-0.1,1.4
				c-0.2,1.8-0.5,3.6-0.8,5.4c-0.2,0.5,0,1.2,0.6,1.6c0.2,0.1,0.3,0.2,0.4,0.3c0.2,0.1,0.3,0.1,0.6,0.1c0.4,0.1,0.9,0.1,1.4,0.2
				C51.5,100.6,53.3,100.7,55,100.7z"/>
		</g>
		<g class="st3">
			<path class="st4" d="M79.7,100.7c-1.8,0-3.6,0.1-5.4,0.3c-0.4,0-0.9,0.1-1.4,0.2c-0.4,0.1-1.1,0.1-1.6-0.1
				c-1.1-0.3-2-1.4-2.1-2.7c-0.3-1.8-0.6-3.6-0.8-5.4c0-0.4-0.1-0.9-0.1-1.4c0-0.2,0-0.2,0-0.3c0-0.2,0-0.4,0-0.6
				c0.1-0.4,0.2-0.8,0.3-1.2c0.3-0.8,0.9-1.4,1.6-1.9s1.5-0.7,2.4-0.7c1.8,0,3.6,0.1,5.4,0.3c0.4,0,0.9,0.1,1.4,0.2l0.3,0.1
				c0.2,0,0.3,0.1,0.6,0.1c0.3,0.1,0.7,0.3,1,0.4c1.3,0.8,1.9,2.2,1.8,3.5c-0.3,1.8-0.6,3.6-0.8,5.4c-0.1,0.4-0.1,0.9-0.1,1.4
				c0,0.4-0.1,0.9-0.3,1.4C81.5,100.2,80.7,100.7,79.7,100.7z M79.7,100.7c0.9,0,1.8-0.6,2.1-1.4C82,98.8,82,98.4,82,98
				s-0.1-0.9-0.1-1.4c-0.2-1.8-0.5-3.6-0.8-5.4c-0.2-0.5-0.6-0.8-0.9-0.8c-0.1,0-0.2,0-0.3,0h-0.1h-0.3c-0.4,0.1-0.9,0.1-1.4,0.2
				c-1.8,0.2-3.6,0.3-5.4,0.3c-0.1,0-0.3,0-0.3,0.2l-0.1,0.1c0,0,0,0,0,0.1c0,0,0,0.2,0,0.3c0,0.4-0.1,0.9-0.1,1.4
				c-0.2,1.8-0.5,3.6-0.8,5.4c-0.2,0.5,0,1.2,0.6,1.6c0.2,0.1,0.3,0.2,0.4,0.3c0.2,0.1,0.3,0.1,0.6,0.1c0.4,0.1,0.9,0.1,1.4,0.2
				C76.1,100.6,78,100.7,79.7,100.7z"/>
		</g>
		<g class="st3">
			<path class="st4" d="M104.4,100.7c-1.8,0-3.6,0.1-5.4,0.3c-0.4,0-0.9,0.1-1.4,0.2c-0.4,0.1-1.1,0.1-1.6-0.1
				c-1.1-0.3-2-1.4-2.1-2.7c-0.3-1.8-0.6-3.6-0.8-5.4c0-0.4-0.1-0.9-0.1-1.4c0-0.2,0-0.2,0-0.3c0-0.2,0-0.4,0-0.6
				c0.1-0.4,0.2-0.8,0.3-1.2c0.3-0.8,0.9-1.4,1.6-1.9c0.7-0.4,1.5-0.7,2.4-0.7c1.8,0,3.6,0.1,5.4,0.3c0.4,0,0.9,0.1,1.4,0.2l0.3,0.1
				c0.2,0,0.3,0.1,0.6,0.1c0.3,0.1,0.7,0.3,1,0.4c1.3,0.8,1.9,2.2,1.8,3.5c-0.3,1.8-0.6,3.6-0.8,5.4c-0.1,0.4-0.1,0.9-0.1,1.4
				c0,0.4-0.1,0.9-0.3,1.4C106.2,100.2,105.3,100.7,104.4,100.7z M104.4,100.7c0.9,0,1.8-0.6,2.1-1.4c0.2-0.4,0.2-0.8,0.2-1.3
				s-0.1-0.9-0.1-1.4c-0.2-1.8-0.5-3.6-0.8-5.4c-0.2-0.5-0.6-0.8-0.9-0.8c-0.1,0-0.2,0-0.3,0h-0.1h-0.3c-0.4,0.1-0.9,0.1-1.4,0.2
				c-1.8,0.2-3.6,0.3-5.4,0.3c-0.1,0-0.3,0-0.3,0.2l-0.1,0.1c0,0,0,0,0,0.1c0,0,0,0.2,0,0.3c0,0.4-0.1,0.9-0.1,1.4
				c-0.2,1.8-0.5,3.6-0.8,5.4c-0.2,0.5,0,1.2,0.6,1.6c0.2,0.1,0.3,0.2,0.4,0.3s0.3,0.1,0.6,0.1c0.4,0.1,0.9,0.1,1.4,0.2
				C100.8,100.6,102.6,100.7,104.4,100.7z"/>
		</g>
		<g class="st3">
			<path class="st4" d="M129.1,100.7c-1.8,0-3.6,0.1-5.4,0.3c-0.4,0-0.9,0.1-1.4,0.2c-0.4,0.1-1.1,0.1-1.6-0.1
				c-1.1-0.3-2-1.4-2.1-2.7c-0.3-1.8-0.6-3.6-0.8-5.4c0-0.4-0.1-0.9-0.1-1.4c0-0.2,0-0.2,0-0.3c0-0.2,0-0.4,0-0.6
				c0.1-0.4,0.2-0.8,0.3-1.2c0.3-0.8,0.9-1.4,1.6-1.9c0.7-0.4,1.5-0.7,2.4-0.7c1.8,0,3.6,0.1,5.4,0.3c0.4,0,0.9,0.1,1.4,0.2l0.3,0.1
				c0.2,0,0.3,0.1,0.6,0.1c0.3,0.1,0.7,0.3,1,0.4c1.3,0.8,1.9,2.2,1.8,3.5c-0.3,1.8-0.6,3.6-0.8,5.4c-0.1,0.4-0.1,0.9-0.1,1.4
				c0,0.4-0.1,0.9-0.3,1.4C130.9,100.2,130,100.7,129.1,100.7z M129.1,100.7c0.9,0,1.8-0.6,2.1-1.4c0.2-0.4,0.2-0.8,0.2-1.3
				s-0.1-0.9-0.1-1.4c-0.2-1.8-0.5-3.6-0.8-5.4c-0.2-0.5-0.6-0.8-0.9-0.8c-0.1,0-0.2,0-0.3,0h-0.1H129c-0.4,0.1-0.9,0.1-1.4,0.2
				c-1.8,0.2-3.6,0.3-5.4,0.3c-0.1,0-0.3,0-0.3,0.2l-0.1,0.1c0,0,0,0,0,0.1c0,0,0,0.2,0,0.3c0,0.4-0.1,0.9-0.1,1.4
				c-0.2,1.8-0.5,3.6-0.8,5.4c-0.2,0.5,0,1.2,0.6,1.6c0.2,0.1,0.3,0.2,0.4,0.3c0.2,0.1,0.3,0.1,0.6,0.1c0.4,0.1,0.9,0.1,1.4,0.2
				C125.5,100.6,127.3,100.7,129.1,100.7z"/>
		</g>
		<g class="st3">
			<path class="st4" d="M55,119.6c-1.8,0-3.6,0.1-5.4,0.3c-0.4,0-0.9,0.1-1.4,0.2c-0.4,0.1-1.1,0.1-1.6-0.1c-1.1-0.3-2-1.4-2.1-2.7
				c-0.3-1.8-0.6-3.6-0.8-5.4c0-0.4-0.1-0.9-0.1-1.4c0-0.2,0-0.2,0-0.3s0-0.4,0-0.6c0.1-0.4,0.2-0.8,0.3-1.2
				c0.3-0.8,0.9-1.4,1.6-1.9c0.7-0.4,1.5-0.7,2.4-0.7c1.8,0,3.6,0.1,5.4,0.3c0.4,0,0.9,0.1,1.4,0.2l0.3,0.1c0.2,0,0.3,0.1,0.6,0.1
				c0.3,0.1,0.7,0.3,1,0.4c1.3,0.8,1.9,2.2,1.8,3.5c-0.3,1.8-0.6,3.6-0.8,5.4c-0.1,0.4-0.1,0.9-0.1,1.4c0,0.4-0.1,0.9-0.3,1.4
				C56.8,119.1,56,119.6,55,119.6z M55,119.6c0.9,0,1.8-0.6,2.1-1.4c0.2-0.4,0.2-0.8,0.2-1.3c0-0.4-0.1-0.9-0.1-1.4
				c-0.2-1.8-0.5-3.6-0.8-5.4c-0.2-0.5-0.6-0.8-0.9-0.8c-0.1,0-0.2,0-0.3,0h-0.1h-0.3c-0.4,0.1-0.9,0.1-1.4,0.2
				c-1.8,0.2-3.6,0.3-5.4,0.3c-0.1,0-0.3,0-0.3,0.2l-0.1,0.1c0,0,0,0,0,0.1c0,0,0,0.2,0,0.3c0,0.4-0.1,0.9-0.1,1.4
				c-0.2,1.8-0.5,3.6-0.8,5.4c-0.2,0.5,0,1.2,0.6,1.6c0.2,0.1,0.3,0.2,0.4,0.3c0.2,0.1,0.3,0.1,0.6,0.1c0.4,0.1,0.9,0.1,1.4,0.2
				C51.5,119.5,53.3,119.6,55,119.6z"/>
		</g>
		<g class="st3">
			<path class="st4" d="M79.7,119.6c-1.8,0-3.6,0.1-5.4,0.3c-0.4,0-0.9,0.1-1.4,0.2c-0.4,0.1-1.1,0.1-1.6-0.1
				c-1.1-0.3-2-1.4-2.1-2.7c-0.3-1.8-0.6-3.6-0.8-5.4c0-0.4-0.1-0.9-0.1-1.4c0-0.2,0-0.2,0-0.3s0-0.4,0-0.6c0.1-0.4,0.2-0.8,0.3-1.2
				c0.3-0.8,0.9-1.4,1.6-1.9c0.7-0.4,1.5-0.7,2.4-0.7c1.8,0,3.6,0.1,5.4,0.3c0.4,0,0.9,0.1,1.4,0.2l0.3,0.1c0.2,0,0.3,0.1,0.6,0.1
				c0.3,0.1,0.7,0.3,1,0.4c1.3,0.8,1.9,2.2,1.8,3.5c-0.3,1.8-0.6,3.6-0.8,5.4c-0.1,0.4-0.1,0.9-0.1,1.4c0,0.4-0.1,0.9-0.3,1.4
				C81.5,119.1,80.7,119.6,79.7,119.6z M79.7,119.6c0.9,0,1.8-0.6,2.1-1.4c0.2-0.4,0.2-0.8,0.2-1.3c0-0.4-0.1-0.9-0.1-1.4
				c-0.2-1.8-0.5-3.6-0.8-5.4c-0.2-0.5-0.6-0.8-0.9-0.8c-0.1,0-0.2,0-0.3,0h-0.1h-0.3c-0.4,0.1-0.9,0.1-1.4,0.2
				c-1.8,0.2-3.6,0.3-5.4,0.3c-0.1,0-0.3,0-0.3,0.2l-0.1,0.1c0,0,0,0,0,0.1c0,0,0,0.2,0,0.3c0,0.4-0.1,0.9-0.1,1.4
				c-0.2,1.8-0.5,3.6-0.8,5.4c-0.2,0.5,0,1.2,0.6,1.6c0.2,0.1,0.3,0.2,0.4,0.3c0.2,0.1,0.3,0.1,0.6,0.1c0.4,0.1,0.9,0.1,1.4,0.2
				C76.1,119.5,78,119.6,79.7,119.6z"/>
		</g>
		<g class="st3">
			<path class="st4" d="M104.4,119.6c-1.8,0-3.6,0.1-5.4,0.3c-0.4,0-0.9,0.1-1.4,0.2c-0.4,0.1-1.1,0.1-1.6-0.1
				c-1.1-0.3-2-1.4-2.1-2.7c-0.3-1.8-0.6-3.6-0.8-5.4c0-0.4-0.1-0.9-0.1-1.4c0-0.2,0-0.2,0-0.3s0-0.4,0-0.6c0.1-0.4,0.2-0.8,0.3-1.2
				c0.3-0.8,0.9-1.4,1.6-1.9c0.7-0.4,1.5-0.7,2.4-0.7c1.8,0,3.6,0.1,5.4,0.3c0.4,0,0.9,0.1,1.4,0.2l0.3,0.1c0.2,0,0.3,0.1,0.6,0.1
				c0.3,0.1,0.7,0.3,1,0.4c1.3,0.8,1.9,2.2,1.8,3.5c-0.3,1.8-0.6,3.6-0.8,5.4c-0.1,0.4-0.1,0.9-0.1,1.4c0,0.4-0.1,0.9-0.3,1.4
				C106.2,119.1,105.3,119.6,104.4,119.6z M104.4,119.6c0.9,0,1.8-0.6,2.1-1.4c0.2-0.4,0.2-0.8,0.2-1.3c0-0.4-0.1-0.9-0.1-1.4
				c-0.2-1.8-0.5-3.6-0.8-5.4c-0.2-0.5-0.6-0.8-0.9-0.8c-0.1,0-0.2,0-0.3,0h-0.1h-0.3c-0.4,0.1-0.9,0.1-1.4,0.2
				c-1.8,0.2-3.6,0.3-5.4,0.3c-0.1,0-0.3,0-0.3,0.2l-0.1,0.1c0,0,0,0,0,0.1c0,0,0,0.2,0,0.3c0,0.4-0.1,0.9-0.1,1.4
				c-0.2,1.8-0.5,3.6-0.8,5.4c-0.2,0.5,0,1.2,0.6,1.6c0.2,0.1,0.3,0.2,0.4,0.3s0.3,0.1,0.6,0.1c0.4,0.1,0.9,0.1,1.4,0.2
				C100.8,119.5,102.6,119.6,104.4,119.6z"/>
		</g>
	</g>
</g>
<path class="st5" d="M176.4,157.3H25.7c-12,0-21.8-9.8-21.8-21.8V40.2c0-12,9.8-21.8,21.8-21.8h150.8c12,0,21.8,9.8,21.8,21.8v95.3
	C198.3,147.5,188.5,157.3,176.4,157.3z"/>
<rect x="113.6" y="130.8" class="st6" width="123.6" height="14.5"/>
<text transform="matrix(1 0 0 1 113.5837 139.973)" class="st7 st8 st9">расписание</text>
</svg>
