<?xml version="1.0" encoding="utf-8"?>
<!-- Generator: Adobe Illustrator 24.1.2, SVG Export Plug-In . SVG Version: 6.00 Build 0)  -->
<svg version="1.1" id="Слой_1" xmlns="http://www.w3.org/2000/svg" xmlns:xlink="http://www.w3.org/1999/xlink" x="0px" y="0px"
	 viewBox="0 0 352.5 299.9" style="enable-background:new 0 0 352.5 299.9;" xml:space="preserve">
<style type="text/css">
	.st0{fill:none;stroke:#FFFFFF;stroke-width:2.9545;stroke-miterlimit:10;}
	.st1{fill:none;}
	.st2{fill:#FFFFFF;}
	.st3{fill:#0076A0;stroke:#FFFFFF;stroke-width:2.9545;stroke-miterlimit:10;}
	.st4{fill:none;stroke:#FFFFFF;stroke-width:3.9394;stroke-linecap:round;stroke-miterlimit:10;}
</style>
<path class="st0" d="M209.3,50.3c-5.8,0-11.5,0.5-17.1,1.3v216.8c5.6,0.9,11.3,1.3,17.1,1.3c60.6,0,109.7-49.1,109.7-109.7
	S269.9,50.3,209.3,50.3z"/>
<g>
	<path class="st1" d="M207.4,185c3.3-1.5,7.3,1.6,7.3-2.8c0-2.2-0.2-5-3-5c-3.3,0-4.1-0.2-7.4-1.9c-1.4,0.2,1.7,3,1.7,3.5
		C206,180.3,205.3,186.1,207.4,185z"/>
	<path class="st1" d="M229.8,212.7c-0.3,0-0.7,0.6-0.7,1.5c0,0.8,0.3,1.5,0.7,1.5c0.3,0,0.7-0.7,0.7-1.5
		C230.4,213.3,230.1,212.7,229.8,212.7z"/>
	<path class="st1" d="M232.9,191.9c0.9,0,2.8,0.6,3.7,0.3c0.7-0.3,0.5-2.3,0-2.4C234.8,189.8,228.9,191.9,232.9,191.9z"/>
	<path class="st1" d="M232.4,176.1c1.8,1,2.2,4.7,4.9,4.7c2.8,0-1-5.5-1.6-6.3c-0.5-0.7-6.6-4.6-7.8-4.6c0.2-0.4-0.1-0.6-0.6-0.6
		c-1.9,0-6.5,2.3-4,4.9C225,175.8,229.9,174.5,232.4,176.1z"/>
	<path class="st1" d="M212.1,196.7c-0.3-0.3-0.5-0.3-0.8-0.3c-1.2,0-0.9,4-1.5,4.9C209.7,201.6,213.6,197.9,212.1,196.7z"/>
	<path class="st1" d="M215.4,206.8c-0.9-0.9-1.6-1.3-2.2-1.3c-1.9,0-2.2,4.1-3.3,6.4c0,1.1,4.5-0.8,5.3-1
		C218.8,210,216.7,208.2,215.4,206.8z"/>
	<path class="st1" d="M209.6,167.3c0.2-0.1,0.3-0.1,0.5-0.1c2,0,4.9,2.8,6.8,3.4c7.8,2.5,5.6-8.4,0.7-8.4c-4.2,0-7.2,2.8-10.7,5
		c0.1,1.1-0.1,1.7-0.2,2C206.9,168.9,207.6,167.9,209.6,167.3z"/>
	<path class="st1" d="M195.7,114.9c-0.7-2.1-2.7-0.5-3-0.7c0,0.6-0.2,1.1-0.5,1.6v2.3c0.2-0.1,0.3-0.1,0.6-0.2
		C193.5,117.8,196.1,116,195.7,114.9z"/>
	<path class="st1" d="M192.9,94.5c0.9,0,2.5,2.8,3.3,3c2.2,1,4.5-2.7,3.4-3.7c-2.8-2.8-4.8-2.3-4.8-7.2c0-1.4-0.9-3.5-2-3.6
		l-0.1,3.5c0,0.5-0.2,0.8-0.5,1v7.3C192.4,94.8,192.6,94.7,192.9,94.5C192.8,94.5,192.9,94.5,192.9,94.5z"/>
	<path class="st1" d="M248.9,222.2c3.3,0.3,5.3,2.5,8.9,2.7c0.4,0,4.2,0.2,4.2-0.3c0-2-3.8-1-5.5-1.6l-9.7-3.4
		C239.2,219.7,244.8,221.9,248.9,222.2z"/>
	<path class="st1" d="M192.6,224.2c-0.1-0.3-0.3-0.5-0.4-0.8v2c0.1-0.1,0.2-0.3,0.4-0.4C192.6,224.7,192.6,224.4,192.6,224.2z"/>
	<path class="st1" d="M196.3,169.5c-1.3-0.8-2.7-0.8-4.1-0.7v5.1c1.8-0.1,3.4-0.2,3.9-0.2C198,173.3,197.7,170.3,196.3,169.5z"/>
	<path class="st1" d="M198,189.1c0-0.8,1.5-2.8,0.5-3.4c-0.2-0.1-2.9-0.9-2.9-0.9c-1,1.1-2.2,1.9-3.4,2.4v1.6
		C194.6,188.8,198,189.7,198,189.1z"/>
	<path class="st1" d="M205,209.9c1.4-0.7,0.9-8.6,0.5-9.9c-0.3-1.1-2.1-2.5-0.6-3.7c1.3-1,0.8-2.7-0.2-2.7c-0.4,0-0.9,0.3-1.4,1.4
		c-1.3,2.7,0.7,5.7-1,8.3c-1.5,2.2-0.9,4.8-1,7.6C201.2,212.7,205,209.9,205,209.9z"/>
	<path class="st1" d="M192.5,131.6c-0.7,0,0,0.7,0.3,0.7h0.5c0.2,0.1-0.1,0.1,0.3,0c5.9,0.7,2.3,5.8,2.7,9.2
		c0.4,3.5-2.2,3.2-2.1,5.1c0,0.6,0.3,1.4,1.1,2.7c1.1,1.6,2.8-0.9,3.2-2.7c0-0.2,0.1-0.4,0.1-0.6c0-5.6-0.6-1.7,1.5-1.7
		c2.4,0,1.8-10-1.5-10.4C196.2,133.6,195.2,131.4,192.5,131.6z"/>
	<path class="st2" d="M229.3,80c0.3,0,0.6,0,0.9,0c0-0.3,0-0.7,0-0.9c-0.3-0.3-0.7-0.7-0.9-0.9c-0.3,0-0.7,0-0.9,0
		c0,0.3,0,0.6,0,0.9c0,0.3,0,0.6,0,0.9c-0.3,0-0.6,0-0.9,0c0,0.3,0,0.6,0,0.9c0,0.3,0,0.6,0,0.9c0.6,0,1.3,0,1.9,0
		C229.3,81.2,229.3,80.6,229.3,80z"/>
	<path class="st2" d="M229.9,102.5c0.7,0,1.3,0,2,0c0.3,0,0.6,0,0.9,0c0-0.7,0-1.3,0-1.9c0-0.3,0-0.7,0-0.9c0.3,0,0.6,0,0.9,0
		c0-0.3,0-0.7,0-0.9c0-0.3,0-0.6,0-0.9c0.3-0.3,0.6-0.7,0.9-0.9c0.3,0,0.6,0,0.9,0c0-0.3,0-0.7,0-0.9c0.3-0.3,0.6-0.7,0.9-0.9
		c0.3-0.3,0.6-0.7,0.9-0.9c0.3-0.3,0.6-0.7,0.9-0.9c0-0.3,0-0.7,0-0.9c-0.3,0-0.7,0-0.9,0c-0.3-0.3-0.7-0.7-0.9-0.9
		c0-0.3,0-0.7,0-0.9c-0.3,0-0.6,0-0.9,0c-0.3,0-0.6,0-0.9,0c-0.3,0-0.6,0-0.9,0c0,0.6,0,1.2,0,1.9c-0.3,0.3-0.6,0.6-0.9,0.9
		c-0.3,0.3-0.6,0.6-0.9,0.9c0,0.3,0,0.6,0,0.9c0,0.3,0,0.6,0,0.9c-0.3,0.3-0.7,0.6-0.9,0.9c-0.3,0-0.7,0-1,0c0,0.3,0,0.6,0,0.9
		c-0.3,0-0.6,0-0.9,0c-0.4,0-0.7,0-1,0c0,0.3,0,0.5,0,0.9c-0.3,0.3-0.6,0.6-0.9,0.9c0,0.2,0,0.3,0,0.5c0.2,0.1,0.3,0.3,0.4,0.4
		c0.2,0.3,0.3,0.6,0.4,0.9c0,0.3,0,0.6,0,0.9C228.6,102.5,229.3,102.5,229.9,102.5z"/>
	<path class="st2" d="M222.6,70.7c-0.7,0-1.3,0-1.9,0c0,0.3,0,0.6,0,0.9c0,0.3,0,0.6,0,0.9c0.6,0,1.2,0,1.9,0
		C222.6,71.9,222.6,71.3,222.6,70.7z"/>
	<path class="st2" d="M223.2,68.5c0.3,0.3,0.7,0.6,0.9,0.9c0,0.3,0,0.6,0,0.9c0.3,0,0.7,0,1,0c0.3,0,0.5,0,0.9,0
		c0.3-0.7,0.5-1.3,0.9-1.9c0-0.7,0-1.3,0-1.9c-0.3-0.7-0.6-1.3-0.9-1.9c-0.9,0-2,0-2.9,0c-0.3,0.3-0.6,0.6-0.9,0.9
		c0,0.6,0,1.2,0,1.9c0.3,0,0.5,0,0.9,0C223.2,67.8,223.2,68.1,223.2,68.5z"/>
	<path class="st2" d="M239.5,84.6c-0.3-0.3-0.6-0.7-0.9-0.9c-0.6,0-1.2,0-1.9,0c-0.3,0-0.6,0-0.9,0c0,0.6,0,1.2,0,1.9
		c1.2,0,2.5,0,3.7,0C239.5,85.2,239.5,84.9,239.5,84.6z"/>
	<path class="st2" d="M294.6,161.9c-0.3,0-0.7,0-0.9,0c-0.3,0-0.7,0-0.9,0c-0.3-0.7-0.7-1.2-0.9-1.8c0.3,0,0.6,0,0.9,0
		c0-0.6,0-1.2,0-1.7c-0.3-0.3-0.7-0.6-0.9-0.9c-0.3-0.3-0.7-0.6-0.9-0.9c0-0.3,0-0.6,0-0.9c-0.7-0.3-1.3-0.6-1.9-0.9
		c-0.6-0.3-1.2-0.7-1.8-0.9c-0.3,0-0.7,0-0.9,0c-0.3,0-0.7,0-0.9,0c0,0.2,0,0.5,0,0.9c0,0.3,0,0.5,0,0.9c0,1.7,0,3.4,0,5.2
		c0.3,0.3,0.6,0.6,0.9,0.9c0.3,0.5,0.6,1.1,0.9,1.7c0.3,0.3,0.5,0.6,0.9,0.9c0.6,0,1.2,0,1.9,0c0.3,0.3,0.6,0.6,0.9,0.9
		c0.3,0,0.6,0,0.9,0c0.3,0,0.6,0,0.9,0c0,0.3,0,0.5,0,0.9c0.3,0.3,0.6,0.5,0.9,0.9c0.3,0,0.6,0,0.9,0c0.3,0,0.6,0,0.9,0
		c0.3,0,0.5,0,0.9,0c0.3,0,0.6,0,0.9,0c0.3,0,0.6,0,0.9,0c0-0.3,0-0.6,0-0.9c0.3-0.6,0.6-1.1,0.9-1.7c0-0.3,0-0.6,0-0.9
		c-0.3,0-0.7,0-0.9,0c-0.3-0.3-0.7-0.6-0.9-0.9c-0.3,0-0.7,0-0.9,0c-0.3,0-0.6,0-0.9,0C295.2,162.4,294.8,162.2,294.6,161.9z"/>
	<path class="st2" d="M240.5,101.9c-0.3,0-0.5,0-0.8,0c0,0.9,0,1.7,0,2.7c0.8,0,1.6,0,2.4,0c0.3,0,0.5,0,0.9,0c0-0.4,0-0.9,0-1.3
		c-0.3-0.5-0.6-0.9-0.9-1.4c-0.3,0-0.5,0-0.8,0C241.1,101.9,240.8,101.9,240.5,101.9z"/>
	<path class="st2" d="M285,178.2c0.3,0.3,0.6,0.6,0.9,0.9c0.6,0.3,1.2,0.6,1.8,0.9c0.3,0,0.6,0,0.9,0c0.3,0,0.6,0,0.9,0
		c0.9-0.3,1.9-0.7,2.8-0.9c0.3-0.3,0.7-0.7,0.9-0.9c0.3-0.3,0.6-0.7,0.9-0.9c0-0.3,0-0.7,0-0.9c0.3-0.3,0.7-0.7,0.9-0.9
		c0.3,0,0.6,0,0.9,0c0.3-0.3,0.6-0.7,0.9-0.9c0.3,0,0.6,0,0.9,0c0.3-0.3,0.6-0.6,0.9-0.9c0-0.3,0-0.7,0-0.9
		c-0.3-0.3-0.7-0.7-0.9-0.9c-0.7-0.3-1.3-0.7-1.9-0.9c-0.3,0-0.7,0-0.9,0c0,0.3,0,0.6,0,0.9c-1.9,0-1.9,0-1.9-0.9
		c-0.3,0-0.7,0-0.9,0c-0.3,0.3-0.6,0.6-0.9,0.9c0,0.3,0,0.6,0,0.9c-0.9,0-1.9,0-2.8,0c0-0.3,0-0.7,0-0.9c-0.9,0-1.9,0-2.8,0
		c-0.3,0-0.7,0-0.9,0c-0.3,0-0.7,0-0.9,0c-0.3,0-0.7,0-0.9,0c-0.3,0.6-0.7,1.2-0.9,1.9c0,0.3,0,0.5,0,0.9c0.3,0.6,0.6,1.2,0.9,1.9
		c0.3,0,0.6,0,0.9,0c0,0.3,0,0.6,0,0.9C284.3,177.6,284.6,177.9,285,178.2z"/>
	<path class="st2" d="M247.7,102.3c-0.3,0.3-0.7,0.6-0.9,0.9c0,0.6,0,1.2,0,1.9c0,0.9,0,1.8,0,2.8c0,0.3,0,0.6,0,0.9
		c0,0.3,0,0.6,0,0.9c0.3,0.3,0.6,0.6,0.9,0.9c0.3-0.3,0.6-0.7,0.9-0.9c0.6,0,1.2,0,1.9,0c0-0.3,0-0.7,0-0.9c0.3-0.3,0.6-0.7,0.9-0.9
		c0.3,0,0.6,0,0.9,0c0-0.3,0-0.7,0-0.9c0.3-0.3,0.5-0.6,0.9-0.9c0-0.3,0-0.7,0-0.9c-0.3-0.7-0.6-1.3-0.9-1.9c-0.7,0-1.3,0-1.9,0
		c-0.3-0.3-0.7-0.7-0.9-0.9C248.9,102.3,248.3,102.3,247.7,102.3z"/>
	<path class="st2" d="M226.1,73.1c-0.4,0-0.7,0-0.9,0c-0.3,0.3-0.7,0.6-1,0.9c0,0.3,0,0.6,0,0.9c0.3,0.3,0.7,0.6,1,0.9
		c0.5,0,1.2,0,1.8,0c0.3,0,0.6,0,0.9,0c0.6,0,1.2,0,1.9,0c0.6,0.3,1.2,0.6,1.9,0.9c0,0.3,0,0.6,0,0.9c0.6,0.3,1.2,0.6,1.9,0.9
		c0.3,0.3,0.6,0.6,0.9,0.9c0,0.3,0,0.6,0,0.9c0,0.3,0,0.5,0,0.9c0.3,0,0.6,0,0.9,0c0.3,0.3,0.5,0.6,0.9,0.9c0.3,0,0.6,0,0.9,0
		c0.6-0.3,1.2-0.6,1.9-0.9c0.9,0,1.9,0,2.8,0c0.3,0.3,0.6,0.6,0.9,0.9c0,0.3,0,0.7,0,0.9c0,0.3,0,0.6,0,0.9
		c-0.3,0.3-0.7,0.6-0.9,0.9c0,0.3,0,0.6,0,0.9c0,0.3,0,0.6,0,0.9c-0.3,0.3-0.7,0.6-0.9,0.9c0,0.3,0,0.6,0,0.9
		c1.4,0.6,1.4,0.6,0.9,0.9c0,0.3,0,0.6,0,0.9c0.3,0.3,0.6,0.6,0.9,0.9c-0.3,0.3-0.7,0.7-0.9,1c0,0.3,0,0.6,0,0.9c0.3,0,0.6,0,0.9,0
		c0,1.9,0,1.9-0.9,1.9c0,0.3,0,0.7,0,0.9c1.6,0,3.1,0,4.7,0c0-0.3,0-0.6,0-0.9c0.3,0,0.6,0,0.9,0c0.3,0,0.6,0,0.9,0
		c0-0.6,0-1.2,0-1.9c-0.3-0.3-0.7-0.6-0.9-0.9c-0.3-0.3-0.7-0.7-0.9-1c0-0.3,0-0.6,0-0.9c0-0.3,0-0.7,0-0.9c0.3-0.3,0.6-0.6,0.9-0.9
		c0.3,0,0.6,0,0.9,0c0-1.3,0-2.6,0-3.8c0.3-0.3,0.6-0.6,0.9-0.9c0.3,0,0.6,0,0.9,0c0-0.3,0-0.6,0-0.9c0-0.3,0-0.6,0-0.9
		c0-0.3,0-0.6,0-0.9c0.3-0.3,0.6-0.6,0.9-0.9c0-0.3,0-0.7,0-0.9c-0.3,0-0.7,0-0.9,0c-1.3-0.3-2.6-0.7-3.8-0.9
		c-0.7-0.3-1.3-0.7-1.9-0.9c-0.3,0-0.6,0-0.9,0c0-0.3,0-0.7,0-0.9c0-0.3,0-0.6,0-0.9c-0.7,0-1.3,0-1.9,0c-0.3,0-0.7,0-0.9,0
		c-0.3,0-0.7,0-0.9,0c-0.3,0-0.7,0-0.9,0c-0.3,0-0.7,0-0.9,0c-0.3-0.3-0.7-0.7-0.9-0.9c0-0.3,0-0.6,0-0.9c-0.3,0-0.7,0-0.9,0
		c-0.3-0.3-0.6-0.7-0.9-0.9c0-0.3,0-0.6,0-0.9c-0.3,0-0.7,0-0.9,0c-0.3-0.7-0.7-1.3-0.9-1.9c0-0.3,0-0.7,0-0.9c-0.3,0-0.7,0-0.9,0
		c0-0.3,0-0.7,0-0.9c-0.9,0-2,0-2.8,0c-0.3,0.3-0.7,0.6-0.9,0.9c-0.3,0.3-0.7,0.6-0.9,0.9c0,0.6,0,1.2,0,1.9c0,0.3,0,0.5,0,0.9
		c-0.3,0.3-0.6,0.6-0.9,0.9C226.7,73.7,226.4,73.4,226.1,73.1z"/>
	<path class="st2" d="M250.8,157.2c-1.1,0.5-2.8-1.6-3.1-1.9c0,0.3-0.4,0.8-0.4,1.1c0,0.3,1.7,1.7,1.7,2.1c0.3,0.3,0.5,1.2,0.9,1.5
		c0.3,0,0.6,0,0.9,0C250.8,159.1,250.8,158.1,250.8,157.2z"/>
	<path class="st2" d="M211.9,75c-0.3,0.9-0.7,1.9-0.9,2.8c0.3,0.6,0.6,1.2,0.9,1.9c0.3,0.3,0.6,0.6,0.9,0.9c0.3,0.3,0.7,0.5,0.9,0.9
		c0.3-0.3,0.6-0.6,0.9-0.9c0.3,0,0.6,0,0.9,0c0.3,0,0.6,0,0.9,0c0-0.3,0-0.7,0-0.9c0.3-0.3,0.6-0.7,0.9-0.9c0-0.3,0-0.7,0-0.9
		c-0.3,0-0.7,0-0.9,0c0-0.9,0-1.9,0-2.8c0.3,0,0.6,0,0.9,0c0-0.3,0-0.6,0-0.9c0-0.3,0-0.7,0-0.9c0.3-0.3,0.6-0.6,0.9-0.9
		c0-0.3,0-0.7,0-0.9c0-0.3,0-0.7,0-0.9c0-0.7,0-1.3,0-1.9c0-0.3,0-0.7,0-0.9c0.3-0.3,0.6-0.7,0.9-0.9c1,0,1,0,1-1.9
		c-0.7,0-1.3,0-1.9,0c-0.3,0-0.7,0-0.9,0c-0.7,0-1.3,0-1.9,0c0,0.3,0,0.6,0,0.9c-0.3,0-0.7,0-0.9,0c0,0.3,0,0.6,0,0.9
		c-0.3,0.3-0.7,0.6-0.9,0.9c-0.3,0-0.7,0-0.9,0c0,0.3,0,0.6,0,0.9c-0.3,0.3-0.6,0.6-0.9,0.9c-0.3,0.3-0.7,0.6-0.9,0.9
		c0,0.6,0,1.2,0,1.9c0.3,0.3,0.6,0.5,0.9,0.9c0,0.3,0,0.6,0,0.9C211.9,74.4,211.9,74.7,211.9,75z"/>
	<path class="st2" d="M251.9,165.4c0.3-0.3,0.6-0.7,0.9-0.9c0.3,0,0.6,0,0.9,0c0.3-0.3,0.6-0.7,0.9-0.9c0-0.7,0-1.3,0-1.9
		c-0.3,0-0.7,0-0.9,0c-0.3,0-0.7,0-0.9,0c-0.3,0-0.6,0-0.9,0c-0.3,0.3-0.6,0.6-0.9,0.9c-0.3,0-0.6,0-0.9,0c0,0.3,0,0.6,0,0.9
		c0.3,0.3,0.6,0.6,0.9,0.9C251.3,164.7,251.6,165.1,251.9,165.4z"/>
	<path class="st2" d="M273.4,132c-0.3,0.6-0.7,1.2-0.9,1.8c1.6,0.3,3.4,0.5,4.8,0.9c0.3-0.3,0.5-0.7,0.9-0.9
		c0.3-0.3,0.5-0.6,0.9-0.9c0.3,0,0.6,0,0.9,0c0-0.3,0-0.6,0-0.9c-0.3-0.7-0.7-1.3-0.9-1.9c-0.3-0.3-0.6-0.7-0.9-0.9
		c0,0.3,0,0.6,0,0.9c-0.1,0-0.9,0.9-0.9,0.9c-1.3,0-2.6,0-3.8,0C273.4,131.3,273.4,131.6,273.4,132z"/>
	<path class="st2" d="M256,137.1c0.3-0.3,0.6-0.7,0.9-0.9c0.3,0,0.6,0,0.9,0c0.3-0.3,0.6-0.7,0.9-0.9c0-0.9,1.9-0.9,1.9-1.9
		c0.3-0.3,0.6-0.7,0.9-0.9c0-0.3,0-0.6,0-0.9c-0.3-0.3-0.7-0.3-0.9-0.5c-0.2-0.2-0.3-0.3-0.4-0.4c-0.3-0.3-0.3-0.7-0.5-0.9
		c-0.3,0-0.7,0-0.9,0c0,0.3,0,0.6,0,0.9c-0.3,0.3-0.7,0.6-0.9,0.9c-0.3,0-0.7,0-0.9,0c-0.9,0.3-1.9,0.5-2.8,0.9c-0.3,0-0.6,0-0.9,0
		c-0.7,0-1.3,0-1.9,0c0,0.9,0,1.9,0,2.8c0.3,0,0.6,0,0.9,0c0,0.3,0,0.6,0,0.9c0.3,0,0.6,0,0.9,0c0.3,0,0.5,0,0.9,0
		c0.3,0.3,0.6,0.6,0.9,0.9C255.4,137.1,255.7,137.1,256,137.1z"/>
	<path class="st2" d="M192.7,86.5l0.1-3.5c1.1,0.1,2,2.2,2,3.6c0,4.9,2.1,4.5,4.8,7.2c1,1-1.3,4.7-3.4,3.7c-0.8-0.3-2.3-3-3.3-3
		c0,0-0.1,0-0.1,0.1c-0.2,0.1-0.4,0.1-0.6,0.2v21c0.2-0.5,0.4-1,0.5-1.6c0.3,0.2,2.3-1.4,3,0.7c0.3,1.1-2.2,2.8-2.9,3
		c-0.2,0.1-0.4,0.1-0.6,0.2v50.6c1.4,0,2.8-0.1,4.1,0.7c1.4,0.9,1.7,3.9-0.2,4.1c-0.5,0-2.1,0.1-3.9,0.2v13.5
		c1.2-0.5,2.4-1.3,3.4-2.4c0,0,2.8,0.8,2.9,0.9c0.9,0.5-0.5,2.6-0.5,3.4c0,0.6-3.4-0.3-5.8-0.2v34.5c0.1,0.3,0.2,0.5,0.4,0.8
		c0,0.3,0,0.5,0,0.9c-0.1,0.1-0.3,0.3-0.4,0.4v22.2l59.3-0.4l-1-1.5c0-0.3,0-0.7,0-0.9c0-0.3,0-0.7,0-0.9c-0.3-0.3-0.7-0.7-0.9-0.9
		c-0.3-0.3-0.7-0.7-0.9-0.9c-0.3,0-0.7,0-0.9,0c0-0.3,0-0.6,0-0.9c0-0.3,0-0.6,0-0.9c-0.3,0-0.7,0-0.9,0c-0.3,0.2-0.7,0.3-0.9,0.5
		c-0.2-0.2-0.3-0.3-0.4-0.5c-0.5,0-0.9,0-1.4,0c0,0.3,0,0.6,0,0.9c-0.3,0-0.7,0-0.9,0c0-0.6,0-1.3,0-1.9c-0.7-0.3-1.3-0.6-1.9-0.9
		c-1.6-0.3-3.2-0.6-4.7-0.9c-0.3-0.3-0.6-0.6-0.9-0.9c-0.3-0.3-0.7-0.6-0.9-0.9c-0.3,0-0.7,0-0.9,0c-0.3,0-0.7,0-0.9,0
		c-0.3,0-0.7,0-0.9,0c-0.3,0-0.7,0-1,0c-0.3,0-0.6,0-0.9,0c0,1.3,0,2.6,0,3.8c-0.3,0-0.7,0-0.9,0c-0.3,0-0.7,0-0.9,0
		c-0.6-0.3-1.3-0.6-1.8-0.9c-0.4,0-0.7,0-0.9,0c-0.3-0.3-0.7-0.6-1-0.9c-0.6-0.3-1.3-0.6-1.8-0.9c-0.4,0-0.7,0-1,0
		c0,0.3,0,0.7,0,0.9c-1.9,0-1.9,0-1.9-0.9c-0.3,0-0.5,0-0.9,0c0,0.3,0,0.7,0,0.9c-0.3,0.3-0.7,0.7-0.9,0.9c0,0.3,0,0.7,0,0.9
		c0.3,0.3,0.6,0.6,0.9,0.9c0,0.9,0,1.9,0,2.8c0.4,0.4,0.4,0.4-0.4,1.9c-0.3-0.7-0.3-1.3-0.5-1.9c-0.3,0-0.7,0-0.9,0
		c-0.6-0.3-1.3-0.7-1.9-0.9c-0.7-0.3-1.2-0.6-1.9-0.9c0-0.3,0-0.6,0-0.9c-0.3-0.3-0.6-0.6-0.9-0.9c-0.3-0.3-0.7-0.6-0.9-0.9
		c0-0.3,0-0.6,0-0.9c0-0.9,0-1.9,0-2.8c-0.3,0-0.6,0-0.9,0c0-0.3,0-0.6,0-0.9c0-0.3,0-0.6,0-0.9c0-0.3,0-0.7,0-0.9
		c0-0.3,0-0.7,0-0.9c-0.3-0.6-0.7-1.3-0.9-1.9c0-0.3,0-0.7,0-0.9c0-0.3,0-0.7,0-0.9c0.3-0.3,0.6-0.7,0.9-0.9c0-0.3,0-0.7,0-0.9
		c-0.3,0-0.7,0-0.9,0c0-0.9,0-1.9,0-2.8c0.3,0,0.6,0,0.9,0c0.3,0,0.5,0,0.9,0c0-0.7,0-1.3,0-1.9c0.3-0.3,0.6-0.7,0.9-0.9
		c0-0.3,0-0.7,0-0.9c0-0.3,0-0.7,0-0.9c0-0.3,0-0.7,0-0.9c0.3-0.3,0.6-0.6,0.9-0.9c0.3,0,0.7,0,0.9,0c0.3,0,0.6,0,0.9,0
		c0.9-0.3,1.9-0.7,2.8-0.9c0-0.3,0-0.7,0-0.9c1.8,0,1.8,0,1.8,0.9c0.3,0.3,0.7,0.6,1,0.9c0.2,0,0.6,0,0.9,0c0,0.3,0,0.5,0,0.9
		c0,0.3,0,0.6,0,0.9c0.3,0.3,0.6,0.6,1,0.9c0,0.3,0,0.6,0,0.9c0.5,0.3,1.2,0.6,1.8,0.9c0.3,0,0.7,0,1,0c0.5,0.3,1.2,0.6,1.8,0.9
		c0.3,0,0.6,0,0.9,0c0-0.3,0-0.7,0-0.9c0.9,0,1.9,0,2.8,0c0,0.3,0,0.6,0,0.9c0.3,0.3,0.7,0.6,1,0.9c0,0.9,0,1.8,0,2.8
		c0.3,0,0.6,0,0.9,0c0.3,0,0.6,0,0.9,0c0,0.3,0,0.6,0,0.9c0.6,0,1.2,0,1.9,0c0.3,0,0.5,0,0.9,0c0.3,0.3,0.6,0.6,0.9,0.9
		c0.3,0,0.6,0,0.9,0c0.3,0.3,0.6,0.6,0.9,0.9c0.3,0,0.6,0,0.9,0c0,0.3,0,0.6,0,0.9c0,0.3,0,0.6,0,0.9c1.8,0,3.7,0,5.6,0
		c0.3,0,0.6,0,0.9,0c0.3,0.3,0.6,0.6,0.9,0.9c0.3,0,0.6,0,0.9,0c0.3,0,0.6,0,0.9,0c0.3,0.3,0.6,0.6,0.9,0.9c1.2,0,2.4,0,3.7,0
		c0-0.3,0-0.7,0-0.9c0.3,0,0.6,0,0.9,0c0.3,0,0.6,0,0.9,0c0-0.3,0-0.6,0-0.9c1.6,0.3,3.2,0.6,4.7,0.9c0.3,0,0.6,0,0.9,0
		c0,0.3,0,0.6,0,0.9c2-0.3,3.8-0.7,5.7-0.9c0-0.3,0-0.6,0-0.9c0-0.6,0-1.3,0-1.9c-0.3,0-0.7,0-0.9,0c0-0.3,0-0.7,0-0.9
		c0.3-0.3,0.6-0.7,0.9-0.9c0.3,0,0.6,0,0.9,0c0.3-0.3,0.6-0.7,0.9-0.9c0.6-0.3,1.3-0.6,1.9-0.9c0.3-0.3,0.6-0.7,0.9-0.9
		c0.3,0,0.6,0,0.9,0c0.3,0,0.6,0,0.9,0c0.3,0,0.6,0,0.9,0c0.3,0,0.6,0,0.9,0c0.4-0.2,0.9-0.3,1.3-0.4c0.5-0.2,0.9-0.3,1.5-0.5
		c0-0.3,0-0.7,0-0.9c-0.3-0.3-0.6-0.7-0.9-0.9c0-0.3,0-0.7,0-0.9c0.3-0.3,0.5-0.7,0.9-0.9c0-0.7,0-1.3,0-1.9c0.9,0,1.9,0,2.8,0
		c0.3-0.3,0.6-0.6,0.9-0.9c0-0.9,0-1.9,0-2.8c-0.7-0.3-1.3-0.7-1.9-0.9c0-0.3,0-0.7,0-0.9c-0.7,0-1.3,0-1.9,0
		c-0.3-0.3-0.6-0.7-0.9-0.9c-0.3,0-0.4,0-0.6,0c-0.2,0-0.3,0-0.4,0c-0.3,0-0.6,0-0.9,0c-0.7,0-1.3,0-1.9,0c-0.3,0.3-0.7,0.6-0.9,0.9
		c-0.3,0-0.7,0-0.9,0c-0.3,0-0.7,0-0.9,0c0,0.3,0,0.6,0,0.9c-1.9,0-1.9,0-1.9-0.9c-0.6,0-1.3,0-1.9,0c-0.9,0-1.9,0-2.8,0
		c-1.6-0.3-3.1-0.7-4.7-0.9c-0.3,0-0.6,0-0.9,0c-0.3,0-0.7,0-0.9,0c-0.3-0.3-0.7-0.7-0.9-0.9c-0.3,0-0.7,0-0.9,0c-0.3,0-0.7,0-0.9,0
		c-0.2,0-0.3,0-0.4,0c-0.2,0.1-0.3,0.3-0.4,0.4c0.2-0.3,0.3-0.3,0.4-0.5c0-0.2,0-0.3,0-0.4c-0.3,0-0.6,0-0.9,0c-0.3,0-0.6,0-0.9,0
		c0,0.3,0,0.6,0,0.9c0,0.3,0,0.6,0,0.9h0.3c0,0.2,0,0.3,0,0.5c0.3,0,0.6,0,0.9,0c0.3,0,0.6,0,0.9,0c0.3,0,0.6,0,0.9,0
		c0,1.9,0,1.9-0.9,1.9c0,0.3,0,0.6,0,0.9c-0.3,0-0.7,0-0.9,0c-0.3,0.3-0.7,0.6-0.9,0.9c-0.3-0.3-0.6-0.7-0.9-0.9c-0.3,0-0.7,0-0.9,0
		c-0.3,0-0.7,0-0.9,0c0-0.3,0-0.7,0-0.9c-0.7-0.3-1.3-0.7-1.9-0.9c-0.3-0.3-0.7-0.7-0.9-0.9c-0.3-0.3-0.7-0.7-0.9-0.9
		c-0.3,0-0.7,0-0.9,0c-0.3-0.3-0.7-0.7-0.9-0.9c-0.3-0.9-0.6-1.9-0.9-2.8c0.3,0,0.5,0,0.9,0c0.3,0,0.6,0,0.9,0c0.3,0,0.6,0,0.9,0
		c0.3-0.3,0.6-0.7,0.9-0.9c0.6,0,1.2,0,1.9,0c0.3-0.3,0.6-0.7,0.9-0.9c0-0.7,0-1.3,0-1.9c-0.3-0.3-0.7-0.7-0.9-0.9
		c-0.9,0-1.9,0-2.8,0c-0.3,0-0.7,0-0.9,0c-0.6,0-1.2,0-1.8,0c-0.3-0.3-0.7-0.7-0.9-0.9c-0.3,0-0.7,0-0.9,0c-0.3,0-0.7,0-0.9,0
		c0-0.3,0-0.7,0-0.9c-0.3,0-0.7,0-0.9,0c-0.3,0-0.7,0-0.9,0c0-0.6,0-1.2,0-1.8c-0.3-0.2-0.7-0.3-0.9-0.5c-0.3-0.2-0.3-0.3-0.5-0.4
		c0.2-0.3,0.3-0.3,0.5-0.5c0.1,0.2,0.3,0.3,0.4,0.5c0.5,0.3,0.9,0.6,1.5,0.9c0.9,0,1.9,0,2.8,0c0.6,0.3,1.2,0.6,1.8,0.9
		c0.6,0.3,1.2,0.5,1.9,0.9c1.2,0,2.5,0,3.8,0c0.3-0.6,0.6-1.2,0.9-1.8c0-0.3,0-0.7,0-0.9c0.6,0,1.2,0,1.8,0c0.9-0.3,1.9-0.7,2.8-0.9
		c0-0.7,0-1.3,0-1.9c-0.3,0-0.7,0-0.9,0c-0.3,0-0.7,0-0.9,0c-0.3,0-0.7,0-0.9,0c-0.3-0.3-0.6-0.7-0.9-0.9c-0.3,0-0.7,0-0.9,0
		c-0.3,0-0.7,0-0.9,0c0-0.3,0-0.7,0-0.9c0-0.3,0-0.7,0-0.9c-0.3,0-0.7,0-0.9,0c-0.3,0-0.7,0-0.9,0c-0.3-0.3-0.7-0.6-0.9-0.9
		c-0.3-0.3-0.7-0.7-0.9-0.9c0.6-0.7,1.2-1.3,1.9-1.9c0-1.3,0-2.6,0-3.8c0-0.3,0-0.7,0-0.9c1.2,0,2.5,0,3.8,0c0.3,0,0.5,0,0.9,0
		c0,0.3,0,0.6,0,0.9c0,0.3,0,0.6,0,0.9c0.6,0,1.2,0,1.9,0c0.3,0.3,0.6,0.6,0.9,0.9c0.3,0.3,0.6,0.6,0.9,0.9c0.9,0,1.9,0,2.8,0
		c0-0.3,0-0.7,0-0.9c0.3-0.3,0.6-0.7,0.9-0.9c0.3,0,0.6,0,0.9,0c0-0.3,0-0.7,0-0.9c0.3-0.3,0.7-0.7,0.9-0.9c0.6-0.3,1.2-0.6,1.9-0.9
		c0.3,0,0.6,0,0.9,0c0.3,0.3,1.6,0.3,1.9,0.7c0.3,0.9,0.2,2.1,0.5,3c0.3,0.3,0.1,0.6,0.4,0.9c0.3,0,0.6,0,0.9,0c0.6,0,1.3,0,1.9,0
		c0.3-0.3,0.6-0.7,0.9-0.9c0.3,0,0.6,0,0.9,0c0.3,0,0.6,0,0.9,0c0.3,0,0.6,0,0.9,0c0.3,0,0.6,0,0.9,0c0.3,0,0.6,0,0.9,0
		c0,0.3,0,0.6,0,0.9c0.2,0,0.3,0,0.4,0c0.8,0,1.6,0,2.4,0c0.3,0.3,0.6,0.6,0.9,0.9c0.3,0.3,1.5,1.3,1.8,1.6c0,0.3,0,0.6,0,0.9
		c-0.3,0.3-0.7,0.6-0.9,0.9c-0.3,0.6-0.7,1.2-0.9,1.8c0-0.3,0-0.7,0-0.9c0-0.3,0-0.6,0-0.9c-0.3,0-0.7,0-1,0c-0.3,0-0.5,0-0.9,0
		c-0.3-0.3-0.6-0.7-0.9-0.9c0-0.3,0-0.7,0-0.9c-0.2,0-0.3,0-0.4,0c-1.1,0-2.2,0-3.4,0c0,1.5,0,3.1,0,4.6c0.3,0.3,0.6,0.6,0.9,0.9
		c0.3,0.3,0.6,0.6,0.9,0.9c0.3,0,0.6,0,0.9,0c0,0.3,0,0.6,0,0.9c-0.3,0.3-0.7,0.6-0.9,0.9c-0.6,0.3-1.3,0.6-1.9,0.9
		c-0.3,0.3-1,0.3-1.3,0.7c-0.3,0.3-0.7,0.5-0.9,0.9c-0.3,0-0.7,0-0.9,0c0,0.3,0,0.6,0,0.9c-0.3,0-0.6,0-0.9,0c-0.3,0-0.7,0-0.9,0
		c-0.3-0.3-0.7-0.7-0.9-0.9c-0.3,0-0.7,0-0.9,0c-0.3,0-0.7,0-0.9,0c-0.3,0-0.7,0-0.9,0c-0.3,0-0.7,0-0.9,0c-1.3,0-2.5,0-3.8,0
		c0,0.9,0,1.9,0,2.8c-0.3,0.3-0.6,0.6-0.9,0.9c0,0.3,0,0.6,0,0.9c0.3,0.6,0.1,0.8,0.4,1.5c0,0.3,0,0.6,0,0.9
		c0.9,0.3,1.8,0.5,2.8,0.9c0.3,0.3,0.6,0.6,1,0.9c1.2,0,2.4,0,3.7,0c0.6-0.3,1.3-0.7,1.9-0.9c0.3,0,0.6,0,0.9,0c0.3,0,0.6,0,0.9,0
		c0.3,0,0.6,0,0.9,0c0.3,0,0.6,0,0.9,0c0.3-0.3,0.6-0.6,0.9-0.9c0.3-0.3,0.6-0.7,0.9-0.9c0-0.3,0-0.7,0-0.9c1.8,0,1.8,0,1.8,0.9
		c0.2,0,0.3,0,0.4,0c0.2,0,0.3,0,0.6,0c0.3,0,0.5,0,0.9,0c0.3,0.3,0.6,0.6,0.9,0.9c0.9,0,1.9,0,2.8,0c0.3-0.3,0.6-0.7,0.9-0.9
		c0.3,0,0.6,0,0.9,0c0.3-0.3,0.6-0.7,0.9-0.9c0.3-0.3,0.6-0.7,0.9-0.9c0-0.3,0-0.7,0-0.9c0-0.3,0-0.7,0-0.9c-0.3,0-0.7,0-0.9,0
		c-0.3,0-0.7,0-0.9,0c0.3-0.7,0.6-1.3,0.9-1.9c0.3,0,0.6,0,0.9,0c0.6-0.3,1.2-0.7,1.8-0.9c0.3-0.3,0.6-0.6,0.9-0.9
		c0.6-0.3,1.2-0.7,1.9-0.9c0.3-0.9,0.6-1.9,0.9-2.8c0-0.3,0-0.7,0-0.9c0-0.3,0-0.7,0-0.9c0.3-0.3,0.6-0.7,0.9-0.9
		c0.3-0.3,0.6-0.7,0.9-0.9c0.3,0,0.6,0,0.9,0c0.3-1.9,0.5-3.8,0.9-5.6c-0.3,0-0.6,0-0.9,0c0-0.3,0-0.7,0-0.9
		c-0.3-0.3-0.7-0.7-0.9-0.9c-0.7,0-1.3,0-1.9,0c-0.3,0.3-0.7,0.6-0.9,0.9c0,0.3,0,0.6,0,0.9c-0.3,0-0.7,0-0.9,0
		c-0.3,0.3-0.7,0.6-0.9,0.9c0,0.3,0,0.6,0,0.9c-0.3,0-0.7,0-0.9,0c-0.3,0.4-0.3,0.4-0.9-0.9c-0.3,0-0.6,0-0.9,0
		c-1.5-0.8-1.5-0.8-0.9-0.9c0-0.3,0-0.7,0-0.9c-0.3-0.3-0.7-0.7-0.9-0.9c-0.3,0-0.7,0-0.9,0c0-0.3,0-0.7,0-0.9
		c-0.3-0.3-0.7-0.6-0.9-0.9c0-0.9,0-1.9,0-2.8c-0.9,0-1.9,0-2.8,0c-0.3,0.3-0.7,0.6-0.9,0.9c0,0.3,0,0.6,0,0.9c-0.8,0-1.2,0-1.5-0.1
		c-0.4-0.1-0.4-0.3-0.4-0.9c-0.3,0-0.6,0-0.9,0c-0.3-0.3-0.7-0.7-0.9-0.9c-0.7,0-1.3,0-1.9,0c-0.3,0-0.7,0-0.9,0c-0.3,0-0.7,0-0.9,0
		c-0.3-0.3-0.7-0.7-0.9-0.9c0-0.3,0-0.7,0-0.9c0.3-0.3,0.6-0.7,0.9-0.9c0-0.3,0-0.7,0-0.9c0.3-0.3,0.6-0.7,0.9-0.9
		c0.3,0,0.6,0,0.9,0c0.6-0.3,1.2-0.6,1.9-0.9c0.3-0.7,0.6-1.3,0.9-1.9c0-0.3,0-0.7,0-0.9c0-0.3,0-0.7,0-0.9c0.3,0,0.6,0,0.9,0
		c0.2-0.1,0.3-0.2,0.4-0.3c0.5-0.3,0.9-0.5,1.5-0.7c1.2-0.3,2.5-0.7,3.8-0.9c0-0.3,0-0.7,0-0.9c0-0.3,0-0.7,0-0.9c0-0.3,0-0.6,0-0.9
		c0-0.3,0-0.6,0-0.9c-0.3-0.3-0.7-0.7-0.9-0.9c-0.3-0.3-0.3-0.6-0.5-0.9c0.2-0.2,0.3-0.3,0.5-0.4c0-0.3,0-0.3,0-0.5
		c-0.3-0.3-0.7-0.6-0.9-0.9c-0.3,0-0.7,0-0.9,0c-0.3,0-0.7,0-0.9,0c-0.3,0-0.6,0-0.9,0c-0.3-0.2-0.4-0.3-0.6-0.5
		c-0.2-0.2-0.3-0.3-0.4-0.4c0.2,0,0.3-0.1,0.4-0.2c0.5-0.3,0.9-0.5,1.5-0.8c0.6,0,1.2,0,1.9,0c0-0.9,0-1.9,0-2.8c0-0.3,0-0.7,0-0.9
		c0.9,0,1.9,0,2.8,0c0-0.3,0-0.7,0-0.9c0-0.3,0-0.6,0-0.9c0.3-0.3,0.6-0.7,0.9-0.9c0.3-0.3,0.6-0.7,0.9-0.9c0.3,0,0.6,0,0.9,0
		c2.5,0,5,0,7.5,0c0.6,0,1.2,0,1.8,0c0-0.9,0-1.9,0-2.8c-0.3-0.3-0.6-0.7-0.9-0.9c-0.3-0.3-0.5-0.4-0.7-0.7
		c-0.1-0.1-0.2-0.2-0.3-0.3c0-0.3,0-0.7,0-0.9c-0.3,0-0.7,0-0.9,0c-0.3,0-0.7,0-0.9,0c0-0.3,0-0.7,0-0.9c0.3-0.3,0.6-0.7,0.9-0.9
		c0.3,0,0.6,0,0.9,0c0-0.7,0-1.3,0-1.9c0-0.3,0-0.7,0-0.9c-0.7-0.3-1.3-0.6-1.9-0.9c0-0.3,0-0.7,0-0.9c-0.3-0.3-0.7-0.7-0.9-0.9
		c0-0.3,0-0.7,0-0.9c0-0.3,0-0.7,0-0.9c-0.3-0.7-0.7-1.3-0.9-1.9c-0.3,0-0.7,0-0.9,0c-0.3-0.3-0.7-0.7-0.9-0.9c0-0.3,0-0.7,0-0.9
		c0-0.6,0-1.2,0-1.8c-0.3,0-0.7,0-0.9,0c-0.3-0.3-0.6-0.7-0.9-0.9c0-0.3,0-0.7,0-0.9c-0.3,0-0.7,0-0.9,0c-0.3-0.3-0.7-0.7-0.9-0.9
		c0-0.3,0-0.7,0-0.9c-0.7,0-1.3,0-1.9,0c-0.3,0-0.7,0-0.9,0c-0.7,0-1.3,0-1.9,0c0,0.3,0,0.6,0,0.9c0.3,0.3,0.6,0.6,0.9,0.9
		c0,0.3,0,0.6,0,0.9c0.3,0.6,0.6,1.2,0.9,1.9c0.3,0.3,0.6,0.5,0.9,0.9c0.3,0,0.6,0,0.9,0c0.3,0.3,0.6,0.6,0.9,0.9c0.3,0,0.6,0,0.9,0
		c0,0.3,0,0.6,0,0.9c-0.3,0-0.7,0-0.9,0c0,0.3,0,0.6,0,0.9c-0.3,0.3-0.7,0.6-0.9,0.9c-0.3,0-0.7,0-0.9,0c0,0.6,0,1.2,0,1.9
		c0,0.9,0,1.8,0,2.8c0.3,0.3,0.6,0.6,0.9,0.9c0.3,0,0.6,0,0.9,0c0.3,0,0.6,0,0.9,0c0.3,0.9,0.6,1.9,0.9,2.8
		c-0.3,0.6-0.7,1.2-0.9,1.9c-0.3-0.3-0.7-0.7-0.9-0.9c-0.3-0.3-0.7-0.7-0.9-0.9c0-0.3,0-0.7,0-0.9c-0.9,0-1.9,0-2.8,0
		c-0.7-0.3-1.3-0.7-1.9-0.9c0-0.3,0-0.7,0-0.9c-0.3-0.3-0.6-0.7-0.9-0.9c-0.7-0.3-1.3-0.6-1.9-0.9c-0.3,0-0.7,0-0.9,0
		c0,0.6,0,1.2,0,1.8c-0.3,0.3-0.7,0.6-0.9,0.9c-0.3,0.3-0.7,0.6-0.9,0.9c0,1,0,2.1,0,3.1c0,0.3,0,0.4,0,0.7c0.3,0,0.6,0,0.9,0
		c0.3,0.3,0.6,0.6,0.9,0.9c0,0.6,0,1.2,0,1.8c-0.3,0.3-0.7,0.6-0.9,0.9c-0.3-0.6-0.7-1.3-0.9-1.9c-0.7-0.3-1.3-0.6-1.9-0.9
		c0-0.3,0-0.7,0-0.9c0-0.3,0-0.4,0-0.7c0-0.1,0-0.2,0-0.3c-0.3,0-0.7,0-0.9,0c0-0.3,0-0.7,0-0.9c-0.3-0.3-0.6-0.7-0.9-0.9
		c-0.3,0-0.6,0-0.9,0c0-0.3,0-0.7,0-0.9c-0.3-0.9-0.7-1.9-0.9-2.8c-0.3,0-0.7,0-0.9,0c-0.3,0-0.6,0-0.9,0c-0.3,0-0.6,0-0.9,0
		c-0.3,0.3-0.7,0.6-0.9,0.9c-0.4,0-0.7,0-1,0c-0.3,0-0.7,0-0.9,0c-0.3,0-0.6,0-0.9,0c-0.3,0-0.7,0-0.9,0c-0.3,0-0.6,0-0.9,0
		c0,0.3,0,0.6,0,0.9c0.2,0.3,0.3,0.6,0.5,0.9c-0.2,0.2-0.3,0.3-0.5,0.5c0,0.1,0,0.3,0,0.4c0.3,0.3,0.6,0.6,0.9,0.9
		c0.3,0,0.6,0,0.9,0c0.3,0.3,0.6,0.6,0.9,0.9c0,0.1,0,0.2,0,0.3c0,0.5,0,1,0,1.6c-0.3,0.3-0.6,0.5-0.9,0.9c-0.3,0-0.7,0-0.9,0
		c-0.6,0-1.3,0-1.9,0c0,0.3,0,0.6,0,0.9c-0.3,0.3-0.7,0.6-0.9,0.9c0,0.3,0,0.6,0,0.9c0,0.2,0,0.3,0,0.5c0.2,0.1,0.3,0.3,0.5,0.4
		c-0.3,0.3-0.3,0.6-0.5,0.9c0,0.3,0,0.6,0,0.9c0.3,0,0.6,0,0.9,0c0.3,0,0.6,0,0.9,0c0.3,0.3,0.6,0.6,0.9,0.9c0.3,0,0.6,0,0.9,0
		c0.3,0.3,0.6,0.6,0.9,0.9c0.9,0,2,0,2.8,0c0-0.3,0-0.6,0-0.9c0.3,0,0.6,0,0.9,0c0.3,0,0.6,0,0.9,0c0.6-0.3,1.2-0.7,1.9-0.9
		c0.3,0,0.6,0,0.9,0c0.9,0.3,2.7,0.7,3.6,1c0.3,0.3,0.6,0.6,0.9,0.9c0,0.3,0,0.6,0,0.9c-0.3,0.3-0.7,0.6-0.9,0.9
		c-0.3,0.3-0.7,0.6-0.9,0.9c0,0.9,0,2,0,2.8c0.6,0,1.2,0,1.9,0c0.3,0,0.6,0,0.9,0c0.3,0.3,0.6,0.7,0.9,0.9c0.3,0.7,0.6,1.3,0.9,1.9
		c-0.3,0-0.7,0-0.9,0c-0.3,0.3-0.7,0.6-0.9,0.9c-0.9-0.3-1.9-0.6-2.8-0.9c-0.7,0-2.1-0.1-2.7-0.1c0,0.6,0,1.3,0,1.9
		c0,0.3,0,0.6,0,0.9c-0.3,0-0.6,0-0.9,0c-0.3,0-0.7,0-0.9,0c-0.3,0-0.7,0-0.9,0c-0.3-0.3-0.6-0.7-0.9-0.9c-0.6-0.3-1.2-0.7-1.8-0.9
		c-0.4,0-0.7,0-1,0c-0.3,0-0.7,0-0.9,0c-0.6,0-1.2,0-1.8,0c0,0.6,0,1.2,0,1.9c0,0.3,0,0.6,0,0.9c0,0.3,0,0.6,0,0.9
		c-0.3,0.6-0.6,1.2-0.9,1.9c0,0.3,0,0.6,0,0.9c-0.3,0-0.7,0-0.9,0c-0.3,0.3-0.7,0.6-0.9,0.9c-0.3,0-0.7,0-0.9,0c0,0.3,0,0.5,0,0.9
		c-0.3,0-0.7,0-0.9,0c-0.3,0-0.7,0-0.9,0c-0.3,0.3-0.7,0.6-0.9,0.9c-0.3,0.3-0.6,0.6-0.9,0.9c-0.3,0-0.7,0-0.9,0c-0.3,0-0.7,0-0.9,0
		c-0.3,0-0.7,0-0.9,0c0-0.3,0-0.7,0-0.9c-0.3,0-0.7,0-0.9,0c-0.3,0-0.7,0-0.9,0c-0.3,0-0.7,0-0.9,0c-0.3,0-0.7,0-0.9,0
		c-0.3-0.3-0.7-0.7-0.9-0.9c0-0.3,0-0.6,0-0.9c0-0.3,0-0.7,0-0.9c-0.3-0.3-0.6-0.7-0.9-0.9c-0.7,0-1.3,0-1.9,0
		c-0.3,0.3-0.7,0.6-0.9,0.9c0,0.3,0,0.6,0,0.9c0.3,0,0.6,0,0.9,0c0,0.3,0,0.5,0,0.9c-0.3,0.3-0.7,0.6-0.9,0.9
		c-0.3-0.3-0.7-0.7-0.9-0.9c-0.3-0.3-0.7-0.6-0.9-0.9c-0.3,0-0.7,0-0.9,0c-0.3-0.3-0.7-0.7-0.9-0.9c0.3-0.3,0.6-0.7,0.9-0.9
		c0-0.3,0-0.7,0-0.9c-0.3-0.3-0.7-0.7-0.9-0.9c0-0.3,0-0.7,0-0.9c-0.3-0.3-0.7-0.3-0.9-0.5c-0.3-0.2-0.3-0.3-0.5-0.4
		c-0.1-0.3-0.3-0.3-0.3-0.5c-0.3-0.2-0.3-0.3-0.5-0.4c-0.2,0-0.3,0-0.4,0c0-0.3,0-0.3,0-0.5c-0.3-0.2-0.3-0.3-0.5-0.4
		c0.2-0.3,0.3-0.3,0.5-0.5c0.1,0.2,0.3,0.3,0.4,0.5c0.2,0.1,0.3,0.3,0.5,0.4c0.1,0.2,0.3,0.3,0.3,0.5c0.2,0.1,0.3,0.3,0.5,0.4
		c0.1,0.2,0.3,0.3,0.5,0.5c0.1,0,0.2,0,0.4,0c2.8,0,5.6,0,8.4,0c0-0.3,0-0.7,0-0.9c0.3,0,0.6,0,0.9,0c0-0.6,0-1.3,0-1.9
		c-0.3-0.3-0.7-0.6-0.9-0.9c-0.3,0-0.7,0-0.9,0c-0.3,0-0.6,0-0.9,0c-0.3,0-0.7,0-0.9,0c-0.7-0.3-1.3-0.7-1.9-0.9
		c-0.3-0.3-0.7-0.6-0.9-0.9c-0.3,0-0.7,0-0.9,0c-0.3,0-0.7,0-0.9,0c-0.3-0.3-0.7-0.7-0.9-0.9c-0.3-0.3-0.7-0.6-0.9-0.9
		c-0.3,0-0.6,0-0.9,0c-0.7-0.3-1.3-0.6-1.9-0.9c-0.3,0-0.7,0-0.9,0c-0.3,0-0.7,0-0.9,0c-0.3-0.3-0.7-0.6-1-0.9c-0.3,0-0.6,0-0.9,0
		c-0.3,0-0.7,0-0.9,0c-0.3-0.3-0.7-0.6-0.9-0.9c-0.3-0.3-0.6-0.6-0.9-0.9c0-0.3,0-0.6,0-0.9c0-0.7,0-1.3,0-1.9
		c0.3-0.3,0.6-0.6,0.9-0.9c0-1.3,0-2.5,0-3.8c-0.3-0.3-0.6-0.6-0.9-0.9c0,0.3,0,0.5,0,0.9c-0.3,0-0.6,0-0.9,0c-0.4,0-0.7,0-0.9,0
		c-0.3,0.3-0.7,0.6-1,0.9c-0.3,0-0.6,0-0.9,0c-0.3,0.3-0.6,0.6-0.9,0.9c-0.7,0-1.3,0-1.9,0c-0.3,0-0.7,0-1,0c-0.5,0-1.2,0-1.8,0
		c-0.7,0.3-1.3,0.6-1.9,0.9c-0.3,0-0.7,0-0.9,0c-0.2,0-0.3,0-0.4,0c-0.3,0.2-1.6,2.3-1.6,2.6c-0.3,0.1-0.7,0.3-0.9,0.4
		c0.1-0.3,1.4-2.8,1.6-3c0.2-0.2,0.3-0.3,0.4-0.4c0-0.3,0-0.3,0-0.5c-0.3-0.3-0.7-0.6-0.9-0.9c-0.3,0-0.6,0-0.9,0
		c-0.3,0-0.7,0-0.9,0c-0.6,0-1.2,0-1.8,0c0,0.3,0,0.6,0,0.9c-1.9,0-1.9,0-1.9-0.9c-0.3-0.3-0.7-0.6-0.9-0.9c0-0.3,0-0.6,0-0.9
		c0.3-0.3,0.7-0.7,1-0.9c0-0.3,0-0.5,0.1-0.7c0.4-1.2,2-1.7,2.6-1.8c0-0.3,0-0.7,0-0.9c-0.7,0-1.3,0-1.9,0c-0.3,0-0.7,0-0.9,0
		c0,0.3,0,0.6,0,0.9c-1,0.6-2-1.3-1.8-3.2c0-2.5,0-5,0-7.5c0-0.3,0-0.7,0-0.9c0.3-0.3,0.6-0.7,0.9-0.9c0.6,0.6,1.2,1.2,1.9,1.9
		c0.3,0.3,0.6,0.6,0.9,0.9c0,0.3,0,0.6,0,0.9c0.9,0,1.8,0,2.8,0c0.3,0.3,0.6,0.6,0.9,0.9c0,0.3,0,0.6,0,0.9c0.3,0,0.7,0,0.9,0
		c0.3,0.3,0.6,0.6,0.9,0.9c0,0.3,0,0.6,0,0.9c0.3,0,0.6,0,0.9,0c0.3,0.3,0.6,0.5,0.9,0.9c0,0.3,0,0.6,0,0.9c0.3,0,0.6,0,0.9,0
		c0.3,0.3,0.6,0.6,0.9,0.9c0,0.3,0,0.6,0,0.9c0,0.6,0,1.2,0,1.9c0,0.3,0,0.6,0,0.9c0,0.1,0,0.2,0,0.3c0,0.5,0,1,0,1.6
		c0.3,0,0.6,0,0.9,0c0.3,0.3,0.7,0.5,1,0.9c1-0.9,2.2-1.7,3.4-2.5c0.2-0.1,0.3-0.2,0.3-0.3c0.3-0.3,0.7-0.7,1-0.9c0.3,0,0.5,0,0.9,0
		c0.3,0,0.5,0,0.9,0c0.3,0.3,0.6,0.6,0.9,0.9c0.1,0.1,0.2,0.2,0.3,0.3c0.2,0.3,0.4,0.4,0.7,0.7c0.3,0.3,0.6,0.6,0.9,0.9
		c0,0.3,0,0.5,0,0.9c0.3,0,0.6,0,0.9,0c0.3,0.3,0.7,0.6,1,0.9c0,0.3,0,0.6,0,0.9c0.6,0.3,1.2,0.6,1.9,0.9c0.3,0.3,0.6,0.6,0.9,0.9
		c0.3,0,0.6,0,0.9,0c0.6,0.3,1.2,0.6,1.8,0.9c0.3,0,0.6,0,0.9,0c0.3,0,0.6,0,0.9,0c0.3,0,0.6,0,0.9,0c0.3-0.3,0.6-0.6,0.9-0.9
		c1.2,0,2.4,0,3.7,0c0.3,0,0.6,0,0.9,0c0.3-0.7,0.6-1.3,0.9-1.9c-0.3-0.6-0.7-1.3-0.9-1.9c-0.3-0.3-0.7-0.6-0.9-0.9
		c0-0.3,0-0.7,0-0.9c0-0.3,0-0.4,0-0.7c0-0.7,0-1.5,0-2.2c-0.3,0-0.6,0-0.9,0c-0.3,0-0.7,0-0.9,0c-0.3,0-0.7,0-0.9,0
		c-0.3,0-0.7,0-0.9,0c0,0.3,0,0.6,0,0.9c0,0.3,0,0.6,0,0.9c0,0.1,0,0.2,0,0.3c0,0.3,0,0.4,0,0.7c-0.3,0-0.7,0-0.9,0
		c-0.3,0-0.7,0-0.9,0c-0.3,0-0.7,0-0.9,0c0-0.3,0-0.4,0-0.7c0-0.1,0-0.2,0-0.3c0.3-0.7,0.6-1.3,0.9-1.9c0.3-0.3,0.6-0.7,0.9-0.9
		c0.3,0,0.6,0,0.9,0c0.3,0,0.6,0,0.9,0c0-0.3,0-0.7,0-0.9c-0.3-0.7-0.7-1.3-0.9-1.9c0-0.3,0-0.6,0-0.9c-0.3,0-0.7,0-0.9,0
		c-0.3,0-0.7,0-0.9,0c-0.7,0-1.3,0-1.9,0c-0.3,0-0.7,0-0.9,0c0.3-0.3,0.6-0.7,0.9-0.9c0-0.3,0-0.7,0-0.9c1.9,0,1.9,0,1.9,0.9
		c0.3,0,0.6,0,0.9,0c0.3,0,0.6,0,0.9,0c0-0.9,0-1.9,0-2.8c-0.3,0-0.7,0-0.9,0c-0.3,0-0.7,0-0.9,0c-0.3,0-0.7,0-0.9,0
		c-0.3,0-0.7,0-0.9,0c0-0.3,0-0.7,0-0.9c-0.3,0-0.7,0-0.9,0c-0.3,0-0.6,0-0.9,0c-0.3,0-0.7,0-0.9,0c0-1.9,0-1.9,0.9-1.9
		c0.3-0.3,0.5-0.7,0.9-0.9c0-0.3,0-0.6,0-0.9c0-0.3,0-0.7,0-0.9c0.3-0.3,0.6-0.7,0.9-0.9c0.3-0.7,0.6-1.3,0.9-1.9c0-0.7,0-1.3,0-1.9
		c0.3,0,0.6,0,0.9,0c0.3-0.3,0.6-0.7,0.9-0.9c0.3-0.3,0.6-0.7,0.9-0.9c0.3-0.3,0.6-0.6,0.9-0.9c0.3-0.3,0.6-0.7,0.9-0.9
		c0.3-0.3,0.6-0.7,0.9-0.9c0-0.3,0-0.7,0-0.9c1.2-0.3,2.4-0.7,3.7-0.9c0.3-0.3,0.6-0.7,0.9-0.9c0.6-0.3,1.2-0.7,1.9-0.9
		c0.6-0.3,1.2-0.7,1.9-0.9c0.9-0.3,1.8-0.7,2.8-0.9c0.9,0,1.9,0,2.8,0c0.3,0,0.6,0,0.9,0c0.3,0.3,0.6,0.6,0.9,0.9c0.3,0,0.6,0,0.9,0
		c0.3,0,0.6,0,0.9,0c0,0.3,0,0.6,0,0.9c2.8,0,5.7,0,8.5,0c0.3,0,0.6,0,0.9,0c0.6,0,1.2,0,1.9,0c0.3,0.3,0.6,0.6,0.9,0.9
		c0,0.3,0,0.6,0,0.9c-0.3,0-0.7,0-0.9,0c-0.9,0-1.9,0-2.8,0c-0.3,0-0.6,0-0.9,0c0,0.9,0,1.9,0,2.8c0.3,0,0.6,0,0.9,0
		c0.3,0,0.6,0,0.9,0c0,0.3,0,0.6,0,0.9c1.9,0.2,4.1,0,6,0.1c0.6,0.1,1.2,0.1,1.7,0.2c0.3,0,0.3,0.6,0.7,0.6c0.9-0.3,1.9-0.6,2.8-0.9
		c0.3-0.3,0.6-0.7,0.9-0.9c0-0.3,0-0.7,0-0.9c-0.3-0.3-0.7-0.7-0.9-0.9c0-0.3,0-0.7,0-0.9c-0.3,0-0.7,0-0.9,0
		c-0.3-0.3-0.7-0.7-0.9-0.9c-0.3-0.3-0.7-0.7-0.9-0.9c0-0.3,0-0.7,0-0.9c0-0.3,0-0.7,0-0.9c-0.3-0.3-0.7-0.6-0.9-0.9
		c0-0.3,0-0.7,0-0.9c-0.5,0-0.9,0-1.5,0c-0.4,0-0.9,0-1.3,0c-0.9-0.3-1.9-0.7-2.8-0.9c-0.3,0-0.7,0-0.9,0c-0.3,0-0.7,0-0.9,0
		c0-0.3,0-0.7,0-0.9c-1.3,0-2.5,0-3.8,0c-0.9-0.5-1.9-0.9-2.8-1.5c0.9,0.2,1.9,0.3,2.8,0.5c0.3-0.3,0.6-0.7,0.9-0.9
		c0.3,0,0.6,0,0.9,0c0.3-0.3,0.6-0.7,0.9-0.9c0.3-0.3,0.6-0.7,0.9-0.9c0-0.3,0-0.7,0-0.9c0-0.3,0-0.6,0-0.9c0.3,0,0.6,0,0.9,0
		c0-0.3,0-0.7,0-0.9c-0.3-0.7-0.7-1.3-0.9-1.9c0-0.3,0-0.7,0-0.9c-0.3-0.7-0.7-1.3-0.9-1.9c0-0.3,0-0.7,0-0.9c0-0.3,0-0.7,0-0.9
		c-0.6,0-1.3,0-1.9,0c-0.3,0-0.7,0-0.9,0c0-0.3,0-0.6,0-0.9c-0.3-0.3-0.7-0.6-0.9-0.9c-0.3-0.3-0.6-0.6-0.9-0.9c-0.3,0-0.6,0-0.9,0
		c0-0.3,0-0.6,0-0.9c-0.3-0.6-0.7-1.2-0.9-1.8c-0.4-0.3-0.7-0.7-1-1c-0.3-0.3-0.7-0.6-0.9-0.9c-0.6,0-1.2,0-1.8,0
		c-0.3,1.2-0.6,2.5-0.9,3.7c0-0.3,0-0.6,0-0.9c0-0.3,0-0.6,0-0.9c0-0.3,0-0.7,0-1c0-0.3,0-0.6,0-0.9c-0.7,0-1.3,0-1.9,0
		c-0.3-0.3-0.7-0.7-0.9-0.9c-0.3-0.3-0.7-0.6-0.9-0.9c-0.7,0-1.3,0-1.9,0c-0.3,0-0.6,0-0.9,0c-0.3,0-0.7,0-0.9,0c-0.3,0-0.7,0-0.9,0
		c0,0.6,0,1.3,0,1.9c0,0.3,0,0.6,0,0.9c0.3,0.3,0.6,0.7,0.9,1c0.3,0.3,0.6,0.6,0.9,0.9c0,0.7,0,1.3,0,1.9c0.3,0.3,0.5,0.7,0.9,0.9
		c0.6,0.3,1.2,0.7,1.9,0.9c0.3,0,0.6,0,0.9,0c0.3,0,0.6,0,0.9,0c0,1.9,0,1.9-0.9,1.9c0,0.3,0,0.6,0,0.9c1.5,0.7,1.5,0.7,0.9,0.9
		c0,0.3,0,0.6,0,0.9c0.3,0.3,0.6,0.6,0.9,0.9c0.3,0,0.6,0,0.9,0c0.3,0,0.6,0,0.9,0c0.6,0,1.2,0,1.8,0c0,0.9,0,0.9-2.8,1.9
		c-0.3,0-0.7,0-0.9,0c-0.3,0-0.7,0-0.9,0c-0.3,0-0.7,0-0.9,0c-0.3,0.3-0.7,0.6-0.9,0.9c-0.3,0.6-0.7,1.2-0.9,1.8c0,0.9,0,1.9,0,2.8
		c0,0.3,0,0.6,0,0.9c0,0.3,0,0.6,0,0.9c-0.3,0.3-0.7,0.6-0.9,0.9c-0.3,0-0.6,0-0.9,0c-0.7,0-1.3,0-1.9,0c-0.3,0-0.7,0-0.9,0
		c-0.3-0.3-0.7-0.7-0.9-0.9c-0.7,0-1.3,0-1.9,0c-0.3,0-0.7,0-0.9,0c-0.3-0.3-0.7-0.7-0.9-0.9c-0.9,0-1.9,0-2.8,0
		c-0.3-0.3-0.7-0.7-0.9-0.9c0-0.3,0-0.7,0-0.9c-0.3,0-0.7,0-0.9,0c-0.3-0.3-0.7-0.7-0.9-0.9c-0.7,0-1.3,0-1.9,0c0,0.3,0,0.6,0,0.9
		c-0.3,0.6-0.7,1.2-0.9,1.9c0,0.3,0,0.6,0,0.9c0,0.3,0,0.6,0,0.9c-0.3,0-0.6,0-0.9,0c0,0.6,0,1.2,0,1.8c-0.3,0.3-0.7,0.6-0.9,0.9
		c-0.3,0.3-0.7,0.6-0.9,0.9c0,0.9,0,1.9,0,2.8c0,0.3,0,0.6,0,0.9c0,0.3,0,0.6,0,0.9c0,0.6,0,1.2,0,1.8c0,0.3,0,0.6,0,0.9
		c0,0.3,0,0.6,0,0.9c-0.3,0.3-0.7,0.6-0.9,0.9c0,0.3,0,0.6,0,0.9c-0.3,0-0.7,0-0.9,0c0,0.3,0,0.6,0,0.9c0,0.3,0,0.6,0,0.9
		c-0.3,0.3-0.7,0.6-1,0.9c-0.3-0.3-0.6-0.7-0.9-0.9c-0.5,0.3-0.9,0.6-1.5,0.9c-0.2-0.7-0.3-1.3-0.4-1.9c0-0.3,0-0.7,0-0.9
		c-0.6-0.3-1.3-0.7-1.8-0.9c-0.4,0-0.7,0-0.9,0c-0.3-0.3-0.7-0.7-1-0.9c-0.3,0-0.6,0-0.9,0c0,0.3,0,0.6,0,0.9c-1.9,0-1.9,0-1.9-0.9
		c-0.3-0.3-0.7-0.7-0.9-0.9c-0.3-0.6-0.7-1.2-1-1.8c-0.3,0-0.5,0-0.9,0c0-0.3,0-0.7,0-0.9c0-0.3,0-0.7,0-0.9c-0.3,0-0.7,0-0.9,0
		c-0.3,0-0.7,0-0.9,0c-0.3,0-0.6,0-0.9,0c-0.3,0-0.7,0-0.9,0c0,0.3,0,0.6,0,0.9c-0.3,0.3-0.7,0.6-0.9,0.9c0,0.3,0,0.5,0,0.9
		c0,0.3,0,0.6,0,0.9c0,0.3,0,0.6,0,0.9c0,0.3,0,0.6,0,0.9c0,0.3,0,0.6,0,0.9c-0.3,0-0.7,0-0.9,0c-0.3,0.3-0.6,0.6-0.9,0.9
		c-0.6,0.3-1.2,0.6-1.8,0.9c-0.3,0.3-0.7,0.6-0.9,0.9c-0.3,0-0.7,0-0.9,0c-0.3-0.3-0.7-0.7-0.9-0.9c-0.3-0.3-0.7-0.7-0.9-0.9
		c0-0.3,0-0.7,0-0.9c0.3,0,0.6,0,0.9,0c0-0.3,0-0.7,0-0.9c0.3-0.3,0.6-0.7,0.9-0.9c0.3,0,0.6,0,0.9,0c0-0.3,0-0.7,0-0.9
		c0-0.3,0-0.7,0-0.9c0.3-0.3,0.6-0.6,0.9-0.9c0-0.3,0-0.7,0-0.9c0-0.3,0-0.7,0-0.9c0.3,0,0.5,0,0.9,0c0-0.9,0-1.9,0-2.8
		c0.3-0.3,0.6-0.7,0.9-0.9c0.3,0,0.6,0,0.9,0c0-0.3,0-0.7,0-0.9c1.9,0,1.9,0,1.9,0.9c0.3,0,0.6,0,0.9,0c0.6,0.3,1.2,0.6,1.9,0.9
		c0.3,0.3,0.6,0.6,0.9,0.9c0.3,0,0.6,0,0.9,0c0.3,0.3,0.7,0.6,1,0.9c0.2,0,0.6,0,0.9,0c0-0.3,0-0.7,0-0.9c1.9,0,1.9,0,1.9,0.9
		c0.3,0,0.7,0,0.9,0c0-0.9,0-0.9,2-0.9c0-0.7,0-1.3,0-1.9c0.3,0,0.5,0,0.9,0c1.3,0.3,2.5,0.6,3.7,0.9c0.3-0.3,0.7-0.7,1-0.9
		c0.3,0,0.6,0,0.9,0c0.3-0.7,0.6-1.3,0.9-1.9c-0.3-0.6-0.7-1.2-0.9-1.8c-0.7-0.3-1.3-0.7-2-0.9c-0.6,0-1.2,0-1.8,0
		c-0.3-0.3-0.7-0.7-0.9-0.9c-0.3,0-0.6,0-0.9,0c-0.3-0.3-0.6-0.7-0.9-0.9c-0.7,0.6-1.3,1.2-2,1.9c-0.3,0.3-0.6,0.6-0.9,0.9
		c0,0.3,0,0.6,0,0.9c0,0.3,0,0.5,0,0.9c-0.3,0-0.6,0-0.9,0c-0.4,0-0.7,0-1,0c-0.3,0-0.7,0-0.9,0c0-0.3,0-0.6,0-0.9
		c0.2-0.3,0.6-0.7,0.9-0.9c0-0.3,0-0.7,0-0.9c0-0.3,0-0.6,0-0.8c0.3-0.3,0.7-1.1,1-1.1c1.2-0.3,2.5-0.7,3.8-0.9c0-0.9,0-1.9,0-2.8
		c-0.4,0-0.7,0-0.9,0c0,0.3,0,0.6,0,0.9c-0.3,0-0.7,0-1,0c0-0.3,0-0.7,0-0.9c0-0.3,0-0.6,0-0.9c-1.3,0-2.5,0-3.7,0
		c-0.3,0.3-0.7,0.5-1,0.9c0,0.3,0,0.6,0,0.9c0,0.3,0,0.6,0,0.9c0.3,0.3,0.7,0.6,1,0.9c0.1,0.1,0.2,0.5,0.3,0.9h-0.3
		c-0.3-0.3-0.7-0.7-1-0.9c-0.3-0.3-0.5-0.7-0.9-0.9c-0.3,0-0.7,0-0.9,0c-0.7-0.3-1.3-0.7-1.9-0.9c0-0.3,0-0.7,0-0.9
		c0.3-0.3,0.6-0.6,0.9-0.9c0.3-0.3,0.6-0.7,0.9-0.9c0.6-0.3,1.3-0.7,1.8-0.9c0.3,0,0.7,0,1,0c0-0.7,0-1.3,0-1.9c-0.3,0-0.7,0-1,0
		c-0.3,0-0.5,0-0.9,0c-0.3,0-0.7,0-0.9,0c-0.3-0.3-0.7-0.7-0.9-0.9c0-0.3,0-0.7,0-0.9c0-0.9,0-1.9,0-2.8c-0.3-0.3-0.6-0.6-0.9-0.9
		c-0.3-2.2-0.7-4.4-0.9-6.5c-0.3,0-0.7,0-0.9,0c-0.3,0.3-0.7,0.6-0.9,0.9c-0.3,0.3-0.6,0.6-0.9,0.9c-0.3,1.3-0.7,2.6-0.9,3.8
		c-0.3,0-0.6,0-0.9,0c-0.3,0-0.7,0-0.9,0c0,0.3,0,0.7,0,0.9c-0.3,0.3-0.7,0.7-0.9,0.9c0,0.3,0,0.6,0,0.9c0,0.3,0,0.6,0,0.9
		c0,0.3,0,0.6,0,0.9c0.3,0,0.6,0,0.9,0c0,0.3,0,0.6,0,0.9c0,0.3,0,0.6,0,0.9c0,0.3,0,0.6,0,0.9c0,0.3,0,0.6,0,0.9c0,0.3,0,0.6,0,0.9
		c-0.3,0.3-0.7,0.6-0.9,0.9c-0.7,0-1.3,0-1.9,0c-0.3,0.3-0.7,0.5-0.9,0.9c0,0.3,0,0.6,0,0.9c1.4,0.7,1.4,0.7,0.9,0.9
		c0,0.3,0,0.6,0,0.9c0.3,0.3,0.6,0.6,0.9,0.9c0.3,0,0.6,0,0.9,0c0.3,0.3,0.6,0.6,0.9,0.9c0,0.3,0,0.6,0,0.9
		c-0.3,0.3-0.7,0.6-0.9,0.9c0,0.3,0,0.6,0,0.9c-0.3,0-0.7,0-0.9,0c0,0.3,0,0.5,0,0.9c-0.3,0.3-0.7,0.6-0.9,0.9
		c-0.3,0.3-0.7,0.6-0.9,0.9c0,1.2,0,2.5,0,3.8c0,0.6,0,1.2,0,1.9c0,0.3,0,0.5,0,0.9c-0.3,0-0.7,0-0.9,0c0,0.3,0,0.6,0,0.9
		c0.3,0,0.6,0,0.9,0c0,1.9,0,1.9-0.9,1.9c-0.3,0.3-0.7,0.6-0.9,0.9c0,0.3,0,0.6,0,0.9c-0.3,0.6-0.7,1.2-0.9,1.9
		c-0.3-0.3-0.6-0.7-0.9-0.9c0-0.3,0-0.7,0-0.9c-0.3,0-0.7,0-0.9,0c0-0.3,0-0.7,0-0.9c0-0.3,0-0.7,0-0.9c-0.3,0-0.7,0-0.9,0
		c0-1.3,0-2.5,0-3.7c0.3,0,0.6,0,0.9,0c0.3-0.3,0.6-0.7,0.9-0.9c0-0.9,0-1.9,0-2.8c-0.3-0.3-0.7-0.7-0.9-0.9c-0.3,0-0.7,0-0.9,0
		c-0.3-0.3-0.7-0.7-0.9-0.9c0-0.3,0-0.7,0-0.9c0-0.3,0-0.7,0-0.9c0.3,0,0.6,0,0.9,0c0.3,0,0.6,0,0.9,0c0.3,0,0.6,0,0.9,0
		c0.3,0,0.5,0,0.9,0c0.3-0.3,0.6-0.6,0.9-0.9c0-0.7,0-1.3,0-1.9c-0.3-0.3-0.7-0.7-0.9-0.9c-0.3-0.9-0.6-1.9-0.9-2.8
		c0.3-0.3,0.5-0.7,0.9-0.9c0-0.3,0-0.7,0-0.9c-0.3-0.3-0.6-0.6-0.9-0.9c0-0.3,0-0.7,0-0.9c0-0.3,0-0.7,0-0.9c0-0.3,0-0.7,0-0.9
		c0.3-0.3,0.5-0.7,0.9-0.9c0.3,0,0.6,0,0.9,0c0-1.9,0-3.8,0-5.7c-0.3-0.3-0.7-0.6-0.9-0.9c0-0.3,0-0.6,0-0.9c0.3,0,0.6,0,0.9,0
		c0.3,0.3,0.6,0.7,0.9,0.9c0.3,0,0.6,0,0.9,0c0.3-0.3,0.6-0.6,0.9-0.9c0.3,0,0.6,0,0.9,0c0.3,0,0.6,0,0.9,0c0.3,0,0.6,0,0.9,0
		c0.3-0.3,0.6-0.6,0.9-0.9c0-0.3,0-0.6,0-0.9c-0.3-0.3-0.7-0.7-0.9-1c0-0.3,0-0.6,0-0.9c0-0.9,0-1.9,0-2.8c-0.3,0-0.7,0-0.9,0
		c-0.7,0.3-1.3,0.6-1.9,0.9c-0.3,0.6-0.7,1.3-0.9,1.9c-1.3-0.3-2.5-0.7-3.7-0.9c-0.3,0-0.7,0-0.9,0c0-0.3,0-0.6,0-0.9
		c-0.3-0.3-0.7-0.7-0.9-0.9c-0.3-0.3-0.7-0.7-0.9-0.9c-0.3-0.3-0.7-0.7-0.9-0.9c0-0.9,0-1.9,0-2.8c0.3,0,0.6,0,0.9,0
		c0,0.3,0,0.6,0,0.9c0.3,0.3,0.6,0.6,0.9,0.9c0,0.3,0,0.6,0,0.9c0.3,0.3,0.6,0.6,0.9,0.9c1.2,0,2.4,0,3.7,0c0.3-0.3,0.6-0.7,0.9-0.9
		c0.3-0.3,0.6-0.7,0.9-0.9c0-0.3,0-0.6,0-0.9c-0.3-0.6-0.7-1.2-0.9-1.9c0-0.3,0-0.6,0-0.9s0-0.6,0-0.9c-0.3,0-0.7,0-0.9,0
		c0-0.3,0-0.7,0-0.9c-0.3-0.3-0.7-0.7-0.9-0.9c-0.3-0.3-0.7-0.7-0.9-0.9c0-0.3,0-0.7,0-0.9c-0.3-0.4-0.6-0.9-0.9-1.4
		c2.1,0.2,2.1,0.2,2.8,1.4c0.3,0.3,0.6,0.6,0.9,0.9c0,0.6,0,1.2,0,1.9c0.6,0,1.2,0,1.9,0c0.3,0,0.6,0,0.9,0c0.9,0,0.9-1.9,1.9-1.9
		c0-0.3,0-0.7,0-0.9c0-0.3,0-0.6,0-0.9c0-0.3,0-0.7,0-0.9c-0.3-0.6-0.7-1.3-0.9-1.9c-0.3,0-0.7,0-0.9,0c-0.3,0.3-0.7,0.6-0.9,0.9
		c-0.3-0.6-0.7-1.2-0.9-1.8c-0.3-0.7-0.7-1.3-0.9-1.9c0-0.3,0-0.7,0-0.9c-0.3,0-0.7,0-0.9,0c0-0.3,0-0.7,0-0.9c-0.7,0-1.3,0-1.9,0
		c-0.9,0-1.9,0-2.8,0c-0.3,0-0.7,0-0.9,0c-0.3,0-0.7,0-0.9,0c0,0.3,0,0.6,0,0.9c-0.3,0.3-0.7,0.6-0.9,0.9c-0.3,0-0.7,0-0.9,0
		c0,0.3,0,0.6,0,0.9c-0.3,0.3-0.7,0.6-1,0.9c-0.3,0-0.7,0-0.9,0c0,0.3,0,0.5,0,0.9c-0.3,0-0.6,0-0.9,0c-0.3-0.3-0.7-0.6-0.9-0.9
		c0,0,0,0,0,0v15.3C192.5,87.3,192.7,87,192.7,86.5z M246.7,219.6l9.7,3.4c1.7,0.6,5.5-0.3,5.5,1.6c0,0.4-3.8,0.3-4.2,0.3
		c-3.5-0.2-5.6-2.3-8.9-2.7C244.8,221.9,239.2,219.7,246.7,219.6z M229.8,215.6c-0.3,0-0.7-0.7-0.7-1.5c0-0.9,0.3-1.5,0.7-1.5
		c0.3,0,0.7,0.6,0.7,1.5C230.4,214.9,230.1,215.6,229.8,215.6z M236.7,192.2c-0.9,0.3-2.8-0.3-3.7-0.3c-4.1,0,1.8-2.2,3.7-2.2
		C237.2,189.9,237.3,191.9,236.7,192.2z M227.3,169.3c0.5,0,0.8,0.2,0.6,0.6c1.2,0.1,7.3,4,7.8,4.6c0.5,0.8,4.3,6.3,1.6,6.3
		c-2.8,0-3.1-3.7-4.9-4.7c-2.5-1.5-7.4-0.3-9-1.9C220.8,171.6,225.4,169.3,227.3,169.3z M215.1,210.8c-0.8,0.3-5.3,2.2-5.3,1
		c1-2.2,1.4-6.4,3.3-6.4c0.6,0,1.3,0.3,2.2,1.3C216.7,208.2,218.8,210,215.1,210.8z M209.9,201.2c0.6-0.9,0.3-4.9,1.5-4.9
		c0.3,0,0.4,0.1,0.8,0.3C213.6,197.9,209.7,201.6,209.9,201.2z M206.9,167.2c3.4-2.2,6.5-5,10.7-5c4.9,0,7.1,10.9-0.7,8.4
		c-1.9-0.6-4.8-3.4-6.8-3.4c-0.2,0-0.3,0-0.5,0.1c-2,0.6-2.7,1.5-2.8,1.9C206.8,169,207,168.3,206.9,167.2z M204.3,175.4
		c3.4,1.7,4.1,1.9,7.4,1.9c2.8,0,3,2.8,3,5c0,4.4-4.1,1.2-7.3,2.8c-2.1,1-1.4-4.7-1.4-6.1C206,178.4,202.9,175.6,204.3,175.4z
		 M202.4,203.3c1.7-2.6-0.3-5.6,1-8.3c0.4-1,0.9-1.4,1.4-1.4c0.9,0,1.5,1.6,0.2,2.7c-1.5,1.2,0.3,2.6,0.6,3.7
		c0.3,1.3,0.9,9.2-0.5,9.9c0,0-3.8,2.8-3.7,0.9C201.5,208.1,200.9,205.5,202.4,203.3z M200,144.3c-2.1,0-1.5-3.9-1.5,1.7
		c0,0.2-0.1,0.4-0.1,0.6c-0.3,1.7-2.1,4.3-3.2,2.7c-0.8-1.3-1.1-2.1-1.1-2.7c-0.2-1.9,2.5-1.5,2.1-5.1c-0.3-3.4,3.2-8.5-2.7-9.2
		c-0.3,0.1-0.1,0.1-0.3,0h-0.5c-0.3,0-0.9-0.7-0.3-0.7c2.7-0.3,3.6,2,6,2.2C201.8,134.3,202.4,144.3,200,144.3z"/>
	<path class="st2" d="M277.2,127.7c0.3-0.2,0.3-0.6,1-1.3c0.5-0.5-0.3-0.4-1-0.3c-0.4,0.1-0.9,0.2-1.1,0.2c0.1,0-1.1,0.9-0.3,1.1
		c0.6,0.3,1,0.3,1.3,0.3C277.2,127.7,277.2,127.7,277.2,127.7z"/>
	<path class="st2" d="M248.1,209.6c0,0.3,0,0.6,0,0.9c0.3,0.3,0.6,0.6,0.9,0.9c0.6,0,1.3,0,1.9,0c0-0.9,0-1.9,0-2.8
		c-0.3,0-0.6,0-0.9,0C249.3,208.9,248.7,209.2,248.1,209.6z"/>
	<path class="st2" d="M261.2,193.6c0.3,0,0.5,0,0.9,0c0.3-0.3,0.6-0.7,0.9-0.9c0-0.3,0-0.7,0-0.9c-0.3-0.3-0.7-0.6-0.9-0.9
		c-0.3,0-0.6,0-0.9,0c-0.3,0-0.7,0-0.9,0c-0.3,0-0.7,0-0.9,0c-0.7,0-1.3,0-1.9,0c0,0.3,0,0.5,0,0.9c0,0.3,0,0.6,0,0.9
		c0,0.3,0,0.6,0,0.9c0.3,0.3,0.6,0.6,0.9,0.9c0.6,0,1.2,0,1.9,0C260.5,194.2,260.9,193.8,261.2,193.6z"/>
	<path class="st2" d="M263.2,127.9c0.3,0,0.6,0,0.9,0c0-0.7,0-1.3,0-2c-0.3,0-0.7,0-0.9,0c-0.6,0.3-1.2,0.7-1.8,0.9c0,0.3,0,0.7,0,1
		c0.3,0,0.5,0,0.9,0C262.5,127.9,262.8,127.9,263.2,127.9z"/>
	<path class="st2" d="M239.8,131c0.2,0-0.7,1.2,0.1,1.5c0.7,0.2,1,0.3,1.3,0.3c0.5,0,0.4-0.4,1.2-1.2
		C243.2,130.7,240.5,131,239.8,131z"/>
</g>
<path class="st3" d="M204.7,234.1h-156c-8.7,0-15.8-7.1-15.8-15.8V102.7C33,94,40,87,48.7,87h156c8.7,0,15.8,7.1,15.8,15.8v115.6
	C220.5,227.1,213.4,234.1,204.7,234.1z"/>
<line class="st4" x1="100.4" y1="176.9" x2="193" y2="176.9"/>
<line class="st4" x1="100.4" y1="143.8" x2="193" y2="143.8"/>
<line class="st4" x1="100.4" y1="109.5" x2="193" y2="109.5"/>
<g>
	<line class="st4" x1="52" y1="105.9" x2="64.1" y2="116.7"/>
	<line class="st4" x1="79.1" y1="99.3" x2="64.1" y2="116.7"/>
</g>
<g>
	<line class="st4" x1="52" y1="138.4" x2="64.1" y2="149.2"/>
	<line class="st4" x1="79.1" y1="131.8" x2="64.1" y2="149.2"/>
</g>
<circle class="st4" cx="65.6" cy="177.5" r="10.2"/>
<line class="st4" x1="100.6" y1="212.4" x2="193.2" y2="212.4"/>
<g>
	<line class="st4" x1="52.2" y1="207" x2="64.3" y2="217.8"/>
	<line class="st4" x1="79.3" y1="200.4" x2="64.3" y2="217.8"/>
</g>
</svg>
