<?xml version="1.0" encoding="utf-8"?>
<!-- Generator: Adobe Illustrator 24.1.2, SVG Export Plug-In . SVG Version: 6.00 Build 0)  -->
<svg version="1.1" id="Слой_1" xmlns="http://www.w3.org/2000/svg" xmlns:xlink="http://www.w3.org/1999/xlink" x="0px" y="0px"
	 viewBox="0 0 200 171.9" style="enable-background:new 0 0 200 171.9;" xml:space="preserve">
<style type="text/css">
	.st0{opacity:0.5;fill:#66CCFF;enable-background:new    ;}
	.st1{opacity:0.3;fill:#66CCFF;enable-background:new    ;}
	.st2{display:none;}
	.st3{display:inline;}
	.st4{fill:#999999;}
	.st5{display:inline;fill:#999999;}
	.st6{fill:none;stroke:#CCCCCC;stroke-width:0.5296;stroke-miterlimit:10;}
	.st7{fill:none;}
	.st8{fill:#606060;}
	.st9{font-family:'Roboto-Regular';}
	.st10{font-size:12px;}
</style>
<g id="Слой_2_1_">
	<circle class="st0" cx="131.8" cy="69.5" r="36.9"/>
	<circle class="st1" cx="92.6" cy="82.3" r="30.9"/>
</g>
<g id="Слой_1_1_">
	<g class="st2">
		<g class="st3">
			<path class="st4" d="M23.2,54.2l-3.8,0.1l0.1-0.1c0.2,4.9,0.3,9.9,0.4,14.8l0.3,14.8l0.2,14.8l0.2,14.8l-1.1-1.1l15.3-0.1
				c5.1-0.1,10.2-0.1,15.3-0.1h-0.1c0.3,0,0.4,0,0.6,0c0.2,0,0.3,0,0.5,0.1c0.3,0.1,0.6,0.1,0.9,0.2c0.6,0.2,1.2,0.4,1.8,0.8
				c0.6,0.4,1.1,0.8,1.4,1.4c0.4,0.5,0.7,1.2,0.9,1.7l-0.1-0.1c0,0,0.1,0.1,0.2,0.1c0.1,0.1,0.3,0.2,0.5,0.3
				c0.4,0.2,0.8,0.3,1.3,0.4c0.9,0.2,1.9,0.3,2.9,0.3c1,0.1,2,0,3-0.2c0.5-0.1,1-0.2,1.4-0.3s0.9-0.3,1.1-0.4
				c-0.1,0.1,0.2-0.2,0.3-0.4c0.2-0.2,0.3-0.4,0.4-0.6c0.3-0.4,0.6-0.8,0.9-1.4c0.3-0.5,0.7-1,1.2-1.5c0.3-0.3,0.6-0.5,1.1-0.7
				c0.2-0.1,0.5-0.1,0.8-0.2h0.4l6.4-0.2c8.5-0.3,16.9-0.4,25.4-0.6l-1,1.1l-0.1-14.5V83.1l0.1-14.5c0.1-4.8,0.1-9.7,0.2-14.5
				l0.1,0.1l-3.2-0.1l3.2-0.1c0.1,0,0.1,0.1,0.1,0.1l0,0c0.2,4.8,0.4,9.7,0.6,14.5l0.5,14.5l0.4,14.5l0.4,14.5c0,0.6-0.5,1.1-1,1.1
				l0,0c-8.5,0.3-16.9,0.7-25.4,0.9l-6.4,0.2h-0.4c0,0,0,0-0.1,0c0,0-0.1,0.1-0.2,0.2c-0.3,0.2-0.5,0.6-0.8,1
				c-0.3,0.4-0.6,0.9-0.9,1.4c-0.2,0.3-0.4,0.5-0.5,0.7c-0.1,0.1-0.2,0.3-0.3,0.4c-0.1,0.1-0.3,0.3-0.5,0.5
				c-0.7,0.5-1.3,0.6-1.9,0.8c-0.6,0.2-1.2,0.3-1.7,0.3c-1.1,0.2-2.2,0.2-3.3,0.2c-1.1-0.1-2.2-0.2-3.4-0.4
				c-0.6-0.1-1.2-0.3-1.8-0.6c-0.3-0.2-0.6-0.3-0.9-0.6c-0.3-0.3-0.7-0.6-0.9-1.1l-0.1-0.1c-0.2-0.4-0.3-0.7-0.6-1
				c-0.2-0.3-0.5-0.6-0.8-0.8s-0.7-0.4-1-0.5c-0.2-0.1-0.4-0.1-0.6-0.1c-0.1,0-0.2,0-0.3,0s-0.2,0-0.3,0H50c-5.1,0-10.2,0-15.3-0.1
				l-15.3-0.1l0,0c-0.6,0-1.1-0.5-1.1-1.1l0,0l0.2-14.8l0.2-14.8L18.9,69c0.1-4.9,0.2-9.9,0.4-14.8l0,0c0-0.1,0.1-0.1,0.1-0.1
				L23.2,54.2z"/>
		</g>
		<g class="st3">
			<path class="st4" d="M61.1,108.2c-0.1-4.4-0.1-8.8-0.2-13.1c-0.1-4.3-0.2-8.6-0.4-12.8c-0.1-4.2-0.3-8.4-0.4-12.5L60,57.3v0.2
				c0-0.1-0.1-0.3-0.1-0.4c-0.1-0.2-0.1-0.3-0.2-0.5c-0.1-0.3-0.3-0.6-0.4-0.9c-0.3-0.6-0.7-1.1-1.2-1.5c-0.5-0.5-1-0.8-1.6-1.2
				c-0.3-0.1-0.6-0.3-0.9-0.4c-0.3-0.1-0.6-0.2-1-0.3l-1-0.2l-1-0.1c-0.7-0.1-1.5-0.1-2.2-0.1H46c-6,0-11.9,0.1-17.9,0.2l1.3-1.3
				l-0.1,12.9c0,4.3,0,8.6-0.1,12.9l-0.1,12.9L29,102.5l-0.9-0.9l8.8,0.3c2.9,0.1,5.9,0.2,8.8,0.3l8.8,0.3h0.6c0.1,0,0.2,0,0.3,0
				c0.1,0,0.2,0.1,0.3,0.1c0.4,0.1,0.8,0.3,1.1,0.4c0.7,0.4,1.3,0.8,1.9,1.4C59.8,105.4,60.5,106.8,61.1,108.2z M61.1,108.2
				c-0.7-1.4-1.5-2.7-2.6-3.6c-0.6-0.5-1.2-0.9-1.8-1.2c-0.3-0.2-0.7-0.3-1-0.3c-0.1,0-0.2-0.1-0.3-0.1c-0.1,0-0.2,0-0.3,0h-0.6
				l-8.8,0.2c-2.9,0.1-5.9,0.1-8.8,0.1l-8.8,0.1c-0.5,0-0.9-0.4-0.9-0.9l0,0l-0.2-12.9L27,76.7C27,72.4,27,68.1,27,63.8l-0.1-12.9
				c0-0.7,0.6-1.3,1.3-1.3c6-0.1,11.9-0.2,17.9-0.1c1.5,0,3,0.1,4.5,0.1c0.8,0,1.5,0.1,2.3,0.1l1.2,0.1c0.4,0.1,0.8,0.2,1.2,0.3
				s0.8,0.3,1.2,0.4c0.4,0.2,0.8,0.4,1.2,0.5c0.8,0.4,1.5,0.9,2.1,1.5c0.6,0.6,1.2,1.3,1.6,2.1c0.2,0.4,0.4,0.8,0.6,1.2
				c0.1,0.2,0.2,0.4,0.2,0.6c0.1,0.2,0.1,0.4,0.2,0.7c0,0.1,0,0.1,0,0.2l-0.2,13c-0.1,4.4-0.2,8.7-0.4,12.9
				c-0.1,4.3-0.3,8.4-0.4,12.6C61.2,100,61.1,104.1,61.1,108.2z"/>
		</g>
		<g class="st3">
			<path class="st4" d="M61.1,108.2c-0.1-4.1-0.1-8.2-0.2-12.4c-0.1-4.2-0.2-8.4-0.4-12.6c-0.1-4.3-0.3-8.6-0.4-12.9l-0.2-13
				c0-0.1,0-0.1,0-0.2c0.1-0.3,0.1-0.5,0.2-0.7c0.1-0.2,0.2-0.4,0.2-0.6c0.2-0.4,0.4-0.8,0.6-1.2c0.4-0.8,1-1.5,1.6-2.1
				c0.6-0.6,1.3-1.1,2.1-1.5c0.4-0.2,0.8-0.4,1.2-0.5c0.4-0.1,0.8-0.3,1.2-0.4c0.4-0.1,0.8-0.2,1.2-0.3l1.2-0.1
				c0.8-0.1,1.5-0.1,2.3-0.1c1.5-0.1,3-0.1,4.5-0.1c6-0.1,11.9,0,17.9,0.1c0.7,0,1.3,0.6,1.3,1.3l-0.1,12.9c0,4.3,0,8.6-0.1,12.9
				L95,89.5l-0.2,12.9v0.1c0,0.5-0.4,0.9-0.9,0.9l-8.8-0.1c-2.9-0.1-5.9-0.1-8.8-0.1l-8.8-0.2H67c-0.1,0-0.2,0-0.3,0
				c-0.1,0-0.2,0-0.3,0.1c-0.4,0.1-0.7,0.2-1,0.3c-0.7,0.3-1.3,0.7-1.8,1.2C62.5,105.6,61.7,106.8,61.1,108.2z M61.1,108.2
				c0.6-1.4,1.3-2.8,2.4-3.9c0.6-0.5,1.2-1,1.9-1.4c0.4-0.2,0.7-0.3,1.1-0.4c0.1,0,0.2-0.1,0.3-0.1c0.2,0,0.2,0,0.3,0h0.6l8.8-0.3
				c2.9-0.1,5.9-0.2,8.8-0.3l8.8-0.3l-0.9,0.9L93,89.7l-0.1-12.9c-0.1-4.3-0.1-8.6-0.1-12.9L92.8,51l1.3,1.3
				c-6-0.1-11.9-0.2-17.9-0.2h-4.4c-0.8,0-1.5,0-2.2,0.1l-1,0.1l-1,0.2c-0.3,0.1-0.7,0.2-1,0.3c-0.3,0.1-0.6,0.3-0.9,0.4
				c-0.6,0.3-1.1,0.7-1.6,1.2c-0.5,0.4-0.9,0.9-1.2,1.5c-0.2,0.3-0.3,0.6-0.4,0.9c-0.1,0.2-0.1,0.3-0.2,0.5
				c-0.1,0.2-0.1,0.3-0.1,0.4v-0.2L62,69.8c-0.1,4.1-0.2,8.3-0.4,12.5c-0.1,4.2-0.3,8.5-0.4,12.8C61.2,99.5,61.1,103.8,61.1,108.2z"
				/>
		</g>
		<g class="st3">
			<path class="st4" d="M36.4,65.1c1.2-0.5,2.4-0.8,3.7-1c1.2-0.2,2.4-0.3,3.7-0.3c1.2,0,2.4,0.1,3.7,0.3c1.2,0.2,2.4,0.5,3.7,1
				c-1.2,0.5-2.4,0.8-3.7,1c-1.2,0.2-2.4,0.3-3.7,0.3c-1.2,0-2.4-0.1-3.7-0.3C38.9,66,37.7,65.7,36.4,65.1z"/>
		</g>
		<g class="st3">
			<path class="st4" d="M36.4,76.2c1.2-0.5,2.4-0.8,3.7-1c1.2-0.2,2.4-0.3,3.7-0.3c1.2,0,2.4,0.1,3.7,0.3c1.2,0.2,2.4,0.5,3.7,1
				c-1.2,0.5-2.4,0.8-3.7,1c-1.2,0.2-2.4,0.3-3.7,0.3c-1.2,0-2.4-0.1-3.7-0.3C38.9,77,37.7,76.8,36.4,76.2z"/>
		</g>
		<g class="st3">
			<path class="st4" d="M36.4,85.8c0.7-0.5,1.4-0.8,2-1s1.4-0.3,2-0.3s1.4,0.1,2,0.3c0.7,0.2,1.4,0.5,2,1c-0.7,0.5-1.4,0.8-2,1
				c-0.7,0.2-1.4,0.3-2,0.3s-1.4-0.1-2-0.3C37.8,86.6,37.2,86.4,36.4,85.8z"/>
		</g>
		<g class="st3">
			<path class="st4" d="M72,65.1c1.2-0.5,2.4-0.8,3.7-1c1.2-0.2,2.4-0.3,3.7-0.3c1.2,0,2.4,0.1,3.7,0.3c1.2,0.2,2.4,0.5,3.7,1
				c-1.2,0.5-2.4,0.8-3.7,1c-1.2,0.2-2.4,0.3-3.7,0.3c-1.2,0-2.4-0.1-3.7-0.3C74.4,66,73.2,65.7,72,65.1z"/>
		</g>
		<g class="st3">
			<path class="st4" d="M71,76.2c0.7-0.5,1.4-0.8,2.1-1c0.7-0.2,1.4-0.3,2.1-0.3s1.4,0.1,2.1,0.3c0.7,0.2,1.4,0.5,2.1,1
				c-0.7,0.5-1.4,0.8-2.1,1s-1.4,0.3-2.1,0.3c-0.7,0-1.4-0.1-2.1-0.3C72.4,77,71.7,76.8,71,76.2z"/>
		</g>
	</g>
	<g>
		<g>
			<g>
				<path class="st4" d="M46.9,101.2c-3.8,0.5-7.7,0.2-11.5-0.7c-1.9-0.5-3.7-1.1-5.5-2c-1.8-0.8-3.4-1.9-5-3.2
					c-1.6-1.3-2.9-2.7-4.1-4.4s-2.2-3.4-3.1-5.2c-1.7-3.7-2.6-7.8-3-11.8l0,0c0-0.1,0-0.1,0-0.1l0.1-2.9c0.1-0.9,0.3-1.9,0.4-2.9
					c0.2-0.9,0.5-1.9,0.7-2.8l1-2.7c1.5-3.6,3.6-6.9,6.3-9.5c2.7-2.7,5.9-4.8,9.4-6.2c3.5-1.4,7.3-1.9,10.9-1.8
					c3.7,0.2,7.4,1.2,10.7,2.8c3.3,1.7,6.4,4,8.7,7c1.2,1.5,2.2,3.1,3,4.8c0.8,1.7,1.4,3.5,1.9,5.3c0.5,1.8,0.7,3.7,0.9,5.6
					c0.1,1.9,0.1,3.7-0.1,5.6c0-1.8-0.2-3.7-0.4-5.5c-0.3-1.8-0.7-3.6-1.2-5.4c-1.1-3.5-2.8-6.7-5.1-9.3c-2.3-2.6-5.2-4.7-8.4-6.2
					c-1.6-0.7-3.2-1.3-4.9-1.6c-1.7-0.4-3.4-0.6-5.1-0.6c-0.9-0.1-1.7,0.1-2.6,0.1c-0.9,0-1.7,0.2-2.5,0.3c-0.9,0.1-1.7,0.4-2.5,0.6
					c-0.9,0.2-1.6,0.5-2.4,0.8c-3.2,1.3-6.1,3.3-8.5,5.7s-4.4,5.4-5.8,8.7L18.2,66l-0.7,2.6l-0.4,2.6L17,73.8v-0.1
					c0.3,3.8,1.2,7.6,2.6,11.2c1.4,3.5,3.6,6.7,6.4,9.2c2.8,2.5,6.2,4.4,9.7,5.5C39.3,100.7,43.1,101.3,46.9,101.2z"/>
			</g>
			<g>
				<path class="st4" d="M17.1,71.9c1.5-1.9,3.2-3.5,5.1-4.9c1.9-1.5,3.9-2.7,6-3.8c4.2-2.2,8.9-3.4,13.7-3.7c0.6,0,1.2-0.1,1.8-0.1
					l1.8,0.1c1.2,0.1,2.4,0.2,3.5,0.4c1.2,0.2,2.3,0.5,3.5,0.8c0.6,0.2,1.1,0.4,1.7,0.5c0.6,0.2,1.1,0.4,1.7,0.6
					c4.4,1.8,8.4,4.4,11.9,7.6c-4-2.3-8.2-4.3-12.5-5.6c-0.6-0.2-1.1-0.3-1.6-0.5c-0.6-0.2-1.1-0.3-1.6-0.4
					c-1.1-0.2-2.2-0.5-3.3-0.6c-2.2-0.3-4.4-0.4-6.7-0.3c-2.2,0.1-4.4,0.4-6.6,0.9s-4.3,1.2-6.4,2c-2.1,0.8-4.1,1.8-6.1,3
					C20.8,69.2,18.9,70.5,17.1,71.9z"/>
			</g>
			<g>
				<path class="st4" d="M32.6,52.8c-1.4,4-2.2,8.2-2.6,12.3c-0.3,4.1-0.1,8.2,1.1,12.1c0.6,1.9,1.4,3.7,2.5,5.5
					c1,1.7,2.3,3.3,3.6,4.8c2.8,2.9,6.2,5.2,9.7,7.4c-4-1.1-7.8-3.1-11.1-5.9c-1.6-1.4-3.1-3-4.3-4.9s-2.2-3.9-2.9-6
					c-1.3-4.3-1.4-8.9-0.7-13.2C28.8,60.5,30.3,56.4,32.6,52.8z"/>
			</g>
			<g>
				<path class="st4" d="M43.9,50.2"/>
			</g>
			<g>
				<path class="st4" d="M43.6,51.3c1.1,0.3,2,0.8,2.9,1.4c0.9,0.6,1.8,1.3,2.5,2.2c1.6,1.6,2.8,3.6,3.6,5.8
					c0.8,2.2,1.1,4.5,0.9,6.8c-0.2,2.3-0.8,4.5-1.9,6.4c0.1-2.2,0.1-4.4-0.1-6.4s-0.6-4-1.3-5.9c-0.7-1.9-1.6-3.7-2.7-5.4
					C46.4,54.5,45.1,52.8,43.6,51.3z"/>
			</g>
			<g>
				<path class="st4" d="M34.7,94.8c0.2-0.8,0.5-1.3,0.8-1.8c0.4-0.5,0.8-0.9,1.2-1.2c0.5-0.3,1-0.6,1.5-0.7
					c0.6-0.2,1.2-0.2,1.9-0.1c-0.2,0.8-0.5,1.3-0.8,1.8c-0.4,0.5-0.8,0.9-1.2,1.2c-0.5,0.3-1,0.6-1.5,0.7
					C36,94.8,35.4,94.9,34.7,94.8z"/>
			</g>
			<g>
				<path class="st4" d="M23.4,75c0,1.7-0.6,3.5-1.7,4.8c-1.1,1.4-2.8,2.3-4.6,2.5c-0.9,0.1-1.9,0-2.8-0.3c-0.9-0.3-1.8-0.8-2.5-1.5
					C10.4,79.1,9.5,77,9.5,75c0-2.1,0.9-4.1,2.4-5.5c0.7-0.7,1.6-1.2,2.5-1.5c0.9-0.3,1.9-0.4,2.8-0.3c1.8,0.2,3.5,1.1,4.6,2.5
					C22.8,71.5,23.4,73.2,23.4,75z M23.4,75c0-1.7-0.8-3.5-2-4.6c-0.6-0.6-1.3-0.9-2.1-1.2s-1.5-0.3-2.3-0.2c-1.5,0.2-2.8,1-3.7,2.1
					C12.4,72.2,12,73.6,12,75c0,1.4,0.5,2.8,1.4,3.9c0.9,1.1,2.2,1.9,3.7,2.1c0.8,0.1,1.5,0,2.3-0.2c0.8-0.3,1.5-0.6,2.1-1.2
					C22.7,78.4,23.4,76.7,23.4,75z"/>
			</g>
			<g>
				<path class="st4" d="M44,48.8c0,1.7-0.6,3.5-1.7,4.8c-1.1,1.4-2.8,2.3-4.6,2.5c-0.9,0.1-1.9,0-2.8-0.3c-0.9-0.3-1.8-0.8-2.5-1.5
					c-1.5-1.3-2.4-3.4-2.4-5.5c0-2.1,0.9-4.1,2.4-5.5c0.7-0.7,1.6-1.2,2.5-1.5c0.9-0.3,1.9-0.4,2.8-0.3c1.8,0.2,3.5,1.1,4.6,2.5
					C43.4,45.4,44,47.1,44,48.8z M44,48.8c0-1.7-0.8-3.5-2-4.6c-0.6-0.5-1.4-0.9-2.1-1.2c-0.8-0.3-1.5-0.3-2.3-0.2
					c-1.5,0.2-2.8,1-3.7,2.1c-0.9,1.1-1.4,2.5-1.4,3.9c0,1.4,0.5,2.8,1.4,3.9c0.9,1.1,2.2,1.9,3.7,2.1c0.8,0.1,1.5,0,2.3-0.2
					c0.8-0.3,1.5-0.6,2.1-1.2C43.3,52.3,44,50.6,44,48.8z"/>
			</g>
			<g>
				<path class="st4" d="M58,62.1c0,1.7-0.6,3.5-1.7,4.8c-1.1,1.4-2.8,2.3-4.6,2.5c-0.9,0.1-1.9,0-2.8-0.3c-0.9-0.3-1.8-0.8-2.5-1.5
					c-1.5-1.3-2.4-3.4-2.4-5.5c0-2.1,0.9-4.1,2.4-5.5c0.7-0.7,1.6-1.2,2.5-1.5c0.9-0.3,1.9-0.4,2.8-0.3c1.8,0.2,3.5,1.1,4.6,2.5
					C57.4,58.6,58,60.3,58,62.1z M58,62.1c0-1.7-0.8-3.5-2-4.6c-0.6-0.6-1.3-0.9-2.1-1.2c-0.8-0.3-1.5-0.3-2.3-0.2
					c-1.5,0.2-2.8,1-3.7,2.1c-0.9,1.1-1.4,2.5-1.4,3.9c0,1.4,0.5,2.8,1.4,3.9c0.9,1.1,2.2,1.9,3.7,2.1c0.8,0.1,1.5,0,2.3-0.2
					c0.8-0.3,1.5-0.6,2.1-1.2C57.2,65.5,58,63.8,58,62.1z"/>
			</g>
			<g>
				<path class="st4" d="M35.1,96.6c0.2,1.7-0.3,3.5-1.3,4.9c-1,1.4-2.6,2.5-4.4,2.9c-0.9,0.2-1.9,0.2-2.8-0.1
					c-0.9-0.2-1.8-0.6-2.6-1.3c-1.6-1.2-2.6-3.1-2.8-5.2c-0.2-2,0.6-4.2,1.9-5.7c0.7-0.7,1.5-1.3,2.4-1.7c0.9-0.4,1.8-0.6,2.7-0.6
					c1.8,0,3.6,0.8,4.8,2C34.2,93.2,35,94.9,35.1,96.6z M35.1,96.6c-0.2-1.7-1.1-3.4-2.4-4.4c-0.7-0.5-1.4-0.8-2.2-1s-1.6-0.2-2.3,0
					c-1.5,0.3-2.7,1.2-3.5,2.4c-0.8,1.2-1.2,2.6-1.1,4c0.1,1.4,0.7,2.7,1.7,3.7c1,1,2.4,1.7,3.9,1.7c0.8,0,1.5-0.1,2.3-0.4
					c0.7-0.3,1.4-0.8,2-1.4C34.7,100.1,35.3,98.3,35.1,96.6z"/>
			</g>
		</g>
		<g>
			<path class="st4" d="M57.7,88.7c-0.4,1-0.9,2-1.3,3.1s-0.9,2-1.4,3c-0.5,1-1,2-1.4,3c-0.5,1-1,2-1.5,3l0.1-0.8c1,2.6,2.3,5,4,7.1
				c1.7,2.1,3.7,3.8,6.1,5.1s4.8,2,7.5,2.3c2.6,0.2,5.3-0.1,7.9-0.8l-0.5,0.4l1.9-2.5c0.6-0.8,1.3-1.6,1.9-2.5
				c1.3-1.6,2.5-3.3,3.9-4.8c-1,1.8-2,3.7-3,5.5c-0.5,0.9-1,1.8-1.6,2.7l-1.6,2.7c-0.1,0.2-0.3,0.3-0.4,0.3h-0.1l-2.1,0.7
				c-0.7,0.2-1.4,0.3-2.1,0.5c-0.7,0.1-1.5,0.2-2.2,0.3c-0.8,0.1-1.5,0.1-2.2,0.1c-2.9-0.1-5.9-0.9-8.5-2.4
				c-2.6-1.4-4.9-3.5-6.7-5.9c-1.8-2.4-3.1-5.2-3.9-8.1v-0.1c-0.1-0.3,0-0.5,0.1-0.7c0.6-0.9,1.2-1.9,1.7-2.8
				c0.6-0.9,1.2-1.9,1.8-2.8c0.6-0.9,1.2-1.9,1.8-2.8C56.4,90.5,57.1,89.6,57.7,88.7z"/>
		</g>
		<g>
			<path class="st4" d="M50.6,79.4c1.6,1.9,3.2,3.9,4.7,5.7l4.6,5.5l4.5,5.4c1.5,1.8,2.9,3.6,4.4,5.4l-0.7-0.4
				c2.4,0.2,4.8,0.3,7.2,0.4l7.2,0.5c2.4,0.2,4.8,0.4,7.2,0.5l7.2,0.5l-1.1,2l-8.1-11.8c-2.6-3.9-5.3-7.9-7.9-11.9l0.8,0.4l-7.3-0.5
				L66,80.6L58.4,80l-3.9-0.3L50.6,79.4z M50.6,79.4l3.6,0.1l3.7,0.1l7.5,0.1l7.7,0.1l7.8,0.2c0.3,0,0.6,0.2,0.8,0.4l0.1,0.1
				c2.8,3.8,5.5,7.8,8.3,11.6l8.1,11.7c0.4,0.6,0.3,1.4-0.3,1.8c-0.3,0.2-0.6,0.3-0.9,0.3l-7.2-0.6c-2.4-0.2-4.8-0.4-7.2-0.6
				l-7.2-0.7c-2.4-0.2-4.8-0.5-7.2-0.7h-0.1c-0.3,0-0.5-0.2-0.7-0.4c-1.5-2-2.9-3.9-4.4-5.9L58.7,91l-4.1-5.8
				C53.3,83.2,51.9,81.3,50.6,79.4z"/>
		</g>
		<g>
			<path class="st4" d="M80.2,91.9c1,0.8,1.8,1.7,2.7,2.6c0.9,0.9,1.7,1.8,2.5,2.7s1.6,1.9,2.4,2.8c0.8,0.9,1.6,1.9,2.3,2.9
				c0.2,0.2,0.3,0.5,0.3,0.8v0.1c0,1.6,0,3.2,0,4.8c0,1.6-0.1,3.2-0.2,4.8c-0.1,1.6-0.2,3.2-0.4,4.8c-0.2,1.6-0.4,3.2-0.7,4.8
				c-0.3-1.6-0.5-3.2-0.7-4.8s-0.3-3.2-0.4-4.8c-0.1-1.6-0.2-3.2-0.2-4.8c-0.1-1.6-0.1-3.2,0-4.8l0.3,0.8c-0.8-1-1.5-2-2.2-3
				c-0.7-1-1.4-2-2.1-3.1s-1.4-2.1-2-3.2C81.4,94.1,80.8,93.1,80.2,91.9z"/>
		</g>
	</g>
	<g class="st2">
		<path class="st5" d="M76.6,91.1c4.1,17.6-11.3,31-25.1,31s-25.1-11.7-25.1-26.1s11.2-24.3,17.9-26.1"/>
		<line class="st5" x1="28.8" y1="86.8" x2="54.7" y2="86.8"/>
		<line class="st5" x1="27.4" y1="103.6" x2="76.2" y2="103.6"/>
		<line class="st5" x1="51.8" y1="82" x2="51.4" y2="122.1"/>
		<path class="st5" d="M43.9,75.5c0,0-18.6,21.8,4.4,45.1"/>
		<path class="st5" d="M66.1,88.6c0,0,2.1,22.4-11.9,32"/>
		<path class="st5" d="M56.8,54.3L50,66.9c4.1,13.3,16.5,19.5,28.5,15.3l7.4-11"/>
		<polygon class="st5" points="49.2,44.4 68,68.7 98.9,71.1 81.6,45.9 		"/>
		<polyline class="st5" points="81,57.7 90.6,70.5 90.6,91.2 		"/>
	</g>
	<g class="st2">
		<g class="st3">
			<path class="st4" d="M54.2,100.2c0,0-28.3,3.1-31.2-27.6c0-15.4,12-28,26.9-28c12.7,0,27,9.4,26.1,30.2"/>
			<path class="st4" d="M24.1,70.7c0,0,22.2-23.5,51-2.4"/>
			<path class="st4" d="M39.8,51.5c0,0-15.2,29.5,14.5,42.2"/>
			<path class="st4" d="M51.1,48.8"/>
			<path class="st4" d="M50.8,49.9c0,0,12.4,7.1,8.1,22.7"/>
			<line class="st4" x1="41.9" y1="93.7" x2="47.3" y2="89.9"/>
			<ellipse class="st4" cx="24.1" cy="73.8" rx="6.4" ry="6.7"/>
			<ellipse class="st4" cx="44.9" cy="47.5" rx="6.4" ry="6.7"/>
			<ellipse class="st4" cx="59" cy="60.8" rx="6.4" ry="6.7"/>
			<ellipse class="st4" cx="35.9" cy="96.1" rx="6.4" ry="6.7"/>
		</g>
		<path class="st5" d="M65.1,87.6l-6.5,11.8c3.9,12.4,15.5,18.4,26.7,14.4l6.9-10.3"/>
		<polygon class="st5" points="57.9,78.3 75.6,101.1 104.6,103.4 88.3,79.8 		"/>
		<polyline class="st5" points="87.7,90.8 96.8,102.8 96.8,122.3 		"/>
	</g>
	<g class="st2">
		<path class="st5" d="M97.5,115.2H25c-3.2,0-5.7-2.7-5.7-5.9V52.9c0-3.3,2.6-5.9,5.7-5.9h72.5c3.2,0,5.7,2.7,5.7,5.9v56.4
			C103.2,112.6,100.6,115.2,97.5,115.2z"/>
		<line class="st5" x1="51.2" y1="88.8" x2="88.1" y2="88.8"/>
		<line class="st5" x1="51.2" y1="75.1" x2="88.1" y2="75.1"/>
		<line class="st5" x1="51.2" y1="60.9" x2="88.1" y2="60.9"/>
		<g class="st3">
			<line class="st4" x1="31.9" y1="59.4" x2="36.7" y2="63.9"/>
			<line class="st4" x1="42.7" y1="56.7" x2="36.7" y2="63.9"/>
		</g>
		<g class="st3">
			<line class="st4" x1="31.9" y1="72.8" x2="36.7" y2="77.4"/>
			<line class="st4" x1="42.7" y1="70.1" x2="36.7" y2="77.4"/>
		</g>
		<ellipse class="st5" cx="37.3" cy="89.1" rx="4.1" ry="4.3"/>
		<line class="st5" x1="51.2" y1="103.5" x2="88.2" y2="103.5"/>
		<g class="st3">
			<line class="st4" x1="32" y1="101.3" x2="36.8" y2="105.8"/>
			<line class="st4" x1="42.8" y1="98.6" x2="36.8" y2="105.8"/>
		</g>
	</g>
	<g class="st2">
		<path class="st5" d="M28.5,102.1c0,0-4,0.4-4-3.1V49.2c0-2.6,2.1-4.8,4.6-4.8h63.7c2.5,0,4.6,2.2,4.6,4.8V99c0,3.6-4.1,4-4.1,4"/>
		<ellipse class="st5" cx="39.6" cy="98.7" rx="6.8" ry="9.1"/>
		<ellipse class="st5" cx="60.9" cy="94.8" rx="6.8" ry="9.1"/>
		<ellipse class="st5" cx="82.2" cy="98.7" rx="6.8" ry="9.1"/>
		<polygon class="st5" points="53.6,80 53.6,58.4 72,68.8 		"/>
		<path class="st5" d="M23.5,122.7c0,0-0.5-12.8,12-10.8"/>
		<path class="st5" d="M44.7,122.7c0,0-1.7-15.9,12.3-14.3"/>
		<path class="st5" d="M78.2,122.7c0,0,1.7-15.9-12.3-14.3"/>
		<path class="st5" d="M98.8,122.7c0,0,0.5-12.8-12-10.8"/>
	</g>
	<g class="st2">
		<path class="st5" d="M88,118H36.9c-4,0-7.3-3.4-7.3-7.6V57.2c0-4.1,3.3-7.6,7.3-7.6h8.2v12h32.7l-0.3-12H88c4,0,7.3,3.4,7.3,7.6
			v53.2C95.3,114.6,92,118,88,118z"/>
		<path class="st5" d="M54,61.7c0,0,0.8-7.7,7.4-7.7"/>
		<path class="st5" d="M61.4,54.1c6.7,0,7.4,7.7,7.4,7.7"/>
		<path class="st5" d="M44.7,78h-3.4c-0.8,0-1.4-0.7-1.4-1.5V73c0-0.8,0.7-1.5,1.4-1.5h3.4c0.8,0,1.4,0.7,1.4,1.5v3.5
			C46.2,77.4,45.5,78,44.7,78z"/>
		<path class="st5" d="M57.8,78h-3.4c-0.8,0-1.4-0.7-1.4-1.5V73c0-0.8,0.7-1.5,1.4-1.5h3.4c0.8,0,1.4,0.7,1.4,1.5v3.5
			C59.2,77.4,58.6,78,57.8,78z"/>
		<path class="st5" d="M70.9,78h-3.4c-0.8,0-1.4-0.7-1.4-1.5V73c0-0.8,0.7-1.5,1.4-1.5h3.4c0.8,0,1.4,0.7,1.4,1.5v3.5
			C72.3,77.4,71.6,78,70.9,78z"/>
		<path class="st5" d="M83.9,78h-3.4c-0.8,0-1.4-0.7-1.4-1.5V73c0-0.8,0.7-1.5,1.4-1.5h3.4c0.8,0,1.4,0.7,1.4,1.5v3.5
			C85.3,77.4,84.7,78,83.9,78z"/>
		<path class="st5" d="M44.7,88.4h-3.4c-0.8,0-1.4-0.7-1.4-1.5v-3.5c0-0.8,0.7-1.5,1.4-1.5h3.4c0.8,0,1.4,0.7,1.4,1.5V87
			C46.2,87.8,45.5,88.4,44.7,88.4z"/>
		<path class="st5" d="M57.8,88.4h-3.4c-0.8,0-1.4-0.7-1.4-1.5v-3.5c0-0.8,0.7-1.5,1.4-1.5h3.4c0.8,0,1.4,0.7,1.4,1.5V87
			C59.2,87.8,58.5,88.4,57.8,88.4z"/>
		<path class="st5" d="M70.8,88.4h-3.4c-0.8,0-1.4-0.7-1.4-1.5v-3.5c0-0.8,0.7-1.5,1.4-1.5h3.4c0.8,0,1.4,0.7,1.4,1.5V87
			C72.3,87.8,71.6,88.4,70.8,88.4z"/>
		<path class="st5" d="M83.9,88.4h-3.4c-0.8,0-1.4-0.7-1.4-1.5v-3.5c0-0.8,0.7-1.5,1.4-1.5h3.4c0.8,0,1.4,0.7,1.4,1.5V87
			C85.3,87.8,84.7,88.4,83.9,88.4z"/>
		<path class="st5" d="M44.7,98.8h-3.4c-0.8,0-1.4-0.7-1.4-1.5v-3.5c0-0.8,0.7-1.5,1.4-1.5h3.4c0.8,0,1.4,0.7,1.4,1.5v3.5
			C46.2,98.2,45.5,98.8,44.7,98.8z"/>
		<path class="st5" d="M57.8,98.8h-3.4c-0.8,0-1.4-0.7-1.4-1.5v-3.5c0-0.8,0.7-1.5,1.4-1.5h3.4c0.8,0,1.4,0.7,1.4,1.5v3.5
			C59.2,98.2,58.6,98.8,57.8,98.8z"/>
		<path class="st5" d="M70.9,98.8h-3.4c-0.8,0-1.4-0.7-1.4-1.5v-3.5c0-0.8,0.7-1.5,1.4-1.5h3.4c0.8,0,1.4,0.7,1.4,1.5v3.5
			C72.3,98.2,71.6,98.8,70.9,98.8z"/>
		<path class="st5" d="M83.9,98.8h-3.4c-0.8,0-1.4-0.7-1.4-1.5v-3.5c0-0.8,0.7-1.5,1.4-1.5h3.4c0.8,0,1.4,0.7,1.4,1.5v3.5
			C85.3,98.2,84.7,98.8,83.9,98.8z"/>
		<path class="st5" d="M44.7,109.3h-3.4c-0.8,0-1.4-0.7-1.4-1.5v-3.5c0-0.8,0.7-1.5,1.4-1.5h3.4c0.8,0,1.4,0.7,1.4,1.5v3.5
			C46.2,108.6,45.5,109.3,44.7,109.3z"/>
		<path class="st5" d="M57.8,109.3h-3.4c-0.8,0-1.4-0.7-1.4-1.5v-3.5c0-0.8,0.7-1.5,1.4-1.5h3.4c0.8,0,1.4,0.7,1.4,1.5v3.5
			C59.2,108.6,58.6,109.3,57.8,109.3z"/>
		<path class="st5" d="M70.8,109.3h-3.4c-0.8,0-1.4-0.7-1.4-1.5v-3.5c0-0.8,0.7-1.5,1.4-1.5h3.4c0.8,0,1.4,0.7,1.4,1.5v3.5
			C72.3,108.6,71.6,109.3,70.8,109.3z"/>
	</g>
</g>
<path class="st6" d="M176.1,164.2H25.4c-12,0-21.8-9.8-21.8-21.8V47.2c0-12,9.8-21.8,21.8-21.8h150.8c12,0,21.8,9.8,21.8,21.8v95.3
	C197.9,154.5,188.2,164.2,176.1,164.2z"/>
<rect x="92.8" y="133.7" class="st7" width="123.6" height="48.5"/>
<text transform="matrix(1 0 0 1 92.8375 142.8379)"><tspan x="0" y="0" class="st8 st9 st10">научная</tspan><tspan x="0" y="14.4" class="st8 st9 st10">деятельность</tspan></text>
</svg>
