<?xml version="1.0" encoding="utf-8"?>
<!-- Generator: Adobe Illustrator 24.1.2, SVG Export Plug-In . SVG Version: 6.00 Build 0)  -->
<svg version="1.1" id="Слой_1" xmlns="http://www.w3.org/2000/svg" xmlns:xlink="http://www.w3.org/1999/xlink" x="0px" y="0px"
	 viewBox="0 0 200 171.9" style="enable-background:new 0 0 200 171.9;" xml:space="preserve">
<style type="text/css">
	.st0{fill:none;stroke:#CCCCCC;stroke-width:0.5;stroke-miterlimit:10;}
	.st1{opacity:0.5;fill:#66CCFF;enable-background:new    ;}
	.st2{opacity:0.3;fill:#66CCFF;enable-background:new    ;}
	.st3{display:none;}
	.st4{display:inline;}
	.st5{fill:#3399FF;}
	.st6{fill:#999999;}
	
		.st7{display:inline;fill:#3399FF;stroke:#1C3661;stroke-width:5;stroke-linecap:round;stroke-linejoin:round;stroke-miterlimit:10;}
	.st8{fill:none;}
	.st9{fill:#666666;}
	.st10{font-family:'Roboto-Regular';}
	.st11{font-size:12px;}
</style>
<path class="st0" d="M175.4,155.9H24.6c-12,0-21.8-9.8-21.8-21.8V38.9c0-12,9.8-21.8,21.8-21.8h150.8c12,0,21.8,9.8,21.8,21.8v95.3
	C197.2,146.2,187.4,155.9,175.4,155.9z"/>
<g id="Слой_2_1_">
	<circle class="st1" cx="107" cy="56.2" r="33.9"/>
	<circle class="st2" cx="71" cy="68" r="28.4"/>
</g>
<g class="st3">
	<g class="st4">
		<path class="st5" d="M25.4,35.9l-7.5,0.2l0.2-0.2c0.3,9.4,0.5,18.9,0.7,28.3l0.5,28.3l0.4,28.3l0.3,28.3l-2.1-2.1l30.3-0.2
			c10.1-0.1,20.2-0.1,30.3-0.1h-0.2c0.5,0,0.7,0,1.1,0c0.3,0,0.6,0,0.9,0.1c0.6,0.1,1.2,0.2,1.8,0.3c1.2,0.3,2.4,0.8,3.5,1.5
			s2.1,1.6,2.8,2.6c0.8,1,1.3,2.2,1.8,3.3l-0.1-0.2c0,0,0.1,0.1,0.3,0.2c0.2,0.2,0.5,0.3,0.9,0.5c0.7,0.3,1.6,0.6,2.5,0.8
			c1.8,0.4,3.8,0.6,5.8,0.6c2,0.1,4,0,5.9-0.3c1-0.1,1.9-0.3,2.8-0.5s1.8-0.5,2.1-0.8c-0.1,0.1,0.4-0.3,0.6-0.7
			c0.3-0.3,0.6-0.7,0.8-1.1c0.6-0.8,1.1-1.6,1.7-2.6c0.6-0.9,1.3-1.9,2.4-2.9c0.6-0.5,1.2-1,2.2-1.3c0.4-0.2,1-0.2,1.5-0.3h0.8
			l12.6-0.3c16.8-0.5,33.5-0.8,50.3-1.2l-2,2.1l-0.1-27.7V91.1l0.1-27.7c0.1-9.2,0.1-18.5,0.3-27.7l0.2,0.2l-6.3-0.2l6.3-0.2
			c0.1,0,0.2,0.1,0.2,0.2l0,0c0.4,9.2,0.7,18.4,1.1,27.7l0.9,27.7l0.8,27.7l0.7,27.7c0,1.1-0.9,2.1-2,2.1l0,0
			c-16.8,0.6-33.5,1.3-50.3,1.8l-12.6,0.4h-0.8c0,0,0,0-0.1,0c0,0-0.2,0.1-0.4,0.3c-0.5,0.4-1,1.2-1.6,2s-1.1,1.7-1.8,2.7
			c-0.3,0.5-0.7,0.9-1,1.4c-0.2,0.2-0.4,0.5-0.6,0.7c-0.1,0.2-0.6,0.6-1,0.9c-1.4,1-2.6,1.2-3.7,1.6c-1.2,0.3-2.3,0.5-3.4,0.6
			c-2.2,0.3-4.4,0.4-6.6,0.3c-2.2-0.1-4.4-0.3-6.7-0.7c-1.1-0.2-2.3-0.6-3.5-1.1c-0.6-0.3-1.2-0.6-1.8-1.1c-0.6-0.5-1.3-1.1-1.8-2.1
			l-0.1-0.2c-0.3-0.7-0.6-1.4-1.1-2c-0.4-0.6-1-1.1-1.6-1.5s-1.3-0.7-2-0.9c-0.4-0.1-0.8-0.2-1.1-0.2c-0.2,0-0.4,0-0.6,0
			s-0.4,0-0.5,0h-0.2c-10.1,0-20.2,0-30.3-0.1L18,151.2l0,0c-1.2,0-2.1-1-2.1-2.1l0,0l0.3-28.3l0.4-28.3L17,64.2
			c0.2-9.4,0.4-18.9,0.7-28.3l0,0c0-0.1,0.1-0.2,0.2-0.2L25.4,35.9z"/>
	</g>
	<g class="st4">
		<path class="st5" d="M100.5,138.9c-0.1-8.4-0.2-16.7-0.4-25c-0.2-8.2-0.4-16.4-0.7-24.4c-0.2-8-0.5-16-0.7-23.9l-0.4-23.8v0.3
			c0-0.2-0.1-0.5-0.2-0.8s-0.2-0.6-0.3-0.9c-0.2-0.6-0.5-1.2-0.8-1.7c-0.6-1.1-1.4-2.1-2.4-2.9c-0.9-0.9-2-1.5-3.1-2.2
			c-0.6-0.2-1.2-0.5-1.8-0.7c-0.6-0.2-1.2-0.4-1.9-0.5l-2-0.3l-2-0.1c-1.4-0.1-2.9-0.1-4.4-0.1h-8.8c-11.8,0-23.6,0.1-35.4,0.3
			l2.5-2.5l-0.1,24.6c0,8.2,0,16.4-0.1,24.6l-0.2,24.6L37,128.1l-1.7-1.8l17.5,0.5c5.8,0.2,11.7,0.3,17.5,0.5l17.5,0.6h1.1
			c0.2,0,0.3,0,0.6,0c0.2,0,0.4,0.1,0.6,0.1c0.8,0.2,1.5,0.5,2.1,0.8c1.4,0.7,2.6,1.5,3.7,2.6C98,133.6,99.4,136.2,100.5,138.9z
			 M100.5,138.9c-1.3-2.6-2.9-5.1-5.1-6.9c-1.1-0.9-2.3-1.7-3.6-2.2c-0.6-0.3-1.3-0.5-2-0.6c-0.2,0-0.3-0.1-0.5-0.1
			c-0.1,0-0.3,0-0.5,0h-1.1l-17.5,0.3c-5.8,0.1-11.6,0.2-17.5,0.2l-17.5,0.2c-1,0-1.7-0.8-1.7-1.7l0,0l-0.3-24.6L33,78.9
			c-0.1-8.2-0.1-16.4-0.1-24.6l-0.1-24.6c0-1.4,1.1-2.5,2.5-2.5C47.1,27,58.9,26.9,70.7,27c3,0,5.9,0.1,8.9,0.2
			c1.5,0,2.9,0.1,4.5,0.2l2.4,0.2c0.8,0.1,1.6,0.3,2.4,0.5s1.6,0.5,2.4,0.7c0.8,0.3,1.5,0.7,2.3,1c1.5,0.8,2.9,1.7,4.1,2.9
			s2.3,2.5,3.1,4c0.4,0.7,0.8,1.5,1.1,2.3c0.2,0.4,0.3,0.8,0.4,1.2s0.2,0.8,0.3,1.4c0,0.1,0,0.2,0,0.3l-0.4,24.8
			c-0.2,8.3-0.4,16.5-0.7,24.6c-0.2,8.1-0.5,16.1-0.7,24.1C100.7,123.3,100.6,131.1,100.5,138.9z"/>
	</g>
	<g class="st4">
		<path class="st5" d="M100.5,138.9c-0.1-7.8-0.2-15.7-0.4-23.6c-0.2-8-0.4-16-0.7-24.1c-0.2-8.1-0.5-16.3-0.7-24.6l-0.4-24.8
			c0-0.1,0-0.2,0-0.3c0.1-0.6,0.2-0.9,0.3-1.4c0.1-0.4,0.3-0.8,0.4-1.2c0.3-0.8,0.7-1.6,1.1-2.3c0.8-1.5,1.9-2.8,3.1-4
			s2.6-2.1,4.1-2.9c0.8-0.3,1.5-0.7,2.3-1c0.8-0.2,1.6-0.5,2.4-0.7s1.6-0.3,2.4-0.5l2.4-0.2c1.5-0.1,3-0.1,4.5-0.2
			c3-0.1,5.9-0.1,8.9-0.2c11.8-0.1,23.6,0,35.5,0.1c1.4,0,2.5,1.1,2.5,2.5l-0.1,24.6c0,8.2,0,16.4-0.1,24.6l-0.2,24.6l-0.3,24.6v0.1
			c0,1-0.8,1.7-1.7,1.7l-17.5-0.2c-5.8-0.1-11.6-0.1-17.5-0.2l-17.5-0.3h-1.1c-0.2,0-0.4,0-0.5,0c-0.2,0-0.3,0-0.5,0.1
			c-0.7,0.1-1.3,0.3-2,0.6c-1.3,0.5-2.5,1.3-3.6,2.2C103.4,133.9,101.8,136.3,100.5,138.9z M100.5,138.9c1.1-2.7,2.6-5.3,4.7-7.4
			c1.1-1,2.3-1.9,3.7-2.6c0.7-0.3,1.4-0.6,2.1-0.8c0.2,0,0.4-0.1,0.6-0.1c0.3,0,0.4,0,0.6,0h1.1l17.5-0.6c5.8-0.2,11.6-0.4,17.5-0.5
			l17.5-0.5l-1.7,1.8l-0.3-24.6L163.6,79c-0.1-8.2-0.1-16.4-0.1-24.6l-0.1-24.6l2.5,2.5c-11.8-0.2-23.6-0.3-35.4-0.3h-8.8
			c-1.5,0-3,0-4.4,0.1l-2,0.1l-2,0.3c-0.6,0.1-1.3,0.4-1.9,0.5c-0.6,0.2-1.2,0.5-1.8,0.7c-1.1,0.6-2.2,1.3-3.1,2.2
			c-0.9,0.8-1.7,1.8-2.4,2.9c-0.3,0.5-0.6,1.1-0.8,1.7c-0.1,0.3-0.2,0.6-0.3,0.9c-0.1,0.3-0.2,0.6-0.2,0.8v-0.3l-0.4,23.8
			c-0.2,7.9-0.4,15.9-0.7,23.9c-0.2,8-0.5,16.2-0.7,24.4C100.7,122.2,100.6,130.5,100.5,138.9z"/>
	</g>
	<g class="st4">
		<path class="st5" d="M51.7,56.8c2.4-1,4.8-1.6,7.3-2c2.4-0.4,4.8-0.5,7.3-0.5c2.4,0,4.8,0.2,7.3,0.5c2.4,0.4,4.8,0.9,7.3,2
			c-2.4,1-4.8,1.6-7.3,2c-2.4,0.4-4.8,0.5-7.3,0.5c-2.4,0-4.8-0.2-7.3-0.5C56.6,58.4,54.1,57.9,51.7,56.8z"/>
	</g>
	<g class="st4">
		<path class="st5" d="M51.7,77.9c2.4-1,4.8-1.6,7.3-2c2.4-0.4,4.8-0.5,7.3-0.5c2.4,0,4.8,0.2,7.3,0.5c2.4,0.4,4.8,0.9,7.3,2
			c-2.4,1-4.8,1.6-7.3,2c-2.4,0.4-4.8,0.5-7.3,0.5c-2.4,0-4.8-0.2-7.3-0.5C56.6,79.5,54.1,79,51.7,77.9z"/>
	</g>
	<g class="st4">
		<path class="st5" d="M51.7,96.2c1.3-1,2.7-1.6,4-2s2.7-0.5,4-0.5s2.7,0.2,4,0.5c1.3,0.4,2.7,0.9,4,2c-1.3,1-2.7,1.6-4,2
			c-1.3,0.4-2.7,0.5-4,0.5s-2.7-0.2-4-0.5C54.4,97.8,53.1,97.3,51.7,96.2z"/>
	</g>
	<g class="st4">
		<path class="st5" d="M122.1,56.8c2.4-1,4.8-1.6,7.3-2c2.4-0.4,4.8-0.5,7.3-0.5c2.4,0,4.8,0.2,7.3,0.5c2.4,0.4,4.8,0.9,7.3,2
			c-2.4,1-4.8,1.6-7.3,2c-2.4,0.4-4.8,0.5-7.3,0.5c-2.4,0-4.8-0.2-7.3-0.5C126.9,58.4,124.5,57.9,122.1,56.8z"/>
	</g>
	<g class="st4">
		<path class="st5" d="M120.2,77.9c1.4-1,2.7-1.6,4.1-2s2.7-0.5,4.1-0.5c1.4,0,2.7,0.2,4.1,0.5c1.4,0.4,2.7,0.9,4.1,2
			c-1.4,1-2.7,1.6-4.1,2c-1.4,0.4-2.7,0.5-4.1,0.5c-1.4,0-2.7-0.2-4.1-0.5C123,79.5,121.6,79,120.2,77.9z"/>
	</g>
</g>
<g class="st3">
	<g class="st4">
		<g>
			<path class="st5" d="M86.8,118.7c-7.5,0.9-15.2,0.4-22.7-1.4c-3.7-0.9-7.4-2.1-10.9-3.8c-3.5-1.6-6.8-3.7-9.9-6.1
				c-3.1-2.4-5.8-5.2-8.2-8.3c-2.4-3.1-4.4-6.5-6.1-10c-3.3-7.1-5.1-14.8-6-22.4l0,0c0-0.1,0-0.1,0-0.2l0.2-5.5
				c0.2-1.8,0.5-3.7,0.8-5.5c0.4-1.8,0.9-3.6,1.4-5.4l1.9-5.2c2.9-6.8,7.1-13.1,12.5-18.2c5.3-5.1,11.7-9.2,18.6-11.8
				c6.9-2.7,14.4-3.7,21.7-3.5c7.4,0.3,14.6,2.2,21.2,5.3c6.6,3.2,12.6,7.7,17.2,13.4c2.3,2.8,4.3,5.9,5.9,9.1
				c1.6,3.3,2.8,6.7,3.7,10.1c0.9,3.5,1.4,7,1.7,10.6c0.2,3.6,0.1,7.1-0.2,10.6c0-3.5-0.3-7.1-0.7-10.5c-0.5-3.5-1.3-6.9-2.4-10.2
				c-2.1-6.6-5.6-12.8-10.2-17.8S106,23,99.7,20.2c-3.1-1.4-6.4-2.4-9.7-3.1c-3.3-0.8-6.7-1.2-10.1-1.2c-1.7-0.1-3.4,0.1-5.1,0.2
				c-1.7,0-3.4,0.4-5,0.6c-1.7,0.2-3.3,0.7-4.9,1.1c-1.7,0.4-3.2,1-4.8,1.6c-6.3,2.4-12.1,6.2-16.9,10.9s-8.8,10.3-11.5,16.5
				L30,51.5l-1.3,4.9l-0.8,5l-0.3,5.1v-0.2c0.6,7.3,2.3,14.5,5.1,21.3c2.8,6.7,7.2,12.7,12.6,17.6c5.5,4.8,12.2,8.3,19.3,10.5
				C71.8,117.7,79.3,118.8,86.8,118.7z"/>
		</g>
		<g>
			<path class="st5" d="M27.7,62.9c2.9-3.6,6.4-6.6,10.1-9.4c3.7-2.8,7.7-5.2,11.9-7.2c8.4-4.1,17.7-6.5,27.1-7
				c1.2,0,2.4-0.1,3.5-0.1l3.5,0.1c2.3,0.2,4.7,0.4,7,0.8c2.3,0.3,4.6,0.9,6.9,1.5c1.1,0.3,2.2,0.7,3.4,1c1.1,0.4,2.2,0.7,3.3,1.2
				c8.7,3.4,16.7,8.3,23.5,14.4c-8-4.4-16.3-8.2-24.8-10.7c-1.1-0.4-2.1-0.6-3.2-0.9c-1.1-0.3-2.1-0.6-3.2-0.8
				c-2.2-0.4-4.3-0.9-6.5-1.1c-4.4-0.6-8.8-0.8-13.2-0.6c-4.4,0.2-8.8,0.8-13.1,1.7s-8.5,2.3-12.7,3.8c-4.1,1.6-8.2,3.5-12.1,5.7
				C35.1,57.7,31.3,60.1,27.7,62.9z"/>
		</g>
		<g>
			<path class="st5" d="M58.5,26.5c-2.7,7.7-4.4,15.6-5.1,23.4c-0.6,7.8-0.1,15.7,2.2,23c1.2,3.6,2.8,7.1,4.9,10.4
				c2,3.3,4.5,6.2,7.2,9.1c5.6,5.5,12.2,10,19.3,14.1c-7.9-2.1-15.4-5.9-21.9-11.2c-3.2-2.7-6.2-5.8-8.6-9.3
				c-2.4-3.5-4.3-7.4-5.7-11.5c-2.6-8.2-2.8-16.9-1.3-25.1S54,33.3,58.5,26.5z"/>
		</g>
		<g>
			<path class="st5" d="M80.8,21.5"/>
		</g>
		<g>
			<path class="st5" d="M80.2,23.5c2.1,0.6,4,1.6,5.8,2.7c1.8,1.2,3.5,2.5,5,4.1c3.1,3.1,5.5,6.8,7.1,11c1.6,4.1,2.2,8.6,1.8,13
				c-0.4,4.3-1.6,8.5-3.7,12.2c0.1-4.2,0.2-8.3-0.2-12.2c-0.4-3.9-1.2-7.7-2.6-11.2c-1.3-3.6-3.2-7-5.4-10.2
				C85.8,29.6,83.2,26.5,80.2,23.5z"/>
		</g>
		<g>
			<path class="st5" d="M62.7,106.4c0.3-1.5,0.9-2.5,1.5-3.4c0.7-0.9,1.5-1.7,2.3-2.3c0.9-0.6,1.9-1.1,2.9-1.4
				c1.1-0.3,2.3-0.4,3.8-0.2c-0.3,1.5-0.9,2.5-1.5,3.4c-0.7,0.9-1.5,1.7-2.3,2.3c-0.9,0.6-1.9,1.1-2.9,1.4
				C65.3,106.5,64.1,106.7,62.7,106.4z"/>
		</g>
		<g>
			<path class="st5" d="M40.2,68.7c0,3.3-1.2,6.6-3.4,9.1c-2.2,2.6-5.5,4.3-9.1,4.7c-1.8,0.2-3.7,0-5.5-0.6s-3.5-1.5-4.9-2.8
				c-2.9-2.5-4.7-6.5-4.7-10.4c0-4,1.7-7.9,4.7-10.4c1.4-1.3,3.2-2.2,4.9-2.8c1.8-0.6,3.7-0.8,5.5-0.6c3.6,0.3,6.9,2.1,9.1,4.7
				C39,62.1,40.3,65.4,40.2,68.7z M40.2,68.7c0-3.3-1.5-6.6-3.9-8.7c-1.2-1.1-2.6-1.8-4.1-2.3s-3-0.6-4.5-0.4c-3,0.3-5.6,1.9-7.4,4
				s-2.7,4.7-2.7,7.4c0,2.6,0.9,5.3,2.7,7.4c1.8,2.1,4.4,3.6,7.4,4c1.5,0.2,3,0,4.5-0.4c1.5-0.5,2.9-1.2,4.1-2.3
				C38.8,75.2,40.3,72,40.2,68.7z"/>
		</g>
		<g>
			<path class="st5" d="M81.1,18.9c0,3.3-1.2,6.6-3.4,9.1c-2.2,2.6-5.5,4.3-9.1,4.7c-1.8,0.2-3.7,0-5.5-0.6
				c-1.8-0.6-3.5-1.5-4.9-2.8c-2.9-2.5-4.7-6.5-4.7-10.4c0-4,1.7-7.9,4.7-10.4c1.4-1.3,3.2-2.2,4.9-2.8c1.8-0.6,3.7-0.8,5.5-0.6
				c3.6,0.3,6.9,2.1,9.1,4.7C79.9,12.3,81.1,15.6,81.1,18.9z M81.1,18.9c0-3.3-1.5-6.6-3.9-8.7c-1.2-1-2.7-1.8-4.1-2.2
				c-1.5-0.5-3-0.6-4.5-0.4c-3,0.3-5.6,1.9-7.4,4c-1.8,2.1-2.7,4.7-2.7,7.4c0,2.6,0.9,5.3,2.7,7.4s4.4,3.6,7.4,4
				c1.5,0.2,3,0,4.5-0.4c1.5-0.5,2.9-1.2,4.1-2.3C79.6,25.5,81.1,22.2,81.1,18.9z"/>
		</g>
		<g>
			<path class="st5" d="M108.8,44.1c0,3.3-1.2,6.6-3.4,9.1c-2.2,2.6-5.5,4.3-9.1,4.7c-1.8,0.2-3.7,0-5.5-0.6s-3.5-1.5-4.9-2.8
				C83,52,81.2,48,81.2,44.1c0-4,1.7-7.9,4.7-10.4c1.4-1.3,3.2-2.2,4.9-2.8c1.8-0.6,3.7-0.8,5.5-0.6c3.6,0.3,6.9,2.1,9.1,4.7
				C107.6,37.5,108.8,40.8,108.8,44.1z M108.8,44.1c0-3.3-1.5-6.6-3.9-8.7c-1.2-1.1-2.6-1.8-4.1-2.3s-3-0.6-4.5-0.4
				c-3,0.3-5.6,1.9-7.4,4s-2.7,4.7-2.7,7.4c0,2.6,0.9,5.3,2.7,7.4c1.8,2.1,4.4,3.6,7.4,4c1.5,0.2,3,0,4.5-0.4
				c1.5-0.5,2.9-1.2,4.1-2.3C107.3,50.6,108.8,47.4,108.8,44.1z"/>
		</g>
		<g>
			<path class="st5" d="M63.5,109.9c0.3,3.3-0.6,6.7-2.6,9.4c-2,2.7-5.1,4.8-8.7,5.5c-1.8,0.3-3.7,0.3-5.5-0.1s-3.6-1.2-5.2-2.4
				c-3.1-2.3-5.2-6-5.6-10c-0.4-3.9,1.1-8,3.7-10.8c1.3-1.4,3-2.5,4.7-3.2s3.6-1.1,5.4-1.1c3.6,0,7.1,1.5,9.5,3.9
				C61.7,103.4,63.2,106.6,63.5,109.9z M63.5,109.9c-0.3-3.3-2.1-6.4-4.7-8.3c-1.3-0.9-2.8-1.6-4.3-1.9s-3.1-0.3-4.5,0
				c-2.9,0.6-5.4,2.3-7,4.6c-1.6,2.2-2.3,4.9-2.1,7.6c0.2,2.6,1.4,5.2,3.3,7.1c1.9,1.9,4.7,3.2,7.7,3.3c1.5,0,3-0.2,4.5-0.8
				c1.4-0.6,2.8-1.5,3.9-2.6C62.6,116.6,63.8,113.2,63.5,109.9z"/>
		</g>
	</g>
	<g class="st4">
		<path class="st5" d="M108.2,94.8c-0.8,2-1.7,3.9-2.6,5.9s-1.8,3.9-2.7,5.8c-0.9,1.9-1.9,3.9-2.8,5.8c-1,1.9-1.9,3.8-2.9,5.7
			l0.1-1.5c1.9,5,4.5,9.6,7.9,13.6c3.3,4,7.4,7.3,12,9.7s9.6,3.9,14.8,4.3c5.2,0.4,10.5-0.1,15.6-1.6l-0.9,0.7l3.7-4.7
			c1.2-1.6,2.5-3.1,3.7-4.7c2.5-3.1,5-6.2,7.7-9.2c-1.9,3.5-3.9,7-5.9,10.4c-1,1.7-2,3.4-3.1,5.1l-3.1,5.1c-0.2,0.3-0.5,0.5-0.8,0.6
			h-0.1l-4.1,1.4c-1.4,0.4-2.8,0.6-4.2,1c-1.4,0.2-2.9,0.3-4.3,0.5c-1.5,0.1-2.9,0.1-4.4,0.1c-5.8-0.2-11.7-1.8-16.9-4.5
			c-5.2-2.7-9.8-6.6-13.3-11.2c-3.6-4.6-6.1-9.9-7.7-15.4v-0.1c-0.1-0.5,0-0.9,0.2-1.3c1.1-1.8,2.3-3.6,3.4-5.4
			c1.2-1.8,2.3-3.6,3.5-5.4s2.4-3.6,3.6-5.4C105.7,98.3,107,96.5,108.2,94.8z"/>
	</g>
	<g class="st4">
		<path class="st5" d="M94.1,77.2c3.1,3.7,6.3,7.4,9.4,10.9l9.2,10.5l9,10.3c3,3.4,5.8,6.8,8.7,10.2l-1.3-0.7
			c4.8,0.3,9.5,0.5,14.3,0.8l14.3,0.9c4.8,0.3,9.5,0.7,14.3,1l14.3,1l-2.2,3.9l-16-22.4c-5.2-7.5-10.5-15-15.7-22.6l1.5,0.8l-14.5-1
			l-14.7-1.3l-15.1-1.3l-7.7-0.6L94.1,77.2z M94.1,77.2l7.1,0.1l7.3,0.1l14.9,0.1l15.2,0.1L154,78c0.6,0,1.1,0.3,1.5,0.8l0.1,0.1
			c5.5,7.3,10.9,14.8,16.4,22.2l16.1,22.3c0.8,1.1,0.6,2.7-0.6,3.5c-0.5,0.4-1.1,0.5-1.7,0.5l-14.3-1.1c-4.8-0.4-9.5-0.7-14.3-1.2
			l-14.3-1.3c-4.8-0.4-9.5-0.9-14.3-1.3h-0.1c-0.5,0-1-0.3-1.3-0.7c-2.9-3.8-5.8-7.5-8.7-11.3l-8.4-11.3l-8.2-11.1
			C99.4,84.3,96.8,80.7,94.1,77.2z"/>
	</g>
	<g class="st4">
		<path class="st5" d="M152.8,101c1.9,1.6,3.6,3.3,5.3,5s3.4,3.4,5,5.2c1.6,1.8,3.2,3.6,4.8,5.4s3.1,3.7,4.6,5.5
			c0.4,0.4,0.5,0.9,0.5,1.5v0.1c0,3.1,0,6.1,0,9.2c0,3.1-0.2,6.1-0.4,9.2c-0.2,3.1-0.4,6.1-0.8,9.2c-0.4,3.1-0.7,6.1-1.3,9.2
			c-0.6-3.1-1-6.1-1.3-9.2c-0.3-3.1-0.6-6.1-0.8-9.2c-0.2-3.1-0.3-6.1-0.4-9.2c-0.1-3.1-0.1-6.1,0-9.2l0.5,1.5
			c-1.5-1.9-2.9-3.8-4.3-5.8c-1.4-2-2.8-3.9-4.1-5.9s-2.7-4-3.9-6.1C155.2,105.2,153.9,103.2,152.8,101z"/>
	</g>
</g>
<g class="st3">
	<g class="st4">
		<path class="st5" d="M132.5,100.7c1.3,4.5,2,9.3,1.8,14.1c-0.1,4.8-1.3,9.6-3,14.1c-1.8,4.5-4.4,8.7-7.5,12.5s-6.8,7-10.8,9.8
			c-8,5.6-17.6,9-27.5,9.5c-0.6,0-1.2,0.1-1.9,0.1l-1.9-0.1c-1.2-0.1-2.5-0.1-3.7-0.2l-3.7-0.5l-0.9-0.1l-0.9-0.2l-1.8-0.5l-1.8-0.5
			c-0.6-0.1-1.2-0.4-1.8-0.6c-1.2-0.4-2.3-0.8-3.5-1.3c-2.2-1.1-4.5-2.1-6.6-3.4l-1.6-1c-0.5-0.3-1-0.7-1.5-1.1c-1-0.8-2-1.5-3-2.3
			l-2.7-2.5l-0.7-0.6l-0.6-0.7l-1.2-1.4l-1.2-1.4c-0.4-0.5-0.7-1-1.1-1.5c-0.7-1-1.5-2-2.2-3l-1.9-3.2c-0.3-0.5-0.6-1.1-0.9-1.6
			l-0.8-1.7l-0.8-1.7c-0.2-0.6-0.4-1.2-0.6-1.7c-0.4-1.2-0.9-2.3-1.2-3.5l-0.9-3.6L34,120l-0.1-0.9l-0.3-1.8
			c-0.4-2.4-0.4-4.9-0.5-7.4c0.1-1.2,0.2-2.5,0.2-3.7c0.1-0.6,0.1-1.2,0.2-1.8l0.3-1.8l0.3-1.8c0.1-0.6,0.2-1.2,0.4-1.8l1-3.5
			c0.4-1.2,0.8-2.3,1.3-3.4c0.4-1.2,0.9-2.2,1.5-3.3c2.1-4.4,4.8-8.5,8-12.1s6.8-6.9,10.7-9.5c4-2.7,8.3-4.9,12.9-5.9
			c-2.2,0.8-4.4,1.8-6.4,3L62,65l-1.4,1c-0.5,0.3-1,0.7-1.4,1l-1.4,1.1c-3.6,2.9-6.9,6.3-9.7,10c-2.8,3.6-5.1,7.7-6.9,11.9
			c-0.4,1.1-0.9,2.1-1.2,3.2s-0.7,2.2-1,3.3l-0.8,3.3c-0.1,0.5-0.2,1.1-0.3,1.7l-0.2,1.7l-0.2,1.7c-0.1,0.6,0,1.1-0.1,1.7
			c0,1.1-0.1,2.3-0.1,3.4c0.2,2.3,0.2,4.5,0.7,6.7l0.3,1.7l0.1,0.8l0.2,0.8l0.9,3.3c0.3,1.1,0.8,2.1,1.2,3.2
			c0.2,0.5,0.4,1.1,0.6,1.6l0.8,1.5l0.7,1.5c0.2,0.5,0.5,1,0.8,1.5l1.8,2.9c0.6,0.9,1.3,1.8,2,2.7c0.3,0.4,0.7,0.9,1,1.3l1.1,1.2
			l1.1,1.2l0.6,0.6l0.6,0.6l2.5,2.3c0.9,0.7,1.8,1.3,2.7,2c0.5,0.3,0.9,0.7,1.4,1l1.4,0.9c1.9,1.3,3.9,2.2,5.9,3.1
			c1,0.4,2.1,0.8,3.1,1.2c0.5,0.2,1,0.4,1.6,0.6l1.6,0.4l1.6,0.4l0.8,0.2c0.3,0.1,0.6,0.1,0.8,0.1l3.3,0.5c1.1,0.2,2.2,0.1,3.4,0.2
			l1.7,0.1c0.6,0,1.1,0,1.7,0c9-0.2,17.9-3.2,25.6-8s14.2-11.7,18.2-20c2-4.1,3.3-8.6,3.9-13.2C133.5,110.1,133.3,105.4,132.5,100.7
			z"/>
	</g>
	<g class="st4">
		<path class="st5" d="M40,92.5c4.2-1,8.4-1.6,12.6-2S61,90,65.2,90s8.4,0.2,12.6,0.5c4.2,0.4,8.4,0.9,12.6,2c-4.2,1-8.4,1.6-12.6,2
			S69.4,95,65.2,95s-8.4-0.2-12.6-0.5C48.3,94.1,44.1,93.6,40,92.5z"/>
	</g>
	<g class="st4">
		<path class="st5" d="M37.3,124.1c7.9-1,15.8-1.6,23.6-2c7.9-0.4,15.8-0.5,23.6-0.5c7.9,0,15.8,0.2,23.6,0.5
			c7.9,0.4,15.8,0.9,23.6,2c-7.9,1-15.8,1.6-23.6,2c-7.9,0.4-15.8,0.5-23.6,0.5c-7.9,0-15.8-0.2-23.6-0.5
			C53.1,125.7,45.2,125.1,37.3,124.1z"/>
	</g>
	<g class="st4">
		<path class="st5" d="M84.5,83.8c1,6.2,1.5,12.4,1.8,18.7c0.3,6.2,0.4,12.4,0.4,18.6c-0.1,6.2-0.3,12.4-0.7,18.6
			c-0.4,6.2-1,12.4-2.1,18.6c-1-6.2-1.5-12.4-1.8-18.7c-0.3-6.2-0.4-12.4-0.4-18.6c0.1-6.2,0.3-12.4,0.7-18.6
			C82.8,96.2,83.4,90,84.5,83.8z"/>
	</g>
	<g class="st4">
		<path class="st5" d="M69.3,71.7c-2.1,3.3-3.9,6.8-5.4,10.3c-1.6,3.5-2.8,7.1-3.8,10.8c-1.9,7.3-2.6,14.8-1.7,22.2
			c0.4,3.7,1.2,7.4,2.3,10.9l0.4,1.3l0.5,1.3c0.3,0.9,0.6,1.8,1,2.6c0.8,1.7,1.5,3.5,2.4,5.1c3.4,6.8,7.9,13.1,12.7,19.3
			c-6.3-4.7-11.8-10.6-16.1-17.3c-1.1-1.7-2-3.5-3-5.2c-0.5-0.9-0.8-1.8-1.3-2.8l-0.6-1.4l-0.5-1.4c-1.4-3.8-2.3-7.8-2.8-11.9
			s-0.5-8.2,0.1-12.2c0.5-4,1.5-8,2.9-11.8s3.2-7.4,5.4-10.7C63.9,77.5,66.4,74.3,69.3,71.7z"/>
	</g>
	<g class="st4">
		<path class="st5" d="M112.1,96c1.4,5.5,1.8,11.2,1.5,16.9c-0.3,5.7-1.3,11.4-3.1,16.9c-1.8,5.5-4.4,10.7-8.1,15.3
			c-1.8,2.3-3.9,4.3-6.1,6.1c-2.3,1.8-4.7,3.3-7.3,4.4c2-2,3.9-4,5.6-6.1c1.7-2.2,3.3-4.3,4.6-6.6c2.7-4.6,4.8-9.5,6.5-14.6
			c1.7-5.1,2.9-10.4,3.9-15.7C110.7,107,111.5,101.6,112.1,96z"/>
	</g>
	<g class="st4">
		<path class="st5" d="M94.3,32.1c-0.9,2.1-1.8,4.1-2.8,6.2c-0.9,2.1-1.9,4.1-2.9,6.1s-2,4-3,6.1c-1,2-2,4-3,6l0.1-1.5
			c2,5.2,4.7,10.1,8.2,14.3s7.8,7.7,12.6,10.2c4.8,2.5,10.1,4.1,15.6,4.5s11-0.1,16.4-1.7l-0.9,0.7l3.8-5c1.3-1.7,2.6-3.3,3.9-4.9
			c2.6-3.3,5.2-6.5,8-9.7c-2,3.7-4.1,7.3-6.3,10.9c-1.1,1.8-2.1,3.6-3.3,5.4l-3.3,5.3c-0.2,0.3-0.5,0.5-0.8,0.6h-0.1l-4.3,1.4
			c-1.5,0.4-2.9,0.7-4.4,1c-1.5,0.2-3,0.4-4.5,0.5s-3,0.1-4.6,0.1c-6.1-0.2-12.2-1.9-17.6-4.7C95.7,81,90.9,77,87.2,72.2
			c-3.8-4.8-6.4-10.4-8-16.1V56c-0.1-0.5-0.1-1,0.2-1.3c1.2-1.9,2.4-3.8,3.6-5.7s2.4-3.8,3.7-5.7c1.2-1.9,2.5-3.8,3.7-5.6
			C91.7,35.8,93,34,94.3,32.1z"/>
	</g>
	<g class="st4">
		<path class="st5" d="M79.5,13.7c3.3,3.9,6.5,7.7,9.8,11.5l9.6,11l9.4,10.8c3.1,3.6,6.1,7.2,9.1,10.8l-1.3-0.7c5,0.3,10,0.5,15,0.9
			l15,1c5,0.3,10,0.7,15,1l15,1.1l-2.2,3.9L157,41.4c-5.5-7.9-11.1-15.7-16.5-23.7l1.5,0.8l-15.2-1.1l-15.4-1.3l-15.8-1.3l-8-0.6
			L79.5,13.7z M79.5,13.7l7.5,0.1l7.6,0.1l15.6,0.1l16,0.2l16.1,0.4c0.6,0,1.1,0.3,1.5,0.8l0.1,0.1c5.8,7.7,11.4,15.5,17.1,23.2
			L177.8,62c0.8,1.1,0.6,2.7-0.6,3.5c-0.5,0.4-1.1,0.5-1.7,0.5l-15-1.2c-5-0.4-10-0.8-15-1.2l-14.9-1.3c-5-0.4-10-0.9-14.9-1.4h-0.1
			c-0.5,0-1-0.3-1.3-0.7c-3-3.9-6.1-7.9-9.1-11.9l-8.8-11.8l-8.6-11.6C85.1,21.1,82.3,17.4,79.5,13.7z"/>
	</g>
	<g class="st4">
		<path class="st5" d="M141,38.6c1.9,1.7,3.8,3.4,5.6,5.2s3.5,3.6,5.3,5.5c1.7,1.9,3.4,3.7,5,5.6c1.6,1.9,3.3,3.8,4.9,5.8
			c0.4,0.4,0.5,0.9,0.5,1.5v0.1c0,3.2,0,6.4,0,9.7c0,3.2-0.2,6.4-0.4,9.7c-0.2,3.2-0.4,6.4-0.8,9.7c-0.4,3.2-0.7,6.4-1.3,9.7
			c-0.6-3.2-1-6.4-1.3-9.7c-0.3-3.2-0.6-6.4-0.8-9.7c-0.2-3.2-0.3-6.4-0.4-9.7c-0.1-3.2-0.1-6.4,0-9.7l0.5,1.5c-1.5-2-3-4-4.5-6.1
			c-1.5-2-2.9-4.1-4.3-6.2c-1.4-2.1-2.8-4.2-4.1-6.4C143.5,43,142.2,40.9,141,38.6z"/>
	</g>
</g>
<g class="st3">
	<g class="st4">
		<g>
			<path class="st5" d="M86.9,123.6c-7.6,0.9-15.3,0.4-22.8-1.4c-3.7-0.9-7.4-2.2-11-3.8c-3.5-1.7-6.9-3.7-10-6.1s-5.9-5.3-8.3-8.4
				c-2.5-3.1-4.4-6.5-6.1-10.1c-3.3-7.1-5.2-14.9-6-22.6l0,0c0-0.1,0-0.1,0-0.2l0.2-5.6c0.2-1.8,0.5-3.7,0.8-5.5
				c0.4-1.8,0.9-3.6,1.4-5.4l1.9-5.3c2.9-6.9,7.2-13.1,12.6-18.3S51.4,21.7,58.4,19s14.5-3.7,21.9-3.5c7.4,0.3,14.7,2.2,21.4,5.4
				c6.7,3.2,12.7,7.8,17.3,13.5c2.3,2.8,4.3,5.9,5.9,9.2s2.9,6.7,3.7,10.2c0.9,3.5,1.4,7.1,1.7,10.7c0.2,3.6,0.1,7.2-0.2,10.7
				c0-3.6-0.3-7.1-0.7-10.6c-0.5-3.5-1.3-6.9-2.4-10.3c-2.2-6.7-5.6-12.9-10.3-18c-4.6-5.1-10.4-9.2-16.7-11.9
				c-3.1-1.4-6.4-2.4-9.8-3.2c-3.3-0.8-6.8-1.2-10.2-1.3c-1.7-0.1-3.4,0.1-5.1,0.2c-1.7,0-3.4,0.4-5.1,0.6s-3.3,0.7-5,1.1
				c-1.7,0.4-3.2,1-4.8,1.6c-6.3,2.5-12.2,6.2-17,10.9c-4.9,4.7-8.9,10.4-11.5,16.6L29.6,56l-1.3,4.9l-0.8,5L27.2,71v-0.2
				c0.6,7.4,2.3,14.6,5.1,21.4S39.5,105,45,109.9c5.6,4.8,12.3,8.3,19.5,10.5C71.7,122.7,79.3,123.8,86.9,123.6z"/>
		</g>
		<g>
			<path class="st5" d="M27.3,67.5c2.9-3.6,6.5-6.7,10.2-9.5s7.7-5.3,12-7.3c8.4-4.1,17.8-6.6,27.3-7c1.2,0,2.4-0.1,3.6-0.1l3.6,0.1
				c2.4,0.2,4.7,0.4,7.1,0.9c2.3,0.3,4.6,0.9,6.9,1.5c1.1,0.3,2.3,0.7,3.4,1.1c1.1,0.4,2.2,0.7,3.3,1.2c8.8,3.4,16.8,8.4,23.7,14.5
				c-8.1-4.4-16.4-8.2-25-10.8c-1.1-0.4-2.2-0.6-3.2-0.9c-1.1-0.3-2.2-0.6-3.3-0.8c-2.2-0.4-4.4-0.9-6.6-1.1
				c-4.4-0.6-8.8-0.8-13.3-0.6c-4.4,0.2-8.8,0.8-13.2,1.7c-4.3,0.9-8.6,2.3-12.8,3.9c-4.2,1.6-8.3,3.6-12.2,5.8
				C34.8,62.2,31,64.7,27.3,67.5z"/>
		</g>
		<g>
			<path class="st5" d="M58.3,30.8c-2.7,7.8-4.5,15.7-5.2,23.6S53,70.2,55.3,77.6c1.2,3.7,2.9,7.2,4.9,10.5s4.6,6.3,7.3,9.1
				c5.6,5.5,12.3,10.1,19.4,14.2c-7.9-2.2-15.6-5.9-22.1-11.3c-3.2-2.7-6.2-5.8-8.6-9.4c-2.4-3.5-4.3-7.4-5.7-11.5
				c-2.6-8.2-2.9-17-1.3-25.2C50.8,45.6,53.8,37.7,58.3,30.8z"/>
		</g>
		<g>
			<path class="st5" d="M80.8,25.7"/>
		</g>
		<g>
			<path class="st5" d="M80.2,27.8c2.1,0.6,4,1.6,5.8,2.8c1.8,1.2,3.5,2.6,5,4.1c3.1,3.1,5.6,6.9,7.1,11.1c1.6,4.2,2.2,8.7,1.8,13
				c-0.4,4.4-1.6,8.6-3.7,12.3c0.1-4.3,0.2-8.3-0.2-12.3c-0.4-3.9-1.2-7.7-2.6-11.3s-3.2-7-5.4-10.3C85.8,34,83.2,30.9,80.2,27.8z"
				/>
		</g>
		<g>
			<path class="st5" d="M62.5,111.3c0.3-1.5,0.9-2.5,1.5-3.4c0.7-0.9,1.5-1.7,2.4-2.3c0.9-0.6,1.9-1.1,3-1.4s2.3-0.5,3.8-0.2
				c-0.3,1.5-0.9,2.5-1.5,3.4c-0.7,0.9-1.5,1.7-2.4,2.3c-0.9,0.6-1.9,1.1-3,1.4C65.2,111.4,64,111.6,62.5,111.3z"/>
		</g>
		<g>
			<path class="st5" d="M39.9,73.3c0,3.3-1.2,6.6-3.5,9.2c-2.2,2.6-5.6,4.4-9.2,4.7c-1.8,0.2-3.7,0-5.5-0.6s-3.5-1.5-5-2.8
				c-2.9-2.6-4.7-6.5-4.7-10.5s1.8-7.9,4.7-10.5c1.5-1.3,3.2-2.2,5-2.8s3.7-0.8,5.5-0.6c3.7,0.3,7,2.1,9.2,4.7
				C38.7,66.7,40,70,39.9,73.3z M39.9,73.3c0-3.3-1.5-6.6-4-8.7c-1.2-1.1-2.7-1.8-4.2-2.3s-3.1-0.6-4.6-0.4c-3,0.3-5.7,1.9-7.4,4
				C17.9,68,17,70.7,17,73.3c0,2.7,0.9,5.3,2.7,7.4c1.8,2.1,4.4,3.6,7.4,4c1.5,0.2,3.1,0,4.6-0.4c1.5-0.5,2.9-1.2,4.2-2.3
				C38.5,79.9,40,76.6,39.9,73.3z"/>
		</g>
		<g>
			<path class="st5" d="M81.1,23.2c0,3.3-1.2,6.6-3.5,9.2c-2.2,2.6-5.6,4.4-9.2,4.7c-1.8,0.2-3.7,0-5.5-0.6c-1.8-0.6-3.5-1.5-5-2.8
				c-2.9-2.6-4.7-6.5-4.7-10.5s1.8-7.9,4.7-10.5c1.5-1.3,3.2-2.2,5-2.8c1.8-0.6,3.7-0.8,5.5-0.6c3.7,0.3,7,2.1,9.2,4.7
				C79.9,16.5,81.1,19.8,81.1,23.2z M81.1,23.2c0-3.3-1.5-6.6-4-8.7c-1.2-1.1-2.7-1.8-4.2-2.3s-3.1-0.6-4.6-0.4
				c-3,0.3-5.7,1.9-7.4,4c-1.8,2.1-2.7,4.8-2.7,7.4c0,2.7,0.9,5.3,2.7,7.4s4.4,3.6,7.4,4c1.5,0.2,3.1,0,4.6-0.4
				c1.5-0.5,2.9-1.2,4.2-2.3C79.6,29.8,81.1,26.5,81.1,23.2z"/>
		</g>
		<g>
			<path class="st5" d="M109,48.5c0,3.3-1.2,6.6-3.5,9.2c-2.2,2.6-5.6,4.4-9.2,4.7c-1.8,0.2-3.7,0-5.5-0.6s-3.5-1.5-5-2.8
				c-2.9-2.6-4.7-6.5-4.7-10.5s1.8-7.9,4.7-10.5c1.5-1.3,3.2-2.2,5-2.8s3.7-0.8,5.5-0.6c3.7,0.3,7,2.1,9.2,4.7
				C107.8,41.9,109,45.2,109,48.5z M109,48.5c0-3.3-1.5-6.6-4-8.7c-1.2-1.1-2.7-1.8-4.2-2.3s-3.1-0.6-4.6-0.4c-3,0.3-5.7,1.9-7.4,4
				c-1.8,2.1-2.7,4.8-2.7,7.4c0,2.7,0.9,5.3,2.7,7.4c1.8,2.1,4.4,3.6,7.4,4c1.5,0.2,3.1,0,4.6-0.4c1.5-0.5,2.9-1.2,4.2-2.3
				C107.5,55.1,109,51.9,109,48.5z"/>
		</g>
		<g>
			<path class="st5" d="M63.3,114.8c0.3,3.3-0.6,6.7-2.7,9.5c-2,2.8-5.2,4.8-8.8,5.5c-1.8,0.3-3.7,0.3-5.5-0.1
				c-1.8-0.4-3.6-1.2-5.2-2.4c-3.1-2.3-5.3-6.1-5.6-10c-0.4-4,1.1-8,3.7-10.9c1.3-1.4,3-2.5,4.7-3.3c1.7-0.7,3.6-1.1,5.5-1.1
				c3.7,0,7.1,1.5,9.6,3.9C61.6,108.3,63.1,111.5,63.3,114.8z M63.3,114.8c-0.3-3.3-2.1-6.5-4.7-8.3c-1.3-1-2.8-1.6-4.3-1.9
				s-3.1-0.3-4.6,0c-3,0.6-5.5,2.4-7.1,4.6c-1.6,2.3-2.3,5-2.1,7.6c0.2,2.7,1.4,5.2,3.4,7.2s4.7,3.2,7.8,3.3c1.5,0,3.1-0.2,4.5-0.8
				c1.4-0.6,2.8-1.5,3.9-2.7C62.4,121.5,63.6,118.1,63.3,114.8z"/>
		</g>
	</g>
	<g class="st4">
		<path class="st5" d="M108.4,99.6c-0.9,2-1.7,4-2.7,5.9c-0.9,2-1.8,3.9-2.8,5.9c-0.9,2-1.9,3.9-2.9,5.8s-1.9,3.9-2.9,5.8l0.1-1.5
			c1.9,5,4.6,9.7,7.9,13.7c3.4,4,7.5,7.4,12.1,9.8c4.6,2.4,9.7,3.9,14.9,4.3c5.2,0.4,10.6-0.1,15.7-1.6l-0.9,0.7l3.7-4.8
			c1.2-1.6,2.5-3.2,3.7-4.7c2.5-3.1,5.1-6.2,7.7-9.3c-1.9,3.5-3.9,7-6,10.5c-1,1.7-2.1,3.4-3.1,5.2l-3.2,5.1
			c-0.2,0.3-0.5,0.5-0.8,0.6h-0.1l-4.1,1.4c-1.4,0.4-2.8,0.7-4.3,1c-1.4,0.2-2.9,0.3-4.4,0.5c-1.5,0.1-2.9,0.1-4.4,0.1
			c-5.9-0.2-11.7-1.8-17-4.5c-5.2-2.7-9.9-6.7-13.4-11.3c-3.6-4.6-6.2-10-7.7-15.5v-0.1c-0.1-0.5-0.1-0.9,0.2-1.3
			c1.1-1.8,2.3-3.7,3.5-5.5s2.3-3.6,3.5-5.4s2.4-3.6,3.6-5.4C105.9,103.2,107.2,101.4,108.4,99.6z"/>
	</g>
	<g class="st4">
		<path class="st5" d="M94.2,81.9c3.1,3.7,6.3,7.4,9.4,11l9.3,10.6l9,10.3c3,3.4,5.9,6.9,8.8,10.3l-1.3-0.7
			c4.8,0.3,9.6,0.5,14.4,0.8l14.4,0.9c4.8,0.3,9.6,0.7,14.4,1l14.4,1l-2.2,3.9l-16.1-22.6c-5.3-7.6-10.6-15.1-15.9-22.8l1.5,0.8
			l-14.6-1l-14.8-1.3l-15.2-1.3l-7.7-0.6L94.2,81.9z M94.2,81.9l7.2,0.1l7.3,0.1l15,0.1l15.3,0.1l15.5,0.3c0.6,0,1.1,0.3,1.5,0.8
			l0.1,0.1c5.5,7.4,11,14.9,16.5,22.3l16.2,22.5c0.8,1.1,0.6,2.7-0.6,3.5c-0.5,0.4-1.1,0.5-1.7,0.5l-14.4-1.2
			c-4.8-0.4-9.6-0.7-14.4-1.2l-14.4-1.3c-4.8-0.4-9.6-0.9-14.4-1.3h-0.1c-0.5,0-1-0.3-1.3-0.7c-2.9-3.8-5.9-7.6-8.7-11.4l-8.5-11.4
			l-8.2-11.1C99.5,89,96.9,85.4,94.2,81.9z"/>
	</g>
	<g class="st4">
		<path class="st5" d="M153.3,105.8c1.9,1.6,3.6,3.3,5.4,5c1.7,1.7,3.4,3.5,5.1,5.2c1.7,1.8,3.3,3.6,4.9,5.4
			c1.6,1.8,3.1,3.7,4.7,5.6c0.4,0.4,0.5,0.9,0.5,1.5v0.1c0,3.1,0,6.2,0,9.3s-0.2,6.2-0.4,9.3s-0.4,6.2-0.8,9.3
			c-0.4,3.1-0.7,6.2-1.3,9.3c-0.6-3.1-1-6.2-1.3-9.3s-0.6-6.2-0.8-9.3s-0.3-6.2-0.4-9.3c-0.1-3.1-0.1-6.2,0-9.3l0.5,1.5
			c-1.5-1.9-2.9-3.9-4.3-5.8c-1.4-2-2.8-3.9-4.2-6c-1.4-2-2.7-4-4-6.1C155.7,110.1,154.5,108,153.3,105.8z"/>
	</g>
</g>
<g class="st3">
	<g class="st4">
		<path class="st5" d="M172.6,152.3l-35.8,0.1l-35.8,0.3l-71.7,0.9c-3.3,0.1-6.7-1.1-9.1-3.5c-2.4-2.3-3.9-5.6-4-9L16,123.2
			l-0.4-35.8l-0.3-35.8V33.7c0-3.6,1.4-7.3,4-9.8c2.5-2.6,6.2-4.1,9.8-4.1l35.8,0.1l35.8,0.3l71.7,0.9c3.3,0,6.6,1.3,8.9,3.6
			c2.3,2.3,3.7,5.6,3.7,8.8l-0.2,17.9l-0.4,35.8l-0.3,35.8v17.9c0,3-1.2,6-3.3,8.1C178.6,151.1,175.6,152.3,172.6,152.3z
			 M172.6,152.3c3,0,6-1.2,8-3.4c2.1-2.1,3.3-5.1,3.3-8.1v-17.9l-0.3-35.8l-0.4-35.8L183,33.4c0-2.7-1.3-5.4-3.2-7.2
			c-2-1.9-4.6-2.8-7.3-2.8l-71.7,0.9L65,24.6l-35.8,0.1c-2.3,0-4.6,0.9-6.3,2.6c-1.7,1.7-2.6,3.9-2.6,6.3v17.9L20,87.3l-0.4,35.8
			L19.4,141c0,2.6,1,5.2,2.9,7.1c1.9,1.9,4.5,2.9,7.2,2.9l71.7,0.9l35.8,0.3L172.6,152.3z"/>
	</g>
	<g class="st4">
		<path class="st5" d="M80.9,101.9c6.1-1,12.2-1.6,18.3-2s12.2-0.5,18.3-0.5c6.1,0,12.2,0.2,18.3,0.5c6.1,0.4,12.2,0.9,18.3,2
			c-6.1,1-12.2,1.6-18.3,2s-12.2,0.5-18.3,0.5c-6.1,0-12.2-0.2-18.3-0.5C93.1,103.5,87,103,80.9,101.9z"/>
	</g>
	<g class="st4">
		<path class="st5" d="M80.9,75.8c6.1-1,12.2-1.6,18.3-2s12.2-0.5,18.3-0.5c6.1,0,12.2,0.2,18.3,0.5c6.1,0.4,12.2,0.9,18.3,2
			c-6.1,1-12.2,1.6-18.3,2s-12.2,0.5-18.3,0.5c-6.1,0-12.2-0.2-18.3-0.5C93.1,77.4,87,76.8,80.9,75.8z"/>
	</g>
	<g class="st4">
		<path class="st5" d="M80.9,48.7c6.1-1,12.2-1.6,18.3-2s12.2-0.5,18.3-0.5c6.1,0,12.2,0.2,18.3,0.5c6.1,0.4,12.2,0.9,18.3,2
			c-6.1,1-12.2,1.6-18.3,2s-12.2,0.5-18.3,0.5c-6.1,0-12.2-0.2-18.3-0.5C93.1,50.3,87,49.8,80.9,48.7z"/>
	</g>
	<g class="st4">
		<g>
			<path class="st5" d="M42.7,45.9c1.5-0.1,2.6,0.3,3.7,0.7c1,0.4,1.9,1,2.7,1.7s1.5,1.5,2,2.5s1,2.1,1.1,3.6
				c-1.5,0.1-2.6-0.3-3.7-0.7c-1-0.4-1.9-1-2.7-1.7s-1.5-1.6-2-2.5C43.2,48.5,42.8,47.4,42.7,45.9z"/>
		</g>
		<g>
			<path class="st5" d="M64.1,40.7c-0.2,1.8-0.8,3.3-1.5,4.7C61.9,46.8,61,48,60,49.2s-2.1,2.2-3.4,3.1c-1.3,0.9-2.7,1.7-4.5,2.2
				c0.2-1.8,0.8-3.3,1.5-4.7s1.6-2.6,2.6-3.8c1-1.1,2.1-2.2,3.4-3.1C60.9,41.9,62.3,41.1,64.1,40.7z"/>
		</g>
	</g>
	<g class="st4">
		<g>
			<path class="st5" d="M42.7,71.5c1.5-0.1,2.6,0.3,3.7,0.7c1,0.4,1.9,1,2.7,1.7s1.5,1.5,2,2.5s1,2.1,1.1,3.6
				c-1.5,0.1-2.6-0.3-3.7-0.7c-1-0.4-1.9-1-2.7-1.7s-1.5-1.6-2-2.5C43.2,74.1,42.8,73,42.7,71.5z"/>
		</g>
		<g>
			<path class="st5" d="M64.1,66.3c-0.2,1.8-0.8,3.3-1.5,4.7c-0.7,1.4-1.6,2.6-2.6,3.8c-1,1.2-2.1,2.2-3.4,3.1
				c-1.3,0.9-2.7,1.7-4.5,2.2c0.2-1.8,0.8-3.3,1.5-4.7c0.7-1.4,1.6-2.6,2.6-3.8c1-1.1,2.1-2.2,3.4-3.1S62.3,66.8,64.1,66.3z"/>
		</g>
	</g>
	<g class="st4">
		<path class="st5" d="M61.5,102.4c0,2.1-0.7,4.2-2.1,6c-1.4,1.7-3.5,3-6,3.4c-2.4,0.4-5.2-0.3-7.2-2.1c-2.1-1.7-3.4-4.5-3.3-7.2
			c0-2.8,1.3-5.5,3.3-7.2c2-1.8,4.8-2.5,7.2-2.1c2.5,0.3,4.6,1.7,6,3.4C60.7,98.2,61.5,100.3,61.5,102.4z M61.5,102.4
			c0-2.1-1-4.2-2.6-5.5s-3.7-1.7-5.5-1.4c-1.8,0.3-3.2,1.4-4.2,2.6c-0.9,1.3-1.4,2.7-1.4,4.2s0.4,2.9,1.4,4.2
			c0.9,1.2,2.4,2.3,4.2,2.6c1.8,0.4,3.9-0.1,5.5-1.4C60.5,106.6,61.5,104.5,61.5,102.4z"/>
	</g>
	<g class="st4">
		<path class="st5" d="M81,130c6.1-1,12.2-1.6,18.3-2c6.1-0.4,12.2-0.5,18.3-0.5c6.1,0,12.2,0.2,18.3,0.5c6.1,0.4,12.2,0.9,18.3,2
			c-6.1,1-12.2,1.6-18.3,2s-12.2,0.5-18.3,0.5c-6.1,0-12.2-0.2-18.3-0.5C93.2,131.6,87.1,131,81,130z"/>
	</g>
	<g class="st4">
		<g>
			<path class="st5" d="M42.9,125.7c1.5-0.1,2.6,0.3,3.7,0.7c1,0.4,1.9,1,2.7,1.7s1.5,1.5,2,2.5s1,2.1,1.1,3.6
				c-1.5,0.1-2.6-0.3-3.7-0.7c-1-0.4-1.9-1-2.7-1.7s-1.5-1.6-2-2.5C43.4,128.3,43,127.2,42.9,125.7z"/>
		</g>
		<g>
			<path class="st5" d="M64.2,120.5c-0.2,1.8-0.8,3.3-1.5,4.7c-0.7,1.4-1.6,2.6-2.6,3.8c-1,1.2-2.1,2.2-3.4,3.1
				c-1.3,0.9-2.7,1.7-4.5,2.2c0.2-1.8,0.8-3.3,1.5-4.7s1.6-2.6,2.6-3.8c1-1.1,2.1-2.2,3.4-3.1C61.1,121.8,62.5,121,64.2,120.5z"/>
		</g>
	</g>
</g>
<g>
	<g>
		<g>
			<path class="st6" d="M16.5,115.6c-0.9,0-1.8,0-2.6-0.5c-0.8-0.4-1.3-1.5-1.3-2.4l-0.1-5.4l-0.2-10.9c-0.1-7.2-0.3-14.5-0.3-21.7
				l-0.1-5.5c0-0.5,0-0.9,0-1.4c0-0.6,0.1-1.1,0.3-1.7c0.4-1.1,1.1-2,2-2.6c0.5-0.3,1-0.6,1.5-0.7c0.3-0.1,0.6-0.1,0.8-0.2
				c0.1,0,0.3,0,0.4,0h0.2h0.2h2.7h5.4l21.6,0l21.6,0l5.4,0h1.4h0.7h0.3h0.4c1.1,0.1,2.2,0.6,3.1,1.3c0.8,0.8,1.5,1.7,1.7,2.8
				c0,0.3,0.1,0.6,0.1,0.8v0.4v0.3v1.4l0,5.4c-0.1,7.2-0.2,14.5-0.3,21.7l-0.2,10.9l-0.1,2.7l0,1.4c0,0.5,0,0.9,0,1.4
				c-0.1,0.9-0.7,1.8-1.4,2.3c-0.8,0.5-1.6,0.8-2.5,0.9c0.9-0.1,1.7-0.5,2.4-1c0.7-0.5,1.2-1.4,1.2-2.2c0-0.4,0-0.9,0-1.3l0-1.4
				l-0.1-2.7L80,97c-0.1-7.2-0.3-14.5-0.3-21.7l0-5.4v-1.4v-0.3v-0.3c0-0.2,0-0.3-0.1-0.5c-0.1-0.7-0.6-1.3-1.1-1.7
				c-0.5-0.4-1.2-0.7-1.9-0.8h-0.3h-0.3h-0.7h-1.4l-5.4,0l-21.6,0l-21.6,0l-5.4,0h-2.7H17h-0.1c-0.1,0-0.2,0-0.2,0
				c-0.2,0-0.3,0-0.5,0.1c-0.3,0.1-0.7,0.2-0.9,0.4c-0.6,0.4-1,0.9-1.3,1.6c-0.1,0.3-0.2,0.7-0.2,1v1.3l0,5.4
				c-0.1,7.2-0.2,14.5-0.3,21.7l-0.2,10.9l-0.1,5.4c0,0.8,0.3,1.7,1,2.2C14.7,115.4,15.6,115.6,16.5,115.6z"/>
		</g>
		<g>
			<path class="st6" d="M33.1,112.6c0,1.9-0.5,3.8-1.5,5.5c-0.5,0.8-1.2,1.6-2,2.2s-1.8,1-2.9,1.1c-1.1,0.1-2.2-0.2-3.1-0.7
				c-0.9-0.5-1.8-1.2-2.4-2.1c-1.3-1.7-1.9-3.9-1.9-6s0.6-4.2,1.9-6c0.7-0.8,1.5-1.6,2.4-2.1c0.9-0.5,2.1-0.8,3.1-0.7
				c1.1,0.1,2.1,0.5,2.9,1.1c0.8,0.6,1.5,1.4,2,2.2C32.7,108.7,33.1,110.7,33.1,112.6z M33.1,112.6c0-1.9-0.6-3.8-1.7-5.3
				c-0.6-0.8-1.3-1.4-2.1-1.7c-0.8-0.4-1.7-0.6-2.5-0.5c-1.7,0.2-3.1,1.3-3.9,2.7c-0.8,1.4-1.3,3.2-1.3,4.8c0,1.7,0.4,3.4,1.3,4.9
				c0.8,1.4,2.2,2.6,3.9,2.7c0.8,0.1,1.7-0.1,2.5-0.5s1.5-1,2.1-1.7C32.5,116.4,33.1,114.5,33.1,112.6z"/>
		</g>
		<g>
			<path class="st6" d="M52.9,109.1c0,1.9-0.5,3.8-1.5,5.5c-0.5,0.8-1.2,1.6-2,2.2c-0.8,0.6-1.8,1-2.9,1.1c-1.1,0.1-2.2-0.2-3.1-0.7
				c-0.9-0.5-1.8-1.2-2.4-2.1c-1.3-1.7-1.9-3.9-1.9-6c0-2.1,0.6-4.2,1.9-6c0.7-0.8,1.5-1.6,2.4-2.1c0.9-0.5,2.1-0.8,3.1-0.7
				c1.1,0.1,2.1,0.5,2.9,1.1c0.8,0.6,1.5,1.4,2,2.2C52.5,105.3,52.9,107.1,52.9,109.1z M52.9,109.1c0-1.9-0.6-3.8-1.7-5.3
				c-0.6-0.8-1.3-1.4-2.1-1.7c-0.8-0.4-1.7-0.6-2.5-0.5c-1.7,0.2-3.1,1.3-3.9,2.7s-1.3,3.2-1.3,4.8c0,1.7,0.4,3.4,1.3,4.9
				c0.8,1.4,2.2,2.6,3.9,2.7c0.8,0.1,1.7-0.1,2.5-0.5c0.8-0.4,1.5-1,2.1-1.7C52.4,112.9,52.9,111,52.9,109.1z"/>
		</g>
		<g>
			<path class="st6" d="M72.8,112.6c0,1.9-0.5,3.8-1.5,5.5c-0.5,0.8-1.2,1.6-2,2.2c-0.8,0.6-1.8,1-2.9,1.1c-1.1,0.1-2.2-0.2-3.1-0.7
				c-0.9-0.5-1.8-1.2-2.4-2.1c-1.3-1.7-1.9-3.9-1.9-6s0.6-4.2,1.9-6c0.7-0.8,1.5-1.6,2.4-2.1c0.9-0.5,2.1-0.8,3.1-0.7
				c1.1,0.1,2.1,0.5,2.9,1.1c0.8,0.6,1.5,1.4,2,2.2C72.4,108.7,72.8,110.7,72.8,112.6z M72.8,112.6c0-1.9-0.6-3.8-1.7-5.3
				c-0.6-0.8-1.3-1.4-2.1-1.7c-0.8-0.4-1.7-0.6-2.5-0.5c-1.7,0.2-3.1,1.3-3.9,2.7c-0.8,1.4-1.3,3.2-1.3,4.8c0,1.7,0.4,3.4,1.3,4.9
				c0.8,1.4,2.2,2.6,3.9,2.7c0.8,0.1,1.7-0.1,2.5-0.5c0.8-0.4,1.5-1,2.1-1.7C72.2,116.4,72.8,114.5,72.8,112.6z"/>
		</g>
		<g>
			<path class="st6" d="M39.8,95.8l-0.3-4.6l-0.3-4.8c-0.1-1.7-0.2-3.3-0.3-5c-0.1-1.7-0.1-3.4-0.2-5.1c0-0.6,0.4-1,1-1.1
				c0.2,0,0.3,0,0.5,0.1l0,0c5.8,3,11.5,6.1,17.2,9.3h0c0.5,0.3,0.7,0.9,0.4,1.5c-0.1,0.2-0.2,0.3-0.4,0.4c-1.5,0.8-3.1,1.7-4.6,2.5
				c-1.5,0.8-3.1,1.6-4.6,2.4L44,93.7L39.8,95.8z M39.8,95.8c1.5-1,3-2,4.4-2.9l4.2-2.8c1.4-0.9,2.7-1.8,4-2.7
				c1.3-0.9,2.7-1.7,4-2.5l0,1.9c-5.8-3-11.5-6.1-17.2-9.4l1.5-0.9c0,1.6-0.1,3.1-0.2,4.7c-0.1,1.6-0.1,3.1-0.3,4.7L40,90.7
				C40,92.3,39.9,94,39.8,95.8z"/>
		</g>
		<g>
			<path class="st6" d="M11.8,134.2c-0.5-1.5-0.5-3-0.2-4.6c0.3-1.5,1.1-3.1,2.4-4.2c1.3-1.1,2.9-1.8,4.5-1.9
				c1.6-0.1,3.1,0.2,4.5,0.9c-1.5,0.3-2.9,0.5-4.1,0.9c-0.3,0.1-0.6,0.2-0.9,0.3c-0.3,0.1-0.6,0.2-0.8,0.4c-0.5,0.3-1,0.7-1.5,1
				c-0.9,0.8-1.6,1.8-2.2,3.1C12.8,131.4,12.3,132.7,11.8,134.2z"/>
		</g>
		<g>
			<path class="st6" d="M31.6,134.2c-0.6-1.7-0.8-3.4-0.6-5.2c0.2-1.8,0.8-3.6,2-5.1c0.6-0.8,1.3-1.5,2.1-1.9c0.8-0.5,1.7-0.8,2.6-1
				c1.8-0.3,3.7-0.1,5.3,0.6c-1.7,0.3-3.3,0.6-4.7,1.2c-0.7,0.3-1.4,0.7-1.9,1.1c-0.6,0.4-1.1,0.9-1.5,1.6c-0.9,1.2-1.5,2.5-2,4.1
				C32.3,130.8,32,132.4,31.6,134.2z"/>
		</g>
		<g>
			<path class="st6" d="M62.7,134.2c-0.3-1.7-0.7-3.3-1.2-4.9c-0.5-1.5-1.1-2.9-2-4.1c-0.4-0.6-0.9-1.1-1.5-1.6
				c-0.6-0.4-1.2-0.8-1.9-1.1c-1.4-0.6-3-0.9-4.7-1.2c1.6-0.7,3.4-0.9,5.3-0.6c0.9,0.2,1.8,0.5,2.6,1c0.8,0.5,1.5,1.2,2.1,1.9
				c1.2,1.6,1.8,3.3,2,5.1C63.5,130.7,63.3,132.5,62.7,134.2z"/>
		</g>
		<g>
			<path class="st6" d="M81.9,134.2c-0.5-1.5-0.9-2.8-1.5-4c-0.6-1.2-1.3-2.3-2.2-3.1c-0.4-0.4-0.9-0.8-1.5-1
				c-0.3-0.1-0.6-0.3-0.8-0.4c-0.3-0.1-0.6-0.2-0.9-0.3c-1.3-0.4-2.6-0.7-4.1-0.9c1.4-0.7,2.9-1,4.5-0.9c1.6,0.1,3.2,0.8,4.5,1.9
				c1.3,1.1,2,2.7,2.4,4.2C82.4,131.2,82.4,132.7,81.9,134.2z"/>
		</g>
	</g>
</g>
<g class="st3">
	<path class="st7" d="M153.9,157.5H52.6c-7.9,0-14.4-6.5-14.4-14.4V41.7c0-7.9,6.5-14.4,14.4-14.4h16.2v22.9h64.8l-0.5-22.9h20.7
		c7.9,0,14.4,6.5,14.4,14.4V143C168.3,151,161.8,157.5,153.9,157.5z"/>
	<path class="st7" d="M86.4,50.3c0,0,1.5-14.6,14.7-14.6"/>
	<path class="st7" d="M101.1,35.7c13.2,0,14.7,14.6,14.7,14.6"/>
	<path class="st7" d="M68.1,81.3h-6.7c-1.6,0-2.8-1.3-2.8-2.8v-6.7c0-1.6,1.3-2.8,2.8-2.8h6.7c1.6,0,2.8,1.3,2.8,2.8v6.7
		C71,80.1,69.7,81.3,68.1,81.3z"/>
	<path class="st7" d="M94,81.3h-6.7c-1.6,0-2.8-1.3-2.8-2.8v-6.7c0-1.6,1.3-2.8,2.8-2.8H94c1.6,0,2.8,1.3,2.8,2.8v6.7
		C96.8,80.1,95.6,81.3,94,81.3z"/>
	<path class="st7" d="M119.9,81.3h-6.7c-1.6,0-2.8-1.3-2.8-2.8v-6.7c0-1.6,1.3-2.8,2.8-2.8h6.7c1.6,0,2.8,1.3,2.8,2.8v6.7
		C122.7,80.1,121.4,81.3,119.9,81.3z"/>
	<path class="st7" d="M145.7,81.3H139c-1.6,0-2.8-1.3-2.8-2.8v-6.7c0-1.6,1.3-2.8,2.8-2.8h6.7c1.6,0,2.8,1.3,2.8,2.8v6.7
		C148.5,80.1,147.3,81.3,145.7,81.3z"/>
	<path class="st7" d="M68.1,101.2h-6.7c-1.6,0-2.8-1.3-2.8-2.8v-6.7c0-1.6,1.3-2.8,2.8-2.8h6.7c1.6,0,2.8,1.3,2.8,2.8v6.7
		C71,100,69.7,101.2,68.1,101.2z"/>
	<path class="st7" d="M94,101.2h-6.7c-1.6,0-2.8-1.3-2.8-2.8v-6.7c0-1.6,1.3-2.8,2.8-2.8H94c1.6,0,2.8,1.3,2.8,2.8v6.7
		C96.8,100,95.5,101.2,94,101.2z"/>
	<path class="st7" d="M119.8,101.2h-6.7c-1.6,0-2.8-1.3-2.8-2.8v-6.7c0-1.6,1.3-2.8,2.8-2.8h6.7c1.6,0,2.8,1.3,2.8,2.8v6.7
		C122.7,100,121.4,101.2,119.8,101.2z"/>
	<path class="st7" d="M145.7,101.2H139c-1.6,0-2.8-1.3-2.8-2.8v-6.7c0-1.6,1.3-2.8,2.8-2.8h6.7c1.6,0,2.8,1.3,2.8,2.8v6.7
		C148.5,100,147.3,101.2,145.7,101.2z"/>
	<path class="st7" d="M68.1,121h-6.7c-1.6,0-2.8-1.3-2.8-2.8v-6.7c0-1.6,1.3-2.8,2.8-2.8h6.7c1.6,0,2.8,1.3,2.8,2.8v6.7
		C71,119.8,69.7,121,68.1,121z"/>
	<path class="st7" d="M94,121h-6.7c-1.6,0-2.8-1.3-2.8-2.8v-6.7c0-1.6,1.3-2.8,2.8-2.8H94c1.6,0,2.8,1.3,2.8,2.8v6.7
		C96.8,119.8,95.6,121,94,121z"/>
	<path class="st7" d="M119.9,121h-6.7c-1.6,0-2.8-1.3-2.8-2.8v-6.7c0-1.6,1.3-2.8,2.8-2.8h6.7c1.6,0,2.8,1.3,2.8,2.8v6.7
		C122.7,119.8,121.4,121,119.9,121z"/>
	<path class="st7" d="M145.7,121H139c-1.6,0-2.8-1.3-2.8-2.8v-6.7c0-1.6,1.3-2.8,2.8-2.8h6.7c1.6,0,2.8,1.3,2.8,2.8v6.7
		C148.6,119.8,147.3,121,145.7,121z"/>
	<path class="st7" d="M68.1,140.9h-6.7c-1.6,0-2.8-1.3-2.8-2.8v-6.7c0-1.6,1.3-2.8,2.8-2.8h6.7c1.6,0,2.8,1.3,2.8,2.8v6.7
		C71,139.6,69.7,140.9,68.1,140.9z"/>
	<path class="st7" d="M94,140.9h-6.7c-1.6,0-2.8-1.3-2.8-2.8v-6.7c0-1.6,1.3-2.8,2.8-2.8H94c1.6,0,2.8,1.3,2.8,2.8v6.7
		C96.8,139.6,95.6,140.9,94,140.9z"/>
	<path class="st7" d="M119.8,140.9h-6.7c-1.6,0-2.8-1.3-2.8-2.8v-6.7c0-1.6,1.3-2.8,2.8-2.8h6.7c1.6,0,2.8,1.3,2.8,2.8v6.7
		C122.7,139.6,121.4,140.9,119.8,140.9z"/>
</g>
<rect x="99" y="121" class="st8" width="97" height="28.9"/>
<text transform="matrix(1 0 0 1 98.9998 130.1602)"><tspan x="0" y="0" class="st9 st10 st11">подготовка к </tspan><tspan x="0" y="14.4" class="st9 st10 st11">поступлению</tspan></text>
</svg>
