<svg id="Слой_1" data-name="Слой 1" xmlns="http://www.w3.org/2000/svg" viewBox="0 0 36 36"><defs><style>.cls-1,.cls-2{fill:none;stroke:#fff;stroke-width:2px;}.cls-1{stroke-miterlimit:10;}.cls-2{stroke-linecap:round;stroke-linejoin:round;}</style></defs><title>insta</title><circle class="cls-1" cx="18" cy="18" r="17"/><path class="cls-2" d="M13,8.5H23a4.88,4.88,0,0,1,5,4.75v9.5a4.88,4.88,0,0,1-5,4.75H13a4.88,4.88,0,0,1-5-4.75v-9.5A4.88,4.88,0,0,1,13,8.5Z"/><path class="cls-2" d="M22,17.4a3.83,3.83,0,0,1-3.37,4.32,4,4,0,0,1-4.54-3.2,3.83,3.83,0,0,1,3.37-4.32,4.21,4.21,0,0,1,1.17,0A3.9,3.9,0,0,1,22,17.4Z"/><line class="cls-2" x1="23.5" y1="12.77" x2="23.5" y2="12.77"/></svg>