<svg xmlns="http://www.w3.org/2000/svg" viewBox="0 0 36 36"><defs><style>.cls-1{fill:none;stroke:#fff;stroke-miterlimit:10;stroke-width:2px;}.cls-2{fill:#fff;}</style></defs><title>man</title><g id="Слой_1" data-name="Слой 1"><circle class="cls-1" cx="18" cy="18" r="17"/></g><g id="Слой_4" data-name="Слой 4"><g id="Layer_2" data-name="Layer 2"><g id="Layer_1-2" data-name="Layer 1-2"><path class="cls-2" d="M21.17,19.82H14.83a6.15,6.15,0,0,0-6.33,6v5a1,1,0,0,0,1,1.05,1,1,0,0,0,1.12-.93.94.94,0,0,0,0-.12v-5a4.11,4.11,0,0,1,4.22-4h6.33a4.11,4.11,0,0,1,4.22,4v5a1,1,0,0,0,1,1.05,1,1,0,0,0,1.12-.93.94.94,0,0,0,0-.12v-5A6.15,6.15,0,0,0,21.17,19.82Z"/><path class="cls-2" d="M18,17.84a5.13,5.13,0,0,0,5.28-5A5.13,5.13,0,0,0,18,7.9a5.13,5.13,0,0,0-5.28,5h0A5.13,5.13,0,0,0,18,17.84Zm0-7.95a3.08,3.08,0,0,1,3.17,3,3.08,3.08,0,0,1-3.17,3,3.08,3.08,0,0,1-3.17-3A3.08,3.08,0,0,1,18,9.89Z"/></g></g></g></svg>