<svg xmlns="http://www.w3.org/2000/svg" viewBox="0 0 36 36"><defs><style>.cls-1{fill:none;stroke:#fff;stroke-miterlimit:10;stroke-width:2px;}.cls-2{fill:#fff;}</style></defs><title>vk</title><g id="Слой_1" data-name="Слой 1"><circle class="cls-1" cx="18" cy="18" r="17"/></g><g id="Слой_4" data-name="Слой 4"><path class="cls-2" d="M27.17,21.56h0c-.21-.2-.87-.84-1.09-1.12a.71.71,0,0,1,0-.92c.25-.43.74-1.1,1.26-1.8,1.67-2.25,2.75-3.81,2.53-4.92l-.12-.59H23.55a16.63,16.63,0,0,1-1.71,3.89c-1,1.75-1.63,2.3-1.86,2.4h0a1.85,1.85,0,0,1-.26-1,16.8,16.8,0,0,1,0-2.26,9.89,9.89,0,0,0,0-2.28L19.53,12a12.39,12.39,0,0,0-3.37-.38c-2,0-2.59.27-2.88.52l-1,.84,1.21.41c.46.15.61.33.74,1.22a11.08,11.08,0,0,1,0,2.41c-.13,1.24-.43,1.47-.45,1.48s-.5-.21-1.27-1.84c-.53-1.13-1-2.47-1.35-3.44s-.32-.88-.52-1.41h-6l.39,1C6.74,17,8.22,20.3,10.2,22.64a10.55,10.55,0,0,0,8.57,3.94h.74v-.74a5.16,5.16,0,0,1,.18-1.56,3.87,3.87,0,0,1,.28-.62c.15-.29.31-.42.39-.44a.54.54,0,0,1,.35.15,6.44,6.44,0,0,1,1.1,1.16,5.82,5.82,0,0,0,1.86,1.7,4.69,4.69,0,0,0,1.75.35h4.45l0-.77C29.8,24.67,28.9,23.24,27.17,21.56Zm-1.71,3.55h0a3.52,3.52,0,0,1-1.1-.19A4.56,4.56,0,0,1,23,23.61a7.65,7.65,0,0,0-1.37-1.41,2,2,0,0,0-1.2-.44,1.6,1.6,0,0,0-.35,0A2.1,2.1,0,0,0,18.67,23a4.64,4.64,0,0,0-.6,2.11,9,9,0,0,1-6.74-3.4,30.4,30.4,0,0,1-4.43-8.36H9.7l.15.42a36.57,36.57,0,0,0,1.47,3.73C12.18,19.24,13,20,13.85,20A1.5,1.5,0,0,0,15,19.48a4.39,4.39,0,0,0,.79-2.58,12.74,12.74,0,0,0-.07-2.45,4,4,0,0,0-.36-1.3,17.9,17.9,0,0,1,2.92.14,10.29,10.29,0,0,1,0,1.87c-.11,1.77-.22,3.59.72,4.44a1.55,1.55,0,0,0,.34.23l.48.15c.18-.06,1.25.48,3.26-3a25.73,25.73,0,0,0,1.57-3.27h3.61a21.55,21.55,0,0,1-2.09,3.16,22.46,22.46,0,0,0-1.36,2,2.15,2.15,0,0,0,.11,2.54h0a16.44,16.44,0,0,0,1.25,1.29,9.61,9.61,0,0,1,2,2.49H25.45Z"/></g></svg>