<svg id="Слой_1" data-name="Слой 1" xmlns="http://www.w3.org/2000/svg" viewBox="0 0 36 36"><defs><style>.cls-1,.cls-2{fill:none;stroke:#fff;stroke-width:2px;}.cls-1{stroke-miterlimit:10;}.cls-2{stroke-linecap:round;stroke-linejoin:round;}</style></defs><title>youtube</title><circle class="cls-1" cx="18" cy="18" r="17"/><path class="cls-2" d="M28.4,12.69a2.72,2.72,0,0,0-1.84-2c-1.63-.42-8.14-.42-8.14-.42s-6.52,0-8.14.46a2.72,2.72,0,0,0-1.84,2A30.58,30.58,0,0,0,8,18a30.58,30.58,0,0,0,.44,5.33,2.71,2.71,0,0,0,1.84,1.92c1.63.46,8.14.46,8.14.46s6.52,0,8.14-.46a2.72,2.72,0,0,0,1.84-2A30.58,30.58,0,0,0,28.83,18,30.58,30.58,0,0,0,28.4,12.69Z"/><polygon class="cls-2" points="16.29 21.29 21.73 18.02 16.29 14.75 16.29 21.29"/></svg>